<svg class="main-svg" xmlns="http://www.w3.org/2000/svg" xmlns:xlink="http://www.w3.org/1999/xlink" width="800" height="500" style="" viewBox="0 0 800 500"><rect x="0" y="0" width="800" height="500" style="fill: rgb(255, 255, 255); fill-opacity: 1;"/><defs id="defs-00d9c5"><g class="clips"><clipPath id="clip00d9c5xyplot" class="plotclip"><rect width="609" height="268"/></clipPath><clipPath class="axesclip" id="clip00d9c5x"><rect x="111" y="0" width="609" height="500"/></clipPath><clipPath class="axesclip" id="clip00d9c5y"><rect x="0" y="100" width="800" height="268"/></clipPath><clipPath class="axesclip" id="clip00d9c5xy"><rect x="111" y="100" width="609" height="268"/></clipPath></g><g class="gradients"/></defs><g class="bglayer"/><g class="layer-below"><g class="imagelayer"/><g class="shapelayer"/></g><g class="cartesianlayer"><g class="subplot xy"><g class="layer-subplot"><g class="shapelayer"/><g class="imagelayer"/></g><g class="gridlayer"><g class="x"/><g class="y"/></g><g class="zerolinelayer"><path class="yzl zl crisp" transform="translate(0,101.82)" d="M111,0h609" style="stroke: rgb(0, 44, 117); stroke-opacity: 1; stroke-width: 1px;"/></g><path class="xlines-below"/><path class="ylines-below"/><g class="overlines-below"/><g class="xaxislayer-below"/><g class="yaxislayer-below"/><g class="overaxes-below"/><g class="plot" transform="translate(111, 100)" clip-path="url('#clip00d9c5xyplot')"><g class="scatterlayer mlayer"><g class="trace scatter tracef15547" style="stroke-miterlimit: 2; opacity: 0.5;"><g class="fills"/><g class="errorbars"/><g class="lines"><path class="js-line" d="M0,13.4H2.45V13.4H4.89V13.4H7.34V13.4H9.78V13.4H12.23V13.4H14.67V13.4H17.12V13.4H19.57V13.4H22.01V13.4H24.46V13.4H26.9V13.4H29.35V13.4H31.8V13.4H34.24V13.4H36.69V13.4H39.13V13.4H41.58V13.4H44.02V13.4H46.47V13.4H48.92V13.4H51.36V13.4H53.81V13.4H56.25V13.4H58.7V13.4H61.14V13.4H63.59V13.4H66.04V13.4H68.48V13.4H70.93V13.4H73.37V13.4H75.82V13.4H78.27V13.4H80.71V13.4H83.16V13.4H85.6V13.4H88.05V13.4H90.49V13.4H92.94V13.4H95.39V13.4H97.83V13.4H100.28V13.4H102.72V13.4H105.17V13.4H107.61V13.4H110.06V13.4H112.51V13.4H114.95V13.4H117.4V13.4H119.84V13.4H122.29V13.4H124.73V13.4H127.18V13.4H129.63V13.4H132.07V13.4H134.52V13.4H136.96V13.4H139.41V13.4H141.86V13.4H144.3V13.4H146.75V13.4H149.19V13.4H151.64V13.4H154.08V13.4H156.53V13.4H158.98V13.4H161.42V13.4H163.87V13.4H166.31V13.4H168.76V13.4H171.2V13.4H173.65V13.4H176.1V13.4H178.54V13.4H180.99V13.4H183.43V13.4H185.88V13.4H188.33V13.4H190.77V13.4H193.22V13.4H195.66V13.4H198.11V13.4H200.55V13.4H203V13.4H205.45V13.4H207.89V13.4H210.34V13.4H212.78V13.4H215.23V13.4H217.67V13.4H220.12V13.4H222.57V13.4H225.01V13.4H227.46V13.4H229.9V13.4H232.35V13.4H234.8V13.4H237.24V13.4H239.69V13.4H242.13V13.4H244.58V13.4H247.02V13.4H249.47V13.4H251.92V13.4H254.36V13.4H256.81V13.4H259.25V13.4H261.7V13.4H264.14V13.4H266.59V13.4H269.04V13.4H271.48V13.4H273.93V13.4H276.37V13.4H278.82V13.4H281.27V13.4H283.71V13.4H286.16V13.4H288.6V13.4H291.05V13.4H293.49V13.4H295.94V13.4H298.39V13.4H300.83V13.4H303.28V13.4H305.72V13.4H308.17V13.4H310.61V13.4H313.06V13.4H315.51V13.4H317.95V13.4H320.4V13.4H322.84V13.4H325.29V13.4H327.73V13.4H330.18V13.4H332.63V13.4H335.07V13.4H337.52V13.4H339.96V13.4H342.41V13.4H344.86V13.4H347.3V13.4H349.75V13.4H352.19V13.4H354.64V13.4H357.08V13.4H359.53V13.4H361.98V13.4H364.42V13.4H366.87V13.4H369.31V13.4H371.76V13.4H374.2V13.4H376.65V13.4H379.1V13.4H381.54V13.4H383.99V13.4H386.43V13.4H388.88V13.4H391.33V13.4H393.77V13.4H396.22V13.4H398.66V13.4H401.11V13.4H403.55V13.4H406V13.4H408.45V13.4H410.89V13.4H413.34V13.4H415.78V13.4H418.23V13.4H420.67V13.4H423.12V13.4H425.57V13.4H428.01V13.4H430.46V13.4H432.9V13.4H435.35V13.4H437.8V13.4H440.24V13.4H442.69V13.4H445.13V13.4H447.58V13.4H450.02V13.4H452.47V13.4H454.92V13.4H457.36V13.4H459.81V13.4H462.25V13.4H464.7V13.4H467.14V13.4H469.59V13.4H472.04V13.4H474.48V13.4H476.93V13.4H479.37V13.4H481.82V13.4H484.27V13.4H486.71V13.4H489.16V13.4H491.6V13.4H494.05V13.4H496.49V13.4H498.94V13.4H501.39V13.4H503.83V13.4H506.28V13.4H508.72V13.4H511.17V13.4H513.61V13.4H516.06V13.4H518.51V13.4H520.95V13.4H523.4V13.4H525.84V13.4H528.29V13.4H530.73V13.4H533.18V13.4H535.63V13.4H538.07V13.4H540.52V13.4H542.96V13.4H545.41V13.4H547.86V13.4H550.3V13.4H552.75V13.4H555.19V13.4H557.64V13.4H560.08V13.4H562.53V13.4H564.98V13.4H567.42V13.4H569.87V13.4H572.31V13.4H574.76V13.4H577.2V13.4H579.65V13.4H582.1V13.4H584.54V13.4H586.99V13.4H589.43V13.4H591.88V13.4H594.33V13.4H596.77V13.4H599.22V13.4H601.66V13.4H604.11V13.4H606.55V13.4H609V13.4" style="vector-effect: non-scaling-stroke; fill: none; stroke: rgb(214, 39, 40); stroke-opacity: 1; stroke-width: 3px; opacity: 1; stroke-dasharray: 9px, 9px;"/></g><g class="points"/><g class="text"/></g><g class="trace scatter tracec238b5" style="stroke-miterlimit: 2; opacity: 1;"><g class="fills"/><g class="errorbars"/><g class="lines"><path class="js-line" d="M0,15.18H2.45V15.18H4.89V15.18H7.34V14.86H9.78V14.66H12.23V14.4H14.67V13.91H17.12V226.66H19.57V215.79H22.01V205.66H24.46V195.61H26.9V186.39H29.35V177.47H31.8V254.6H34.24V242.5H36.69V230.89H39.13V220.2H41.58V208.99H44.02V240.26H46.47V229.06H48.92V218.4H51.36V208.36H53.81V198.39H56.25V188.75H58.7V221.82H61.14V210.99H63.59V200.85H66.04V191.48H68.48V182.36H70.93V215.72H73.37V205.52H75.82V195.54H78.27V186.07H80.71V177.58H83.16V169.61H85.6V161.54H88.05V195.91H90.49V186.11H92.94V177.12H95.39V168.9H97.83V160.9H100.28V153.41H102.72V188.36H105.17V179.35H107.61V170.9H110.06V162.23H112.51V154.3H114.95V189.26H117.4V180.37H119.84V172.12H122.29V163.47H124.73V155.64H127.18V190.43H129.63V181.08H132.07V172.03H134.52V164.38H136.96V157.1H139.41V149.84H141.86V142.9H144.3V177.83H146.75V169.52H149.19V161.56H151.64V153.74H154.08V146.34H156.53V139.9H158.98V133.26H161.42V168.96H163.87V160.6H166.31V153H168.76V146.13H171.2V138.95H173.65V132.5H176.1V168.21H178.54V160.29H180.99V153.17H183.43V145.47H185.88V138.7H188.33V132H190.77V167.78H193.22V159.63H195.66V152.05H198.11V144.83H200.55V138.03H203V131.94H205.45V126.22H207.89V120.29H210.34V156.46H212.78V149.15H215.23V141.92H217.67V135.32H220.12V128.62H222.57V123.09H225.01V117.29H227.46V153.61H229.9V145.97H232.35V139.27H234.8V132.76H237.24V126.22H239.69V120.41H242.13V156.99H244.58V149.76H247.02V142.77H249.47V135.8H251.92V129.33H254.36V165.48H256.81V157.8H259.25V150.73H261.7V142.7H264.14V136.01H266.59V171.59H269.04V163.41H271.48V155.64H273.93V148.46H276.37V141.17H278.82V176.15H281.27V167.33H283.71V159.77H286.16V152.29H288.6V145.19H291.05V138.39H293.49V131.76H295.94V167.83H298.39V160.3H300.83V153.04H303.28V145.36H305.72V138.35H308.17V131.82H310.61V168.04H313.06V160.35H315.51V152.6H317.95V145.36H320.4V138.37H322.84V131.53H325.29V167.52H327.73V159.88H330.18V152.27H332.63V144.85H335.07V138.2H337.52V173.44H339.96V164.95H342.41V157.06H344.86V149.98H347.3V142.33H349.75V135.41H352.19V170.8H354.64V163.09H357.08V155.41H359.53V148.52H361.98V141.14H364.42V134.78H366.87V128.73H369.31V164.48H371.76V156.54H374.2V149.25H376.65V142.26H379.1V135.57H381.54V129H383.99V164.9H386.43V157.44H388.88V149.54H391.33V142.36H393.77V135.42H396.22V171.09H398.66V163.13H401.11V155.12H403.55V148.28H406V141.36H408.45V134.57H410.89V170.16H413.34V162.15H415.78V154.72H418.23V147.11H420.67V140.26H423.12V133.46H425.57V169.4H428.01V161.3H430.46V154.18H432.9V146.82H435.35V139.58H437.8V132.78H440.24V168.97H442.69V160.78H445.13V153.08H447.58V145.69H450.02V139.1H452.47V132.29H454.92V168.48H457.36V160.38H459.81V153.02H462.25V145.52H464.7V138.63H467.14V132.3H469.59V167.41H472.04V159.37H474.48V151.53H476.93V144.78H479.37V137.51H481.82V130.89H484.27V167.03H486.71V159.33H489.16V151.88H491.6V144.56H494.05V137.52H496.49V173.38H498.94V165.31H501.39V157.29H503.83V149.84H506.28V142.46H508.72V177.88H511.17V169.46H513.61V161.53H516.06V153.7H518.51V146.85H520.95V139.6H523.4V175.22H525.84V167.22H528.29V158.87H530.73V150.84H533.18V185.35H535.63V176.9H538.07V168.89H540.52V161.2H542.96V153.48H545.41V146H547.86V139H550.3V173.96H552.75V166.09H555.19V158.37H557.64V150.96H560.08V143.97H562.53V137.37H564.98V130.76H567.42V166.71H569.87V158.27H572.31V151.21H574.76V143.75H577.2V136.89H579.65V172.04H582.1V163.95H584.54V155.73H586.99V148.57H589.43V141.52H591.88V134.72H594.33V170H596.77V161.73H599.22V154.37H601.66V147.33H604.11V140.45H606.55V133.69H609V169.54" style="vector-effect: non-scaling-stroke; fill: none; stroke: rgb(31, 119, 180); stroke-opacity: 1; stroke-width: 1px; opacity: 1;"/></g><g class="points"/><g class="text"/></g></g></g><g class="overplot"/><path class="xlines-above crisp" d="M110,368.5H720" style="fill: none; stroke-width: 1px; stroke: rgb(36, 36, 36); stroke-opacity: 1;"/><path class="ylines-above crisp" d="M110.5,100V368" style="fill: none; stroke-width: 1px; stroke: rgb(36, 36, 36); stroke-opacity: 1;"/><g class="overlines-above"/><g class="xaxislayer-above"><path class="xtick ticks crisp" d="M0,369v5" transform="translate(111,0)" style="stroke: rgb(68, 68, 68); stroke-opacity: 1; stroke-width: 1px;"/><path class="xtick ticks crisp" d="M0,369v5" transform="translate(233.29000000000002,0)" style="stroke: rgb(68, 68, 68); stroke-opacity: 1; stroke-width: 1px;"/><path class="xtick ticks crisp" d="M0,369v5" transform="translate(355.58000000000004,0)" style="stroke: rgb(68, 68, 68); stroke-opacity: 1; stroke-width: 1px;"/><path class="xtick ticks crisp" d="M0,369v5" transform="translate(477.87,0)" style="stroke: rgb(68, 68, 68); stroke-opacity: 1; stroke-width: 1px;"/><path class="xtick ticks crisp" d="M0,369v5" transform="translate(600.1600000000001,0)" style="stroke: rgb(68, 68, 68); stroke-opacity: 1; stroke-width: 1px;"/><g class="xtick"><text text-anchor="middle" x="0" y="398" transform="translate(111,0)" style="font-family: 'Open Sans', verdana, arial, sans-serif; font-size: 20px; fill: rgb(36, 36, 36); fill-opacity: 1; white-space: pre;">0</text></g><g class="xtick"><text text-anchor="middle" x="0" y="398" transform="translate(233.29000000000002,0)" style="font-family: 'Open Sans', verdana, arial, sans-serif; font-size: 20px; fill: rgb(36, 36, 36); fill-opacity: 1; white-space: pre;">50</text></g><g class="xtick"><text text-anchor="middle" x="0" y="398" transform="translate(355.58000000000004,0)" style="font-family: 'Open Sans', verdana, arial, sans-serif; font-size: 20px; fill: rgb(36, 36, 36); fill-opacity: 1; white-space: pre;">100</text></g><g class="xtick"><text text-anchor="middle" x="0" y="398" transform="translate(477.87,0)" style="font-family: 'Open Sans', verdana, arial, sans-serif; font-size: 20px; fill: rgb(36, 36, 36); fill-opacity: 1; white-space: pre;">150</text></g><g class="xtick"><text text-anchor="middle" x="0" y="398" transform="translate(600.1600000000001,0)" style="font-family: 'Open Sans', verdana, arial, sans-serif; font-size: 20px; fill: rgb(36, 36, 36); fill-opacity: 1; white-space: pre;">200</text></g></g><g class="yaxislayer-above"><path class="ytick ticks crisp" d="M110,0h-5" transform="translate(0,324.53)" style="stroke: rgb(68, 68, 68); stroke-opacity: 1; stroke-width: 1px;"/><path class="ytick ticks crisp" d="M110,0h-5" transform="translate(0,279.99)" style="stroke: rgb(68, 68, 68); stroke-opacity: 1; stroke-width: 1px;"/><path class="ytick ticks crisp" d="M110,0h-5" transform="translate(0,235.45)" style="stroke: rgb(68, 68, 68); stroke-opacity: 1; stroke-width: 1px;"/><path class="ytick ticks crisp" d="M110,0h-5" transform="translate(0,190.9)" style="stroke: rgb(68, 68, 68); stroke-opacity: 1; stroke-width: 1px;"/><path class="ytick ticks crisp" d="M110,0h-5" transform="translate(0,146.36)" style="stroke: rgb(68, 68, 68); stroke-opacity: 1; stroke-width: 1px;"/><path class="ytick ticks crisp" d="M110,0h-5" transform="translate(0,101.82)" style="stroke: rgb(68, 68, 68); stroke-opacity: 1; stroke-width: 1px;"/><g class="ytick"><text text-anchor="end" x="101" y="7" transform="translate(0,324.53)" style="font-family: 'Open Sans', verdana, arial, sans-serif; font-size: 20px; fill: rgb(36, 36, 36); fill-opacity: 1; white-space: pre;">−1000</text></g><g class="ytick"><text text-anchor="end" x="101" y="7" transform="translate(0,279.99)" style="font-family: 'Open Sans', verdana, arial, sans-serif; font-size: 20px; fill: rgb(36, 36, 36); fill-opacity: 1; white-space: pre;">−800</text></g><g class="ytick"><text text-anchor="end" x="101" y="7" transform="translate(0,235.45)" style="font-family: 'Open Sans', verdana, arial, sans-serif; font-size: 20px; fill: rgb(36, 36, 36); fill-opacity: 1; white-space: pre;">−600</text></g><g class="ytick"><text text-anchor="end" x="101" y="7" transform="translate(0,190.9)" style="font-family: 'Open Sans', verdana, arial, sans-serif; font-size: 20px; fill: rgb(36, 36, 36); fill-opacity: 1; white-space: pre;">−400</text></g><g class="ytick"><text text-anchor="end" x="101" y="7" transform="translate(0,146.36)" style="font-family: 'Open Sans', verdana, arial, sans-serif; font-size: 20px; fill: rgb(36, 36, 36); fill-opacity: 1; white-space: pre;">−200</text></g><g class="ytick"><text text-anchor="end" x="101" y="7" transform="translate(0,101.82)" style="font-family: 'Open Sans', verdana, arial, sans-serif; font-size: 20px; fill: rgb(36, 36, 36); fill-opacity: 1; white-space: pre;">0</text></g></g><g class="overaxes-above"/></g></g><g class="polarlayer"/><g class="ternarylayer"/><g class="geolayer"/><g class="funnelarealayer"/><g class="pielayer"/><g class="treemaplayer"/><g class="sunburstlayer"/><g class="glimages"/><defs id="topdefs-00d9c5"><g class="clips"/><clipPath id="legend00d9c5"><rect width="400" height="37" x="1" y="1"/></clipPath></defs><g class="layer-above"><g class="imagelayer"/><g class="shapelayer"/></g><g class="infolayer"><g class="legend" pointer-events="all" transform="translate(111, 448.40000000000003)"><rect class="bg" shape-rendering="crispEdges" width="401" height="38" x="0.5" y="0.5" style="stroke: rgb(5, 5, 25); stroke-opacity: 0; fill: rgb(5, 5, 25); fill-opacity: 0; stroke-width: 1px;"/><g class="scrollbox" transform="translate(0, 0)" clip-path="url('#legend00d9c5')"><g class="groups"><g class="traces" transform="translate(1, 19.200000000000003)" style="opacity: 1;"><text class="legendtext user-select-none" text-anchor="start" x="40" y="7.0200000000000005" style="font-family: 'Open Sans', verdana, arial, sans-serif; font-size: 18px; fill: rgb(0, 0, 0); fill-opacity: 1; white-space: pre;">Порог активации</text><g class="layers" style="opacity: 0.5;"><g class="legendfill"/><g class="legendlines"><path class="js-line" d="M5,0h30" style="fill: none; stroke: rgb(214, 39, 40); stroke-opacity: 1; stroke-dasharray: 9px, 9px; stroke-width: 3px;"/></g><g class="legendsymbols"><g class="legendpoints"/></g></g><rect class="legendtoggle" pointer-events="all" x="0" y="-13.200000000000001" width="183.21875" height="26.400000000000002" style="cursor: pointer; fill: rgb(0, 0, 0); fill-opacity: 0;"/></g><g class="traces" transform="translate(186.71875, 19.200000000000003)" style="opacity: 1;"><text class="legendtext user-select-none" text-anchor="start" x="40" y="7.0200000000000005" style="font-family: 'Open Sans', verdana, arial, sans-serif; font-size: 18px; fill: rgb(0, 0, 0); fill-opacity: 1; white-space: pre;">Потенциал нейрона</text><g class="layers" style="opacity: 1;"><g class="legendfill"/><g class="legendlines"><path class="js-line" d="M5,0h30" style="fill: none; stroke: rgb(31, 119, 180); stroke-opacity: 1; stroke-width: 1px;"/></g><g class="legendsymbols"><g class="legendpoints"/></g></g><rect class="legendtoggle" pointer-events="all" x="0" y="-13.200000000000001" width="210.90625" height="26.400000000000002" style="cursor: pointer; fill: rgb(0, 0, 0); fill-opacity: 0;"/></g></g></g><rect class="scrollbar" rx="20" ry="3" width="0" height="0" x="0" y="0" style="fill: rgb(128, 139, 164); fill-opacity: 1;"/></g><g class="g-gtitle"/><g class="g-xtitle"><text class="xtitle" x="415.5" y="433.8" text-anchor="middle" style="font-family: 'Open Sans', verdana, arial, sans-serif; font-size: 24px; fill: rgb(36, 36, 36); opacity: 1; font-weight: normal; white-space: pre;">Время, мс</text></g><g class="g-ytitle" transform="translate(9.9716796875,0)"><text class="ytitle" transform="rotate(-90,12.028125000000003,234)" x="12.028125000000003" y="234" text-anchor="middle" style="font-family: 'Open Sans', verdana, arial, sans-serif; font-size: 24px; fill: rgb(36, 36, 36); opacity: 1; font-weight: normal; white-space: pre;">Напряжение, мВ</text></g></g></svg>