<svg class="main-svg" xmlns="http://www.w3.org/2000/svg" xmlns:xlink="http://www.w3.org/1999/xlink" width="800" height="500" style="" viewBox="0 0 800 500"><rect x="0" y="0" width="800" height="500" style="fill: rgb(255, 255, 255); fill-opacity: 1;"/><defs id="defs-796550"><g class="clips"><clipPath id="clip796550xyplot" class="plotclip"><rect width="609" height="268"/></clipPath><clipPath class="axesclip" id="clip796550x"><rect x="111" y="0" width="609" height="500"/></clipPath><clipPath class="axesclip" id="clip796550y"><rect x="0" y="100" width="800" height="268"/></clipPath><clipPath class="axesclip" id="clip796550xy"><rect x="111" y="100" width="609" height="268"/></clipPath></g><g class="gradients"/></defs><g class="bglayer"/><g class="layer-below"><g class="imagelayer"/><g class="shapelayer"/></g><g class="cartesianlayer"><g class="subplot xy"><g class="layer-subplot"><g class="shapelayer"/><g class="imagelayer"/></g><g class="gridlayer"><g class="x"/><g class="y"/></g><g class="zerolinelayer"><path class="yzl zl crisp" transform="translate(0,104.9)" d="M111,0h609" style="stroke: rgb(0, 44, 117); stroke-opacity: 1; stroke-width: 1px;"/></g><path class="xlines-below"/><path class="ylines-below"/><g class="overlines-below"/><g class="xaxislayer-below"/><g class="yaxislayer-below"/><g class="overaxes-below"/><g class="plot" transform="translate(111,100)" clip-path="url('#clip796550xyplot')"><g class="scatterlayer mlayer"><g class="trace scatter trace2523b6" style="stroke-miterlimit: 2; opacity: 0.5;"><g class="fills"/><g class="errorbars"/><g class="lines"><path class="js-line" d="M0,13.4H2.45V13.4H4.89V13.4H7.34V13.4H9.78V13.4H12.23V13.4H14.67V13.4H17.12V13.4H19.57V13.4H22.01V13.4H24.46V13.4H26.9V13.4H29.35V13.4H31.8V13.4H34.24V13.4H36.69V13.4H39.13V13.4H41.58V13.4H44.02V13.4H46.47V13.4H48.92V13.4H51.36V13.4H53.81V13.4H56.25V13.4H58.7V13.4H61.14V13.4H63.59V13.4H66.04V13.4H68.48V13.4H70.93V13.4H73.37V13.4H75.82V13.4H78.27V13.4H80.71V13.4H83.16V13.4H85.6V13.4H88.05V13.4H90.49V13.4H92.94V13.4H95.39V13.4H97.83V13.4H100.28V13.4H102.72V13.4H105.17V13.4H107.61V13.4H110.06V13.4H112.51V13.4H114.95V13.4H117.4V13.4H119.84V13.4H122.29V13.4H124.73V13.4H127.18V13.4H129.63V13.4H132.07V13.4H134.52V13.4H136.96V13.4H139.41V13.4H141.86V13.4H144.3V13.4H146.75V13.4H149.19V13.4H151.64V13.4H154.08V13.4H156.53V13.4H158.98V13.4H161.42V13.4H163.87V13.4H166.31V13.4H168.76V13.4H171.2V13.4H173.65V13.4H176.1V13.4H178.54V13.4H180.99V13.4H183.43V13.4H185.88V13.4H188.33V13.4H190.77V13.4H193.22V13.4H195.66V13.4H198.11V13.4H200.55V13.4H203V13.4H205.45V13.4H207.89V13.4H210.34V13.4H212.78V13.4H215.23V13.4H217.67V13.4H220.12V13.4H222.57V13.4H225.01V13.4H227.46V13.4H229.9V13.4H232.35V13.4H234.8V13.4H237.24V13.4H239.69V13.4H242.13V13.4H244.58V13.4H247.02V13.4H249.47V13.4H251.92V13.4H254.36V13.4H256.81V13.4H259.25V13.4H261.7V13.4H264.14V13.4H266.59V13.4H269.04V13.4H271.48V13.4H273.93V13.4H276.37V13.4H278.82V13.4H281.27V13.4H283.71V13.4H286.16V13.4H288.6V13.4H291.05V13.4H293.49V13.4H295.94V13.4H298.39V13.4H300.83V13.4H303.28V13.4H305.72V13.4H308.17V13.4H310.61V13.4H313.06V13.4H315.51V13.4H317.95V13.4H320.4V13.4H322.84V13.4H325.29V13.4H327.73V13.4H330.18V13.4H332.63V13.4H335.07V13.4H337.52V13.4H339.96V13.4H342.41V13.4H344.86V13.4H347.3V13.4H349.75V13.4H352.19V13.4H354.64V13.4H357.08V13.4H359.53V13.4H361.98V13.4H364.42V13.4H366.87V13.4H369.31V13.4H371.76V13.4H374.2V13.4H376.65V13.4H379.1V13.4H381.54V13.4H383.99V13.4H386.43V13.4H388.88V13.4H391.33V13.4H393.77V13.4H396.22V13.4H398.66V13.4H401.11V13.4H403.55V13.4H406V13.4H408.45V13.4H410.89V13.4H413.34V13.4H415.78V13.4H418.23V13.4H420.67V13.4H423.12V13.4H425.57V13.4H428.01V13.4H430.46V13.4H432.9V13.4H435.35V13.4H437.8V13.4H440.24V13.4H442.69V13.4H445.13V13.4H447.58V13.4H450.02V13.4H452.47V13.4H454.92V13.4H457.36V13.4H459.81V13.4H462.25V13.4H464.7V13.4H467.14V13.4H469.59V13.4H472.04V13.4H474.48V13.4H476.93V13.4H479.37V13.4H481.82V13.4H484.27V13.4H486.71V13.4H489.16V13.4H491.6V13.4H494.05V13.4H496.49V13.4H498.94V13.4H501.39V13.4H503.83V13.4H506.28V13.4H508.72V13.4H511.17V13.4H513.61V13.4H516.06V13.4H518.51V13.4H520.95V13.4H523.4V13.4H525.84V13.4H528.29V13.4H530.73V13.4H533.18V13.4H535.63V13.4H538.07V13.4H540.52V13.4H542.96V13.4H545.41V13.4H547.86V13.4H550.3V13.4H552.75V13.4H555.19V13.4H557.64V13.4H560.08V13.4H562.53V13.4H564.98V13.4H567.42V13.4H569.87V13.4H572.31V13.4H574.76V13.4H577.2V13.4H579.65V13.4H582.1V13.4H584.54V13.4H586.99V13.4H589.43V13.4H591.88V13.4H594.33V13.4H596.77V13.4H599.22V13.4H601.66V13.4H604.11V13.4H606.55V13.4H609V13.4" style="vector-effect: non-scaling-stroke; fill: none; stroke: rgb(214, 39, 40); stroke-opacity: 1; stroke-width: 3px; opacity: 1; stroke-dasharray: 9px, 9px;"/></g><g class="points"/><g class="text"/></g><g class="trace scatter tracea36269" style="stroke-miterlimit: 2; opacity: 1;"><g class="fills"/><g class="errorbars"/><g class="lines"><path class="js-line" d="M0,14.71H2.45V14.71H4.89V14.71H7.34V14.56H9.78V14.56H12.23V14.37H14.67V13.99H17.12V13.87H19.57V85.5H22.01V81.99H24.46V78.53H26.9V75.42H29.35V72.12H31.8V68.97H34.24V66.14H36.69V63.36H39.13V132.46H41.58V126.66H44.02V121.1H46.47V115.58H48.92V110.4H51.36V105.6H53.81V100.92H56.25V96.3H58.7V163.87H61.14V156.49H63.59V149.3H66.04V142.63H68.48V136.19H70.93V130.05H73.37V123.99H75.82V190.25H78.27V181.49H80.71V172.87H83.16V164.96H85.6V157.63H88.05V150.6H90.49V143.91H92.94V137.22H95.39V202.85H97.83V193.29H100.28V184.38H102.72V175.96H105.17V167.64H107.61V160.03H110.06V152.73H112.51V145.73H114.95V210.93H117.4V200.87H119.84V191.76H122.29V182.84H124.73V174.56H127.18V166.55H129.63V158.94H132.07V151.44H134.52V216.39H136.96V206.5H139.41V196.67H141.86V187.56H144.3V178.84H146.75V170.5H149.19V234.49H151.64V223.59H154.08V213.28H156.53V203.39H158.98V193.9H161.42V185.1H163.87V176.52H166.31V168.35H168.76V232.49H171.2V221.29H173.65V211.06H176.1V201.49H178.54V191.98H180.99V183.04H183.43V174.36H185.88V238.29H188.33V227.19H190.77V216.64H193.22V206.57H195.66V196.94H198.11V187.8H200.55V179.32H203V170.87H205.45V234.8H207.89V223.96H210.34V213.67H212.78V203.41H215.23V194.16H217.67V185.27H220.12V176.46H222.57V240.31H225.01V229.24H227.46V218.57H229.9V208.57H232.35V198.7H234.8V189.7H237.24V180.87H239.69V244.5H242.13V232.66H244.58V221.83H247.02V211.61H249.47V201.86H251.92V192.53H254.36V183.7H256.81V175.17H259.25V238.71H261.7V227.54H264.14V217.05H266.59V206.94H269.04V197.15H271.48V188.18H273.93V179.72H276.37V171.26H278.82V235.34H281.27V224.17H283.71V213.67H286.16V203.62H288.6V194.26H291.05V185.37H293.49V176.69H295.94V240.07H298.39V228.82H300.83V218.38H303.28V208.07H305.72V198.35H308.17V189.11H310.61V180.44H313.06V243.79H315.51V232.18H317.95V221.41H320.4V211.05H322.84V200.91H325.29V191.58H327.73V254.6H330.18V242.9H332.63V231.6H335.07V220.86H337.52V210.45H339.96V200.7H342.41V191.39H344.86V254.45H347.3V242.46H349.75V231.27H352.19V220.44H354.64V210.18H357.08V200.36H359.53V191.09H361.98V253.93H364.42V242.04H366.87V230.88H369.31V220.31H371.76V210.28H374.2V200.4H376.65V191.04H379.1V182.24H381.54V173.76H383.99V237.32H386.43V226.24H388.88V215.67H391.33V205.56H393.77V196.25H396.22V186.87H398.66V250.22H401.11V238.73H403.55V227.66H406V217H408.45V206.91H410.89V197.37H413.34V188.12H415.78V251.27H418.23V239.31H420.67V228.08H423.12V217.49H425.57V207.39H428.01V198H430.46V188.95H432.9V180.13H435.35V243.59H437.8V231.87H440.24V221.08H442.69V210.99H445.13V201.35H447.58V192.11H450.02V183.19H452.47V246.62H454.92V234.98H457.36V224.07H459.81V213.68H462.25V203.63H464.7V194.27H467.14V185.21H469.59V248.44H472.04V236.97H474.48V225.81H476.93V215.23H479.37V205.13H481.82V195.66H484.27V218.2H486.71V208.1H489.16V198.65H491.6V189.56H494.05V180.78H496.49V172.51H498.94V164.28H501.39V156.99H503.83V149.53H506.28V174.31H508.72V166.4H511.17V158.64H513.61V151.47H516.06V144.54H518.51V137.86H520.95V163.23H523.4V155.74H525.84V148.54H528.29V141.9H530.73V135.49H533.18V129.48H535.63V123.61H538.07V118.19H540.52V144.33H542.96V137.8H545.41V131.5H547.86V125.66H550.3V120.04H552.75V114.59H555.19V109.59H557.64V136.21H560.08V130.15H562.53V124.15H564.98V118.7H567.42V113.34H569.87V108.49H572.31V103.77H574.76V99.26H577.2V126.26H579.65V120.22H582.1V114.82H584.54V109.75H586.99V104.96H589.43V100.49H591.88V95.87H594.33V123.33H596.77V117.89H599.22V112.8H601.66V107.89H604.11V102.79H606.55V98.22H609V94.13" style="vector-effect: non-scaling-stroke; fill: none; stroke: rgb(31, 119, 180); stroke-opacity: 1; stroke-width: 1px; opacity: 1;"/></g><g class="points"/><g class="text"/></g></g></g><g class="overplot"/><path class="xlines-above crisp" d="M110,368.5H720" style="fill: none; stroke-width: 1px; stroke: rgb(36, 36, 36); stroke-opacity: 1;"/><path class="ylines-above crisp" d="M110.5,100V368" style="fill: none; stroke-width: 1px; stroke: rgb(36, 36, 36); stroke-opacity: 1;"/><g class="overlines-above"/><g class="xaxislayer-above"><path class="xtick ticks crisp" d="M0,369v5" transform="translate(111,0)" style="stroke: rgb(68, 68, 68); stroke-opacity: 1; stroke-width: 1px;"/><path class="xtick ticks crisp" d="M0,369v5" transform="translate(233.29000000000002,0)" style="stroke: rgb(68, 68, 68); stroke-opacity: 1; stroke-width: 1px;"/><path class="xtick ticks crisp" d="M0,369v5" transform="translate(355.58000000000004,0)" style="stroke: rgb(68, 68, 68); stroke-opacity: 1; stroke-width: 1px;"/><path class="xtick ticks crisp" d="M0,369v5" transform="translate(477.87,0)" style="stroke: rgb(68, 68, 68); stroke-opacity: 1; stroke-width: 1px;"/><path class="xtick ticks crisp" d="M0,369v5" transform="translate(600.1600000000001,0)" style="stroke: rgb(68, 68, 68); stroke-opacity: 1; stroke-width: 1px;"/><g class="xtick"><text text-anchor="middle" x="0" y="398" transform="translate(111,0)" style="font-family: 'Open Sans', verdana, arial, sans-serif; font-size: 20px; fill: rgb(36, 36, 36); fill-opacity: 1; white-space: pre;">0</text></g><g class="xtick"><text text-anchor="middle" x="0" y="398" transform="translate(233.29000000000002,0)" style="font-family: 'Open Sans', verdana, arial, sans-serif; font-size: 20px; fill: rgb(36, 36, 36); fill-opacity: 1; white-space: pre;">50</text></g><g class="xtick"><text text-anchor="middle" x="0" y="398" transform="translate(355.58000000000004,0)" style="font-family: 'Open Sans', verdana, arial, sans-serif; font-size: 20px; fill: rgb(36, 36, 36); fill-opacity: 1; white-space: pre;">100</text></g><g class="xtick"><text text-anchor="middle" x="0" y="398" transform="translate(477.87,0)" style="font-family: 'Open Sans', verdana, arial, sans-serif; font-size: 20px; fill: rgb(36, 36, 36); fill-opacity: 1; white-space: pre;">150</text></g><g class="xtick"><text text-anchor="middle" x="0" y="398" transform="translate(600.1600000000001,0)" style="font-family: 'Open Sans', verdana, arial, sans-serif; font-size: 20px; fill: rgb(36, 36, 36); fill-opacity: 1; white-space: pre;">200</text></g></g><g class="yaxislayer-above"><path class="ytick ticks crisp" d="M110,0h-5" transform="translate(0,350.22)" style="stroke: rgb(68, 68, 68); stroke-opacity: 1; stroke-width: 1px;"/><path class="ytick ticks crisp" d="M110,0h-5" transform="translate(0,268.44)" style="stroke: rgb(68, 68, 68); stroke-opacity: 1; stroke-width: 1px;"/><path class="ytick ticks crisp" d="M110,0h-5" transform="translate(0,186.67000000000002)" style="stroke: rgb(68, 68, 68); stroke-opacity: 1; stroke-width: 1px;"/><path class="ytick ticks crisp" d="M110,0h-5" transform="translate(0,104.9)" style="stroke: rgb(68, 68, 68); stroke-opacity: 1; stroke-width: 1px;"/><g class="ytick"><text text-anchor="end" x="101" y="7" transform="translate(0,350.22)" style="font-family: 'Open Sans', verdana, arial, sans-serif; font-size: 20px; fill: rgb(36, 36, 36); fill-opacity: 1; white-space: pre;">−1500</text></g><g class="ytick"><text text-anchor="end" x="101" y="7" transform="translate(0,268.44)" style="font-family: 'Open Sans', verdana, arial, sans-serif; font-size: 20px; fill: rgb(36, 36, 36); fill-opacity: 1; white-space: pre;">−1000</text></g><g class="ytick"><text text-anchor="end" x="101" y="7" transform="translate(0,186.67000000000002)" style="font-family: 'Open Sans', verdana, arial, sans-serif; font-size: 20px; fill: rgb(36, 36, 36); fill-opacity: 1; white-space: pre;">−500</text></g><g class="ytick"><text text-anchor="end" x="101" y="7" transform="translate(0,104.9)" style="font-family: 'Open Sans', verdana, arial, sans-serif; font-size: 20px; fill: rgb(36, 36, 36); fill-opacity: 1; white-space: pre;">0</text></g></g><g class="overaxes-above"/></g></g><g class="polarlayer"/><g class="ternarylayer"/><g class="geolayer"/><g class="funnelarealayer"/><g class="pielayer"/><g class="treemaplayer"/><g class="sunburstlayer"/><g class="glimages"/><defs id="topdefs-796550"><g class="clips"/><clipPath id="legend796550"><rect width="420" height="37" x="1" y="1"/></clipPath></defs><g class="layer-above"><g class="imagelayer"/><g class="shapelayer"/></g><g class="infolayer"><g class="legend" pointer-events="all" transform="translate(111,448.40000000000003)"><rect class="bg" shape-rendering="crispEdges" width="421" height="38" x="0.5" y="0.5" style="stroke: rgb(5, 5, 25); stroke-opacity: 0; fill: rgb(5, 5, 25); fill-opacity: 0; stroke-width: 1px;"/><g class="scrollbox" transform="" clip-path="url('#legend796550')"><g class="groups"><g class="traces" transform="translate(1,19.200000000000003)" style="opacity: 1;"><text class="legendtext" text-anchor="start" x="40" y="7.0200000000000005" style="font-family: 'Open Sans', verdana, arial, sans-serif; font-size: 18px; fill: rgb(0, 0, 0); fill-opacity: 1; white-space: pre;">Порог активации</text><g class="layers" style="opacity: 0.5;"><g class="legendfill"/><g class="legendlines"><path class="js-line" d="M5,0h30" style="fill: none; stroke: rgb(214, 39, 40); stroke-opacity: 1; stroke-dasharray: 9px, 9px; stroke-width: 3px;"/></g><g class="legendsymbols"><g class="legendpoints"/></g></g><rect class="legendtoggle" x="0" y="-13.200000000000001" width="194.28125" height="26.400000000000002" style="fill: rgb(0, 0, 0); fill-opacity: 0;"/></g><g class="traces" transform="translate(197.78125,19.200000000000003)" style="opacity: 1;"><text class="legendtext" text-anchor="start" x="40" y="7.0200000000000005" style="font-family: 'Open Sans', verdana, arial, sans-serif; font-size: 18px; fill: rgb(0, 0, 0); fill-opacity: 1; white-space: pre;">Потенциал нейрона</text><g class="layers" style="opacity: 1;"><g class="legendfill"/><g class="legendlines"><path class="js-line" d="M5,0h30" style="fill: none; stroke: rgb(31, 119, 180); stroke-opacity: 1; stroke-width: 1px;"/></g><g class="legendsymbols"><g class="legendpoints"/></g></g><rect class="legendtoggle" x="0" y="-13.200000000000001" width="220.28125" height="26.400000000000002" style="fill: rgb(0, 0, 0); fill-opacity: 0;"/></g></g></g><rect class="scrollbar" rx="20" ry="3" width="0" height="0" x="0" y="0" style="fill: rgb(128, 139, 164); fill-opacity: 1;"/></g><g class="g-gtitle"/><g class="g-xtitle"><text class="xtitle" x="415.5" y="435.8" text-anchor="middle" style="font-family: 'Open Sans', verdana, arial, sans-serif; font-size: 24px; fill: rgb(36, 36, 36); opacity: 1; font-weight: normal; white-space: pre;">Время, мс</text></g><g class="g-ytitle" transform="translate(13.9873046875,0)"><text class="ytitle" transform="rotate(-90,12.012500000000003,234)" x="12.012500000000003" y="234" text-anchor="middle" style="font-family: 'Open Sans', verdana, arial, sans-serif; font-size: 24px; fill: rgb(36, 36, 36); opacity: 1; font-weight: normal; white-space: pre;">Напряжение, мВ</text></g></g></svg>