<svg class="main-svg" xmlns="http://www.w3.org/2000/svg" xmlns:xlink="http://www.w3.org/1999/xlink" width="900" height="600" style="" viewBox="0 0 900 600"><rect x="0" y="0" width="900" height="600" style="fill: rgb(255, 255, 255); fill-opacity: 1;"/><defs id="defs-c20cf5"><g class="clips"><clipPath id="clipc20cf5xyplot" class="plotclip"><rect width="732" height="325"/></clipPath><clipPath class="axesclip" id="clipc20cf5x"><rect x="88" y="0" width="732" height="600"/></clipPath><clipPath class="axesclip" id="clipc20cf5y"><rect x="0" y="100" width="900" height="325"/></clipPath><clipPath class="axesclip" id="clipc20cf5xy"><rect x="88" y="100" width="732" height="325"/></clipPath></g><g class="gradients"/></defs><g class="bglayer"/><g class="layer-below"><g class="imagelayer"/><g class="shapelayer"/></g><g class="cartesianlayer"><g class="subplot xy"><g class="layer-subplot"><g class="shapelayer"/><g class="imagelayer"/></g><g class="gridlayer"><g class="x"/><g class="y"/></g><g class="zerolinelayer"><path class="xzl zl crisp" transform="translate(103.19,0)" d="M0,100v325" style="stroke: rgb(0, 44, 117); stroke-opacity: 1; stroke-width: 1px;"/></g><path class="xlines-below"/><path class="ylines-below"/><g class="overlines-below"/><g class="xaxislayer-below"/><g class="yaxislayer-below"/><g class="overaxes-below"/><g class="plot" transform="translate(88,100)" clip-path="url('#clipc20cf5xyplot')"><g class="scatterlayer mlayer"><g class="trace scatter tracecaf654" style="stroke-miterlimit: 2; opacity: 0.5;"><g class="fills"/><g class="errorbars"/><g class="lines"><path class="js-line" d="M15.19,308.75H714.01V308.75" style="vector-effect: non-scaling-stroke; fill: none; stroke: rgb(44, 160, 44); stroke-opacity: 1; stroke-width: 3px; opacity: 1; stroke-dasharray: 9px, 9px;"/></g><g class="points"/><g class="text"/></g><g class="trace scatter trace258172" style="stroke-miterlimit: 2; opacity: 0.5;"><g class="fills"/><g class="errorbars"/><g class="lines"><path class="js-line" d="M15.19,49.87H17.99V49.87H20.78V49.87H23.58V49.87H26.37V49.87H29.17V49.87H31.96V49.87H34.76V49.87H37.55V49.87H40.35V48.87H43.15V48.87H45.94V48.87H48.74V48.87H51.53V48.87H54.33V48.87H57.12V47.88H59.92V47.88H62.71V47.88H65.51V47.88H68.3V47.88H71.1V47.88H73.89V47.88H76.69V46.88H79.48V46.88H82.28V46.88H85.07V46.88H87.87V46.88H90.67V46.88H93.46V46.88H96.26V46.88H99.05V45.88H101.85V45.88H104.64V45.88H107.44V45.88H110.23V45.88H113.03V45.88H115.82V45.88H118.62V45.88H121.41V44.89H124.21V44.89H127V44.89H129.8V44.89H132.59V44.89H135.39V44.89H138.18V44.89H140.98V44.89H143.78V44.89H146.57V43.89H149.37V43.89H152.16V43.89H154.96V43.89H157.75V43.89H160.55V43.89H163.34V43.89H166.14V42.9H168.93V42.9H171.73V42.9H174.52V42.9H177.32V42.9H180.11V42.9H182.91V41.9H185.7V41.9H188.5V41.9H191.3V41.9H194.09V41.9H196.89V41.9H199.68V41.9H202.48V41.9H205.27V40.91H208.07V40.91H210.86V40.91H213.66V40.91H216.45V40.91H219.25V40.91H222.04V40.91H224.84V40.91H227.63V40.91H230.43V39.91H233.22V39.91H236.02V39.91H238.81V39.91H241.61V39.91H244.41V39.91H247.2V39.91H250V38.92H252.79V38.92H255.59V38.92H258.38V38.92H261.18V38.92H263.97V38.92H266.77V38.92H269.56V38.92H272.36V38.92H275.15V37.92H277.95V37.92H280.74V37.92H283.54V37.92H286.33V37.92H289.13V37.92H291.93V37.92H294.72V36.92H297.52V36.92H300.31V36.92H303.11V36.92H305.9V36.92H308.7V36.92H311.49V36.92H314.29V35.93H317.08V35.93H319.88V35.93H322.67V35.93H325.47V35.93H328.26V35.93H331.06V35.93H333.85V35.93H336.65V34.93H339.44V34.93H342.24V34.93H345.04V34.93H347.83V34.93H350.63V34.93H353.42V33.94H356.22V33.94H359.01V33.94H361.81V33.94H364.6V33.94H367.4V33.94H370.19V33.94H372.99V32.94H375.78V32.94H378.58V32.94H381.37V32.94H384.17V32.94H386.96V32.94H389.76V32.94H392.56V32.94H395.35V32.94H398.15V31.95H400.94V31.95H403.74V31.95H406.53V31.95H409.33V31.95H412.12V31.95H414.92V31.95H417.71V31.95H420.51V30.95H423.3V30.95H426.1V30.95H428.89V30.95H431.69V30.95H434.48V30.95H437.28V30.95H440.07V30.95H442.87V30.95H445.67V29.95H448.46V29.95H451.26V29.95H454.05V29.95H456.85V29.95H459.64V29.95H462.44V28.96H465.23V28.96H468.03V28.96H470.82V28.96H473.62V28.96H476.41V28.96H479.21V28.96H482V28.96H484.8V28.96H487.59V27.96H490.39V27.96H493.19V27.96H495.98V27.96H498.78V27.96H501.57V27.96H504.37V27.96H507.16V27.96H509.96V27.96H512.75V26.97H515.55V26.97H518.34V26.97H521.14V26.97H523.93V26.97H526.73V26.97H529.52V26.97H532.32V26.97H535.11V25.97H537.91V25.97H540.7V25.97H543.5V25.97H546.3V25.97H549.09V25.97H551.89V25.97H554.68V25.97H557.48V25.97H560.27V24.98H563.07V24.98H565.86V24.98H568.66V24.98H571.45V24.98H574.25V24.98H577.04V24.98H579.84V24.98H582.63V24.98H585.43V23.98H588.22V23.98H591.02V23.98H593.82V23.98H596.61V23.98H599.41V23.98H602.2V23.98H605V23.98H607.79V22.99H610.59V22.99H613.38V22.99H616.18V22.99H618.97V22.99H621.77V22.99H624.56V22.99H627.36V22.99H630.15V21.99H632.95V21.99H635.74V21.99H638.54V21.99H641.33V21.99H644.13V21.99H646.93V21H649.72V21H652.52V21H655.31V21H658.11V21H660.9V21H663.7V21H666.49V21H669.29V21H672.08V21H674.88V20H677.67V20H680.47V20H683.26V20H686.06V20H688.85V20H691.65V19H694.45V19H697.24V19H700.04V19H702.83V19H705.63V19H708.42V19H711.22V19" style="vector-effect: non-scaling-stroke; fill: none; stroke: rgb(214, 39, 40); stroke-opacity: 1; stroke-width: 3px; opacity: 1; stroke-dasharray: 9px, 9px;"/></g><g class="points"/><g class="text"/></g><g class="trace scatter trace77f411" style="stroke-miterlimit: 2; opacity: 0.5;"><g class="fills"/><g class="errorbars"/><g class="lines"><path class="js-line" d="M15.19,209.18H714.01V209.18" style="vector-effect: non-scaling-stroke; fill: none; stroke: rgb(148, 103, 189); stroke-opacity: 1; stroke-width: 3px; opacity: 1; stroke-dasharray: 9px, 9px;"/></g><g class="points"/><g class="text"/></g><g class="trace scatter trace80411a" style="stroke-miterlimit: 2; opacity: 1;"><g class="fills"/><g class="errorbars"/><g class="lines"><path class="js-line" d="M15.19,209.18H17.99V209.18H20.78V209.18H23.58V189.44H26.37V190.4H29.17V151.83H31.96V115.32H34.76V80.41H37.55V66.95H40.35V49.87H43.15V303.89H45.94V299.27H48.74V216.24H51.53V176.4H54.33V99.25H57.12V48.87H59.92V303.89H62.71V299.27H65.51V275.14H68.3V212.75H71.1V173.09H73.89V135.37H76.69V47.88H79.48V303.89H82.28V299.27H85.07V275.32H87.87V232.6H90.67V192.2H93.46V173.29H96.26V96.06H99.05V46.88H101.85V303.89H104.64V299.27H107.44V157.06H110.23V120.12H113.03V124.46H115.82V108.85H118.62V74.54H121.41V45.88H124.21V303.89H127V299.27H129.8V275.14H132.59V232.43H135.39V152.55H138.18V115.83H140.98V61.15H143.78V68.37H146.57V44.89H149.37V303.89H152.16V299.27H154.96V235.89H157.75V195.1H160.55V117.04H163.34V82.41H166.14V43.89H168.93V303.89H171.73V299.27H174.52V196.22H177.32V118.1H180.11V63.31H182.91V42.9H185.7V303.89H188.5V299.27H191.3V255.57H194.09V233.57H196.89V153.41H199.68V156.13H202.48V99.71H205.27V41.9H208.07V303.89H210.86V299.27H213.66V255.4H216.45V253.14H219.25V211.69H222.04V152.34H224.84V76.14H227.63V62.88H230.43V40.91H233.22V303.89H236.02V299.27H238.81V235.88H241.61V175.49H244.41V157.45H247.2V81H250V39.91H252.79V303.89H255.59V299.27H258.38V196.39H261.18V157.75H263.97V140.51H266.77V65.03H269.56V72.06H272.36V59.01H275.15V38.92H277.95V303.89H280.74V299.27H283.54V275.14H286.33V212.75H289.13V212.57H291.93V54.83H294.72V37.92H297.52V303.89H300.31V299.27H303.11V235.71H305.9V214.67H308.7V135.58H311.49V60.19H314.29V36.92H317.08V303.89H319.88V299.27H322.67V235.83H325.47V214.79H328.26V175.03H331.06V137.21H333.85V101.23H336.65V35.93H339.44V303.89H342.24V299.27H345.04V255.4H347.83V193.91H350.63V115.9H353.42V34.93H356.22V303.89H359.01V299.27H361.81V255.57H364.6V174.56H367.4V117.02H370.19V62.35H372.99V33.94H375.78V303.89H378.58V299.27H381.37V215.91H384.17V156.53H386.96V139.5H389.76V123.15H392.56V87.86H395.35V54.47H398.15V32.94H400.94V303.89H403.74V299.27H406.53V216.13H409.33V196.1H412.12V137.51H414.92V101.52H417.71V67.51H420.51V31.95H423.3V303.89H426.1V299.27H428.89V235.83H431.69V214.79H434.48V155.65H437.28V138.52H440.07V122.22H442.87V67.23H445.67V30.95H448.46V303.89H451.26V299.27H454.05V176.42H456.85V119.22H459.64V103.86H462.44V29.95H465.23V303.89H468.03V299.27H470.82V275.36H473.62V252.39H476.41V210.8H479.21V171.23H482V114.07H484.8V59.48H487.59V28.96H490.39V303.89H493.19V299.27H495.98V196.45H498.78V177.33H501.57V139.4H504.37V142.8H507.16V87.03H509.96V53.5H512.75V27.96H515.55V303.89H518.34V299.27H521.14V275.36H523.93V232.65H526.73V211.76H529.52V152.63H532.32V135.64H535.11V26.97H537.91V303.89H540.7V299.27H543.5V255.57H546.3V213.82H549.09V134.83H551.89V118.71H554.68V83.63H557.48V50.27H560.27V25.97H563.07V303.89H565.86V299.27H568.66V275.14H571.45V213.09H574.25V193.16H577.04V193.94H579.84V115.91H582.63V100.72H585.43V24.98H588.22V303.89H591.02V299.27H593.82V235.65H596.61V214.62H599.41V135.66H602.2V119.51H605V84.57H607.79V23.98H610.59V303.89H613.38V299.27H616.18V255.39H618.97V233.4H621.77V153.24H624.56V136.23H627.36V61.26H630.15V22.99H632.95V303.89H635.74V299.27H638.54V235.83H641.33V175.52H644.13V98.4H646.93V21.99H649.72V303.89H652.52V299.27H655.31V275.14H658.11V212.69H660.9V173.21H663.7V135.48H666.49V99.59H669.29V85.19H672.08V52.12H674.88V21H677.67V303.89H680.47V299.27H683.26V176.7H686.06V138.98H688.85V102.92H691.65V20H694.45V303.89H697.24V299.27H700.04V294.88H702.83V251.36H705.63V150.83H708.42V133.93H711.22V98.34" style="vector-effect: non-scaling-stroke; fill: none; stroke: rgb(31, 119, 180); stroke-opacity: 1; stroke-width: 1px; opacity: 1;"/></g><g class="points"/><g class="text"/></g><g class="trace scatter trace441922" style="stroke-miterlimit: 2; opacity: 1;"><g class="fills"/><g class="errorbars"/><g class="lines"/><g class="points"><path class="point" transform="translate(40.35,49.87)" d="M3,0A3,3 0 1,1 0,-3A3,3 0 0,1 3,0Z" style="opacity: 1; stroke-width: 0px; fill: rgb(255, 127, 14); fill-opacity: 1;"/><path class="point" transform="translate(57.12,48.87)" d="M3,0A3,3 0 1,1 0,-3A3,3 0 0,1 3,0Z" style="opacity: 1; stroke-width: 0px; fill: rgb(255, 127, 14); fill-opacity: 1;"/><path class="point" transform="translate(76.69,47.88)" d="M3,0A3,3 0 1,1 0,-3A3,3 0 0,1 3,0Z" style="opacity: 1; stroke-width: 0px; fill: rgb(255, 127, 14); fill-opacity: 1;"/><path class="point" transform="translate(99.05,46.88)" d="M3,0A3,3 0 1,1 0,-3A3,3 0 0,1 3,0Z" style="opacity: 1; stroke-width: 0px; fill: rgb(255, 127, 14); fill-opacity: 1;"/><path class="point" transform="translate(121.41,45.88)" d="M3,0A3,3 0 1,1 0,-3A3,3 0 0,1 3,0Z" style="opacity: 1; stroke-width: 0px; fill: rgb(255, 127, 14); fill-opacity: 1;"/><path class="point" transform="translate(146.57,44.89)" d="M3,0A3,3 0 1,1 0,-3A3,3 0 0,1 3,0Z" style="opacity: 1; stroke-width: 0px; fill: rgb(255, 127, 14); fill-opacity: 1;"/><path class="point" transform="translate(166.14,43.89)" d="M3,0A3,3 0 1,1 0,-3A3,3 0 0,1 3,0Z" style="opacity: 1; stroke-width: 0px; fill: rgb(255, 127, 14); fill-opacity: 1;"/><path class="point" transform="translate(182.91,42.9)" d="M3,0A3,3 0 1,1 0,-3A3,3 0 0,1 3,0Z" style="opacity: 1; stroke-width: 0px; fill: rgb(255, 127, 14); fill-opacity: 1;"/><path class="point" transform="translate(205.27,41.9)" d="M3,0A3,3 0 1,1 0,-3A3,3 0 0,1 3,0Z" style="opacity: 1; stroke-width: 0px; fill: rgb(255, 127, 14); fill-opacity: 1;"/><path class="point" transform="translate(230.43,40.91)" d="M3,0A3,3 0 1,1 0,-3A3,3 0 0,1 3,0Z" style="opacity: 1; stroke-width: 0px; fill: rgb(255, 127, 14); fill-opacity: 1;"/><path class="point" transform="translate(250,39.91)" d="M3,0A3,3 0 1,1 0,-3A3,3 0 0,1 3,0Z" style="opacity: 1; stroke-width: 0px; fill: rgb(255, 127, 14); fill-opacity: 1;"/><path class="point" transform="translate(275.15,38.92)" d="M3,0A3,3 0 1,1 0,-3A3,3 0 0,1 3,0Z" style="opacity: 1; stroke-width: 0px; fill: rgb(255, 127, 14); fill-opacity: 1;"/><path class="point" transform="translate(294.72,37.92)" d="M3,0A3,3 0 1,1 0,-3A3,3 0 0,1 3,0Z" style="opacity: 1; stroke-width: 0px; fill: rgb(255, 127, 14); fill-opacity: 1;"/><path class="point" transform="translate(314.29,36.92)" d="M3,0A3,3 0 1,1 0,-3A3,3 0 0,1 3,0Z" style="opacity: 1; stroke-width: 0px; fill: rgb(255, 127, 14); fill-opacity: 1;"/><path class="point" transform="translate(336.65,35.93)" d="M3,0A3,3 0 1,1 0,-3A3,3 0 0,1 3,0Z" style="opacity: 1; stroke-width: 0px; fill: rgb(255, 127, 14); fill-opacity: 1;"/><path class="point" transform="translate(353.42,34.93)" d="M3,0A3,3 0 1,1 0,-3A3,3 0 0,1 3,0Z" style="opacity: 1; stroke-width: 0px; fill: rgb(255, 127, 14); fill-opacity: 1;"/><path class="point" transform="translate(372.99,33.94)" d="M3,0A3,3 0 1,1 0,-3A3,3 0 0,1 3,0Z" style="opacity: 1; stroke-width: 0px; fill: rgb(255, 127, 14); fill-opacity: 1;"/><path class="point" transform="translate(398.15,32.94)" d="M3,0A3,3 0 1,1 0,-3A3,3 0 0,1 3,0Z" style="opacity: 1; stroke-width: 0px; fill: rgb(255, 127, 14); fill-opacity: 1;"/><path class="point" transform="translate(420.51,31.95)" d="M3,0A3,3 0 1,1 0,-3A3,3 0 0,1 3,0Z" style="opacity: 1; stroke-width: 0px; fill: rgb(255, 127, 14); fill-opacity: 1;"/><path class="point" transform="translate(445.67,30.95)" d="M3,0A3,3 0 1,1 0,-3A3,3 0 0,1 3,0Z" style="opacity: 1; stroke-width: 0px; fill: rgb(255, 127, 14); fill-opacity: 1;"/><path class="point" transform="translate(462.44,29.95)" d="M3,0A3,3 0 1,1 0,-3A3,3 0 0,1 3,0Z" style="opacity: 1; stroke-width: 0px; fill: rgb(255, 127, 14); fill-opacity: 1;"/><path class="point" transform="translate(487.59,28.96)" d="M3,0A3,3 0 1,1 0,-3A3,3 0 0,1 3,0Z" style="opacity: 1; stroke-width: 0px; fill: rgb(255, 127, 14); fill-opacity: 1;"/><path class="point" transform="translate(512.75,27.96)" d="M3,0A3,3 0 1,1 0,-3A3,3 0 0,1 3,0Z" style="opacity: 1; stroke-width: 0px; fill: rgb(255, 127, 14); fill-opacity: 1;"/><path class="point" transform="translate(535.11,26.97)" d="M3,0A3,3 0 1,1 0,-3A3,3 0 0,1 3,0Z" style="opacity: 1; stroke-width: 0px; fill: rgb(255, 127, 14); fill-opacity: 1;"/><path class="point" transform="translate(560.27,25.97)" d="M3,0A3,3 0 1,1 0,-3A3,3 0 0,1 3,0Z" style="opacity: 1; stroke-width: 0px; fill: rgb(255, 127, 14); fill-opacity: 1;"/><path class="point" transform="translate(585.43,24.98)" d="M3,0A3,3 0 1,1 0,-3A3,3 0 0,1 3,0Z" style="opacity: 1; stroke-width: 0px; fill: rgb(255, 127, 14); fill-opacity: 1;"/><path class="point" transform="translate(607.79,23.98)" d="M3,0A3,3 0 1,1 0,-3A3,3 0 0,1 3,0Z" style="opacity: 1; stroke-width: 0px; fill: rgb(255, 127, 14); fill-opacity: 1;"/><path class="point" transform="translate(630.15,22.99)" d="M3,0A3,3 0 1,1 0,-3A3,3 0 0,1 3,0Z" style="opacity: 1; stroke-width: 0px; fill: rgb(255, 127, 14); fill-opacity: 1;"/><path class="point" transform="translate(646.93,21.99)" d="M3,0A3,3 0 1,1 0,-3A3,3 0 0,1 3,0Z" style="opacity: 1; stroke-width: 0px; fill: rgb(255, 127, 14); fill-opacity: 1;"/><path class="point" transform="translate(674.88,21)" d="M3,0A3,3 0 1,1 0,-3A3,3 0 0,1 3,0Z" style="opacity: 1; stroke-width: 0px; fill: rgb(255, 127, 14); fill-opacity: 1;"/><path class="point" transform="translate(691.65,20)" d="M3,0A3,3 0 1,1 0,-3A3,3 0 0,1 3,0Z" style="opacity: 1; stroke-width: 0px; fill: rgb(255, 127, 14); fill-opacity: 1;"/></g><g class="text"/></g></g></g><g class="overplot"/><path class="xlines-above crisp" d="M87,425.5H820" style="fill: none; stroke-width: 1px; stroke: rgb(36, 36, 36); stroke-opacity: 1;"/><path class="ylines-above crisp" d="M87.5,100V425" style="fill: none; stroke-width: 1px; stroke: rgb(36, 36, 36); stroke-opacity: 1;"/><g class="overlines-above"/><g class="xaxislayer-above"><path class="xtick ticks crisp" d="M0,426v5" transform="translate(103.19,0)" style="stroke: rgb(68, 68, 68); stroke-opacity: 1; stroke-width: 1px;"/><path class="xtick ticks crisp" d="M0,426v5" transform="translate(242.96,0)" style="stroke: rgb(68, 68, 68); stroke-opacity: 1; stroke-width: 1px;"/><path class="xtick ticks crisp" d="M0,426v5" transform="translate(382.72,0)" style="stroke: rgb(68, 68, 68); stroke-opacity: 1; stroke-width: 1px;"/><path class="xtick ticks crisp" d="M0,426v5" transform="translate(522.48,0)" style="stroke: rgb(68, 68, 68); stroke-opacity: 1; stroke-width: 1px;"/><path class="xtick ticks crisp" d="M0,426v5" transform="translate(662.25,0)" style="stroke: rgb(68, 68, 68); stroke-opacity: 1; stroke-width: 1px;"/><path class="xtick ticks crisp" d="M0,426v5" transform="translate(802.01,0)" style="stroke: rgb(68, 68, 68); stroke-opacity: 1; stroke-width: 1px;"/><g class="xtick"><text text-anchor="middle" x="0" y="455" transform="translate(103.19,0)" style="font-family: 'Open Sans', verdana, arial, sans-serif; font-size: 20px; fill: rgb(36, 36, 36); fill-opacity: 1; white-space: pre;">0</text></g><g class="xtick"><text text-anchor="middle" x="0" y="455" transform="translate(242.96,0)" style="font-family: 'Open Sans', verdana, arial, sans-serif; font-size: 20px; fill: rgb(36, 36, 36); fill-opacity: 1; white-space: pre;">50</text></g><g class="xtick"><text text-anchor="middle" x="0" y="455" transform="translate(382.72,0)" style="font-family: 'Open Sans', verdana, arial, sans-serif; font-size: 20px; fill: rgb(36, 36, 36); fill-opacity: 1; white-space: pre;">100</text></g><g class="xtick"><text text-anchor="middle" x="0" y="455" transform="translate(522.48,0)" style="font-family: 'Open Sans', verdana, arial, sans-serif; font-size: 20px; fill: rgb(36, 36, 36); fill-opacity: 1; white-space: pre;">150</text></g><g class="xtick"><text text-anchor="middle" x="0" y="455" transform="translate(662.25,0)" style="font-family: 'Open Sans', verdana, arial, sans-serif; font-size: 20px; fill: rgb(36, 36, 36); fill-opacity: 1; white-space: pre;">200</text></g><g class="xtick"><text text-anchor="middle" x="0" y="455" transform="translate(802.01,0)" style="font-family: 'Open Sans', verdana, arial, sans-serif; font-size: 20px; fill: rgb(36, 36, 36); fill-opacity: 1; white-space: pre;">250</text></g></g><g class="yaxislayer-above"><path class="ytick ticks crisp" d="M87,0h-5" transform="translate(0,388.84)" style="stroke: rgb(68, 68, 68); stroke-opacity: 1; stroke-width: 1px;"/><path class="ytick ticks crisp" d="M87,0h-5" transform="translate(0,349.01)" style="stroke: rgb(68, 68, 68); stroke-opacity: 1; stroke-width: 1px;"/><path class="ytick ticks crisp" d="M87,0h-5" transform="translate(0,309.18)" style="stroke: rgb(68, 68, 68); stroke-opacity: 1; stroke-width: 1px;"/><path class="ytick ticks crisp" d="M87,0h-5" transform="translate(0,269.35)" style="stroke: rgb(68, 68, 68); stroke-opacity: 1; stroke-width: 1px;"/><path class="ytick ticks crisp" d="M87,0h-5" transform="translate(0,229.52)" style="stroke: rgb(68, 68, 68); stroke-opacity: 1; stroke-width: 1px;"/><path class="ytick ticks crisp" d="M87,0h-5" transform="translate(0,189.7)" style="stroke: rgb(68, 68, 68); stroke-opacity: 1; stroke-width: 1px;"/><path class="ytick ticks crisp" d="M87,0h-5" transform="translate(0,149.87)" style="stroke: rgb(68, 68, 68); stroke-opacity: 1; stroke-width: 1px;"/><path class="ytick ticks crisp" d="M87,0h-5" transform="translate(0,110.03999999999999)" style="stroke: rgb(68, 68, 68); stroke-opacity: 1; stroke-width: 1px;"/><g class="ytick"><text text-anchor="end" x="78" y="7" transform="translate(0,388.84)" style="font-family: 'Open Sans', verdana, arial, sans-serif; font-size: 20px; fill: rgb(36, 36, 36); fill-opacity: 1; white-space: pre;">−64</text></g><g class="ytick"><text text-anchor="end" x="78" y="7" transform="translate(0,349.01)" style="font-family: 'Open Sans', verdana, arial, sans-serif; font-size: 20px; fill: rgb(36, 36, 36); fill-opacity: 1; white-space: pre;">−62</text></g><g class="ytick"><text text-anchor="end" x="78" y="7" transform="translate(0,309.18)" style="font-family: 'Open Sans', verdana, arial, sans-serif; font-size: 20px; fill: rgb(36, 36, 36); fill-opacity: 1; white-space: pre;">−60</text></g><g class="ytick"><text text-anchor="end" x="78" y="7" transform="translate(0,269.35)" style="font-family: 'Open Sans', verdana, arial, sans-serif; font-size: 20px; fill: rgb(36, 36, 36); fill-opacity: 1; white-space: pre;">−58</text></g><g class="ytick"><text text-anchor="end" x="78" y="7" transform="translate(0,229.52)" style="font-family: 'Open Sans', verdana, arial, sans-serif; font-size: 20px; fill: rgb(36, 36, 36); fill-opacity: 1; white-space: pre;">−56</text></g><g class="ytick"><text text-anchor="end" x="78" y="7" transform="translate(0,189.7)" style="font-family: 'Open Sans', verdana, arial, sans-serif; font-size: 20px; fill: rgb(36, 36, 36); fill-opacity: 1; white-space: pre;">−54</text></g><g class="ytick"><text text-anchor="end" x="78" y="7" transform="translate(0,149.87)" style="font-family: 'Open Sans', verdana, arial, sans-serif; font-size: 20px; fill: rgb(36, 36, 36); fill-opacity: 1; white-space: pre;">−52</text></g><g class="ytick"><text text-anchor="end" x="78" y="7" transform="translate(0,110.03999999999999)" style="font-family: 'Open Sans', verdana, arial, sans-serif; font-size: 20px; fill: rgb(36, 36, 36); fill-opacity: 1; white-space: pre;">−50</text></g></g><g class="overaxes-above"/></g></g><g class="polarlayer"/><g class="ternarylayer"/><g class="geolayer"/><g class="funnelarealayer"/><g class="pielayer"/><g class="treemaplayer"/><g class="sunburstlayer"/><g class="glimages"/><defs id="topdefs-c20cf5"><g class="clips"/><clipPath id="legendc20cf5"><rect width="635" height="63" x="1" y="1"/></clipPath></defs><g class="layer-above"><g class="imagelayer"/><g class="shapelayer"/></g><g class="infolayer"><g class="legend" pointer-events="all" transform="translate(88,522.5)"><rect class="bg" shape-rendering="crispEdges" width="636" height="64" x="0.5" y="0.5" style="stroke: rgb(5, 5, 25); stroke-opacity: 0; fill: rgb(5, 5, 25); fill-opacity: 0; stroke-width: 1px;"/><g class="scrollbox" transform="" clip-path="url('#legendc20cf5')"><g class="groups"><g class="traces" transform="translate(1,19.200000000000003)" style="opacity: 1;"><text class="legendtext" text-anchor="start" x="40" y="7.0200000000000005" style="font-family: 'Open Sans', verdana, arial, sans-serif; font-size: 18px; fill: rgb(0, 0, 0); fill-opacity: 1; white-space: pre;">Reset potential</text><g class="layers" style="opacity: 0.5;"><g class="legendfill"/><g class="legendlines"><path class="js-line" d="M5,0h30" style="fill: none; stroke: rgb(44, 160, 44); stroke-opacity: 1; stroke-dasharray: 9px, 9px; stroke-width: 3px;"/></g><g class="legendsymbols"><g class="legendpoints"/></g></g><rect class="legendtoggle" x="0" y="-13.200000000000001" width="168.328125" height="26.400000000000002" style="fill: rgb(0, 0, 0); fill-opacity: 0;"/></g><g class="traces" transform="translate(225.390625,19.200000000000003)" style="opacity: 1;"><text class="legendtext" text-anchor="start" x="40" y="7.0200000000000005" style="font-family: 'Open Sans', verdana, arial, sans-serif; font-size: 18px; fill: rgb(0, 0, 0); fill-opacity: 1; white-space: pre;">Activation threshhold</text><g class="layers" style="opacity: 0.5;"><g class="legendfill"/><g class="legendlines"><path class="js-line" d="M5,0h30" style="fill: none; stroke: rgb(214, 39, 40); stroke-opacity: 1; stroke-dasharray: 9px, 9px; stroke-width: 3px;"/></g><g class="legendsymbols"><g class="legendpoints"/></g></g><rect class="legendtoggle" x="0" y="-13.200000000000001" width="221.890625" height="26.400000000000002" style="fill: rgb(0, 0, 0); fill-opacity: 0;"/></g><g class="traces" transform="translate(449.78125,19.200000000000003)" style="opacity: 1;"><text class="legendtext" text-anchor="start" x="40" y="7.0200000000000005" style="font-family: 'Open Sans', verdana, arial, sans-serif; font-size: 18px; fill: rgb(0, 0, 0); fill-opacity: 1; white-space: pre;">Resting potential</text><g class="layers" style="opacity: 0.5;"><g class="legendfill"/><g class="legendlines"><path class="js-line" d="M5,0h30" style="fill: none; stroke: rgb(148, 103, 189); stroke-opacity: 1; stroke-dasharray: 9px, 9px; stroke-width: 3px;"/></g><g class="legendsymbols"><g class="legendpoints"/></g></g><rect class="legendtoggle" x="0" y="-13.200000000000001" width="183.6875" height="26.400000000000002" style="fill: rgb(0, 0, 0); fill-opacity: 0;"/></g><g class="traces" transform="translate(1,45.6)" style="opacity: 1;"><text class="legendtext" text-anchor="start" x="40" y="7.0200000000000005" style="font-family: 'Open Sans', verdana, arial, sans-serif; font-size: 18px; fill: rgb(0, 0, 0); fill-opacity: 1; white-space: pre;">Voltage</text><g class="layers" style="opacity: 1;"><g class="legendfill"/><g class="legendlines"><path class="js-line" d="M5,0h30" style="fill: none; stroke: rgb(31, 119, 180); stroke-opacity: 1; stroke-width: 1px;"/></g><g class="legendsymbols"><g class="legendpoints"/></g></g><rect class="legendtoggle" x="0" y="-13.200000000000001" width="104.96875" height="26.400000000000002" style="fill: rgb(0, 0, 0); fill-opacity: 0;"/></g><g class="traces" transform="translate(225.390625,45.6)" style="opacity: 1;"><text class="legendtext" text-anchor="start" x="40" y="7.0200000000000005" style="font-family: 'Open Sans', verdana, arial, sans-serif; font-size: 18px; fill: rgb(0, 0, 0); fill-opacity: 1; white-space: pre;">Spikes</text><g class="layers" style="opacity: 1;"><g class="legendfill"/><g class="legendlines"/><g class="legendsymbols"><g class="legendpoints"><path class="scatterpts" transform="translate(20,0)" d="M3,0A3,3 0 1,1 0,-3A3,3 0 0,1 3,0Z" style="opacity: 1; stroke-width: 0px; fill: rgb(255, 127, 14); fill-opacity: 1;"/></g></g></g><rect class="legendtoggle" x="0" y="-13.200000000000001" width="96.109375" height="26.400000000000002" style="fill: rgb(0, 0, 0); fill-opacity: 0;"/></g></g></g><rect class="scrollbar" rx="20" ry="3" width="0" height="0" x="0" y="0" style="fill: rgb(128, 139, 164); fill-opacity: 1;"/></g><g class="g-gtitle"/><g class="g-xtitle"><text class="xtitle" x="454" y="492.8" text-anchor="middle" style="font-family: 'Open Sans', verdana, arial, sans-serif; font-size: 24px; fill: rgb(36, 36, 36); opacity: 1; font-weight: normal; white-space: pre;">Time</text></g><g class="g-ytitle" transform="translate(14.1123046875,0)"><text class="ytitle" transform="rotate(-90,11.887500000000003,262.5)" x="11.887500000000003" y="262.5" text-anchor="middle" style="font-family: 'Open Sans', verdana, arial, sans-serif; font-size: 24px; fill: rgb(36, 36, 36); opacity: 1; font-weight: normal; white-space: pre;">Voltage</text></g></g></svg>