<svg class="main-svg" xmlns="http://www.w3.org/2000/svg" xmlns:xlink="http://www.w3.org/1999/xlink" width="800" height="500" style="" viewBox="0 0 800 500"><rect x="0" y="0" width="800" height="500" style="fill: rgb(255, 255, 255); fill-opacity: 1;"/><defs id="defs-5ac4f0"><g class="clips"><clipPath id="clip5ac4f0xyplot" class="plotclip"><rect width="608" height="268"/></clipPath><clipPath class="axesclip" id="clip5ac4f0x"><rect x="112" y="0" width="608" height="500"/></clipPath><clipPath class="axesclip" id="clip5ac4f0y"><rect x="0" y="100" width="800" height="268"/></clipPath><clipPath class="axesclip" id="clip5ac4f0xy"><rect x="112" y="100" width="608" height="268"/></clipPath></g><g class="gradients"/></defs><g class="bglayer"><rect class="bg" x="112" y="100" width="608" height="268" style="fill: rgb(229, 236, 246); fill-opacity: 1; stroke-width: 0;"/></g><g class="layer-below"><g class="imagelayer"/><g class="shapelayer"/></g><g class="cartesianlayer"><g class="subplot xy"><g class="layer-subplot"><g class="shapelayer"/><g class="imagelayer"/></g><g class="gridlayer"><g class="x"><path class="xgrid crisp" transform="translate(234.09,0)" d="M0,100v268" style="stroke: rgb(255, 255, 255); stroke-opacity: 1; stroke-width: 1px;"/><path class="xgrid crisp" transform="translate(356.18,0)" d="M0,100v268" style="stroke: rgb(255, 255, 255); stroke-opacity: 1; stroke-width: 1px;"/><path class="xgrid crisp" transform="translate(478.27,0)" d="M0,100v268" style="stroke: rgb(255, 255, 255); stroke-opacity: 1; stroke-width: 1px;"/><path class="xgrid crisp" transform="translate(600.35,0)" d="M0,100v268" style="stroke: rgb(255, 255, 255); stroke-opacity: 1; stroke-width: 1px;"/></g><g class="y"><path class="ygrid crisp" transform="translate(0,340.21000000000004)" d="M112,0h608" style="stroke: rgb(255, 255, 255); stroke-opacity: 1; stroke-width: 1px;"/><path class="ygrid crisp" transform="translate(0,282)" d="M112,0h608" style="stroke: rgb(255, 255, 255); stroke-opacity: 1; stroke-width: 1px;"/><path class="ygrid crisp" transform="translate(0,223.78)" d="M112,0h608" style="stroke: rgb(255, 255, 255); stroke-opacity: 1; stroke-width: 1px;"/><path class="ygrid crisp" transform="translate(0,165.56)" d="M112,0h608" style="stroke: rgb(255, 255, 255); stroke-opacity: 1; stroke-width: 1px;"/></g></g><g class="zerolinelayer"><path class="xzl zl crisp" transform="translate(112,0)" d="M0,100v268" style="stroke: rgb(0, 44, 117); stroke-opacity: 1; stroke-width: 2px;"/><path class="yzl zl crisp" transform="translate(0,107.35)" d="M112,0h608" style="stroke: rgb(0, 44, 117); stroke-opacity: 1; stroke-width: 2px;"/></g><path class="xlines-below"/><path class="ylines-below"/><g class="overlines-below"/><g class="xaxislayer-below"/><g class="yaxislayer-below"/><g class="overaxes-below"/><g class="plot" transform="translate(112, 100)" clip-path="url('#clip5ac4f0xyplot')"><g class="scatterlayer mlayer"><g class="trace scatter trace456b44" style="stroke-miterlimit: 2; opacity: 0.5;"><g class="fills"/><g class="errorbars"/><g class="lines"><path class="js-line" d="M0,13.4H2.44V13.4H4.88V13.4H7.33V13.4H9.77V13.4H12.21V13.4H14.65V13.4H17.09V13.4H19.53V13.4H21.98V13.4H24.42V13.4H26.86V13.4H29.3V13.4H31.74V13.4H34.18V13.4H36.63V13.4H39.07V13.4H41.51V13.4H43.95V13.4H46.39V13.4H48.84V13.4H51.28V13.4H53.72V13.4H56.16V13.4H58.6V13.4H61.04V13.4H63.49V13.4H65.93V13.4H68.37V13.4H70.81V13.4H73.25V13.4H75.69V13.4H78.14V13.4H80.58V13.4H83.02V13.4H85.46V13.4H87.9V13.4H90.35V13.4H92.79V13.4H95.23V13.4H97.67V13.4H100.11V13.4H102.55V13.4H105V13.4H107.44V13.4H109.88V13.4H112.32V13.4H114.76V13.4H117.2V13.4H119.65V13.4H122.09V13.4H124.53V13.4H126.97V13.4H129.41V13.4H131.86V13.4H134.3V13.4H136.74V13.4H139.18V13.4H141.62V13.4H144.06V13.4H146.51V13.4H148.95V13.4H151.39V13.4H153.83V13.4H156.27V13.4H158.71V13.4H161.16V13.4H163.6V13.4H166.04V13.4H168.48V13.4H170.92V13.4H173.37V13.4H175.81V13.4H178.25V13.4H180.69V13.4H183.13V13.4H185.57V13.4H188.02V13.4H190.46V13.4H192.9V13.4H195.34V13.4H197.78V13.4H200.22V13.4H202.67V13.4H205.11V13.4H207.55V13.4H209.99V13.4H212.43V13.4H214.88V13.4H217.32V13.4H219.76V13.4H222.2V13.4H224.64V13.4H227.08V13.4H229.53V13.4H231.97V13.4H234.41V13.4H236.85V13.4H239.29V13.4H241.73V13.4H244.18V13.4H246.62V13.4H249.06V13.4H251.5V13.4H253.94V13.4H256.39V13.4H258.83V13.4H261.27V13.4H263.71V13.4H266.15V13.4H268.59V13.4H271.04V13.4H273.48V13.4H275.92V13.4H278.36V13.4H280.8V13.4H283.24V13.4H285.69V13.4H288.13V13.4H290.57V13.4H293.01V13.4H295.45V13.4H297.9V13.4H300.34V13.4H302.78V13.4H305.22V13.4H307.66V13.4H310.1V13.4H312.55V13.4H314.99V13.4H317.43V13.4H319.87V13.4H322.31V13.4H324.76V13.4H327.2V13.4H329.64V13.4H332.08V13.4H334.52V13.4H336.96V13.4H339.41V13.4H341.85V13.4H344.29V13.4H346.73V13.4H349.17V13.4H351.61V13.4H354.06V13.4H356.5V13.4H358.94V13.4H361.38V13.4H363.82V13.4H366.27V13.4H368.71V13.4H371.15V13.4H373.59V13.4H376.03V13.4H378.47V13.4H380.92V13.4H383.36V13.4H385.8V13.4H388.24V13.4H390.68V13.4H393.12V13.4H395.57V13.4H398.01V13.4H400.45V13.4H402.89V13.4H405.33V13.4H407.78V13.4H410.22V13.4H412.66V13.4H415.1V13.4H417.54V13.4H419.98V13.4H422.43V13.4H424.87V13.4H427.31V13.4H429.75V13.4H432.19V13.4H434.63V13.4H437.08V13.4H439.52V13.4H441.96V13.4H444.4V13.4H446.84V13.4H449.29V13.4H451.73V13.4H454.17V13.4H456.61V13.4H459.05V13.4H461.49V13.4H463.94V13.4H466.38V13.4H468.82V13.4H471.26V13.4H473.7V13.4H476.14V13.4H478.59V13.4H481.03V13.4H483.47V13.4H485.91V13.4H488.35V13.4H490.8V13.4H493.24V13.4H495.68V13.4H498.12V13.4H500.56V13.4H503V13.4H505.45V13.4H507.89V13.4H510.33V13.4H512.77V13.4H515.21V13.4H517.65V13.4H520.1V13.4H522.54V13.4H524.98V13.4H527.42V13.4H529.86V13.4H532.31V13.4H534.75V13.4H537.19V13.4H539.63V13.4H542.07V13.4H544.51V13.4H546.96V13.4H549.4V13.4H551.84V13.4H554.28V13.4H556.72V13.4H559.16V13.4H561.61V13.4H564.05V13.4H566.49V13.4H568.93V13.4H571.37V13.4H573.82V13.4H576.26V13.4H578.7V13.4H581.14V13.4H583.58V13.4H586.02V13.4H588.47V13.4H590.91V13.4H593.35V13.4H595.79V13.4H598.23V13.4H600.67V13.4H603.12V13.4H605.56V13.4H608V13.4" style="vector-effect: non-scaling-stroke; fill: none; stroke: rgb(171, 99, 250); stroke-opacity: 1; stroke-width: 3px; opacity: 1; stroke-dasharray: 9px, 9px;"/></g><g class="points"/><g class="text"/></g><g class="trace scatter trace8721ce" style="stroke-miterlimit: 2; opacity: 1;"><g class="fills"/><g class="errorbars"/><g class="lines"><path class="js-line" d="M0,14.33H2.44V14.28H4.88V14.22H7.33V14.12H9.77V13.99H12.21V13.9H14.65V13.59H17.09V254.6H19.53V242.86H21.98V231.27H24.42V220.3H26.86V248.17H29.3V236.51H31.74V225.47H34.18V214.77H36.63V204.57H39.07V233.09H41.51V222.14H43.95V211.61H46.39V201.94H48.84V192.46H51.28V221.66H53.72V211.49H56.16V201.54H58.6V192.29H61.04V183.36H63.49V212.79H65.93V202.76H68.37V192.9H70.81V184H73.25V213.68H75.69V203.72H78.14V194.26H80.58V185.26H83.02V176.56H85.46V206.41H87.9V196.76H90.35V187.56H92.79V178.88H95.23V170.62H97.67V162.78H100.11V193.34H102.55V184.51H105V175.99H107.44V167.46H109.88V197.85H112.32V188.34H114.76V179.59H117.2V171.17H119.65V163.26H122.09V193.78H124.53V184.81H126.97V176.3H129.41V167.9H131.86V160.12H134.3V190.91H136.74V181.93H139.18V173.59H141.62V165.72H144.06V158.14H146.51V171.08H148.95V163.18H151.39V155.53H153.83V148.27H156.27V141.16H158.71V154.85H161.16V147.85H163.6V141.12H166.04V134.68H168.48V128.53H170.92V122.62H173.37V137.14H175.81V130.88H178.25V124.78H180.69V119.28H183.13V113.84H185.57V108.74H188.02V123.99H190.46V118.4H192.9V112.94H195.34V107.74H197.78V102.89H200.22V118.52H202.67V113.22H205.11V108.03H207.55V103.37H209.99V98.79H212.43V94.39H214.88V110.14H217.32V105.34H219.76V100.88H222.2V96.32H224.64V91.79H227.08V107.96H229.53V102.96H231.97V98.22H234.41V93.95H236.85V90.01H239.29V85.9H241.73V102.25H244.18V97.6H246.62V93.35H249.06V89.12H251.5V85.23H253.94V101.62H256.39V97.26H258.83V93.05H261.27V88.86H263.71V84.96H266.15V91.95H268.59V87.65H271.04V84.03H273.48V80.39H275.92V76.73H278.36V84.15H280.8V80.38H283.24V76.79H285.69V73.26H288.13V69.96H290.57V77.39H293.01V74.32H295.45V71.13H297.9V68.02H300.34V65.3H302.78V73.16H305.22V69.81H307.66V66.69H310.1V63.9H312.55V61.1H314.99V69.12H317.43V66.3H319.87V63.36H322.31V60.74H324.76V58.22H327.2V66.18H329.64V63.52H332.08V61.05H334.52V58.56H336.96V55.84H339.41V63.94H341.85V61.32H344.29V58.61H346.73V56.42H349.17V54.07H351.61V62.19H354.06V59.73H356.5V57.33H358.94V54.83H361.38V52.48H363.82V60.91H366.27V58.16H368.71V55.64H371.15V53.4H373.59V51.45H376.03V49.22H378.47V57.6H380.92V55.18H383.36V53.07H385.8V50.99H388.24V48.8H390.68V46.84H393.12V55.62H395.57V53.31H398.01V51H400.45V48.7H402.89V46.79H405.33V55.54H407.78V53.03H410.22V51.14H412.66V49.08H415.1V47.13H417.54V45.43H419.98V43.52H422.43V52.43H424.87V50.32H427.31V48.09H429.75V46.11H432.19V44.51H434.63V53.17H437.08V50.78H439.52V48.87H441.96V46.69H444.4V44.83H446.84V42.98H449.29V52.03H451.73V49.69H454.17V47.77H456.61V45.9H459.05V43.83H461.49V52.75H463.94V50.64H466.38V48.73H468.82V46.7H471.26V44.79H473.7V53.49H476.14V51.47H478.59V49.29H481.03V47.35H483.47V45.56H485.91V43.45H488.35V52.4H490.8V50.37H493.24V48.45H495.68V46.4H498.12V44.43H500.56V53.16H503V50.9H505.45V48.9H507.89V47.11H510.33V45.14H512.77V43.42H515.21V52.42H517.65V50.4H520.1V48.25H522.54V46.07H524.98V54.75H527.42V52.46H529.86V50.32H532.31V48.39H534.75V46.65H537.19V44.81H539.63V53.74H542.07V51.49H544.51V49.25H546.96V46.91H549.4V55.75H551.84V53.47H554.28V51.34H556.72V49.28H559.16V47.08H561.61V55.65H564.05V53.41H566.49V51.32H568.93V49.38H571.37V47.26H573.82V56.13H576.26V54H578.7V52.01H581.14V49.86H583.58V47.77H586.02V56.34H588.47V53.83H590.91V51.71H593.35V49.61H595.79V47.62H598.23V56.49H600.67V54.19H603.12V52H605.56V49.97H608V47.85" style="vector-effect: non-scaling-stroke; fill: none; stroke: rgb(99, 110, 250); stroke-opacity: 1; stroke-width: 1px; opacity: 1;"/></g><g class="points"/><g class="text"/></g></g></g><g class="overplot"/><path class="xlines-above crisp" d="M0,0" style="fill: none;"/><path class="ylines-above crisp" d="M0,0" style="fill: none;"/><g class="overlines-above"/><g class="xaxislayer-above"><g class="xtick"><text text-anchor="middle" x="0" y="389" transform="translate(112,0)" style="font-family: 'Open Sans', verdana, arial, sans-serif; font-size: 20px; fill: rgb(42, 63, 95); fill-opacity: 1; white-space: pre;">0</text></g><g class="xtick"><text text-anchor="middle" x="0" y="389" transform="translate(234.09,0)" style="font-family: 'Open Sans', verdana, arial, sans-serif; font-size: 20px; fill: rgb(42, 63, 95); fill-opacity: 1; white-space: pre;">50</text></g><g class="xtick"><text text-anchor="middle" x="0" y="389" transform="translate(356.18,0)" style="font-family: 'Open Sans', verdana, arial, sans-serif; font-size: 20px; fill: rgb(42, 63, 95); fill-opacity: 1; white-space: pre;">100</text></g><g class="xtick"><text text-anchor="middle" x="0" y="389" transform="translate(478.27,0)" style="font-family: 'Open Sans', verdana, arial, sans-serif; font-size: 20px; fill: rgb(42, 63, 95); fill-opacity: 1; white-space: pre;">150</text></g><g class="xtick"><text text-anchor="middle" x="0" y="389" transform="translate(600.35,0)" style="font-family: 'Open Sans', verdana, arial, sans-serif; font-size: 20px; fill: rgb(42, 63, 95); fill-opacity: 1; white-space: pre;">200</text></g></g><g class="yaxislayer-above"><g class="ytick"><text text-anchor="end" x="111" y="7" transform="translate(0,340.21000000000004)" style="font-family: 'Open Sans', verdana, arial, sans-serif; font-size: 20px; fill: rgb(42, 63, 95); fill-opacity: 1; white-space: pre;">−2000</text></g><g class="ytick"><text text-anchor="end" x="111" y="7" transform="translate(0,282)" style="font-family: 'Open Sans', verdana, arial, sans-serif; font-size: 20px; fill: rgb(42, 63, 95); fill-opacity: 1; white-space: pre;">−1500</text></g><g class="ytick"><text text-anchor="end" x="111" y="7" transform="translate(0,223.78)" style="font-family: 'Open Sans', verdana, arial, sans-serif; font-size: 20px; fill: rgb(42, 63, 95); fill-opacity: 1; white-space: pre;">−1000</text></g><g class="ytick"><text text-anchor="end" x="111" y="7" transform="translate(0,165.56)" style="font-family: 'Open Sans', verdana, arial, sans-serif; font-size: 20px; fill: rgb(42, 63, 95); fill-opacity: 1; white-space: pre;">−500</text></g><g class="ytick"><text text-anchor="end" x="111" y="7" transform="translate(0,107.35)" style="font-family: 'Open Sans', verdana, arial, sans-serif; font-size: 20px; fill: rgb(42, 63, 95); fill-opacity: 1; white-space: pre;">0</text></g></g><g class="overaxes-above"/></g></g><g class="polarlayer"/><g class="ternarylayer"/><g class="geolayer"/><g class="funnelarealayer"/><g class="pielayer"/><g class="treemaplayer"/><g class="sunburstlayer"/><g class="glimages"/><defs id="topdefs-5ac4f0"><g class="clips"/><clipPath id="legend5ac4f0"><rect width="435" height="37" x="1" y="1"/></clipPath></defs><g class="layer-above"><g class="imagelayer"/><g class="shapelayer"/></g><g class="infolayer"><g class="legend" pointer-events="all" transform="translate(112, 448.40000000000003)"><rect class="bg" shape-rendering="crispEdges" width="436" height="38" x="0.5" y="0.5" style="stroke: rgb(0, 0, 0); stroke-opacity: 1; fill: rgb(25, 211, 243); fill-opacity: 0.1; stroke-width: 1px;"/><g class="scrollbox" transform="translate(0, 0)" clip-path="url('#legend5ac4f0')"><g class="groups"><g class="traces" transform="translate(1, 19.200000000000003)" style="opacity: 1;"><text class="legendtext user-select-none" text-anchor="start" x="40" y="7.0200000000000005" style="font-family: 'Open Sans', verdana, arial, sans-serif; font-size: 18px; fill: rgb(0, 0, 0); fill-opacity: 1; white-space: pre;">Порог активации</text><g class="layers" style="opacity: 0.5;"><g class="legendfill"/><g class="legendlines"><path class="js-line" d="M5,0h30" style="fill: none; stroke: rgb(171, 99, 250); stroke-opacity: 1; stroke-dasharray: 9px, 9px; stroke-width: 3px;"/></g><g class="legendsymbols"><g class="legendpoints"/></g></g><rect class="legendtoggle" pointer-events="all" x="0" y="-13.200000000000001" width="201.984375" height="26.400000000000002" style="cursor: pointer; fill: rgb(0, 0, 0); fill-opacity: 0;"/></g><g class="traces" transform="translate(205.484375, 19.200000000000003)" style="opacity: 1;"><text class="legendtext user-select-none" text-anchor="start" x="40" y="7.0200000000000005" style="font-family: 'Open Sans', verdana, arial, sans-serif; font-size: 18px; fill: rgb(0, 0, 0); fill-opacity: 1; white-space: pre;">Потенциал нейрона</text><g class="layers" style="opacity: 1;"><g class="legendfill"/><g class="legendlines"><path class="js-line" d="M5,0h30" style="fill: none; stroke: rgb(99, 110, 250); stroke-opacity: 1; stroke-width: 1px;"/></g><g class="legendsymbols"><g class="legendpoints"/></g></g><rect class="legendtoggle" pointer-events="all" x="0" y="-13.200000000000001" width="227.65625" height="26.400000000000002" style="cursor: pointer; fill: rgb(0, 0, 0); fill-opacity: 0;"/></g></g></g><rect class="scrollbar" rx="20" ry="3" width="0" height="0" x="0" y="0" style="fill: rgb(128, 139, 164); fill-opacity: 1;"/></g><g class="g-gtitle"/><g class="g-xtitle"><text class="xtitle" x="416" y="424.8" text-anchor="middle" style="font-family: 'Open Sans', verdana, arial, sans-serif; font-size: 24px; fill: rgb(42, 63, 95); opacity: 1; font-weight: normal; white-space: pre;">Время, мс</text></g><g class="g-ytitle" transform="translate(12.0341796875,0)"><text class="ytitle" transform="rotate(-90,11.965625000000003,234)" x="11.965625000000003" y="234" text-anchor="middle" style="font-family: 'Open Sans', verdana, arial, sans-serif; font-size: 24px; fill: rgb(42, 63, 95); opacity: 1; font-weight: normal; white-space: pre;">Напряжение, мВ</text></g></g></svg>