<svg class="main-svg" xmlns="http://www.w3.org/2000/svg" xmlns:xlink="http://www.w3.org/1999/xlink" width="800" height="500" style="" viewBox="0 0 800 500"><rect x="0" y="0" width="800" height="500" style="fill: rgb(255, 255, 255); fill-opacity: 1;"/><defs id="defs-62f572"><g class="clips"><clipPath id="clip62f572xyplot" class="plotclip"><rect width="633" height="228"/></clipPath><clipPath class="axesclip" id="clip62f572x"><rect x="87" y="0" width="633" height="500"/></clipPath><clipPath class="axesclip" id="clip62f572y"><rect x="0" y="100" width="800" height="228"/></clipPath><clipPath class="axesclip" id="clip62f572xy"><rect x="87" y="100" width="633" height="228"/></clipPath></g><g class="gradients"/></defs><g class="bglayer"><rect class="bg" x="87" y="100" width="633" height="228" style="fill: rgb(229, 236, 246); fill-opacity: 1; stroke-width: 0;"/></g><g class="layer-below"><g class="imagelayer"/><g class="shapelayer"/></g><g class="cartesianlayer"><g class="subplot xy"><g class="layer-subplot"><g class="shapelayer"/><g class="imagelayer"/></g><g class="gridlayer"><g class="x"><path class="xgrid crisp" transform="translate(225.04,0)" d="M0,100v228" style="stroke: rgb(255, 255, 255); stroke-opacity: 1; stroke-width: 1px;"/><path class="xgrid crisp" transform="translate(341.68,0)" d="M0,100v228" style="stroke: rgb(255, 255, 255); stroke-opacity: 1; stroke-width: 1px;"/><path class="xgrid crisp" transform="translate(458.32,0)" d="M0,100v228" style="stroke: rgb(255, 255, 255); stroke-opacity: 1; stroke-width: 1px;"/><path class="xgrid crisp" transform="translate(574.96,0)" d="M0,100v228" style="stroke: rgb(255, 255, 255); stroke-opacity: 1; stroke-width: 1px;"/><path class="xgrid crisp" transform="translate(691.6,0)" d="M0,100v228" style="stroke: rgb(255, 255, 255); stroke-opacity: 1; stroke-width: 1px;"/></g><g class="y"><path class="ygrid crisp" transform="translate(0,316.6)" d="M87,0h633" style="stroke: rgb(255, 255, 255); stroke-opacity: 1; stroke-width: 1px;"/><path class="ygrid crisp" transform="translate(0,249.89)" d="M87,0h633" style="stroke: rgb(255, 255, 255); stroke-opacity: 1; stroke-width: 1px;"/><path class="ygrid crisp" transform="translate(0,183.19)" d="M87,0h633" style="stroke: rgb(255, 255, 255); stroke-opacity: 1; stroke-width: 1px;"/><path class="ygrid crisp" transform="translate(0,116.48)" d="M87,0h633" style="stroke: rgb(255, 255, 255); stroke-opacity: 1; stroke-width: 1px;"/></g></g><g class="zerolinelayer"><path class="xzl zl crisp" transform="translate(108.4,0)" d="M0,100v228" style="stroke: rgb(0, 44, 117); stroke-opacity: 1; stroke-width: 2px;"/></g><path class="xlines-below"/><path class="ylines-below"/><g class="overlines-below"/><g class="xaxislayer-below"/><g class="yaxislayer-below"/><g class="overaxes-below"/><g class="plot" transform="translate(87, 100)" clip-path="url('#clip62f572xyplot')"><g class="scatterlayer mlayer"><g class="trace scatter trace0bc3d3" style="stroke-miterlimit: 2; opacity: 0.5;"><g class="fills"/><g class="errorbars"/><g class="lines"><path class="js-line" d="M21.4,216.6H604.6V216.6" style="vector-effect: non-scaling-stroke; fill: none; stroke: rgb(0, 204, 150); stroke-opacity: 1; stroke-width: 3px; opacity: 1; stroke-dasharray: 9px, 9px;"/></g><g class="points"/><g class="text"/></g><g class="trace scatter trace624a1a" style="stroke-miterlimit: 2; opacity: 0.5;"><g class="fills"/><g class="errorbars"/><g class="lines"><path class="js-line" d="M21.4,43.16H23.74V43.16H26.07V43.16H28.4V43.16H30.73V43.16H33.07V43.16H35.4V42.5H37.73V42.5H40.07V42.5H42.4V42.5H44.73V42.5H47.06V41.83H49.4V41.83H51.73V41.83H54.06V41.83H56.4V41.83H58.73V41.16H61.06V41.16H63.39V41.16H65.73V41.16H68.06V41.16H70.39V41.16H72.72V41.16H75.06V40.5H77.39V40.5H79.72V40.5H82.06V40.5H84.39V40.5H86.72V39.83H89.05V39.83H91.39V39.83H93.72V39.83H96.05V39.83H98.39V39.83H100.72V39.83H103.05V39.16H105.38V39.16H107.72V39.16H110.05V39.16H112.38V39.16H114.71V39.16H117.05V38.49H119.38V38.49H121.71V38.49H124.05V38.49H126.38V38.49H128.71V37.83H131.04V37.83H133.38V37.83H135.71V37.83H138.04V37.83H140.38V37.83H142.71V37.83H145.04V37.16H147.37V37.16H149.71V37.16H152.04V37.16H154.37V37.16H156.7V37.16H159.04V36.49H161.37V36.49H163.7V36.49H166.04V36.49H168.37V36.49H170.7V35.83H173.03V35.83H175.37V35.83H177.7V35.83H180.03V35.83H182.37V35.83H184.7V35.16H187.03V35.16H189.36V35.16H191.7V35.16H194.03V35.16H196.36V35.16H198.69V34.49H201.03V34.49H203.36V34.49H205.69V34.49H208.03V34.49H210.36V33.82H212.69V33.82H215.02V33.82H217.36V33.82H219.69V33.82H222.02V33.82H224.36V33.82H226.69V33.16H229.02V33.16H231.35V33.16H233.69V33.16H236.02V33.16H238.35V33.16H240.68V32.49H243.02V32.49H245.35V32.49H247.68V32.49H250.02V32.49H252.35V32.49H254.68V31.82H257.01V31.82H259.35V31.82H261.68V31.82H264.01V31.82H266.35V31.82H268.68V31.82H271.01V31.16H273.34V31.16H275.68V31.16H278.01V31.16H280.34V31.16H282.67V30.49H285.01V30.49H287.34V30.49H289.67V30.49H292.01V30.49H294.34V30.49H296.67V29.82H299V29.82H301.34V29.82H303.67V29.82H306V29.82H308.34V29.82H310.67V29.16H313V29.16H315.33V29.16H317.67V29.16H320V29.16H322.33V28.49H324.66V28.49H327V28.49H329.33V28.49H331.66V28.49H334V28.49H336.33V27.82H338.66V27.82H340.99V27.82H343.33V27.82H345.66V27.82H347.99V27.15H350.33V27.15H352.66V27.15H354.99V27.15H357.32V27.15H359.66V27.15H361.99V26.49H364.32V26.49H366.65V26.49H368.99V26.49H371.32V26.49H373.65V25.82H375.99V25.82H378.32V25.82H380.65V25.82H382.98V25.15H385.32V25.15H387.65V25.15H389.98V25.15H392.32V25.15H394.65V25.15H396.98V24.49H399.31V24.49H401.65V24.49H403.98V24.49H406.31V24.49H408.64V23.82H410.98V23.82H413.31V23.82H415.64V23.82H417.98V23.82H420.31V23.82H422.64V23.15H424.97V23.15H427.31V23.15H429.64V23.15H431.97V23.15H434.31V23.15H436.64V22.49H438.97V22.49H441.3V22.49H443.64V22.49H445.97V22.49H448.3V21.82H450.63V21.82H452.97V21.82H455.3V21.82H457.63V21.82H459.97V21.82H462.3V21.15H464.63V21.15H466.96V21.15H469.3V21.15H471.63V21.15H473.96V20.49H476.3V20.49H478.63V20.49H480.96V20.49H483.29V20.49H485.63V19.82H487.96V19.82H490.29V19.82H492.62V19.82H494.96V19.82H497.29V19.15H499.62V19.15H501.96V19.15H504.29V19.15H506.62V19.15H508.95V19.15H511.29V19.15H513.62V18.48H515.95V18.48H518.29V18.48H520.62V18.48H522.95V18.48H525.28V18.48H527.62V17.82H529.95V17.82H532.28V17.82H534.61V17.82H536.95V17.82H539.28V17.82H541.61V17.15H543.95V17.15H546.28V17.15H548.61V17.15H550.94V17.15H553.28V16.48H555.61V16.48H557.94V16.48H560.28V16.48H562.61V16.48H564.94V16.48H567.27V15.82H569.61V15.82H571.94V15.82H574.27V15.82H576.6V15.82H578.94V15.82H581.27V15.15H583.6V15.15H585.94V15.15H588.27V15.15H590.6V15.15H592.93V15.15H595.27V15.15H597.6V14.48H599.93V14.48H602.27V14.48" style="vector-effect: non-scaling-stroke; fill: none; stroke: rgb(171, 99, 250); stroke-opacity: 1; stroke-width: 3px; opacity: 1; stroke-dasharray: 9px, 9px;"/></g><g class="points"/><g class="text"/></g><g class="trace scatter tracee7c360" style="stroke-miterlimit: 2; opacity: 0.5;"><g class="fills"/><g class="errorbars"/><g class="lines"><path class="js-line" d="M21.4,149.89H604.6V149.89" style="vector-effect: non-scaling-stroke; fill: none; stroke: rgb(255, 161, 90); stroke-opacity: 1; stroke-width: 3px; opacity: 1; stroke-dasharray: 9px, 9px;"/></g><g class="points"/><g class="text"/></g><g class="trace scatter trace907b35" style="stroke-miterlimit: 2; opacity: 1;"><g class="fills"/><g class="errorbars"/><g class="lines"><path class="js-line" d="M21.4,149.89H23.74V136.67H26.07V124.09H28.4V112.12H30.73V87.51H33.07V50.87H35.4V43.16H37.73V213.35H40.07V210.25H42.4V141.21H44.73V49.27H47.06V42.5H49.4V213.35H51.73V210.25H54.06V154.55H56.4V88.31H58.73V41.83H61.06V213.35H63.39V210.25H65.73V194.08H68.06V139.14H70.39V113.21H72.72V101.85H75.06V41.16H77.39V213.35H79.72V210.25H82.06V154.52H84.39V88.16H86.72V40.5H89.05V213.35H91.39V210.25H93.72V154.4H96.05V114.64H98.39V103.13H100.72V52.58H103.05V39.83H105.38V213.35H107.72V210.25H110.05V181.12H112.38V166.38H114.71V125.89H117.05V39.16H119.38V213.35H121.71V210.25H124.05V101.76H126.38V64.43H128.71V38.49H131.04V213.35H133.38V210.25H135.71V127.95H138.04V89.49H140.38V66.08H142.71V43.86H145.04V37.83H147.37V213.35H149.71V210.25H152.04V128.11H154.37V89.53H156.7V79.25H159.04V37.16H161.37V213.35H163.7V210.25H166.04V167.63H168.37V114H170.7V36.49H173.03V213.35H175.37V210.25H177.7V167.63H180.03V140.35H182.37V74.8H184.7V35.83H187.03V213.35H189.36V210.25H191.7V154.4H194.03V101.44H196.36V50.89H198.69V35.16H201.03V213.35H203.36V210.25H205.69V127.95H208.03V76.11H210.36V34.49H212.69V213.35H215.02V210.25H217.36V167.63H219.69V114.01H222.02V102.53H224.36V65.16H226.69V33.82H229.02V213.35H231.35V210.25H233.69V167.67H236.02V100.79H238.35V76.87H240.68V33.16H243.02V213.35H245.35V210.25H247.68V207.31H250.02V125.15H252.35V86.67H254.68V32.49H257.01V213.35H259.35V210.25H261.68V154.4H264.01V114.65H266.35V76.73H268.68V67.07H271.01V31.82H273.34V213.35H275.68V210.25H278.01V88.63H280.34V65.21H282.67V31.16H285.01V213.35H287.34V210.25H289.67V154.4H292.01V127.73H294.34V49.75H296.67V30.49H299V213.35H301.34V210.25H303.67V141.17H306V115.19H308.34V77.42H310.67V29.82H313V213.35H315.33V210.25H317.67V141.31H320V62.41H322.33V29.16H324.66V213.35H327V210.25H329.33V167.63H331.66V140.56H334V48.73H336.33V28.49H338.66V213.35H340.99V210.25H343.33V75.18H345.66V52.37H347.99V27.82H350.33V213.35H352.66V210.25H354.99V154.59H357.32V75.12H359.66V78.77H361.99V27.15H364.32V213.35H366.65V210.25H368.99V180.86H371.32V100.1H373.65V26.49H375.99V213.35H378.32V210.25H380.65V115.2H382.98V25.82H385.32V213.35H387.65V210.25H389.98V180.85H392.32V126.59H394.65V74.89H396.98V25.15H399.31V213.35H401.65V210.25H403.98V154.4H406.31V88.04H408.64V24.49H410.98V213.35H413.31V210.25H415.64V180.85H417.98V126.44H420.31V101.17H422.64V23.82H424.97V213.35H427.31V210.25H429.64V154.44H431.97V101.31H434.31V77.3H436.64V23.15H438.97V213.35H441.3V210.25H443.64V141.3H445.97V88.81H448.3V22.49H450.63V213.35H452.97V210.25H455.3V167.72H457.63V140.4H459.97V61.5H462.3V21.82H464.63V213.35H466.96V210.25H469.3V128.14H471.63V63.22H473.96V21.15H476.3V213.35H478.63V210.25H480.96V167.63H483.29V127.31H485.63V20.49H487.96V213.35H490.29V210.25H492.62V154.52H494.96V101.49H497.29V19.82H499.62V213.35H501.96V210.25H504.29V180.93H506.62V152.96H508.95V126.36H511.29V61.5H513.62V19.15H515.95V213.35H518.29V210.25H520.62V141.17H522.95V88.79H525.28V65.5H527.62V18.48H529.95V213.35H532.28V210.25H534.61V154.62H536.95V141.16H539.28V101.91H541.61V17.82H543.95V213.35H546.28V210.25H548.61V127.95H550.94V89.46H553.28V17.15H555.61V213.35H557.94V210.25H560.28V167.63H562.61V166.76H564.94V113.03H567.27V16.48H569.61V213.35H571.94V210.25H574.27V194.18H576.6V126.05H578.94V61.08H581.27V15.82H583.6V213.35H585.94V210.25H588.27V128.23H590.6V76.38H592.93V79.97H595.27V43.82H597.6V15.15H599.93V213.35H602.27V210.25" style="vector-effect: non-scaling-stroke; fill: none; stroke: rgb(99, 110, 250); stroke-opacity: 1; stroke-width: 1px; opacity: 1;"/></g><g class="points"/><g class="text"/></g><g class="trace scatter trace8730ac" style="stroke-miterlimit: 2; opacity: 1;"><g class="fills"/><g class="errorbars"/><g class="lines"/><g class="points"><path class="point" transform="translate(35.4,43.16)" d="M3,0A3,3 0 1,1 0,-3A3,3 0 0,1 3,0Z" style="opacity: 1; stroke-width: 0px; fill: rgb(239, 85, 59); fill-opacity: 1;"/><path class="point" transform="translate(47.06,42.5)" d="M3,0A3,3 0 1,1 0,-3A3,3 0 0,1 3,0Z" style="opacity: 1; stroke-width: 0px; fill: rgb(239, 85, 59); fill-opacity: 1;"/><path class="point" transform="translate(58.73,41.83)" d="M3,0A3,3 0 1,1 0,-3A3,3 0 0,1 3,0Z" style="opacity: 1; stroke-width: 0px; fill: rgb(239, 85, 59); fill-opacity: 1;"/><path class="point" transform="translate(75.06,41.16)" d="M3,0A3,3 0 1,1 0,-3A3,3 0 0,1 3,0Z" style="opacity: 1; stroke-width: 0px; fill: rgb(239, 85, 59); fill-opacity: 1;"/><path class="point" transform="translate(86.72,40.5)" d="M3,0A3,3 0 1,1 0,-3A3,3 0 0,1 3,0Z" style="opacity: 1; stroke-width: 0px; fill: rgb(239, 85, 59); fill-opacity: 1;"/><path class="point" transform="translate(103.05,39.83)" d="M3,0A3,3 0 1,1 0,-3A3,3 0 0,1 3,0Z" style="opacity: 1; stroke-width: 0px; fill: rgb(239, 85, 59); fill-opacity: 1;"/><path class="point" transform="translate(117.05,39.16)" d="M3,0A3,3 0 1,1 0,-3A3,3 0 0,1 3,0Z" style="opacity: 1; stroke-width: 0px; fill: rgb(239, 85, 59); fill-opacity: 1;"/><path class="point" transform="translate(128.71,38.49)" d="M3,0A3,3 0 1,1 0,-3A3,3 0 0,1 3,0Z" style="opacity: 1; stroke-width: 0px; fill: rgb(239, 85, 59); fill-opacity: 1;"/><path class="point" transform="translate(145.04,37.83)" d="M3,0A3,3 0 1,1 0,-3A3,3 0 0,1 3,0Z" style="opacity: 1; stroke-width: 0px; fill: rgb(239, 85, 59); fill-opacity: 1;"/><path class="point" transform="translate(159.04,37.16)" d="M3,0A3,3 0 1,1 0,-3A3,3 0 0,1 3,0Z" style="opacity: 1; stroke-width: 0px; fill: rgb(239, 85, 59); fill-opacity: 1;"/><path class="point" transform="translate(170.7,36.49)" d="M3,0A3,3 0 1,1 0,-3A3,3 0 0,1 3,0Z" style="opacity: 1; stroke-width: 0px; fill: rgb(239, 85, 59); fill-opacity: 1;"/><path class="point" transform="translate(184.7,35.83)" d="M3,0A3,3 0 1,1 0,-3A3,3 0 0,1 3,0Z" style="opacity: 1; stroke-width: 0px; fill: rgb(239, 85, 59); fill-opacity: 1;"/><path class="point" transform="translate(198.69,35.16)" d="M3,0A3,3 0 1,1 0,-3A3,3 0 0,1 3,0Z" style="opacity: 1; stroke-width: 0px; fill: rgb(239, 85, 59); fill-opacity: 1;"/><path class="point" transform="translate(210.36,34.49)" d="M3,0A3,3 0 1,1 0,-3A3,3 0 0,1 3,0Z" style="opacity: 1; stroke-width: 0px; fill: rgb(239, 85, 59); fill-opacity: 1;"/><path class="point" transform="translate(226.69,33.82)" d="M3,0A3,3 0 1,1 0,-3A3,3 0 0,1 3,0Z" style="opacity: 1; stroke-width: 0px; fill: rgb(239, 85, 59); fill-opacity: 1;"/><path class="point" transform="translate(240.68,33.16)" d="M3,0A3,3 0 1,1 0,-3A3,3 0 0,1 3,0Z" style="opacity: 1; stroke-width: 0px; fill: rgb(239, 85, 59); fill-opacity: 1;"/><path class="point" transform="translate(254.68,32.49)" d="M3,0A3,3 0 1,1 0,-3A3,3 0 0,1 3,0Z" style="opacity: 1; stroke-width: 0px; fill: rgb(239, 85, 59); fill-opacity: 1;"/><path class="point" transform="translate(271.01,31.82)" d="M3,0A3,3 0 1,1 0,-3A3,3 0 0,1 3,0Z" style="opacity: 1; stroke-width: 0px; fill: rgb(239, 85, 59); fill-opacity: 1;"/><path class="point" transform="translate(282.67,31.16)" d="M3,0A3,3 0 1,1 0,-3A3,3 0 0,1 3,0Z" style="opacity: 1; stroke-width: 0px; fill: rgb(239, 85, 59); fill-opacity: 1;"/><path class="point" transform="translate(296.67,30.49)" d="M3,0A3,3 0 1,1 0,-3A3,3 0 0,1 3,0Z" style="opacity: 1; stroke-width: 0px; fill: rgb(239, 85, 59); fill-opacity: 1;"/><path class="point" transform="translate(310.67,29.82)" d="M3,0A3,3 0 1,1 0,-3A3,3 0 0,1 3,0Z" style="opacity: 1; stroke-width: 0px; fill: rgb(239, 85, 59); fill-opacity: 1;"/><path class="point" transform="translate(322.33,29.16)" d="M3,0A3,3 0 1,1 0,-3A3,3 0 0,1 3,0Z" style="opacity: 1; stroke-width: 0px; fill: rgb(239, 85, 59); fill-opacity: 1;"/><path class="point" transform="translate(336.33,28.49)" d="M3,0A3,3 0 1,1 0,-3A3,3 0 0,1 3,0Z" style="opacity: 1; stroke-width: 0px; fill: rgb(239, 85, 59); fill-opacity: 1;"/><path class="point" transform="translate(347.99,27.82)" d="M3,0A3,3 0 1,1 0,-3A3,3 0 0,1 3,0Z" style="opacity: 1; stroke-width: 0px; fill: rgb(239, 85, 59); fill-opacity: 1;"/><path class="point" transform="translate(361.99,27.15)" d="M3,0A3,3 0 1,1 0,-3A3,3 0 0,1 3,0Z" style="opacity: 1; stroke-width: 0px; fill: rgb(239, 85, 59); fill-opacity: 1;"/><path class="point" transform="translate(373.65,26.49)" d="M3,0A3,3 0 1,1 0,-3A3,3 0 0,1 3,0Z" style="opacity: 1; stroke-width: 0px; fill: rgb(239, 85, 59); fill-opacity: 1;"/><path class="point" transform="translate(382.98,25.82)" d="M3,0A3,3 0 1,1 0,-3A3,3 0 0,1 3,0Z" style="opacity: 1; stroke-width: 0px; fill: rgb(239, 85, 59); fill-opacity: 1;"/><path class="point" transform="translate(396.98,25.15)" d="M3,0A3,3 0 1,1 0,-3A3,3 0 0,1 3,0Z" style="opacity: 1; stroke-width: 0px; fill: rgb(239, 85, 59); fill-opacity: 1;"/><path class="point" transform="translate(408.64,24.49)" d="M3,0A3,3 0 1,1 0,-3A3,3 0 0,1 3,0Z" style="opacity: 1; stroke-width: 0px; fill: rgb(239, 85, 59); fill-opacity: 1;"/><path class="point" transform="translate(422.64,23.82)" d="M3,0A3,3 0 1,1 0,-3A3,3 0 0,1 3,0Z" style="opacity: 1; stroke-width: 0px; fill: rgb(239, 85, 59); fill-opacity: 1;"/><path class="point" transform="translate(436.64,23.15)" d="M3,0A3,3 0 1,1 0,-3A3,3 0 0,1 3,0Z" style="opacity: 1; stroke-width: 0px; fill: rgb(239, 85, 59); fill-opacity: 1;"/><path class="point" transform="translate(448.3,22.49)" d="M3,0A3,3 0 1,1 0,-3A3,3 0 0,1 3,0Z" style="opacity: 1; stroke-width: 0px; fill: rgb(239, 85, 59); fill-opacity: 1;"/><path class="point" transform="translate(462.3,21.82)" d="M3,0A3,3 0 1,1 0,-3A3,3 0 0,1 3,0Z" style="opacity: 1; stroke-width: 0px; fill: rgb(239, 85, 59); fill-opacity: 1;"/><path class="point" transform="translate(473.96,21.15)" d="M3,0A3,3 0 1,1 0,-3A3,3 0 0,1 3,0Z" style="opacity: 1; stroke-width: 0px; fill: rgb(239, 85, 59); fill-opacity: 1;"/><path class="point" transform="translate(485.63,20.49)" d="M3,0A3,3 0 1,1 0,-3A3,3 0 0,1 3,0Z" style="opacity: 1; stroke-width: 0px; fill: rgb(239, 85, 59); fill-opacity: 1;"/><path class="point" transform="translate(497.29,19.82)" d="M3,0A3,3 0 1,1 0,-3A3,3 0 0,1 3,0Z" style="opacity: 1; stroke-width: 0px; fill: rgb(239, 85, 59); fill-opacity: 1;"/><path class="point" transform="translate(513.62,19.15)" d="M3,0A3,3 0 1,1 0,-3A3,3 0 0,1 3,0Z" style="opacity: 1; stroke-width: 0px; fill: rgb(239, 85, 59); fill-opacity: 1;"/><path class="point" transform="translate(527.62,18.48)" d="M3,0A3,3 0 1,1 0,-3A3,3 0 0,1 3,0Z" style="opacity: 1; stroke-width: 0px; fill: rgb(239, 85, 59); fill-opacity: 1;"/><path class="point" transform="translate(541.61,17.82)" d="M3,0A3,3 0 1,1 0,-3A3,3 0 0,1 3,0Z" style="opacity: 1; stroke-width: 0px; fill: rgb(239, 85, 59); fill-opacity: 1;"/><path class="point" transform="translate(553.28,17.15)" d="M3,0A3,3 0 1,1 0,-3A3,3 0 0,1 3,0Z" style="opacity: 1; stroke-width: 0px; fill: rgb(239, 85, 59); fill-opacity: 1;"/><path class="point" transform="translate(567.27,16.48)" d="M3,0A3,3 0 1,1 0,-3A3,3 0 0,1 3,0Z" style="opacity: 1; stroke-width: 0px; fill: rgb(239, 85, 59); fill-opacity: 1;"/><path class="point" transform="translate(581.27,15.82)" d="M3,0A3,3 0 1,1 0,-3A3,3 0 0,1 3,0Z" style="opacity: 1; stroke-width: 0px; fill: rgb(239, 85, 59); fill-opacity: 1;"/><path class="point" transform="translate(597.6,15.15)" d="M3,0A3,3 0 1,1 0,-3A3,3 0 0,1 3,0Z" style="opacity: 1; stroke-width: 0px; fill: rgb(239, 85, 59); fill-opacity: 1;"/></g><g class="text"/></g></g></g><g class="overplot"/><path class="xlines-above crisp" d="M0,0" style="fill: none;"/><path class="ylines-above crisp" d="M0,0" style="fill: none;"/><g class="overlines-above"/><g class="xaxislayer-above"><g class="xtick"><text text-anchor="middle" x="0" y="349" transform="translate(108.4,0)" style="font-family: 'Open Sans', verdana, arial, sans-serif; font-size: 20px; fill: rgb(42, 63, 95); fill-opacity: 1; white-space: pre;">0</text></g><g class="xtick"><text text-anchor="middle" x="0" y="349" transform="translate(225.04,0)" style="font-family: 'Open Sans', verdana, arial, sans-serif; font-size: 20px; fill: rgb(42, 63, 95); fill-opacity: 1; white-space: pre;">50</text></g><g class="xtick"><text text-anchor="middle" x="0" y="349" transform="translate(341.68,0)" style="font-family: 'Open Sans', verdana, arial, sans-serif; font-size: 20px; fill: rgb(42, 63, 95); fill-opacity: 1; white-space: pre;">100</text></g><g class="xtick"><text text-anchor="middle" x="0" y="349" transform="translate(458.32,0)" style="font-family: 'Open Sans', verdana, arial, sans-serif; font-size: 20px; fill: rgb(42, 63, 95); fill-opacity: 1; white-space: pre;">150</text></g><g class="xtick"><text text-anchor="middle" x="0" y="349" transform="translate(574.96,0)" style="font-family: 'Open Sans', verdana, arial, sans-serif; font-size: 20px; fill: rgb(42, 63, 95); fill-opacity: 1; white-space: pre;">200</text></g><g class="xtick"><text text-anchor="middle" x="0" y="349" transform="translate(691.6,0)" style="font-family: 'Open Sans', verdana, arial, sans-serif; font-size: 20px; fill: rgb(42, 63, 95); fill-opacity: 1; white-space: pre;">250</text></g></g><g class="yaxislayer-above"><g class="ytick"><text text-anchor="end" x="86" y="7" transform="translate(0,316.6)" style="font-family: 'Open Sans', verdana, arial, sans-serif; font-size: 20px; fill: rgb(42, 63, 95); fill-opacity: 1; white-space: pre;">−65</text></g><g class="ytick"><text text-anchor="end" x="86" y="7" transform="translate(0,249.89)" style="font-family: 'Open Sans', verdana, arial, sans-serif; font-size: 20px; fill: rgb(42, 63, 95); fill-opacity: 1; white-space: pre;">−60</text></g><g class="ytick"><text text-anchor="end" x="86" y="7" transform="translate(0,183.19)" style="font-family: 'Open Sans', verdana, arial, sans-serif; font-size: 20px; fill: rgb(42, 63, 95); fill-opacity: 1; white-space: pre;">−55</text></g><g class="ytick"><text text-anchor="end" x="86" y="7" transform="translate(0,116.48)" style="font-family: 'Open Sans', verdana, arial, sans-serif; font-size: 20px; fill: rgb(42, 63, 95); fill-opacity: 1; white-space: pre;">−50</text></g></g><g class="overaxes-above"/></g></g><g class="polarlayer"/><g class="ternarylayer"/><g class="geolayer"/><g class="funnelarealayer"/><g class="pielayer"/><g class="treemaplayer"/><g class="sunburstlayer"/><g class="glimages"/><defs id="topdefs-62f572"><g class="clips"/><clipPath id="legend62f572"><rect width="476" height="90" x="1" y="1"/></clipPath></defs><g class="layer-above"><g class="imagelayer"/><g class="shapelayer"/></g><g class="infolayer"><g class="legend" pointer-events="all" transform="translate(87, 396.40000000000003)"><rect class="bg" shape-rendering="crispEdges" width="477" height="91" x="0.5" y="0.5" style="stroke: rgb(0, 0, 0); stroke-opacity: 1; fill: rgb(25, 211, 243); fill-opacity: 0.1; stroke-width: 1px;"/><g class="scrollbox" transform="translate(0, 0)" clip-path="url('#legend62f572')"><g class="groups"><g class="traces" transform="translate(1, 19.200000000000003)" style="opacity: 1;"><text class="legendtext user-select-none" text-anchor="start" x="40" y="7.0200000000000005" style="font-family: 'Open Sans', verdana, arial, sans-serif; font-size: 18px; fill: rgb(0, 0, 0); fill-opacity: 1; white-space: pre;">Reset potential</text><g class="layers" style="opacity: 0.5;"><g class="legendfill"/><g class="legendlines"><path class="js-line" d="M5,0h30" style="fill: none; stroke: rgb(0, 204, 150); stroke-opacity: 1; stroke-dasharray: 9px, 9px; stroke-width: 3px;"/></g><g class="legendsymbols"><g class="legendpoints"/></g></g><rect class="legendtoggle" pointer-events="all" x="0" y="-13.200000000000001" width="177.953125" height="26.400000000000002" style="cursor: pointer; fill: rgb(0, 0, 0); fill-opacity: 0;"/></g><g class="traces" transform="translate(238.640625, 19.200000000000003)" style="opacity: 1;"><text class="legendtext user-select-none" text-anchor="start" x="40" y="7.0200000000000005" style="font-family: 'Open Sans', verdana, arial, sans-serif; font-size: 18px; fill: rgb(0, 0, 0); fill-opacity: 1; white-space: pre;">Activation threshhold</text><g class="layers" style="opacity: 0.5;"><g class="legendfill"/><g class="legendlines"><path class="js-line" d="M5,0h30" style="fill: none; stroke: rgb(171, 99, 250); stroke-opacity: 1; stroke-dasharray: 9px, 9px; stroke-width: 3px;"/></g><g class="legendsymbols"><g class="legendpoints"/></g></g><rect class="legendtoggle" pointer-events="all" x="0" y="-13.200000000000001" width="235.140625" height="26.400000000000002" style="cursor: pointer; fill: rgb(0, 0, 0); fill-opacity: 0;"/></g><g class="traces" transform="translate(1, 45.6)" style="opacity: 1;"><text class="legendtext user-select-none" text-anchor="start" x="40" y="7.0200000000000005" style="font-family: 'Open Sans', verdana, arial, sans-serif; font-size: 18px; fill: rgb(0, 0, 0); fill-opacity: 1; white-space: pre;">Resting potential</text><g class="layers" style="opacity: 0.5;"><g class="legendfill"/><g class="legendlines"><path class="js-line" d="M5,0h30" style="fill: none; stroke: rgb(255, 161, 90); stroke-opacity: 1; stroke-dasharray: 9px, 9px; stroke-width: 3px;"/></g><g class="legendsymbols"><g class="legendpoints"/></g></g><rect class="legendtoggle" pointer-events="all" x="0" y="-13.200000000000001" width="194.78125" height="26.400000000000002" style="cursor: pointer; fill: rgb(0, 0, 0); fill-opacity: 0;"/></g><g class="traces" transform="translate(238.640625, 45.6)" style="opacity: 1;"><text class="legendtext user-select-none" text-anchor="start" x="40" y="7.0200000000000005" style="font-family: 'Open Sans', verdana, arial, sans-serif; font-size: 18px; fill: rgb(0, 0, 0); fill-opacity: 1; white-space: pre;">Voltage</text><g class="layers" style="opacity: 1;"><g class="legendfill"/><g class="legendlines"><path class="js-line" d="M5,0h30" style="fill: none; stroke: rgb(99, 110, 250); stroke-opacity: 1; stroke-width: 1px;"/></g><g class="legendsymbols"><g class="legendpoints"/></g></g><rect class="legendtoggle" pointer-events="all" x="0" y="-13.200000000000001" width="110.921875" height="26.400000000000002" style="cursor: pointer; fill: rgb(0, 0, 0); fill-opacity: 0;"/></g><g class="traces" transform="translate(1, 72)" style="opacity: 1;"><text class="legendtext user-select-none" text-anchor="start" x="40" y="7.0200000000000005" style="font-family: 'Open Sans', verdana, arial, sans-serif; font-size: 18px; fill: rgb(0, 0, 0); fill-opacity: 1; white-space: pre;">Spikes</text><g class="layers" style="opacity: 1;"><g class="legendfill"/><g class="legendlines"/><g class="legendsymbols"><g class="legendpoints"><path class="scatterpts" transform="translate(20,0)" d="M3,0A3,3 0 1,1 0,-3A3,3 0 0,1 3,0Z" style="opacity: 1; stroke-width: 0px; fill: rgb(239, 85, 59); fill-opacity: 1;"/></g></g></g><rect class="legendtoggle" pointer-events="all" x="0" y="-13.200000000000001" width="101.546875" height="26.400000000000002" style="cursor: pointer; fill: rgb(0, 0, 0); fill-opacity: 0;"/></g></g></g><rect class="scrollbar" rx="20" ry="3" width="0" height="0" x="0" y="0" style="fill: rgb(128, 139, 164); fill-opacity: 1;"/></g><g class="g-gtitle"/><g class="g-xtitle"><text class="xtitle" x="403.5" y="384.8" text-anchor="middle" style="font-family: 'Open Sans', verdana, arial, sans-serif; font-size: 24px; fill: rgb(42, 63, 95); opacity: 1; font-weight: normal; white-space: pre;">Time</text></g><g class="g-ytitle" transform="translate(11.5966796875,0)"><text class="ytitle" transform="rotate(-90,12.403125000000003,214)" x="12.403125000000003" y="214" text-anchor="middle" style="font-family: 'Open Sans', verdana, arial, sans-serif; font-size: 24px; fill: rgb(42, 63, 95); opacity: 1; font-weight: normal; white-space: pre;">Voltage</text></g></g></svg>