<svg class="main-svg" xmlns="http://www.w3.org/2000/svg" xmlns:xlink="http://www.w3.org/1999/xlink" width="900" height="600" style="" viewBox="0 0 900 600"><rect x="0" y="0" width="900" height="600" style="fill: rgb(255, 255, 255); fill-opacity: 1;"/><defs id="defs-e20025"><g class="clips"><clipPath id="clipe20025xyplot" class="plotclip"><rect width="731" height="325"/></clipPath><clipPath class="axesclip" id="clipe20025x"><rect x="89" y="0" width="731" height="600"/></clipPath><clipPath class="axesclip" id="clipe20025y"><rect x="0" y="100" width="900" height="325"/></clipPath><clipPath class="axesclip" id="clipe20025xy"><rect x="89" y="100" width="731" height="325"/></clipPath></g><g class="gradients"/></defs><g class="bglayer"/><g class="layer-below"><g class="imagelayer"/><g class="shapelayer"/></g><g class="cartesianlayer"><g class="subplot xy"><g class="layer-subplot"><g class="shapelayer"/><g class="imagelayer"/></g><g class="gridlayer"><g class="x"/><g class="y"/></g><g class="zerolinelayer"><path class="xzl zl crisp" transform="translate(112.83,0)" d="M0,100v325" style="stroke: rgb(0, 44, 117); stroke-opacity: 1; stroke-width: 1px;"/></g><path class="xlines-below"/><path class="ylines-below"/><g class="overlines-below"/><g class="xaxislayer-below"/><g class="yaxislayer-below"/><g class="overaxes-below"/><g class="plot" transform="translate(89, 100)" clip-path="url('#clipe20025xyplot')"><g class="scatterlayer mlayer"><g class="trace scatter trace04fded" style="stroke-miterlimit: 2; opacity: 0.5;"><g class="fills"/><g class="errorbars"/><g class="lines"><path class="js-line" d="M23.83,308.75H709.91V308.75" style="vector-effect: non-scaling-stroke; fill: none; stroke: rgb(44, 160, 44); stroke-opacity: 1; stroke-width: 3px; opacity: 1; stroke-dasharray: 9px, 9px;"/></g><g class="points"/><g class="text"/></g><g class="trace scatter trace4f67f0" style="stroke-miterlimit: 2; opacity: 0.5;"><g class="fills"/><g class="errorbars"/><g class="lines"><path class="js-line" d="M23.83,55.11H26.58V55.11H29.32V55.11H32.07V55.11H34.81V55.11H37.56V55.11H40.3V54.14H43.04V54.14H45.79V54.14H48.53V54.14H51.28V54.14H54.02V54.14H56.77V53.16H59.51V53.16H62.25V53.16H65V53.16H67.74V53.16H70.49V53.16H73.23V52.19H75.98V52.19H78.72V52.19H81.46V52.19H84.21V52.19H86.95V52.19H89.7V52.19H92.44V51.21H95.19V51.21H97.93V51.21H100.67V51.21H103.42V51.21H106.16V51.21H108.91V51.21H111.65V50.24H114.4V50.24H117.14V50.24H119.88V50.24H122.63V50.24H125.37V49.26H128.12V49.26H130.86V49.26H133.61V49.26H136.35V49.26H139.09V49.26H141.84V49.26H144.58V49.26H147.33V48.29H150.07V48.29H152.82V48.29H155.56V48.29H158.31V48.29H161.05V47.31H163.79V47.31H166.54V47.31H169.28V47.31H172.03V47.31H174.77V47.31H177.52V47.31H180.26V47.31H183V46.33H185.75V46.34H188.49V46.34H191.24V46.34H193.98V46.34H196.73V46.34H199.47V46.34H202.21V45.36H204.96V45.36H207.7V45.36H210.45V45.36H213.19V45.36H215.94V45.36H218.68V45.36H221.42V45.36H224.17V44.38H226.91V44.38H229.66V44.38H232.4V44.38H235.15V44.38H237.89V44.38H240.63V43.41H243.38V43.41H246.12V43.41H248.87V43.41H251.61V43.41H254.36V43.41H257.1V43.41H259.84V43.41H262.59V42.43H265.33V42.43H268.08V42.43H270.82V42.43H273.57V42.43H276.31V42.43H279.05V41.46H281.8V41.46H284.54V41.46H287.29V41.46H290.03V41.46H292.78V41.46H295.52V41.46H298.26V40.48H301.01V40.48H303.75V40.48H306.5V40.48H309.24V40.48H311.99V40.48H314.73V40.48H317.47V39.51H320.22V39.51H322.96V39.51H325.71V39.51H328.45V39.51H331.2V38.53H333.94V38.53H336.68V38.53H339.43V38.53H342.17V38.53H344.92V38.53H347.66V37.56H350.41V37.56H353.15V37.56H355.89V37.56H358.64V37.56H361.38V37.56H364.13V37.56H366.87V37.56H369.62V36.58H372.36V36.58H375.11V36.58H377.85V36.58H380.59V36.58H383.34V36.58H386.08V35.61H388.83V35.61H391.57V35.61H394.32V35.61H397.06V35.61H399.8V35.61H402.55V34.63H405.29V34.63H408.04V34.63H410.78V34.63H413.53V34.63H416.27V33.65H419.01V33.65H421.76V33.65H424.5V33.65H427.25V33.65H429.99V33.65H432.74V33.65H435.48V33.65H438.22V32.68H440.97V32.68H443.71V32.68H446.46V32.68H449.2V32.68H451.95V32.68H454.69V31.7H457.43V31.7H460.18V31.7H462.92V31.7H465.67V31.7H468.41V31.7H471.16V30.73H473.9V30.73H476.64V30.73H479.39V30.73H482.13V30.73H484.88V30.73H487.62V29.75H490.37V29.75H493.11V29.75H495.85V29.75H498.6V29.75H501.34V29.75H504.09V28.78H506.83V28.78H509.58V28.78H512.32V28.78H515.06V28.78H517.81V28.78H520.55V28.78H523.3V27.8H526.04V27.8H528.79V27.8H531.53V27.8H534.27V27.8H537.02V27.8H539.76V27.8H542.51V26.83H545.25V26.83H548V26.83H550.74V26.83H553.48V26.83H556.23V25.85H558.97V25.85H561.72V25.85H564.46V25.85H567.21V25.85H569.95V25.85H572.69V25.85H575.44V24.88H578.18V24.88H580.93V24.88H583.67V24.88H586.42V24.88H589.16V24.88H591.91V23.9H594.65V23.9H597.39V23.9H600.14V23.9H602.88V23.9H605.63V23.9H608.37V23.9H611.12V23.9H613.86V23.9H616.6V22.93H619.35V22.93H622.09V22.93H624.84V22.93H627.58V22.93H630.33V22.93H633.07V22.93H635.81V22.93H638.56V21.95H641.3V21.95H644.05V21.95H646.79V21.95H649.54V21.95H652.28V21.95H655.02V21.95H657.77V20.98H660.51V20.98H663.26V20.98H666V20.98H668.75V20.98H671.49V20.98H674.23V20H676.98V20H679.72V20H682.47V20H685.21V20H687.96V20H690.7V19.02H693.44V19.02H696.19V19.02H698.93V19.02H701.68V19.02H704.42V19.02H707.17V19.02" style="vector-effect: non-scaling-stroke; fill: none; stroke: rgb(214, 39, 40); stroke-opacity: 1; stroke-width: 3px; opacity: 1; stroke-dasharray: 9px, 9px;"/></g><g class="points"/><g class="text"/></g><g class="trace scatter trace3a5f09" style="stroke-miterlimit: 2; opacity: 0.5;"><g class="fills"/><g class="errorbars"/><g class="lines"><path class="js-line" d="M23.83,211.2H709.91V211.2" style="vector-effect: non-scaling-stroke; fill: none; stroke: rgb(148, 103, 189); stroke-opacity: 1; stroke-width: 3px; opacity: 1; stroke-dasharray: 9px, 9px;"/></g><g class="points"/><g class="text"/></g><g class="trace scatter trace9b2afd" style="stroke-miterlimit: 2; opacity: 1;"><g class="fills"/><g class="errorbars"/><g class="lines"><path class="js-line" d="M23.83,211.2H26.58V211.2H29.32V211.2H32.07V153.14H34.81V136.61H37.56V101.54H40.3V55.11H43.04V303.99H45.79V299.47H48.53V237.1H51.28V139.08H54.02V103.89H56.77V54.14H59.51V303.99H62.25V299.47H65V256.46H67.74V215.54H70.49V99.21H73.23V53.16H75.98V303.99H78.72V299.47H81.46V275.81H84.21V214.6H86.95V117.66H89.7V83.52H92.44V52.19H95.19V303.99H97.93V299.47H100.67V237.1H103.42V197.13H106.16V159.11H108.91V103.6H111.65V51.21H114.4V303.99H117.14V299.47H119.88V179.04H122.63V141.91H125.37V50.24H128.12V303.99H130.86V299.47H133.61V237.1H136.35V197.13H139.09V159.11H141.84V122.94H144.58V69.19H147.33V49.26H150.07V303.99H152.82V299.47H155.56V198.4H158.31V179.67H161.05V48.29H163.79V303.99H166.54V299.47H169.28V217.75H172.03V120.67H174.77V125.08H177.52V129.28H180.26V55.86H183V47.31H185.75V303.99H188.49V299.47H191.24V237.1H193.98V158.43H196.73V122.3H199.47V107.28H202.21V46.34H204.96V303.99H207.7V299.47H210.45V237.1H213.19V197.13H215.94V120.41H218.68V86.13H221.42V72.88H224.17V45.36H226.91V303.99H229.66V299.47H232.4V256.46H235.15V157.48H237.89V121.4H240.63V44.38H243.38V303.99H246.12V299.47H248.87V217.75H251.61V198.07H254.36V179.36H257.1V103.5H259.84V70.05H262.59V43.41H265.33V303.99H268.08V299.47H270.82V217.75H273.57V217.43H276.31V101.01H279.05V42.43H281.8V303.99H284.54V299.47H287.29V256.46H290.03V176.84H292.78V101.1H295.52V87.12H298.26V41.46H301.01V303.99H303.75V299.47H306.5V256.46H309.24V234.89H311.99V175.68H314.73V158.06H317.47V40.48H320.22V303.99H322.96V299.47H325.71V198.4H328.45V121.61H331.2V39.51H333.94V303.99H336.68V299.47H339.43V179.04H342.17V161.26H344.92V105.63H347.66V38.53H350.41V303.99H353.15V299.47H355.89V295.16H358.64V252.36H361.38V231H364.13V113.91H366.87V60.6H369.62V37.56H372.36V303.99H375.11V299.47H377.85V198.4H380.59V160.32H383.34V104.74H386.08V36.58H388.83V303.99H391.57V299.47H394.32V256.46H397.06V138.13H399.8V83.63H402.55V35.61H405.29V303.99H408.04V299.47H410.78V256.46H413.53V118.78H416.27V34.63H419.01V303.99H421.76V299.47H424.5V237.1H427.25V216.49H429.99V177.52H432.74V140.46H435.48V105.2H438.22V33.65H440.97V303.99H443.71V299.47H446.46V256.45H449.2V176.83H451.95V101.1H454.69V32.68H457.43V303.99H460.18V299.47H462.92V237.1H465.67V139.07H468.41V103.89H471.16V31.7H473.9V303.99H476.64V299.47H479.39V237.1H482.13V177.78H484.88V140.7H487.62V30.73H490.37V303.99H493.11V299.47H495.85V237.1H498.6V158.43H501.34V141.65H504.09V29.75H506.83V303.99H509.58V299.47H512.32V217.75H515.06V140.02H517.81V143.49H520.55V88.73H523.3V28.78H526.04V303.99H528.79V299.47H531.53V217.75H534.27V198.08H537.02V121.31H539.76V86.98H542.51V27.8H545.25V303.99H548V299.47H550.74V159.69H553.48V84.79H556.23V26.83H558.97V303.99H561.72V299.47H564.46V217.75H567.21V217.43H569.95V178.42H572.69V121.96H575.44V25.85H578.18V303.99H580.93V299.47H583.67V237.1H586.42V177.78H589.16V121.35H591.91V24.88H594.65V303.99H597.39V299.47H600.14V237.1H602.88V177.78H605.63V140.7H608.37V86.08H611.12V72.83H613.86V60.23H616.6V23.9H619.35V303.99H622.09V299.47H624.84V275.81H627.58V253.31H630.33V231.9H633.07V172.83H635.81V97.29H638.56V22.93H641.3V303.99H644.05V299.47H646.79V237.1H649.54V177.78H652.28V121.35H655.02V106.38H657.77V21.95H660.51V303.99H663.26V299.47H666V295.16H668.75V155.6H671.49V80.9H674.23V20.98H676.98V303.99H679.72V299.47H682.47V256.46H685.21V176.84H687.96V120.45H690.7V20H693.44V303.99H696.19V299.47H698.93V237.1H701.68V158.43H704.42V64.24H707.17V71.4" style="vector-effect: non-scaling-stroke; fill: none; stroke: rgb(31, 119, 180); stroke-opacity: 1; stroke-width: 1px; opacity: 1;"/></g><g class="points"/><g class="text"/></g><g class="trace scatter trace5350fb" style="stroke-miterlimit: 2; opacity: 1;"><g class="fills"/><g class="errorbars"/><g class="lines"/><g class="points"><path class="point" transform="translate(40.3,55.11)" d="M3,0A3,3 0 1,1 0,-3A3,3 0 0,1 3,0Z" style="opacity: 1; stroke-width: 0px; fill: rgb(255, 127, 14); fill-opacity: 1;"/><path class="point" transform="translate(56.77,54.14)" d="M3,0A3,3 0 1,1 0,-3A3,3 0 0,1 3,0Z" style="opacity: 1; stroke-width: 0px; fill: rgb(255, 127, 14); fill-opacity: 1;"/><path class="point" transform="translate(73.23,53.16)" d="M3,0A3,3 0 1,1 0,-3A3,3 0 0,1 3,0Z" style="opacity: 1; stroke-width: 0px; fill: rgb(255, 127, 14); fill-opacity: 1;"/><path class="point" transform="translate(92.44,52.19)" d="M3,0A3,3 0 1,1 0,-3A3,3 0 0,1 3,0Z" style="opacity: 1; stroke-width: 0px; fill: rgb(255, 127, 14); fill-opacity: 1;"/><path class="point" transform="translate(111.65,51.21)" d="M3,0A3,3 0 1,1 0,-3A3,3 0 0,1 3,0Z" style="opacity: 1; stroke-width: 0px; fill: rgb(255, 127, 14); fill-opacity: 1;"/><path class="point" transform="translate(125.37,50.24)" d="M3,0A3,3 0 1,1 0,-3A3,3 0 0,1 3,0Z" style="opacity: 1; stroke-width: 0px; fill: rgb(255, 127, 14); fill-opacity: 1;"/><path class="point" transform="translate(147.33,49.26)" d="M3,0A3,3 0 1,1 0,-3A3,3 0 0,1 3,0Z" style="opacity: 1; stroke-width: 0px; fill: rgb(255, 127, 14); fill-opacity: 1;"/><path class="point" transform="translate(161.05,48.29)" d="M3,0A3,3 0 1,1 0,-3A3,3 0 0,1 3,0Z" style="opacity: 1; stroke-width: 0px; fill: rgb(255, 127, 14); fill-opacity: 1;"/><path class="point" transform="translate(183,47.31)" d="M3,0A3,3 0 1,1 0,-3A3,3 0 0,1 3,0Z" style="opacity: 1; stroke-width: 0px; fill: rgb(255, 127, 14); fill-opacity: 1;"/><path class="point" transform="translate(202.21,46.34)" d="M3,0A3,3 0 1,1 0,-3A3,3 0 0,1 3,0Z" style="opacity: 1; stroke-width: 0px; fill: rgb(255, 127, 14); fill-opacity: 1;"/><path class="point" transform="translate(224.17,45.36)" d="M3,0A3,3 0 1,1 0,-3A3,3 0 0,1 3,0Z" style="opacity: 1; stroke-width: 0px; fill: rgb(255, 127, 14); fill-opacity: 1;"/><path class="point" transform="translate(240.63,44.38)" d="M3,0A3,3 0 1,1 0,-3A3,3 0 0,1 3,0Z" style="opacity: 1; stroke-width: 0px; fill: rgb(255, 127, 14); fill-opacity: 1;"/><path class="point" transform="translate(262.59,43.41)" d="M3,0A3,3 0 1,1 0,-3A3,3 0 0,1 3,0Z" style="opacity: 1; stroke-width: 0px; fill: rgb(255, 127, 14); fill-opacity: 1;"/><path class="point" transform="translate(279.05,42.43)" d="M3,0A3,3 0 1,1 0,-3A3,3 0 0,1 3,0Z" style="opacity: 1; stroke-width: 0px; fill: rgb(255, 127, 14); fill-opacity: 1;"/><path class="point" transform="translate(298.26,41.46)" d="M3,0A3,3 0 1,1 0,-3A3,3 0 0,1 3,0Z" style="opacity: 1; stroke-width: 0px; fill: rgb(255, 127, 14); fill-opacity: 1;"/><path class="point" transform="translate(317.47,40.48)" d="M3,0A3,3 0 1,1 0,-3A3,3 0 0,1 3,0Z" style="opacity: 1; stroke-width: 0px; fill: rgb(255, 127, 14); fill-opacity: 1;"/><path class="point" transform="translate(331.2,39.51)" d="M3,0A3,3 0 1,1 0,-3A3,3 0 0,1 3,0Z" style="opacity: 1; stroke-width: 0px; fill: rgb(255, 127, 14); fill-opacity: 1;"/><path class="point" transform="translate(347.66,38.53)" d="M3,0A3,3 0 1,1 0,-3A3,3 0 0,1 3,0Z" style="opacity: 1; stroke-width: 0px; fill: rgb(255, 127, 14); fill-opacity: 1;"/><path class="point" transform="translate(369.62,37.56)" d="M3,0A3,3 0 1,1 0,-3A3,3 0 0,1 3,0Z" style="opacity: 1; stroke-width: 0px; fill: rgb(255, 127, 14); fill-opacity: 1;"/><path class="point" transform="translate(386.08,36.58)" d="M3,0A3,3 0 1,1 0,-3A3,3 0 0,1 3,0Z" style="opacity: 1; stroke-width: 0px; fill: rgb(255, 127, 14); fill-opacity: 1;"/><path class="point" transform="translate(402.55,35.61)" d="M3,0A3,3 0 1,1 0,-3A3,3 0 0,1 3,0Z" style="opacity: 1; stroke-width: 0px; fill: rgb(255, 127, 14); fill-opacity: 1;"/><path class="point" transform="translate(416.27,34.63)" d="M3,0A3,3 0 1,1 0,-3A3,3 0 0,1 3,0Z" style="opacity: 1; stroke-width: 0px; fill: rgb(255, 127, 14); fill-opacity: 1;"/><path class="point" transform="translate(438.22,33.65)" d="M3,0A3,3 0 1,1 0,-3A3,3 0 0,1 3,0Z" style="opacity: 1; stroke-width: 0px; fill: rgb(255, 127, 14); fill-opacity: 1;"/><path class="point" transform="translate(454.69,32.68)" d="M3,0A3,3 0 1,1 0,-3A3,3 0 0,1 3,0Z" style="opacity: 1; stroke-width: 0px; fill: rgb(255, 127, 14); fill-opacity: 1;"/><path class="point" transform="translate(471.16,31.7)" d="M3,0A3,3 0 1,1 0,-3A3,3 0 0,1 3,0Z" style="opacity: 1; stroke-width: 0px; fill: rgb(255, 127, 14); fill-opacity: 1;"/><path class="point" transform="translate(487.62,30.73)" d="M3,0A3,3 0 1,1 0,-3A3,3 0 0,1 3,0Z" style="opacity: 1; stroke-width: 0px; fill: rgb(255, 127, 14); fill-opacity: 1;"/><path class="point" transform="translate(504.09,29.75)" d="M3,0A3,3 0 1,1 0,-3A3,3 0 0,1 3,0Z" style="opacity: 1; stroke-width: 0px; fill: rgb(255, 127, 14); fill-opacity: 1;"/><path class="point" transform="translate(523.3,28.78)" d="M3,0A3,3 0 1,1 0,-3A3,3 0 0,1 3,0Z" style="opacity: 1; stroke-width: 0px; fill: rgb(255, 127, 14); fill-opacity: 1;"/><path class="point" transform="translate(542.51,27.8)" d="M3,0A3,3 0 1,1 0,-3A3,3 0 0,1 3,0Z" style="opacity: 1; stroke-width: 0px; fill: rgb(255, 127, 14); fill-opacity: 1;"/><path class="point" transform="translate(556.23,26.83)" d="M3,0A3,3 0 1,1 0,-3A3,3 0 0,1 3,0Z" style="opacity: 1; stroke-width: 0px; fill: rgb(255, 127, 14); fill-opacity: 1;"/><path class="point" transform="translate(575.44,25.85)" d="M3,0A3,3 0 1,1 0,-3A3,3 0 0,1 3,0Z" style="opacity: 1; stroke-width: 0px; fill: rgb(255, 127, 14); fill-opacity: 1;"/><path class="point" transform="translate(591.91,24.88)" d="M3,0A3,3 0 1,1 0,-3A3,3 0 0,1 3,0Z" style="opacity: 1; stroke-width: 0px; fill: rgb(255, 127, 14); fill-opacity: 1;"/><path class="point" transform="translate(616.6,23.9)" d="M3,0A3,3 0 1,1 0,-3A3,3 0 0,1 3,0Z" style="opacity: 1; stroke-width: 0px; fill: rgb(255, 127, 14); fill-opacity: 1;"/><path class="point" transform="translate(638.56,22.93)" d="M3,0A3,3 0 1,1 0,-3A3,3 0 0,1 3,0Z" style="opacity: 1; stroke-width: 0px; fill: rgb(255, 127, 14); fill-opacity: 1;"/><path class="point" transform="translate(657.77,21.95)" d="M3,0A3,3 0 1,1 0,-3A3,3 0 0,1 3,0Z" style="opacity: 1; stroke-width: 0px; fill: rgb(255, 127, 14); fill-opacity: 1;"/><path class="point" transform="translate(674.23,20.98)" d="M3,0A3,3 0 1,1 0,-3A3,3 0 0,1 3,0Z" style="opacity: 1; stroke-width: 0px; fill: rgb(255, 127, 14); fill-opacity: 1;"/><path class="point" transform="translate(690.7,20)" d="M3,0A3,3 0 1,1 0,-3A3,3 0 0,1 3,0Z" style="opacity: 1; stroke-width: 0px; fill: rgb(255, 127, 14); fill-opacity: 1;"/></g><g class="text"/></g></g></g><g class="overplot"/><path class="xlines-above crisp" d="M88,425.5H820" style="fill: none; stroke-width: 1px; stroke: rgb(36, 36, 36); stroke-opacity: 1;"/><path class="ylines-above crisp" d="M88.5,100V425" style="fill: none; stroke-width: 1px; stroke: rgb(36, 36, 36); stroke-opacity: 1;"/><g class="overlines-above"/><g class="xaxislayer-above"><path class="xtick ticks crisp" d="M0,426v5" transform="translate(112.83,0)" style="stroke: rgb(68, 68, 68); stroke-opacity: 1; stroke-width: 1px;"/><path class="xtick ticks crisp" d="M0,426v5" transform="translate(250.05,0)" style="stroke: rgb(68, 68, 68); stroke-opacity: 1; stroke-width: 1px;"/><path class="xtick ticks crisp" d="M0,426v5" transform="translate(387.26,0)" style="stroke: rgb(68, 68, 68); stroke-opacity: 1; stroke-width: 1px;"/><path class="xtick ticks crisp" d="M0,426v5" transform="translate(524.48,0)" style="stroke: rgb(68, 68, 68); stroke-opacity: 1; stroke-width: 1px;"/><path class="xtick ticks crisp" d="M0,426v5" transform="translate(661.69,0)" style="stroke: rgb(68, 68, 68); stroke-opacity: 1; stroke-width: 1px;"/><path class="xtick ticks crisp" d="M0,426v5" transform="translate(798.91,0)" style="stroke: rgb(68, 68, 68); stroke-opacity: 1; stroke-width: 1px;"/><g class="xtick"><text text-anchor="middle" x="0" y="455" transform="translate(112.83,0)" style="font-family: 'Open Sans', verdana, arial, sans-serif; font-size: 20px; fill: rgb(36, 36, 36); fill-opacity: 1; white-space: pre;">0</text></g><g class="xtick"><text text-anchor="middle" x="0" y="455" transform="translate(250.05,0)" style="font-family: 'Open Sans', verdana, arial, sans-serif; font-size: 20px; fill: rgb(36, 36, 36); fill-opacity: 1; white-space: pre;">50</text></g><g class="xtick"><text text-anchor="middle" x="0" y="455" transform="translate(387.26,0)" style="font-family: 'Open Sans', verdana, arial, sans-serif; font-size: 20px; fill: rgb(36, 36, 36); fill-opacity: 1; white-space: pre;">100</text></g><g class="xtick"><text text-anchor="middle" x="0" y="455" transform="translate(524.48,0)" style="font-family: 'Open Sans', verdana, arial, sans-serif; font-size: 20px; fill: rgb(36, 36, 36); fill-opacity: 1; white-space: pre;">150</text></g><g class="xtick"><text text-anchor="middle" x="0" y="455" transform="translate(661.69,0)" style="font-family: 'Open Sans', verdana, arial, sans-serif; font-size: 20px; fill: rgb(36, 36, 36); fill-opacity: 1; white-space: pre;">200</text></g><g class="xtick"><text text-anchor="middle" x="0" y="455" transform="translate(798.91,0)" style="font-family: 'Open Sans', verdana, arial, sans-serif; font-size: 20px; fill: rgb(36, 36, 36); fill-opacity: 1; white-space: pre;">250</text></g></g><g class="yaxislayer-above"><path class="ytick ticks crisp" d="M88,0h-5" transform="translate(0,389.24)" style="stroke: rgb(68, 68, 68); stroke-opacity: 1; stroke-width: 1px;"/><path class="ytick ticks crisp" d="M88,0h-5" transform="translate(0,350.22)" style="stroke: rgb(68, 68, 68); stroke-opacity: 1; stroke-width: 1px;"/><path class="ytick ticks crisp" d="M88,0h-5" transform="translate(0,311.2)" style="stroke: rgb(68, 68, 68); stroke-opacity: 1; stroke-width: 1px;"/><path class="ytick ticks crisp" d="M88,0h-5" transform="translate(0,272.18)" style="stroke: rgb(68, 68, 68); stroke-opacity: 1; stroke-width: 1px;"/><path class="ytick ticks crisp" d="M88,0h-5" transform="translate(0,233.16)" style="stroke: rgb(68, 68, 68); stroke-opacity: 1; stroke-width: 1px;"/><path class="ytick ticks crisp" d="M88,0h-5" transform="translate(0,194.14)" style="stroke: rgb(68, 68, 68); stroke-opacity: 1; stroke-width: 1px;"/><path class="ytick ticks crisp" d="M88,0h-5" transform="translate(0,155.11)" style="stroke: rgb(68, 68, 68); stroke-opacity: 1; stroke-width: 1px;"/><path class="ytick ticks crisp" d="M88,0h-5" transform="translate(0,116.09)" style="stroke: rgb(68, 68, 68); stroke-opacity: 1; stroke-width: 1px;"/><g class="ytick"><text text-anchor="end" x="79" y="7" transform="translate(0,389.24)" style="font-family: 'Open Sans', verdana, arial, sans-serif; font-size: 20px; fill: rgb(36, 36, 36); fill-opacity: 1; white-space: pre;">−64</text></g><g class="ytick"><text text-anchor="end" x="79" y="7" transform="translate(0,350.22)" style="font-family: 'Open Sans', verdana, arial, sans-serif; font-size: 20px; fill: rgb(36, 36, 36); fill-opacity: 1; white-space: pre;">−62</text></g><g class="ytick"><text text-anchor="end" x="79" y="7" transform="translate(0,311.2)" style="font-family: 'Open Sans', verdana, arial, sans-serif; font-size: 20px; fill: rgb(36, 36, 36); fill-opacity: 1; white-space: pre;">−60</text></g><g class="ytick"><text text-anchor="end" x="79" y="7" transform="translate(0,272.18)" style="font-family: 'Open Sans', verdana, arial, sans-serif; font-size: 20px; fill: rgb(36, 36, 36); fill-opacity: 1; white-space: pre;">−58</text></g><g class="ytick"><text text-anchor="end" x="79" y="7" transform="translate(0,233.16)" style="font-family: 'Open Sans', verdana, arial, sans-serif; font-size: 20px; fill: rgb(36, 36, 36); fill-opacity: 1; white-space: pre;">−56</text></g><g class="ytick"><text text-anchor="end" x="79" y="7" transform="translate(0,194.14)" style="font-family: 'Open Sans', verdana, arial, sans-serif; font-size: 20px; fill: rgb(36, 36, 36); fill-opacity: 1; white-space: pre;">−54</text></g><g class="ytick"><text text-anchor="end" x="79" y="7" transform="translate(0,155.11)" style="font-family: 'Open Sans', verdana, arial, sans-serif; font-size: 20px; fill: rgb(36, 36, 36); fill-opacity: 1; white-space: pre;">−52</text></g><g class="ytick"><text text-anchor="end" x="79" y="7" transform="translate(0,116.09)" style="font-family: 'Open Sans', verdana, arial, sans-serif; font-size: 20px; fill: rgb(36, 36, 36); fill-opacity: 1; white-space: pre;">−50</text></g></g><g class="overaxes-above"/></g></g><g class="polarlayer"/><g class="ternarylayer"/><g class="geolayer"/><g class="funnelarealayer"/><g class="pielayer"/><g class="treemaplayer"/><g class="sunburstlayer"/><g class="glimages"/><defs id="topdefs-e20025"><g class="clips"/><clipPath id="legende20025"><rect width="606" height="63" x="1" y="1"/></clipPath></defs><g class="layer-above"><g class="imagelayer"/><g class="shapelayer"/></g><g class="infolayer"><g class="legend" pointer-events="all" transform="translate(89, 522.5)"><rect class="bg" shape-rendering="crispEdges" width="607" height="64" x="0.5" y="0.5" style="stroke: rgb(5, 5, 25); stroke-opacity: 0; fill: rgb(5, 5, 25); fill-opacity: 0; stroke-width: 1px;"/><g class="scrollbox" transform="translate(0, 0)" clip-path="url('#legende20025')"><g class="groups"><g class="traces" transform="translate(1, 19.200000000000003)" style="opacity: 1;"><text class="legendtext user-select-none" text-anchor="start" x="40" y="7.0200000000000005" style="font-family: 'Open Sans', verdana, arial, sans-serif; font-size: 18px; fill: rgb(0, 0, 0); fill-opacity: 1; white-space: pre;">Reset potential</text><g class="layers" style="opacity: 0.5;"><g class="legendfill"/><g class="legendlines"><path class="js-line" d="M5,0h30" style="fill: none; stroke: rgb(44, 160, 44); stroke-opacity: 1; stroke-dasharray: 9px, 9px; stroke-width: 3px;"/></g><g class="legendsymbols"><g class="legendpoints"/></g></g><rect class="legendtoggle" pointer-events="all" x="0" y="-13.200000000000001" width="162.578125" height="26.400000000000002" style="cursor: pointer; fill: rgb(0, 0, 0); fill-opacity: 0;"/></g><g class="traces" transform="translate(214.109375, 19.200000000000003)" style="opacity: 1;"><text class="legendtext user-select-none" text-anchor="start" x="40" y="7.0200000000000005" style="font-family: 'Open Sans', verdana, arial, sans-serif; font-size: 18px; fill: rgb(0, 0, 0); fill-opacity: 1; white-space: pre;">Activation threshhold</text><g class="layers" style="opacity: 0.5;"><g class="legendfill"/><g class="legendlines"><path class="js-line" d="M5,0h30" style="fill: none; stroke: rgb(214, 39, 40); stroke-opacity: 1; stroke-dasharray: 9px, 9px; stroke-width: 3px;"/></g><g class="legendsymbols"><g class="legendpoints"/></g></g><rect class="legendtoggle" pointer-events="all" x="0" y="-13.200000000000001" width="210.609375" height="26.400000000000002" style="cursor: pointer; fill: rgb(0, 0, 0); fill-opacity: 0;"/></g><g class="traces" transform="translate(427.21875, 19.200000000000003)" style="opacity: 1;"><text class="legendtext user-select-none" text-anchor="start" x="40" y="7.0200000000000005" style="font-family: 'Open Sans', verdana, arial, sans-serif; font-size: 18px; fill: rgb(0, 0, 0); fill-opacity: 1; white-space: pre;">Resting potential</text><g class="layers" style="opacity: 0.5;"><g class="legendfill"/><g class="legendlines"><path class="js-line" d="M5,0h30" style="fill: none; stroke: rgb(148, 103, 189); stroke-opacity: 1; stroke-dasharray: 9px, 9px; stroke-width: 3px;"/></g><g class="legendsymbols"><g class="legendpoints"/></g></g><rect class="legendtoggle" pointer-events="all" x="0" y="-13.200000000000001" width="176.59375" height="26.400000000000002" style="cursor: pointer; fill: rgb(0, 0, 0); fill-opacity: 0;"/></g><g class="traces" transform="translate(1, 45.6)" style="opacity: 1;"><text class="legendtext user-select-none" text-anchor="start" x="40" y="7.0200000000000005" style="font-family: 'Open Sans', verdana, arial, sans-serif; font-size: 18px; fill: rgb(0, 0, 0); fill-opacity: 1; white-space: pre;">Voltage</text><g class="layers" style="opacity: 1;"><g class="legendfill"/><g class="legendlines"><path class="js-line" d="M5,0h30" style="fill: none; stroke: rgb(31, 119, 180); stroke-opacity: 1; stroke-width: 1px;"/></g><g class="legendsymbols"><g class="legendpoints"/></g></g><rect class="legendtoggle" pointer-events="all" x="0" y="-13.200000000000001" width="104.546875" height="26.400000000000002" style="cursor: pointer; fill: rgb(0, 0, 0); fill-opacity: 0;"/></g><g class="traces" transform="translate(214.109375, 45.6)" style="opacity: 1;"><text class="legendtext user-select-none" text-anchor="start" x="40" y="7.0200000000000005" style="font-family: 'Open Sans', verdana, arial, sans-serif; font-size: 18px; fill: rgb(0, 0, 0); fill-opacity: 1; white-space: pre;">Spikes</text><g class="layers" style="opacity: 1;"><g class="legendfill"/><g class="legendlines"/><g class="legendsymbols"><g class="legendpoints"><path class="scatterpts" transform="translate(20,0)" d="M3,0A3,3 0 1,1 0,-3A3,3 0 0,1 3,0Z" style="opacity: 1; stroke-width: 0px; fill: rgb(255, 127, 14); fill-opacity: 1;"/></g></g></g><rect class="legendtoggle" pointer-events="all" x="0" y="-13.200000000000001" width="98.53125" height="26.400000000000002" style="cursor: pointer; fill: rgb(0, 0, 0); fill-opacity: 0;"/></g></g></g><rect class="scrollbar" rx="20" ry="3" width="0" height="0" x="0" y="0" style="fill: rgb(128, 139, 164); fill-opacity: 1;"/></g><g class="g-gtitle"/><g class="g-xtitle"><text class="xtitle" x="454.5" y="490.8" text-anchor="middle" style="font-family: 'Open Sans', verdana, arial, sans-serif; font-size: 24px; fill: rgb(36, 36, 36); opacity: 1; font-weight: normal; white-space: pre;">Time</text></g><g class="g-ytitle" transform="translate(9.7373046875,0)"><text class="ytitle" transform="rotate(-90,12.262500000000003,262.5)" x="12.262500000000003" y="262.5" text-anchor="middle" style="font-family: 'Open Sans', verdana, arial, sans-serif; font-size: 24px; fill: rgb(36, 36, 36); opacity: 1; font-weight: normal; white-space: pre;">Voltage</text></g></g></svg>