<svg class="main-svg" xmlns="http://www.w3.org/2000/svg" xmlns:xlink="http://www.w3.org/1999/xlink" width="800" height="500" style="" viewBox="0 0 800 500"><rect x="0" y="0" width="800" height="500" style="fill: rgb(255, 255, 255); fill-opacity: 1;"/><defs id="defs-e7583d"><g class="clips"><clipPath id="clipe7583dxyplot" class="plotclip"><rect width="599" height="268"/></clipPath><clipPath class="axesclip" id="clipe7583dx"><rect x="121" y="0" width="599" height="500"/></clipPath><clipPath class="axesclip" id="clipe7583dy"><rect x="0" y="100" width="800" height="268"/></clipPath><clipPath class="axesclip" id="clipe7583dxy"><rect x="121" y="100" width="599" height="268"/></clipPath></g><g class="gradients"/></defs><g class="bglayer"/><g class="layer-below"><g class="imagelayer"/><g class="shapelayer"/></g><g class="cartesianlayer"><g class="subplot xy"><g class="layer-subplot"><g class="shapelayer"/><g class="imagelayer"/></g><g class="gridlayer"><g class="x"/><g class="y"/></g><g class="zerolinelayer"><path class="yzl zl crisp" transform="translate(0,106.21)" d="M121,0h599" style="stroke: rgb(0, 44, 117); stroke-opacity: 1; stroke-width: 1px;"/></g><path class="xlines-below"/><path class="ylines-below"/><g class="overlines-below"/><g class="xaxislayer-below"/><g class="yaxislayer-below"/><g class="overaxes-below"/><g class="plot" transform="translate(121, 100)" clip-path="url('#clipe7583dxyplot')"><g class="scatterlayer mlayer"><g class="trace scatter trace388fb7" style="stroke-miterlimit: 2; opacity: 0.5;"><g class="fills"/><g class="errorbars"/><g class="lines"><path class="js-line" d="M0,13.4H2.41V13.4H4.81V13.4H7.22V13.4H9.62V13.4H12.03V13.4H14.43V13.4H16.84V13.4H19.24V13.4H21.65V13.4H24.06V13.4H26.46V13.4H28.87V13.4H31.27V13.4H33.68V13.4H36.08V13.4H38.49V13.4H40.9V13.4H43.3V13.4H45.71V13.4H48.11V13.4H50.52V13.4H52.92V13.4H55.33V13.4H57.73V13.4H60.14V13.4H62.55V13.4H64.95V13.4H67.36V13.4H69.76V13.4H72.17V13.4H74.57V13.4H76.98V13.4H79.39V13.4H81.79V13.4H84.2V13.4H86.6V13.4H89.01V13.4H91.41V13.4H93.82V13.4H96.22V13.4H98.63V13.4H101.04V13.4H103.44V13.4H105.85V13.4H108.25V13.4H110.66V13.4H113.06V13.4H115.47V13.4H117.88V13.4H120.28V13.4H122.69V13.4H125.09V13.4H127.5V13.4H129.9V13.4H132.31V13.4H134.71V13.4H137.12V13.4H139.53V13.4H141.93V13.4H144.34V13.4H146.74V13.4H149.15V13.4H151.55V13.4H153.96V13.4H156.37V13.4H158.77V13.4H161.18V13.4H163.58V13.4H165.99V13.4H168.39V13.4H170.8V13.4H173.2V13.4H175.61V13.4H178.02V13.4H180.42V13.4H182.83V13.4H185.23V13.4H187.64V13.4H190.04V13.4H192.45V13.4H194.86V13.4H197.26V13.4H199.67V13.4H202.07V13.4H204.48V13.4H206.88V13.4H209.29V13.4H211.69V13.4H214.1V13.4H216.51V13.4H218.91V13.4H221.32V13.4H223.72V13.4H226.13V13.4H228.53V13.4H230.94V13.4H233.35V13.4H235.75V13.4H238.16V13.4H240.56V13.4H242.97V13.4H245.37V13.4H247.78V13.4H250.18V13.4H252.59V13.4H255V13.4H257.4V13.4H259.81V13.4H262.21V13.4H264.62V13.4H267.02V13.4H269.43V13.4H271.84V13.4H274.24V13.4H276.65V13.4H279.05V13.4H281.46V13.4H283.86V13.4H286.27V13.4H288.67V13.4H291.08V13.4H293.49V13.4H295.89V13.4H298.3V13.4H300.7V13.4H303.11V13.4H305.51V13.4H307.92V13.4H310.33V13.4H312.73V13.4H315.14V13.4H317.54V13.4H319.95V13.4H322.35V13.4H324.76V13.4H327.16V13.4H329.57V13.4H331.98V13.4H334.38V13.4H336.79V13.4H339.19V13.4H341.6V13.4H344V13.4H346.41V13.4H348.82V13.4H351.22V13.4H353.63V13.4H356.03V13.4H358.44V13.4H360.84V13.4H363.25V13.4H365.65V13.4H368.06V13.4H370.47V13.4H372.87V13.4H375.28V13.4H377.68V13.4H380.09V13.4H382.49V13.4H384.9V13.4H387.31V13.4H389.71V13.4H392.12V13.4H394.52V13.4H396.93V13.4H399.33V13.4H401.74V13.4H404.14V13.4H406.55V13.4H408.96V13.4H411.36V13.4H413.77V13.4H416.17V13.4H418.58V13.4H420.98V13.4H423.39V13.4H425.8V13.4H428.2V13.4H430.61V13.4H433.01V13.4H435.42V13.4H437.82V13.4H440.23V13.4H442.63V13.4H445.04V13.4H447.45V13.4H449.85V13.4H452.26V13.4H454.66V13.4H457.07V13.4H459.47V13.4H461.88V13.4H464.29V13.4H466.69V13.4H469.1V13.4H471.5V13.4H473.91V13.4H476.31V13.4H478.72V13.4H481.12V13.4H483.53V13.4H485.94V13.4H488.34V13.4H490.75V13.4H493.15V13.4H495.56V13.4H497.96V13.4H500.37V13.4H502.78V13.4H505.18V13.4H507.59V13.4H509.99V13.4H512.4V13.4H514.8V13.4H517.21V13.4H519.61V13.4H522.02V13.4H524.43V13.4H526.83V13.4H529.24V13.4H531.64V13.4H534.05V13.4H536.45V13.4H538.86V13.4H541.27V13.4H543.67V13.4H546.08V13.4H548.48V13.4H550.89V13.4H553.29V13.4H555.7V13.4H558.1V13.4H560.51V13.4H562.92V13.4H565.32V13.4H567.73V13.4H570.13V13.4H572.54V13.4H574.94V13.4H577.35V13.4H579.76V13.4H582.16V13.4H584.57V13.4H586.97V13.4H589.38V13.4H591.78V13.4H594.19V13.4H596.59V13.4H599V13.4" style="vector-effect: non-scaling-stroke; fill: none; stroke: rgb(214, 39, 40); stroke-opacity: 1; stroke-width: 3px; opacity: 1; stroke-dasharray: 9px, 9px;"/></g><g class="points"/><g class="text"/></g><g class="trace scatter trace46aa17" style="stroke-miterlimit: 2; opacity: 1;"><g class="fills"/><g class="errorbars"/><g class="lines"><path class="js-line" d="M0,14.51H2.41V14.51H4.81V14.51H7.22V14.39H9.62V14.37H12.03V14.38H14.43V14.24H16.84V14.1H19.24V13.83H21.65V116.28H24.06V111.01H26.46V106.26H28.87V101.65H31.27V97.11H33.68V93.02H36.08V89.05H38.49V85.01H40.9V184.13H43.3V175.6H45.71V167.38H48.11V159.72H50.52V152.4H52.92V233.11H55.33V222.35H57.73V212.1H60.14V202.04H62.55V192.81H64.95V183.98H67.36V175.24H69.76V254.6H72.17V242.69H74.57V231.48H76.98V220.74H79.39V210.44H81.79V200.8H84.2V191.31H86.6V215.09H89.01V204.98H91.41V195.37H93.82V186.55H96.22V178.02H98.63V169.78H101.04V161.86H103.44V187.29H105.85V178.73H108.25V170.5H110.66V162.78H113.06V155.45H115.47V148.22H117.88V141.55H120.28V168H122.69V160.21H125.09V152.78H127.5V145.81H129.9V139.25H132.31V132.94H134.71V159.6H137.12V152.29H139.53V145.41H141.93V138.75H144.34V132.34H146.74V126.53H149.15V120.96H151.55V148.33H153.96V141.51H156.37V135.31H158.77V129.21H161.18V123.4H163.58V118.09H165.99V112.74H168.39V107.43H170.8V135.55H173.2V129.52H175.61V123.82H178.02V118.31H180.42V113.04H182.83V107.77H185.23V135.83H187.64V129.67H190.04V123.85H192.45V118.51H194.86V113.25H197.26V108.33H199.67V103.21H202.07V131.59H204.48V125.86H206.88V120H209.29V114.63H211.69V109.41H214.1V104.38H216.51V132.67H218.91V126.8H221.32V121.17H223.72V115.92H226.13V110.77H228.53V105.79H230.94V101.06H233.35V129.37H235.75V123.5H238.16V118.04H240.56V112.6H242.97V107.67H245.37V102.85H247.78V98.38H250.18V127.02H252.59V121.47H255V115.85H257.4V110.67H259.81V105.56H262.21V133.51H264.62V127.69H267.02V122.15H269.43V116.77H271.84V111.57H274.24V106.56H276.65V101.77H279.05V130.22H281.46V124.23H283.86V118.6H286.27V113.42H288.67V108.58H291.08V103.72H293.49V98.97H295.89V127.52H298.3V121.77H300.7V116.32H303.11V111.35H305.51V106.57H307.92V101.9H310.33V97.31H312.73V92.95H315.14V121.2H317.54V115.72H319.95V110.78H322.35V105.78H324.76V101.16H327.16V96.92H329.57V92.61H331.98V88.66H334.38V117.49H336.79V112.08H339.19V106.9H341.6V102.29H344V97.77H346.41V93.49H348.82V89.5H351.22V118.44H353.63V113.29H356.03V108.39H358.44V103.49H360.84V99.11H363.25V94.69H365.65V90.78H368.06V86.63H370.47V115.84H372.87V110.54H375.28V105.67H377.68V101.04H380.09V96.34H382.49V125.09H384.9V119.49H387.31V114.28H389.71V109.26H392.12V104.39H394.52V99.65H396.93V95.17H399.33V123.81H401.74V118.34H404.14V113.01H406.55V107.96H408.96V103.32H411.36V98.72H413.77V127.15H416.17V121.35H418.58V115.86H420.98V110.55H423.39V105.87H425.8V100.96H428.2V129.27H430.61V123.28H433.01V117.9H435.42V112.56H437.82V107.66H440.23V103.02H442.63V98.38H445.04V94H447.45V122.57H449.85V117.04H452.26V111.85H454.66V107.09H457.07V102.18H459.47V97.54H461.88V126.23H464.29V120.72H466.69V115.1H469.1V109.86H471.5V105.21H473.91V100.18H476.31V128.74H478.72V122.89H481.12V117.4H483.53V112.34H485.94V107.2H488.34V102.36H490.75V97.96H493.15V93.79H495.56V122.61H497.96V117.04H500.37V111.55H502.78V106.81H505.18V102.1H507.59V97.72H509.99V93.36H512.4V122.24H514.8V116.68H517.21V111.7H519.61V106.7H522.02V101.77H524.43V97.47H526.83V93.08H529.24V121.95H531.64V116.47H534.05V111.31H536.45V106.34H538.86V101.73H541.27V97.18H543.67V92.88H546.08V121.61H548.48V116.14H550.89V110.82H553.29V106.02H555.7V101.38H558.1V96.95H560.51V125.34H562.92V119.78H565.32V114.44H567.73V109.1H570.13V104.23H572.54V99.59H574.94V128.06H577.35V122.36H579.76V117.07H582.16V111.99H584.57V106.96H586.97V102H589.38V97.56H591.78V126.25H594.19V120.18H596.59V114.9H599V109.91" style="vector-effect: non-scaling-stroke; fill: none; stroke: rgb(31, 119, 180); stroke-opacity: 1; stroke-width: 1px; opacity: 1;"/></g><g class="points"/><g class="text"/></g></g></g><g class="overplot"/><path class="xlines-above crisp" d="M120,368.5H720" style="fill: none; stroke-width: 1px; stroke: rgb(36, 36, 36); stroke-opacity: 1;"/><path class="ylines-above crisp" d="M120.5,100V368" style="fill: none; stroke-width: 1px; stroke: rgb(36, 36, 36); stroke-opacity: 1;"/><g class="overlines-above"/><g class="xaxislayer-above"><path class="xtick ticks crisp" d="M0,369v5" transform="translate(121,0)" style="stroke: rgb(68, 68, 68); stroke-opacity: 1; stroke-width: 1px;"/><path class="xtick ticks crisp" d="M0,369v5" transform="translate(241.28,0)" style="stroke: rgb(68, 68, 68); stroke-opacity: 1; stroke-width: 1px;"/><path class="xtick ticks crisp" d="M0,369v5" transform="translate(361.56,0)" style="stroke: rgb(68, 68, 68); stroke-opacity: 1; stroke-width: 1px;"/><path class="xtick ticks crisp" d="M0,369v5" transform="translate(481.84,0)" style="stroke: rgb(68, 68, 68); stroke-opacity: 1; stroke-width: 1px;"/><path class="xtick ticks crisp" d="M0,369v5" transform="translate(602.12,0)" style="stroke: rgb(68, 68, 68); stroke-opacity: 1; stroke-width: 1px;"/><g class="xtick"><text text-anchor="middle" x="0" y="398" transform="translate(121,0)" style="font-family: 'Open Sans', verdana, arial, sans-serif; font-size: 20px; fill: rgb(36, 36, 36); fill-opacity: 1; white-space: pre;">0</text></g><g class="xtick"><text text-anchor="middle" x="0" y="398" transform="translate(241.28,0)" style="font-family: 'Open Sans', verdana, arial, sans-serif; font-size: 20px; fill: rgb(36, 36, 36); fill-opacity: 1; white-space: pre;">50</text></g><g class="xtick"><text text-anchor="middle" x="0" y="398" transform="translate(361.56,0)" style="font-family: 'Open Sans', verdana, arial, sans-serif; font-size: 20px; fill: rgb(36, 36, 36); fill-opacity: 1; white-space: pre;">100</text></g><g class="xtick"><text text-anchor="middle" x="0" y="398" transform="translate(481.84,0)" style="font-family: 'Open Sans', verdana, arial, sans-serif; font-size: 20px; fill: rgb(36, 36, 36); fill-opacity: 1; white-space: pre;">150</text></g><g class="xtick"><text text-anchor="middle" x="0" y="398" transform="translate(602.12,0)" style="font-family: 'Open Sans', verdana, arial, sans-serif; font-size: 20px; fill: rgb(36, 36, 36); fill-opacity: 1; white-space: pre;">200</text></g></g><g class="yaxislayer-above"><path class="ytick ticks crisp" d="M120,0h-5" transform="translate(0,313.57)" style="stroke: rgb(68, 68, 68); stroke-opacity: 1; stroke-width: 1px;"/><path class="ytick ticks crisp" d="M120,0h-5" transform="translate(0,244.45)" style="stroke: rgb(68, 68, 68); stroke-opacity: 1; stroke-width: 1px;"/><path class="ytick ticks crisp" d="M120,0h-5" transform="translate(0,175.32999999999998)" style="stroke: rgb(68, 68, 68); stroke-opacity: 1; stroke-width: 1px;"/><path class="ytick ticks crisp" d="M120,0h-5" transform="translate(0,106.21)" style="stroke: rgb(68, 68, 68); stroke-opacity: 1; stroke-width: 1px;"/><g class="ytick"><text text-anchor="end" x="111" y="7" transform="translate(0,313.57)" style="font-family: 'Open Sans', verdana, arial, sans-serif; font-size: 20px; fill: rgb(36, 36, 36); fill-opacity: 1; white-space: pre;">−1500</text></g><g class="ytick"><text text-anchor="end" x="111" y="7" transform="translate(0,244.45)" style="font-family: 'Open Sans', verdana, arial, sans-serif; font-size: 20px; fill: rgb(36, 36, 36); fill-opacity: 1; white-space: pre;">−1000</text></g><g class="ytick"><text text-anchor="end" x="111" y="7" transform="translate(0,175.32999999999998)" style="font-family: 'Open Sans', verdana, arial, sans-serif; font-size: 20px; fill: rgb(36, 36, 36); fill-opacity: 1; white-space: pre;">−500</text></g><g class="ytick"><text text-anchor="end" x="111" y="7" transform="translate(0,106.21)" style="font-family: 'Open Sans', verdana, arial, sans-serif; font-size: 20px; fill: rgb(36, 36, 36); fill-opacity: 1; white-space: pre;">0</text></g></g><g class="overaxes-above"/></g></g><g class="polarlayer"/><g class="ternarylayer"/><g class="geolayer"/><g class="funnelarealayer"/><g class="pielayer"/><g class="treemaplayer"/><g class="sunburstlayer"/><g class="glimages"/><defs id="topdefs-e7583d"><g class="clips"/><clipPath id="legende7583d"><rect width="435" height="37" x="1" y="1"/></clipPath></defs><g class="layer-above"><g class="imagelayer"/><g class="shapelayer"/></g><g class="infolayer"><g class="legend" pointer-events="all" transform="translate(121, 448.40000000000003)"><rect class="bg" shape-rendering="crispEdges" width="436" height="38" x="0.5" y="0.5" style="stroke: rgb(0, 0, 0); stroke-opacity: 1; fill: rgb(5, 5, 25); fill-opacity: 0.1; stroke-width: 1px;"/><g class="scrollbox" transform="translate(0, 0)" clip-path="url('#legende7583d')"><g class="groups"><g class="traces" transform="translate(1, 19.200000000000003)" style="opacity: 1;"><text class="legendtext user-select-none" text-anchor="start" x="40" y="7.0200000000000005" style="font-family: 'Open Sans', verdana, arial, sans-serif; font-size: 18px; fill: rgb(0, 0, 0); fill-opacity: 1; white-space: pre;">Порог активации</text><g class="layers" style="opacity: 0.5;"><g class="legendfill"/><g class="legendlines"><path class="js-line" d="M5,0h30" style="fill: none; stroke: rgb(214, 39, 40); stroke-opacity: 1; stroke-dasharray: 9px, 9px; stroke-width: 3px;"/></g><g class="legendsymbols"><g class="legendpoints"/></g></g><rect class="legendtoggle" pointer-events="all" x="0" y="-13.200000000000001" width="201.984375" height="26.400000000000002" style="cursor: pointer; fill: rgb(0, 0, 0); fill-opacity: 0;"/></g><g class="traces" transform="translate(205.484375, 19.200000000000003)" style="opacity: 1;"><text class="legendtext user-select-none" text-anchor="start" x="40" y="7.0200000000000005" style="font-family: 'Open Sans', verdana, arial, sans-serif; font-size: 18px; fill: rgb(0, 0, 0); fill-opacity: 1; white-space: pre;">Потенциал нейрона</text><g class="layers" style="opacity: 1;"><g class="legendfill"/><g class="legendlines"><path class="js-line" d="M5,0h30" style="fill: none; stroke: rgb(31, 119, 180); stroke-opacity: 1; stroke-width: 1px;"/></g><g class="legendsymbols"><g class="legendpoints"/></g></g><rect class="legendtoggle" pointer-events="all" x="0" y="-13.200000000000001" width="227.65625" height="26.400000000000002" style="cursor: pointer; fill: rgb(0, 0, 0); fill-opacity: 0;"/></g></g></g><rect class="scrollbar" rx="20" ry="3" width="0" height="0" x="0" y="0" style="fill: rgb(128, 139, 164); fill-opacity: 1;"/></g><g class="g-gtitle"/><g class="g-xtitle"><text class="xtitle" x="420.5" y="433.8" text-anchor="middle" style="font-family: 'Open Sans', verdana, arial, sans-serif; font-size: 24px; fill: rgb(36, 36, 36); opacity: 1; font-weight: normal; white-space: pre;">Время, мс</text></g><g class="g-ytitle" transform="translate(12.0341796875,0)"><text class="ytitle" transform="rotate(-90,11.965625000000003,234)" x="11.965625000000003" y="234" text-anchor="middle" style="font-family: 'Open Sans', verdana, arial, sans-serif; font-size: 24px; fill: rgb(36, 36, 36); opacity: 1; font-weight: normal; white-space: pre;">Напряжение, мВ</text></g></g></svg>