<svg class="main-svg" xmlns="http://www.w3.org/2000/svg" xmlns:xlink="http://www.w3.org/1999/xlink" width="800" height="500" style="" viewBox="0 0 800 500"><rect x="0" y="0" width="800" height="500" style="fill: rgb(255, 255, 255); fill-opacity: 1;"/><defs id="defs-883c23"><g class="clips"><clipPath id="clip883c23xyplot" class="plotclip"><rect width="608" height="268"/></clipPath><clipPath class="axesclip" id="clip883c23x"><rect x="112" y="0" width="608" height="500"/></clipPath><clipPath class="axesclip" id="clip883c23y"><rect x="0" y="100" width="800" height="268"/></clipPath><clipPath class="axesclip" id="clip883c23xy"><rect x="112" y="100" width="608" height="268"/></clipPath></g><g class="gradients"/></defs><g class="bglayer"><rect class="bg" x="112" y="100" width="608" height="268" style="fill: rgb(229, 236, 246); fill-opacity: 1; stroke-width: 0;"/></g><g class="layer-below"><g class="imagelayer"/><g class="shapelayer"/></g><g class="cartesianlayer"><g class="subplot xy"><g class="layer-subplot"><g class="shapelayer"/><g class="imagelayer"/></g><g class="gridlayer"><g class="x"><path class="xgrid crisp" transform="translate(234.09,0)" d="M0,100v268" style="stroke: rgb(255, 255, 255); stroke-opacity: 1; stroke-width: 1px;"/><path class="xgrid crisp" transform="translate(356.18,0)" d="M0,100v268" style="stroke: rgb(255, 255, 255); stroke-opacity: 1; stroke-width: 1px;"/><path class="xgrid crisp" transform="translate(478.27,0)" d="M0,100v268" style="stroke: rgb(255, 255, 255); stroke-opacity: 1; stroke-width: 1px;"/><path class="xgrid crisp" transform="translate(600.35,0)" d="M0,100v268" style="stroke: rgb(255, 255, 255); stroke-opacity: 1; stroke-width: 1px;"/></g><g class="y"><path class="ygrid crisp" transform="translate(0,337.5)" d="M112,0h608" style="stroke: rgb(255, 255, 255); stroke-opacity: 1; stroke-width: 1px;"/><path class="ygrid crisp" transform="translate(0,260.12)" d="M112,0h608" style="stroke: rgb(255, 255, 255); stroke-opacity: 1; stroke-width: 1px;"/><path class="ygrid crisp" transform="translate(0,182.74)" d="M112,0h608" style="stroke: rgb(255, 255, 255); stroke-opacity: 1; stroke-width: 1px;"/></g></g><g class="zerolinelayer"><path class="xzl zl crisp" transform="translate(112,0)" d="M0,100v268" style="stroke: rgb(0, 44, 117); stroke-opacity: 1; stroke-width: 2px;"/><path class="yzl zl crisp" transform="translate(0,105.35)" d="M112,0h608" style="stroke: rgb(0, 44, 117); stroke-opacity: 1; stroke-width: 2px;"/></g><path class="xlines-below"/><path class="ylines-below"/><g class="overlines-below"/><g class="xaxislayer-below"/><g class="yaxislayer-below"/><g class="overaxes-below"/><g class="plot" transform="translate(112, 100)" clip-path="url('#clip883c23xyplot')"><g class="scatterlayer mlayer"><g class="trace scatter tracea533ab" style="stroke-miterlimit: 2; opacity: 0.5;"><g class="fills"/><g class="errorbars"/><g class="lines"><path class="js-line" d="M0,13.4H2.44V13.4H4.88V13.4H7.33V13.4H9.77V13.4H12.21V13.4H14.65V13.4H17.09V13.4H19.53V13.4H21.98V13.4H24.42V13.4H26.86V13.4H29.3V13.4H31.74V13.4H34.18V13.4H36.63V13.4H39.07V13.4H41.51V13.4H43.95V13.4H46.39V13.4H48.84V13.4H51.28V13.4H53.72V13.4H56.16V13.4H58.6V13.4H61.04V13.4H63.49V13.4H65.93V13.4H68.37V13.4H70.81V13.4H73.25V13.4H75.69V13.4H78.14V13.4H80.58V13.4H83.02V13.4H85.46V13.4H87.9V13.4H90.35V13.4H92.79V13.4H95.23V13.4H97.67V13.4H100.11V13.4H102.55V13.4H105V13.4H107.44V13.4H109.88V13.4H112.32V13.4H114.76V13.4H117.2V13.4H119.65V13.4H122.09V13.4H124.53V13.4H126.97V13.4H129.41V13.4H131.86V13.4H134.3V13.4H136.74V13.4H139.18V13.4H141.62V13.4H144.06V13.4H146.51V13.4H148.95V13.4H151.39V13.4H153.83V13.4H156.27V13.4H158.71V13.4H161.16V13.4H163.6V13.4H166.04V13.4H168.48V13.4H170.92V13.4H173.37V13.4H175.81V13.4H178.25V13.4H180.69V13.4H183.13V13.4H185.57V13.4H188.02V13.4H190.46V13.4H192.9V13.4H195.34V13.4H197.78V13.4H200.22V13.4H202.67V13.4H205.11V13.4H207.55V13.4H209.99V13.4H212.43V13.4H214.88V13.4H217.32V13.4H219.76V13.4H222.2V13.4H224.64V13.4H227.08V13.4H229.53V13.4H231.97V13.4H234.41V13.4H236.85V13.4H239.29V13.4H241.73V13.4H244.18V13.4H246.62V13.4H249.06V13.4H251.5V13.4H253.94V13.4H256.39V13.4H258.83V13.4H261.27V13.4H263.71V13.4H266.15V13.4H268.59V13.4H271.04V13.4H273.48V13.4H275.92V13.4H278.36V13.4H280.8V13.4H283.24V13.4H285.69V13.4H288.13V13.4H290.57V13.4H293.01V13.4H295.45V13.4H297.9V13.4H300.34V13.4H302.78V13.4H305.22V13.4H307.66V13.4H310.1V13.4H312.55V13.4H314.99V13.4H317.43V13.4H319.87V13.4H322.31V13.4H324.76V13.4H327.2V13.4H329.64V13.4H332.08V13.4H334.52V13.4H336.96V13.4H339.41V13.4H341.85V13.4H344.29V13.4H346.73V13.4H349.17V13.4H351.61V13.4H354.06V13.4H356.5V13.4H358.94V13.4H361.38V13.4H363.82V13.4H366.27V13.4H368.71V13.4H371.15V13.4H373.59V13.4H376.03V13.4H378.47V13.4H380.92V13.4H383.36V13.4H385.8V13.4H388.24V13.4H390.68V13.4H393.12V13.4H395.57V13.4H398.01V13.4H400.45V13.4H402.89V13.4H405.33V13.4H407.78V13.4H410.22V13.4H412.66V13.4H415.1V13.4H417.54V13.4H419.98V13.4H422.43V13.4H424.87V13.4H427.31V13.4H429.75V13.4H432.19V13.4H434.63V13.4H437.08V13.4H439.52V13.4H441.96V13.4H444.4V13.4H446.84V13.4H449.29V13.4H451.73V13.4H454.17V13.4H456.61V13.4H459.05V13.4H461.49V13.4H463.94V13.4H466.38V13.4H468.82V13.4H471.26V13.4H473.7V13.4H476.14V13.4H478.59V13.4H481.03V13.4H483.47V13.4H485.91V13.4H488.35V13.4H490.8V13.4H493.24V13.4H495.68V13.4H498.12V13.4H500.56V13.4H503V13.4H505.45V13.4H507.89V13.4H510.33V13.4H512.77V13.4H515.21V13.4H517.65V13.4H520.1V13.4H522.54V13.4H524.98V13.4H527.42V13.4H529.86V13.4H532.31V13.4H534.75V13.4H537.19V13.4H539.63V13.4H542.07V13.4H544.51V13.4H546.96V13.4H549.4V13.4H551.84V13.4H554.28V13.4H556.72V13.4H559.16V13.4H561.61V13.4H564.05V13.4H566.49V13.4H568.93V13.4H571.37V13.4H573.82V13.4H576.26V13.4H578.7V13.4H581.14V13.4H583.58V13.4H586.02V13.4H588.47V13.4H590.91V13.4H593.35V13.4H595.79V13.4H598.23V13.4H600.67V13.4H603.12V13.4H605.56V13.4H608V13.4" style="vector-effect: non-scaling-stroke; fill: none; stroke: rgb(171, 99, 250); stroke-opacity: 1; stroke-width: 3px; opacity: 1; stroke-dasharray: 9px, 9px;"/></g><g class="points"/><g class="text"/></g><g class="trace scatter tracee25bdc" style="stroke-miterlimit: 2; opacity: 1;"><g class="fills"/><g class="errorbars"/><g class="lines"><path class="js-line" d="M0,14.64H2.44V14.64H4.88V14.64H7.33V14.47H9.77V14.48H12.21V14.33H14.65V14.1H17.09V13.9H19.53V152.64H21.98V145.88H24.42V139.38H26.86V132.93H29.3V126.61H31.74V188.9H34.18V180.18H36.63V171.51H39.07V163.75H41.51V156.33H43.95V148.99H46.39V210.08H48.84V200.19H51.28V190.7H53.72V181.82H56.16V173.42H58.6V165.42H61.04V225.6H63.49V215.12H65.93V205.25H68.37V195.3H70.81V186.28H73.25V177.43H75.69V237.11H78.14V225.97H80.58V215.43H83.02V205.3H85.46V195.53H87.9V254.6H90.35V242.63H92.79V231.35H95.23V220.72H97.67V210.25H100.11V200.57H102.55V191.21H105V182.03H107.44V241.49H109.88V230.11H112.32V219.1H114.76V208.93H117.2V199.11H119.65V233.74H122.09V222.41H124.53V211.8H126.97V201.99H129.41V192.41H131.86V227.43H134.3V217.01H136.74V206.96H139.18V197.21H141.62V188.16H144.06V179.43H146.51V171.24H148.95V207.17H151.39V197.34H153.83V188.14H156.27V179.11H158.71V171.02H161.16V163.22H163.6V155.59H166.04V192.36H168.48V183.54H170.92V174.93H173.37V167.08H175.81V159.28H178.25V152.04H180.69V188.74H183.13V179.95H185.57V171.66H188.02V163.47H190.46V155.92H192.9V192.76H195.34V183.86H197.78V175.35H200.22V167.16H202.67V159.13H205.11V195.68H207.55V186.67H209.99V178.03H212.43V169.37H214.88V161.75H217.32V198.23H219.76V189.23H222.2V180.21H224.64V171.93H227.08V163.95H229.53V156.25H231.97V192.83H234.41V183.69H236.85V175.18H239.29V167.13H241.73V159.35H244.18V195.86H246.62V186.61H249.06V178.23H251.5V169.96H253.94V162.18H256.39V154.69H258.83V147.53H261.27V184.33H263.71V175.81H266.15V167.78H268.59V160.07H271.04V152.74H273.48V145.82H275.92V183.14H278.36V174.84H280.8V166.58H283.24V158.93H285.69V151.44H288.13V188.11H290.57V179.34H293.01V171.15H295.45V163.42H297.9V156.08H300.34V148.9H302.78V142.08H305.22V179.57H307.66V171.04H310.1V163.22H312.55V155.48H314.99V148.41H317.43V141.5H319.87V179.24H322.31V171.08H324.76V162.88H327.2V155.52H329.64V148.2H332.08V185.38H334.52V176.83H336.96V168.53H339.41V160.94H341.85V153.62H344.29V146.58H346.73V183.6H349.17V174.81H351.61V166.78H354.06V159.23H356.5V151.78H358.94V144.61H361.38V181.88H363.82V173.69H366.27V165.56H368.71V158.03H371.15V150.91H373.59V143.62H376.03V180.88H378.47V172.59H380.92V164.43H383.36V156.82H385.8V149.66H388.24V142.76H390.68V179.87H393.12V171.49H395.57V163.29H398.01V155.9H400.45V148.77H402.89V142.2H405.33V135.71H407.78V173.61H410.22V165.51H412.66V157.55H415.1V150.31H417.54V143.52H419.98V180.77H422.43V172.47H424.87V164.47H427.31V156.96H429.75V149.89H432.19V142.97H434.63V180.4H437.08V172.03H439.52V164H441.96V156.58H444.4V149.15H446.84V142.3H449.29V179.78H451.73V171.34H454.17V163.67H456.61V155.91H459.05V148.51H461.49V185.73H463.94V177.19H466.38V169.13H468.82V161.16H471.26V153.68H473.7V146.62H476.14V183.71H478.59V175.1H481.03V167.21H483.47V159.55H485.91V151.93H488.35V144.97H490.8V182.41H493.24V174.05H495.68V166.13H498.12V158.45H500.56V151.06H503V187.88H505.45V179.22H507.89V170.97H510.33V162.93H512.77V155.7H515.21V148.37H517.65V185.36H520.1V176.85H522.54V168.75H524.98V160.86H527.42V153.19H529.86V146.18H532.31V183.67H534.75V174.92H537.19V166.93H539.63V158.92H542.07V151.4H544.51V188.53H546.96V180.02H549.4V171.6H551.84V163.57H554.28V155.94H556.72V192.85H559.16V184.15H561.61V175.5H564.05V167.63H566.49V159.7H568.93V151.95H571.37V188.84H573.82V180.06H576.26V171.92H578.7V163.7H581.14V156.18H583.58V148.93H586.02V185.91H588.47V177.1H590.91V169H593.35V161.48H595.79V154.14H598.23V147.2H600.67V140.2H603.12V177.35H605.56V169.12H608V160.93" style="vector-effect: non-scaling-stroke; fill: none; stroke: rgb(99, 110, 250); stroke-opacity: 1; stroke-width: 2px; opacity: 1;"/></g><g class="points"/><g class="text"/></g></g></g><g class="overplot"/><path class="xlines-above crisp" d="M0,0" style="fill: none;"/><path class="ylines-above crisp" d="M0,0" style="fill: none;"/><g class="overlines-above"/><g class="xaxislayer-above"><g class="xtick"><text text-anchor="middle" x="0" y="389" transform="translate(112,0)" style="font-family: 'Open Sans', verdana, arial, sans-serif; font-size: 20px; fill: rgb(42, 63, 95); fill-opacity: 1; white-space: pre;">0</text></g><g class="xtick"><text text-anchor="middle" x="0" y="389" transform="translate(234.09,0)" style="font-family: 'Open Sans', verdana, arial, sans-serif; font-size: 20px; fill: rgb(42, 63, 95); fill-opacity: 1; white-space: pre;">50</text></g><g class="xtick"><text text-anchor="middle" x="0" y="389" transform="translate(356.18,0)" style="font-family: 'Open Sans', verdana, arial, sans-serif; font-size: 20px; fill: rgb(42, 63, 95); fill-opacity: 1; white-space: pre;">100</text></g><g class="xtick"><text text-anchor="middle" x="0" y="389" transform="translate(478.27,0)" style="font-family: 'Open Sans', verdana, arial, sans-serif; font-size: 20px; fill: rgb(42, 63, 95); fill-opacity: 1; white-space: pre;">150</text></g><g class="xtick"><text text-anchor="middle" x="0" y="389" transform="translate(600.35,0)" style="font-family: 'Open Sans', verdana, arial, sans-serif; font-size: 20px; fill: rgb(42, 63, 95); fill-opacity: 1; white-space: pre;">200</text></g></g><g class="yaxislayer-above"><g class="ytick"><text text-anchor="end" x="111" y="7" transform="translate(0,337.5)" style="font-family: 'Open Sans', verdana, arial, sans-serif; font-size: 20px; fill: rgb(42, 63, 95); fill-opacity: 1; white-space: pre;">−1500</text></g><g class="ytick"><text text-anchor="end" x="111" y="7" transform="translate(0,260.12)" style="font-family: 'Open Sans', verdana, arial, sans-serif; font-size: 20px; fill: rgb(42, 63, 95); fill-opacity: 1; white-space: pre;">−1000</text></g><g class="ytick"><text text-anchor="end" x="111" y="7" transform="translate(0,182.74)" style="font-family: 'Open Sans', verdana, arial, sans-serif; font-size: 20px; fill: rgb(42, 63, 95); fill-opacity: 1; white-space: pre;">−500</text></g><g class="ytick"><text text-anchor="end" x="111" y="7" transform="translate(0,105.35)" style="font-family: 'Open Sans', verdana, arial, sans-serif; font-size: 20px; fill: rgb(42, 63, 95); fill-opacity: 1; white-space: pre;">0</text></g></g><g class="overaxes-above"/></g></g><g class="polarlayer"/><g class="ternarylayer"/><g class="geolayer"/><g class="funnelarealayer"/><g class="pielayer"/><g class="treemaplayer"/><g class="sunburstlayer"/><g class="glimages"/><defs id="topdefs-883c23"><g class="clips"/><clipPath id="legend883c23"><rect width="435" height="37" x="1" y="1"/></clipPath></defs><g class="layer-above"><g class="imagelayer"/><g class="shapelayer"/></g><g class="infolayer"><g class="legend" pointer-events="all" transform="translate(112, 448.40000000000003)"><rect class="bg" shape-rendering="crispEdges" width="436" height="38" x="0.5" y="0.5" style="stroke: rgb(0, 0, 0); stroke-opacity: 1; fill: rgb(25, 211, 243); fill-opacity: 0.1; stroke-width: 1px;"/><g class="scrollbox" transform="translate(0, 0)" clip-path="url('#legend883c23')"><g class="groups"><g class="traces" transform="translate(1, 19.200000000000003)" style="opacity: 1;"><text class="legendtext user-select-none" text-anchor="start" x="40" y="7.0200000000000005" style="font-family: 'Open Sans', verdana, arial, sans-serif; font-size: 18px; fill: rgb(0, 0, 0); fill-opacity: 1; white-space: pre;">Порог активации</text><g class="layers" style="opacity: 0.5;"><g class="legendfill"/><g class="legendlines"><path class="js-line" d="M5,0h30" style="fill: none; stroke: rgb(171, 99, 250); stroke-opacity: 1; stroke-dasharray: 9px, 9px; stroke-width: 3px;"/></g><g class="legendsymbols"><g class="legendpoints"/></g></g><rect class="legendtoggle" pointer-events="all" x="0" y="-13.200000000000001" width="201.984375" height="26.400000000000002" style="cursor: pointer; fill: rgb(0, 0, 0); fill-opacity: 0;"/></g><g class="traces" transform="translate(205.484375, 19.200000000000003)" style="opacity: 1;"><text class="legendtext user-select-none" text-anchor="start" x="40" y="7.0200000000000005" style="font-family: 'Open Sans', verdana, arial, sans-serif; font-size: 18px; fill: rgb(0, 0, 0); fill-opacity: 1; white-space: pre;">Потенциал нейрона</text><g class="layers" style="opacity: 1;"><g class="legendfill"/><g class="legendlines"><path class="js-line" d="M5,0h30" style="fill: none; stroke: rgb(99, 110, 250); stroke-opacity: 1; stroke-width: 2px;"/></g><g class="legendsymbols"><g class="legendpoints"/></g></g><rect class="legendtoggle" pointer-events="all" x="0" y="-13.200000000000001" width="227.65625" height="26.400000000000002" style="cursor: pointer; fill: rgb(0, 0, 0); fill-opacity: 0;"/></g></g></g><rect class="scrollbar" rx="20" ry="3" width="0" height="0" x="0" y="0" style="fill: rgb(128, 139, 164); fill-opacity: 1;"/></g><g class="g-gtitle"/><g class="g-xtitle"><text class="xtitle" x="416" y="424.8" text-anchor="middle" style="font-family: 'Open Sans', verdana, arial, sans-serif; font-size: 24px; fill: rgb(42, 63, 95); opacity: 1; font-weight: normal; white-space: pre;">Время, мс</text></g><g class="g-ytitle" transform="translate(12.0341796875,0)"><text class="ytitle" transform="rotate(-90,11.965625000000003,234)" x="11.965625000000003" y="234" text-anchor="middle" style="font-family: 'Open Sans', verdana, arial, sans-serif; font-size: 24px; fill: rgb(42, 63, 95); opacity: 1; font-weight: normal; white-space: pre;">Напряжение, мВ</text></g></g></svg>