<svg class="main-svg" xmlns="http://www.w3.org/2000/svg" xmlns:xlink="http://www.w3.org/1999/xlink" width="800" height="500" style="" viewBox="0 0 800 500"><rect x="0" y="0" width="800" height="500" style="fill: rgb(255, 255, 255); fill-opacity: 1;"/><defs id="defs-07a942"><g class="clips"><clipPath id="clip07a942xyplot" class="plotclip"><rect width="633" height="228"/></clipPath><clipPath class="axesclip" id="clip07a942x"><rect x="87" y="0" width="633" height="500"/></clipPath><clipPath class="axesclip" id="clip07a942y"><rect x="0" y="100" width="800" height="228"/></clipPath><clipPath class="axesclip" id="clip07a942xy"><rect x="87" y="100" width="633" height="228"/></clipPath></g><g class="gradients"/></defs><g class="bglayer"><rect class="bg" x="87" y="100" width="633" height="228" style="fill: rgb(229, 236, 246); fill-opacity: 1; stroke-width: 0;"/></g><g class="layer-below"><g class="imagelayer"/><g class="shapelayer"/></g><g class="cartesianlayer"><g class="subplot xy"><g class="layer-subplot"><g class="shapelayer"/><g class="imagelayer"/></g><g class="gridlayer"><g class="x"><path class="xgrid crisp" transform="translate(223.55,0)" d="M0,100v228" style="stroke: rgb(255, 255, 255); stroke-opacity: 1; stroke-width: 1px;"/><path class="xgrid crisp" transform="translate(341.15999999999997,0)" d="M0,100v228" style="stroke: rgb(255, 255, 255); stroke-opacity: 1; stroke-width: 1px;"/><path class="xgrid crisp" transform="translate(458.78,0)" d="M0,100v228" style="stroke: rgb(255, 255, 255); stroke-opacity: 1; stroke-width: 1px;"/><path class="xgrid crisp" transform="translate(576.39,0)" d="M0,100v228" style="stroke: rgb(255, 255, 255); stroke-opacity: 1; stroke-width: 1px;"/><path class="xgrid crisp" transform="translate(694.01,0)" d="M0,100v228" style="stroke: rgb(255, 255, 255); stroke-opacity: 1; stroke-width: 1px;"/></g><g class="y"><path class="ygrid crisp" transform="translate(0,316.6)" d="M87,0h633" style="stroke: rgb(255, 255, 255); stroke-opacity: 1; stroke-width: 1px;"/><path class="ygrid crisp" transform="translate(0,249.22)" d="M87,0h633" style="stroke: rgb(255, 255, 255); stroke-opacity: 1; stroke-width: 1px;"/><path class="ygrid crisp" transform="translate(0,181.85)" d="M87,0h633" style="stroke: rgb(255, 255, 255); stroke-opacity: 1; stroke-width: 1px;"/><path class="ygrid crisp" transform="translate(0,114.47)" d="M87,0h633" style="stroke: rgb(255, 255, 255); stroke-opacity: 1; stroke-width: 1px;"/></g></g><g class="zerolinelayer"><path class="xzl zl crisp" transform="translate(105.93,0)" d="M0,100v228" style="stroke: rgb(0, 44, 117); stroke-opacity: 1; stroke-width: 2px;"/></g><path class="xlines-below"/><path class="ylines-below"/><g class="overlines-below"/><g class="xaxislayer-below"/><g class="yaxislayer-below"/><g class="overaxes-below"/><g class="plot" transform="translate(87, 100)" clip-path="url('#clip07a942xyplot')"><g class="scatterlayer mlayer"><g class="trace scatter tracef78f90" style="stroke-miterlimit: 2; opacity: 0.5;"><g class="fills"/><g class="errorbars"/><g class="lines"><path class="js-line" d="M18.93,216.6H607.01V216.6" style="vector-effect: non-scaling-stroke; fill: none; stroke: rgb(0, 204, 150); stroke-opacity: 1; stroke-width: 3px; opacity: 1; stroke-dasharray: 9px, 9px;"/></g><g class="points"/><g class="text"/></g><g class="trace scatter tracef21efa" style="stroke-miterlimit: 2; opacity: 0.5;"><g class="fills"/><g class="errorbars"/><g class="lines"><path class="js-line" d="M18.93,41.42H21.29V41.42H23.64V41.42H25.99V41.42H28.34V41.42H30.7V41.42H33.05V41.42H35.4V40.75H37.75V40.75H40.1V40.75H42.46V40.75H44.81V40.75H47.16V40.08H49.51V40.08H51.87V40.08H54.22V40.08H56.57V40.08H58.92V40.08H61.28V39.4H63.63V39.4H65.98V39.4H68.33V39.4H70.68V39.4H73.04V39.4H75.39V38.73H77.74V38.73H80.09V38.73H82.45V38.73H84.8V38.73H87.15V38.73H89.5V38.05H91.86V38.05H94.21V38.05H96.56V38.05H98.91V38.05H101.26V38.05H103.62V38.05H105.97V37.38H108.32V37.38H110.67V37.38H113.03V37.38H115.38V37.38H117.73V37.38H120.08V36.71H122.44V36.71H124.79V36.71H127.14V36.71H129.49V36.71H131.84V36.71H134.2V36.03H136.55V36.03H138.9V36.03H141.25V36.03H143.61V36.03H145.96V36.03H148.31V35.36H150.66V35.36H153.02V35.36H155.37V35.36H157.72V35.36H160.07V35.36H162.42V35.36H164.78V34.69H167.13V34.69H169.48V34.69H171.83V34.69H174.19V34.69H176.54V34.69H178.89V34.69H181.24V34.01H183.59V34.01H185.95V34.01H188.3V34.01H190.65V34.01H193V34.01H195.36V33.34H197.71V33.34H200.06V33.34H202.41V33.34H204.77V33.34H207.12V33.34H209.47V32.66H211.82V32.66H214.17V32.66H216.53V32.66H218.88V32.66H221.23V32.66H223.58V31.99H225.94V31.99H228.29V31.99H230.64V31.99H232.99V31.99H235.35V31.99H237.7V31.32H240.05V31.32H242.4V31.32H244.75V31.32H247.11V31.32H249.46V31.32H251.81V30.64H254.16V30.64H256.52V30.64H258.87V30.64H261.22V30.64H263.57V30.64H265.93V29.97H268.28V29.97H270.63V29.97H272.98V29.97H275.33V29.97H277.69V29.97H280.04V29.97H282.39V29.3H284.74V29.3H287.1V29.3H289.45V29.3H291.8V29.3H294.15V29.3H296.51V28.62H298.86V28.62H301.21V28.62H303.56V28.62H305.91V28.62H308.27V28.62H310.62V28.62H312.97V28.62H315.32V27.95H317.68V27.95H320.03V27.95H322.38V27.95H324.73V27.95H327.09V27.95H329.44V27.95H331.79V27.28H334.14V27.28H336.49V27.28H338.85V27.28H341.2V27.28H343.55V27.28H345.9V27.28H348.26V26.6H350.61V26.6H352.96V26.6H355.31V26.6H357.67V26.6H360.02V26.6H362.37V25.93H364.72V25.93H367.07V25.93H369.43V25.93H371.78V25.93H374.13V25.93H376.48V25.93H378.84V25.25H381.19V25.25H383.54V25.25H385.89V25.25H388.25V25.25H390.6V25.25H392.95V24.58H395.3V24.58H397.65V24.58H400.01V24.58H402.36V24.58H404.71V24.58H407.06V24.58H409.42V23.91H411.77V23.91H414.12V23.91H416.47V23.91H418.83V23.91H421.18V23.23H423.53V23.23H425.88V23.23H428.23V23.23H430.59V23.23H432.94V22.56H435.29V22.56H437.64V22.56H440V22.56H442.35V22.56H444.7V22.56H447.05V21.89H449.41V21.89H451.76V21.89H454.11V21.89H456.46V21.89H458.81V21.89H461.17V21.21H463.52V21.21H465.87V21.21H468.22V21.21H470.58V21.21H472.93V20.54H475.28V20.54H477.63V20.54H479.98V20.54H482.34V20.54H484.69V20.54H487.04V19.87H489.39V19.87H491.75V19.87H494.1V19.87H496.45V19.87H498.8V19.87H501.16V19.19H503.51V19.19H505.86V19.19H508.21V19.19H510.56V19.19H512.92V19.19H515.27V18.52H517.62V18.52H519.97V18.52H522.33V18.52H524.68V18.52H527.03V18.52H529.38V17.84H531.74V17.84H534.09V17.84H536.44V17.84H538.79V17.84H541.14V17.17H543.5V17.17H545.85V17.17H548.2V17.17H550.55V17.17H552.91V17.17H555.26V16.5H557.61V16.5H559.96V16.5H562.32V16.5H564.67V16.5H567.02V16.5H569.37V15.82H571.72V15.82H574.08V15.82H576.43V15.82H578.78V15.82H581.13V15.15H583.49V15.15H585.84V15.15H588.19V15.15H590.54V15.15H592.9V15.15H595.25V15.15H597.6V14.48H599.95V14.48H602.3V14.48H604.66V14.48" style="vector-effect: non-scaling-stroke; fill: none; stroke: rgb(171, 99, 250); stroke-opacity: 1; stroke-width: 3px; opacity: 1; stroke-dasharray: 9px, 9px;"/></g><g class="points"/><g class="text"/></g><g class="trace scatter trace49e23d" style="stroke-miterlimit: 2; opacity: 0.5;"><g class="fills"/><g class="errorbars"/><g class="lines"><path class="js-line" d="M18.93,149.22H607.01V149.22" style="vector-effect: non-scaling-stroke; fill: none; stroke: rgb(255, 161, 90); stroke-opacity: 1; stroke-width: 3px; opacity: 1; stroke-dasharray: 9px, 9px;"/></g><g class="points"/><g class="text"/></g><g class="trace scatter trace51071d" style="stroke-miterlimit: 2; opacity: 1;"><g class="fills"/><g class="errorbars"/><g class="lines"><path class="js-line" d="M18.93,149.22H21.29V149.22H23.64V149.22H25.99V109.19H28.34V111.14H30.7V72.92H33.05V50.04H35.4V41.42H37.75V213.31H40.1V210.19H42.46V180.54H44.81V99.01H47.16V40.75H49.51V213.31H51.87V210.19H54.22V127.1H56.57V128.18H58.92V62.55H61.28V40.08H63.63V213.31H65.98V210.19H68.33V153.9H70.68V86.87H73.04V63.2H75.39V39.4H77.74V213.31H80.09V210.19H82.45V180.5H84.8V99.24H87.15V61.6H89.5V38.73H91.86V213.31H94.21V210.19H96.56V180.54H98.91V99.01H101.26V61.54H103.62V52.45H105.97V38.05H108.32V213.31H110.67V210.19H113.03V140.67H115.38V114.52H117.73V76.13H120.08V37.38H122.44V213.31H124.79V210.19H127.14V167.26H129.49V139.76H131.84V86.78H134.2V36.71H136.55V213.31H138.9V210.19H141.25V167.14H143.61V126.43H145.96V47.51H148.31V36.03H150.66V213.31H153.02V210.19H155.37V194.01H157.72V151.74H160.07V124.9H162.42V86.01H164.78V35.36H167.13V213.31H169.48V210.19H171.83V167.29H174.19V153.05H176.54V112.78H178.89V47.92H181.24V34.69H183.59V213.31H185.95V210.19H188.3V167.13H190.65V112.92H193V61.41H195.36V34.01H197.71V213.31H200.06V210.19H202.41V167.29H204.77V113.12H207.12V61.54H209.47V33.34H211.82V213.31H214.17V210.19H216.53V153.78H218.88V140.2H221.23V60.82H223.58V32.66H225.94V213.31H228.29V210.19H230.64V193.85H232.99V125H235.35V86.15H237.7V31.99H240.05V213.31H242.4V210.19H244.75V127.25H247.11V101.6H249.46V50.64H251.81V31.32H254.16V213.31H256.52V210.19H258.87V180.5H261.22V125.53H263.57V73.29H265.93V30.64H268.28V213.31H270.63V210.19H272.98V167.26H275.33V139.66H277.69V113.41H280.04V48.55H282.39V29.97H284.74V213.31H287.1V210.19H289.45V167.14H291.8V126.31H294.15V73.99H296.51V29.3H298.86V213.31H301.21V210.19H303.56V180.65H305.91V152.39H308.27V112.43H310.62V87.51H312.97V50.44H315.32V28.62H317.68V213.31H320.03V210.19H322.38V193.95H324.73V138.33H327.09V138.87H329.44V72.72H331.79V27.95H334.14V213.31H336.49V210.19H338.85V180.63H341.2V139.02H343.55V72.76H345.9V63.13H348.26V27.28H350.61V213.31H352.96V210.19H355.31V140.6H357.67V101.09H360.02V76.79H362.37V26.6H364.72V213.31H367.07V210.19H369.43V180.65H371.78V152.49H374.13V112.45H376.48V100.88H378.84V25.93H381.19V213.31H383.54V210.19H385.89V167.14H388.25V126.18H390.6V60.63H392.95V25.25H395.3V213.31H397.65V210.19H400.01V127.18H402.36V128.25H404.71V76.09H407.06V66.29H409.42V24.58H411.77V213.31H414.12V210.19H416.47V100.34H418.83V62.64H421.18V23.91H423.53V213.31H425.88V210.19H428.23V113.74H430.59V75.54H432.94V23.23H435.29V213.31H437.64V210.19H440V167.14H442.35V112.91H444.7V101.32H447.05V22.56H449.41V213.31H451.76V210.19H454.11V154.03H456.46V153.79H458.81V46.69H461.17V21.89H463.52V213.31H465.87V210.19H468.22V167.14H470.58V73.06H472.93V21.21H475.28V213.31H477.63V210.19H479.98V193.86H482.34V138.39H484.69V99H487.04V20.54H489.39V213.31H491.75V210.19H494.1V193.86H496.45V151.79H498.8V98.42H501.16V19.87H503.51V213.31H505.86V210.19H508.21V167.26H510.56V113.09H512.92V88.29H515.27V19.19H517.62V213.31H519.97V210.19H522.33V153.93H524.68V113.66H527.03V48.6H529.38V18.52H531.74V213.31H534.09V210.19H536.44V180.69H538.79V85.79H541.14V17.84H543.5V213.31H545.85V210.19H548.2V140.5H550.55V100.84H552.91V49.77H555.26V17.17H557.61V213.31H559.96V210.19H562.32V193.86H564.67V125.04H567.02V59.42H569.37V16.5H571.72V213.31H574.08V210.19H576.43V100.89H578.78V89.89H581.13V15.82H583.49V213.31H585.84V210.19H588.19V167.14H590.54V152.9H592.9V112.68H595.25V114.47H597.6V15.15H599.95V213.31H602.3V210.19H604.66V87.13" style="vector-effect: non-scaling-stroke; fill: none; stroke: rgb(99, 110, 250); stroke-opacity: 1; stroke-width: 2px; opacity: 1;"/></g><g class="points"/><g class="text"/></g><g class="trace scatter trace066222" style="stroke-miterlimit: 2; opacity: 1;"><g class="fills"/><g class="errorbars"/><g class="lines"/><g class="points"><path class="point" transform="translate(35.4,41.42)" d="M3,0A3,3 0 1,1 0,-3A3,3 0 0,1 3,0Z" style="opacity: 1; stroke-width: 0px; fill: rgb(239, 85, 59); fill-opacity: 1;"/><path class="point" transform="translate(47.16,40.75)" d="M3,0A3,3 0 1,1 0,-3A3,3 0 0,1 3,0Z" style="opacity: 1; stroke-width: 0px; fill: rgb(239, 85, 59); fill-opacity: 1;"/><path class="point" transform="translate(61.28,40.08)" d="M3,0A3,3 0 1,1 0,-3A3,3 0 0,1 3,0Z" style="opacity: 1; stroke-width: 0px; fill: rgb(239, 85, 59); fill-opacity: 1;"/><path class="point" transform="translate(75.39,39.4)" d="M3,0A3,3 0 1,1 0,-3A3,3 0 0,1 3,0Z" style="opacity: 1; stroke-width: 0px; fill: rgb(239, 85, 59); fill-opacity: 1;"/><path class="point" transform="translate(89.5,38.73)" d="M3,0A3,3 0 1,1 0,-3A3,3 0 0,1 3,0Z" style="opacity: 1; stroke-width: 0px; fill: rgb(239, 85, 59); fill-opacity: 1;"/><path class="point" transform="translate(105.97,38.05)" d="M3,0A3,3 0 1,1 0,-3A3,3 0 0,1 3,0Z" style="opacity: 1; stroke-width: 0px; fill: rgb(239, 85, 59); fill-opacity: 1;"/><path class="point" transform="translate(120.08,37.38)" d="M3,0A3,3 0 1,1 0,-3A3,3 0 0,1 3,0Z" style="opacity: 1; stroke-width: 0px; fill: rgb(239, 85, 59); fill-opacity: 1;"/><path class="point" transform="translate(134.2,36.71)" d="M3,0A3,3 0 1,1 0,-3A3,3 0 0,1 3,0Z" style="opacity: 1; stroke-width: 0px; fill: rgb(239, 85, 59); fill-opacity: 1;"/><path class="point" transform="translate(148.31,36.03)" d="M3,0A3,3 0 1,1 0,-3A3,3 0 0,1 3,0Z" style="opacity: 1; stroke-width: 0px; fill: rgb(239, 85, 59); fill-opacity: 1;"/><path class="point" transform="translate(164.78,35.36)" d="M3,0A3,3 0 1,1 0,-3A3,3 0 0,1 3,0Z" style="opacity: 1; stroke-width: 0px; fill: rgb(239, 85, 59); fill-opacity: 1;"/><path class="point" transform="translate(181.24,34.69)" d="M3,0A3,3 0 1,1 0,-3A3,3 0 0,1 3,0Z" style="opacity: 1; stroke-width: 0px; fill: rgb(239, 85, 59); fill-opacity: 1;"/><path class="point" transform="translate(195.36,34.01)" d="M3,0A3,3 0 1,1 0,-3A3,3 0 0,1 3,0Z" style="opacity: 1; stroke-width: 0px; fill: rgb(239, 85, 59); fill-opacity: 1;"/><path class="point" transform="translate(209.47,33.34)" d="M3,0A3,3 0 1,1 0,-3A3,3 0 0,1 3,0Z" style="opacity: 1; stroke-width: 0px; fill: rgb(239, 85, 59); fill-opacity: 1;"/><path class="point" transform="translate(223.58,32.66)" d="M3,0A3,3 0 1,1 0,-3A3,3 0 0,1 3,0Z" style="opacity: 1; stroke-width: 0px; fill: rgb(239, 85, 59); fill-opacity: 1;"/><path class="point" transform="translate(237.7,31.99)" d="M3,0A3,3 0 1,1 0,-3A3,3 0 0,1 3,0Z" style="opacity: 1; stroke-width: 0px; fill: rgb(239, 85, 59); fill-opacity: 1;"/><path class="point" transform="translate(251.81,31.32)" d="M3,0A3,3 0 1,1 0,-3A3,3 0 0,1 3,0Z" style="opacity: 1; stroke-width: 0px; fill: rgb(239, 85, 59); fill-opacity: 1;"/><path class="point" transform="translate(265.93,30.64)" d="M3,0A3,3 0 1,1 0,-3A3,3 0 0,1 3,0Z" style="opacity: 1; stroke-width: 0px; fill: rgb(239, 85, 59); fill-opacity: 1;"/><path class="point" transform="translate(282.39,29.97)" d="M3,0A3,3 0 1,1 0,-3A3,3 0 0,1 3,0Z" style="opacity: 1; stroke-width: 0px; fill: rgb(239, 85, 59); fill-opacity: 1;"/><path class="point" transform="translate(296.51,29.3)" d="M3,0A3,3 0 1,1 0,-3A3,3 0 0,1 3,0Z" style="opacity: 1; stroke-width: 0px; fill: rgb(239, 85, 59); fill-opacity: 1;"/><path class="point" transform="translate(315.32,28.62)" d="M3,0A3,3 0 1,1 0,-3A3,3 0 0,1 3,0Z" style="opacity: 1; stroke-width: 0px; fill: rgb(239, 85, 59); fill-opacity: 1;"/><path class="point" transform="translate(331.79,27.95)" d="M3,0A3,3 0 1,1 0,-3A3,3 0 0,1 3,0Z" style="opacity: 1; stroke-width: 0px; fill: rgb(239, 85, 59); fill-opacity: 1;"/><path class="point" transform="translate(348.26,27.28)" d="M3,0A3,3 0 1,1 0,-3A3,3 0 0,1 3,0Z" style="opacity: 1; stroke-width: 0px; fill: rgb(239, 85, 59); fill-opacity: 1;"/><path class="point" transform="translate(362.37,26.6)" d="M3,0A3,3 0 1,1 0,-3A3,3 0 0,1 3,0Z" style="opacity: 1; stroke-width: 0px; fill: rgb(239, 85, 59); fill-opacity: 1;"/><path class="point" transform="translate(378.84,25.93)" d="M3,0A3,3 0 1,1 0,-3A3,3 0 0,1 3,0Z" style="opacity: 1; stroke-width: 0px; fill: rgb(239, 85, 59); fill-opacity: 1;"/><path class="point" transform="translate(392.95,25.25)" d="M3,0A3,3 0 1,1 0,-3A3,3 0 0,1 3,0Z" style="opacity: 1; stroke-width: 0px; fill: rgb(239, 85, 59); fill-opacity: 1;"/><path class="point" transform="translate(409.42,24.58)" d="M3,0A3,3 0 1,1 0,-3A3,3 0 0,1 3,0Z" style="opacity: 1; stroke-width: 0px; fill: rgb(239, 85, 59); fill-opacity: 1;"/><path class="point" transform="translate(421.18,23.91)" d="M3,0A3,3 0 1,1 0,-3A3,3 0 0,1 3,0Z" style="opacity: 1; stroke-width: 0px; fill: rgb(239, 85, 59); fill-opacity: 1;"/><path class="point" transform="translate(432.94,23.23)" d="M3,0A3,3 0 1,1 0,-3A3,3 0 0,1 3,0Z" style="opacity: 1; stroke-width: 0px; fill: rgb(239, 85, 59); fill-opacity: 1;"/><path class="point" transform="translate(447.05,22.56)" d="M3,0A3,3 0 1,1 0,-3A3,3 0 0,1 3,0Z" style="opacity: 1; stroke-width: 0px; fill: rgb(239, 85, 59); fill-opacity: 1;"/><path class="point" transform="translate(461.17,21.89)" d="M3,0A3,3 0 1,1 0,-3A3,3 0 0,1 3,0Z" style="opacity: 1; stroke-width: 0px; fill: rgb(239, 85, 59); fill-opacity: 1;"/><path class="point" transform="translate(472.93,21.21)" d="M3,0A3,3 0 1,1 0,-3A3,3 0 0,1 3,0Z" style="opacity: 1; stroke-width: 0px; fill: rgb(239, 85, 59); fill-opacity: 1;"/><path class="point" transform="translate(487.04,20.54)" d="M3,0A3,3 0 1,1 0,-3A3,3 0 0,1 3,0Z" style="opacity: 1; stroke-width: 0px; fill: rgb(239, 85, 59); fill-opacity: 1;"/><path class="point" transform="translate(501.16,19.87)" d="M3,0A3,3 0 1,1 0,-3A3,3 0 0,1 3,0Z" style="opacity: 1; stroke-width: 0px; fill: rgb(239, 85, 59); fill-opacity: 1;"/><path class="point" transform="translate(515.27,19.19)" d="M3,0A3,3 0 1,1 0,-3A3,3 0 0,1 3,0Z" style="opacity: 1; stroke-width: 0px; fill: rgb(239, 85, 59); fill-opacity: 1;"/><path class="point" transform="translate(529.38,18.52)" d="M3,0A3,3 0 1,1 0,-3A3,3 0 0,1 3,0Z" style="opacity: 1; stroke-width: 0px; fill: rgb(239, 85, 59); fill-opacity: 1;"/><path class="point" transform="translate(541.14,17.84)" d="M3,0A3,3 0 1,1 0,-3A3,3 0 0,1 3,0Z" style="opacity: 1; stroke-width: 0px; fill: rgb(239, 85, 59); fill-opacity: 1;"/><path class="point" transform="translate(555.26,17.17)" d="M3,0A3,3 0 1,1 0,-3A3,3 0 0,1 3,0Z" style="opacity: 1; stroke-width: 0px; fill: rgb(239, 85, 59); fill-opacity: 1;"/><path class="point" transform="translate(569.37,16.5)" d="M3,0A3,3 0 1,1 0,-3A3,3 0 0,1 3,0Z" style="opacity: 1; stroke-width: 0px; fill: rgb(239, 85, 59); fill-opacity: 1;"/><path class="point" transform="translate(581.13,15.82)" d="M3,0A3,3 0 1,1 0,-3A3,3 0 0,1 3,0Z" style="opacity: 1; stroke-width: 0px; fill: rgb(239, 85, 59); fill-opacity: 1;"/><path class="point" transform="translate(597.6,15.15)" d="M3,0A3,3 0 1,1 0,-3A3,3 0 0,1 3,0Z" style="opacity: 1; stroke-width: 0px; fill: rgb(239, 85, 59); fill-opacity: 1;"/></g><g class="text"/></g></g></g><g class="overplot"/><path class="xlines-above crisp" d="M0,0" style="fill: none;"/><path class="ylines-above crisp" d="M0,0" style="fill: none;"/><g class="overlines-above"/><g class="xaxislayer-above"><g class="xtick"><text text-anchor="middle" x="0" y="349" transform="translate(105.93,0)" style="font-family: 'Open Sans', verdana, arial, sans-serif; font-size: 20px; fill: rgb(42, 63, 95); fill-opacity: 1; white-space: pre;">0</text></g><g class="xtick"><text text-anchor="middle" x="0" y="349" transform="translate(223.55,0)" style="font-family: 'Open Sans', verdana, arial, sans-serif; font-size: 20px; fill: rgb(42, 63, 95); fill-opacity: 1; white-space: pre;">50</text></g><g class="xtick"><text text-anchor="middle" x="0" y="349" transform="translate(341.15999999999997,0)" style="font-family: 'Open Sans', verdana, arial, sans-serif; font-size: 20px; fill: rgb(42, 63, 95); fill-opacity: 1; white-space: pre;">100</text></g><g class="xtick"><text text-anchor="middle" x="0" y="349" transform="translate(458.78,0)" style="font-family: 'Open Sans', verdana, arial, sans-serif; font-size: 20px; fill: rgb(42, 63, 95); fill-opacity: 1; white-space: pre;">150</text></g><g class="xtick"><text text-anchor="middle" x="0" y="349" transform="translate(576.39,0)" style="font-family: 'Open Sans', verdana, arial, sans-serif; font-size: 20px; fill: rgb(42, 63, 95); fill-opacity: 1; white-space: pre;">200</text></g><g class="xtick"><text text-anchor="middle" x="0" y="349" transform="translate(694.01,0)" style="font-family: 'Open Sans', verdana, arial, sans-serif; font-size: 20px; fill: rgb(42, 63, 95); fill-opacity: 1; white-space: pre;">250</text></g></g><g class="yaxislayer-above"><g class="ytick"><text text-anchor="end" x="86" y="7" transform="translate(0,316.6)" style="font-family: 'Open Sans', verdana, arial, sans-serif; font-size: 20px; fill: rgb(42, 63, 95); fill-opacity: 1; white-space: pre;">−65</text></g><g class="ytick"><text text-anchor="end" x="86" y="7" transform="translate(0,249.22)" style="font-family: 'Open Sans', verdana, arial, sans-serif; font-size: 20px; fill: rgb(42, 63, 95); fill-opacity: 1; white-space: pre;">−60</text></g><g class="ytick"><text text-anchor="end" x="86" y="7" transform="translate(0,181.85)" style="font-family: 'Open Sans', verdana, arial, sans-serif; font-size: 20px; fill: rgb(42, 63, 95); fill-opacity: 1; white-space: pre;">−55</text></g><g class="ytick"><text text-anchor="end" x="86" y="7" transform="translate(0,114.47)" style="font-family: 'Open Sans', verdana, arial, sans-serif; font-size: 20px; fill: rgb(42, 63, 95); fill-opacity: 1; white-space: pre;">−50</text></g></g><g class="overaxes-above"/></g></g><g class="polarlayer"/><g class="ternarylayer"/><g class="geolayer"/><g class="funnelarealayer"/><g class="pielayer"/><g class="treemaplayer"/><g class="sunburstlayer"/><g class="glimages"/><defs id="topdefs-07a942"><g class="clips"/><clipPath id="legend07a942"><rect width="484" height="90" x="1" y="1"/></clipPath></defs><g class="layer-above"><g class="imagelayer"/><g class="shapelayer"/></g><g class="infolayer"><g class="legend" pointer-events="all" transform="translate(87, 396.40000000000003)"><rect class="bg" shape-rendering="crispEdges" width="485" height="91" x="0.5" y="0.5" style="stroke: rgb(0, 0, 0); stroke-opacity: 1; fill: rgb(25, 211, 243); fill-opacity: 0.1; stroke-width: 1px;"/><g class="scrollbox" transform="translate(0, 0)" clip-path="url('#legend07a942')"><g class="groups"><g class="traces" transform="translate(1, 19.200000000000003)" style="opacity: 1;"><text class="legendtext user-select-none" text-anchor="start" x="40" y="7.0200000000000005" style="font-family: 'Open Sans', verdana, arial, sans-serif; font-size: 18px; fill: rgb(0, 0, 0); fill-opacity: 1; white-space: pre;">Уровень сброса</text><g class="layers" style="opacity: 0.5;"><g class="legendfill"/><g class="legendlines"><path class="js-line" d="M5,0h30" style="fill: none; stroke: rgb(0, 204, 150); stroke-opacity: 1; stroke-dasharray: 9px, 9px; stroke-width: 3px;"/></g><g class="legendsymbols"><g class="legendpoints"/></g></g><rect class="legendtoggle" pointer-events="all" x="0" y="-13.200000000000001" width="189.453125" height="26.400000000000002" style="cursor: pointer; fill: rgb(0, 0, 0); fill-opacity: 0;"/></g><g class="traces" transform="translate(254.453125, 19.200000000000003)" style="opacity: 1;"><text class="legendtext user-select-none" text-anchor="start" x="40" y="7.0200000000000005" style="font-family: 'Open Sans', verdana, arial, sans-serif; font-size: 18px; fill: rgb(0, 0, 0); fill-opacity: 1; white-space: pre;">Порог активации</text><g class="layers" style="opacity: 0.5;"><g class="legendfill"/><g class="legendlines"><path class="js-line" d="M5,0h30" style="fill: none; stroke: rgb(171, 99, 250); stroke-opacity: 1; stroke-dasharray: 9px, 9px; stroke-width: 3px;"/></g><g class="legendsymbols"><g class="legendpoints"/></g></g><rect class="legendtoggle" pointer-events="all" x="0" y="-13.200000000000001" width="201.984375" height="26.400000000000002" style="cursor: pointer; fill: rgb(0, 0, 0); fill-opacity: 0;"/></g><g class="traces" transform="translate(1, 45.6)" style="opacity: 1;"><text class="legendtext user-select-none" text-anchor="start" x="40" y="7.0200000000000005" style="font-family: 'Open Sans', verdana, arial, sans-serif; font-size: 18px; fill: rgb(0, 0, 0); fill-opacity: 1; white-space: pre;">Уровень релаксации</text><g class="layers" style="opacity: 0.5;"><g class="legendfill"/><g class="legendlines"><path class="js-line" d="M5,0h30" style="fill: none; stroke: rgb(255, 161, 90); stroke-opacity: 1; stroke-dasharray: 9px, 9px; stroke-width: 3px;"/></g><g class="legendsymbols"><g class="legendpoints"/></g></g><rect class="legendtoggle" pointer-events="all" x="0" y="-13.200000000000001" width="235.859375" height="26.400000000000002" style="cursor: pointer; fill: rgb(0, 0, 0); fill-opacity: 0;"/></g><g class="traces" transform="translate(254.453125, 45.6)" style="opacity: 1;"><text class="legendtext user-select-none" text-anchor="start" x="40" y="7.0200000000000005" style="font-family: 'Open Sans', verdana, arial, sans-serif; font-size: 18px; fill: rgb(0, 0, 0); fill-opacity: 1; white-space: pre;">Потенциал нейрона</text><g class="layers" style="opacity: 1;"><g class="legendfill"/><g class="legendlines"><path class="js-line" d="M5,0h30" style="fill: none; stroke: rgb(99, 110, 250); stroke-opacity: 1; stroke-width: 2px;"/></g><g class="legendsymbols"><g class="legendpoints"/></g></g><rect class="legendtoggle" pointer-events="all" x="0" y="-13.200000000000001" width="227.65625" height="26.400000000000002" style="cursor: pointer; fill: rgb(0, 0, 0); fill-opacity: 0;"/></g><g class="traces" transform="translate(1, 72)" style="opacity: 1;"><text class="legendtext user-select-none" text-anchor="start" x="40" y="7.0200000000000005" style="font-family: 'Open Sans', verdana, arial, sans-serif; font-size: 18px; fill: rgb(0, 0, 0); fill-opacity: 1; white-space: pre;">Спайки этого нейрона</text><g class="layers" style="opacity: 1;"><g class="legendfill"/><g class="legendlines"/><g class="legendsymbols"><g class="legendpoints"><path class="scatterpts" transform="translate(20,0)" d="M3,0A3,3 0 1,1 0,-3A3,3 0 0,1 3,0Z" style="opacity: 1; stroke-width: 0px; fill: rgb(239, 85, 59); fill-opacity: 1;"/></g></g></g><rect class="legendtoggle" pointer-events="all" x="0" y="-13.200000000000001" width="250.953125" height="26.400000000000002" style="cursor: pointer; fill: rgb(0, 0, 0); fill-opacity: 0;"/></g></g></g><rect class="scrollbar" rx="20" ry="3" width="0" height="0" x="0" y="0" style="fill: rgb(128, 139, 164); fill-opacity: 1;"/></g><g class="g-gtitle"/><g class="g-xtitle"><text class="xtitle" x="403.5" y="384.8" text-anchor="middle" style="font-family: 'Open Sans', verdana, arial, sans-serif; font-size: 24px; fill: rgb(42, 63, 95); opacity: 1; font-weight: normal; white-space: pre;">Время, мс</text></g><g class="g-ytitle" transform="translate(11.5966796875,0)"><text class="ytitle" transform="rotate(-90,12.403125000000003,214)" x="12.403125000000003" y="214" text-anchor="middle" style="font-family: 'Open Sans', verdana, arial, sans-serif; font-size: 24px; fill: rgb(42, 63, 95); opacity: 1; font-weight: normal; white-space: pre;">Напряжение, мВ</text></g></g></svg>