<svg class="main-svg" xmlns="http://www.w3.org/2000/svg" xmlns:xlink="http://www.w3.org/1999/xlink" width="900" height="600" style="" viewBox="0 0 900 600"><rect x="0" y="0" width="900" height="600" style="fill: rgb(255, 255, 255); fill-opacity: 1;"/><defs id="defs-e2ce2c"><g class="clips"><clipPath id="clipe2ce2cxyplot" class="plotclip"><rect width="732" height="305"/></clipPath><clipPath class="axesclip" id="clipe2ce2cx"><rect x="88" y="0" width="732" height="600"/></clipPath><clipPath class="axesclip" id="clipe2ce2cy"><rect x="0" y="100" width="900" height="305"/></clipPath><clipPath class="axesclip" id="clipe2ce2cxy"><rect x="88" y="100" width="732" height="305"/></clipPath></g><g class="gradients"/></defs><g class="bglayer"/><g class="layer-below"><g class="imagelayer"/><g class="shapelayer"/></g><g class="cartesianlayer"><g class="subplot xy"><g class="layer-subplot"><g class="shapelayer"/><g class="imagelayer"/></g><g class="gridlayer"><g class="x"/><g class="y"/></g><g class="zerolinelayer"><path class="xzl zl crisp" transform="translate(103.19,0)" d="M0,100v305" style="stroke: rgb(0, 44, 117); stroke-opacity: 1; stroke-width: 1px;"/></g><path class="xlines-below"/><path class="ylines-below"/><g class="overlines-below"/><g class="xaxislayer-below"/><g class="yaxislayer-below"/><g class="overaxes-below"/><g class="plot" transform="translate(88,100)" clip-path="url('#clipe2ce2cxyplot')"><g class="scatterlayer mlayer"><g class="trace scatter tracea1cea1" style="stroke-miterlimit: 2; opacity: 0.5;"><g class="fills"/><g class="errorbars"/><g class="lines"><path class="js-line" d="M15.19,289.75H714.01V289.75" style="vector-effect: non-scaling-stroke; fill: none; stroke: rgb(44, 160, 44); stroke-opacity: 1; stroke-width: 3px; opacity: 1; stroke-dasharray: 9px, 9px;"/></g><g class="points"/><g class="text"/></g><g class="trace scatter traceb8b2e1" style="stroke-miterlimit: 2; opacity: 0.5;"><g class="fills"/><g class="errorbars"/><g class="lines"><path class="js-line" d="M15.19,47.01H17.99V47.01H20.78V47.01H23.58V47.01H26.37V47.01H29.17V47.01H31.96V47.01H34.76V47.01H37.55V47.01H40.35V46.07H43.15V46.07H45.94V46.07H48.74V46.07H51.53V46.07H54.33V46.07H57.12V45.14H59.92V45.14H62.71V45.14H65.51V45.14H68.3V45.14H71.1V45.14H73.89V45.14H76.69V44.2H79.48V44.2H82.28V44.2H85.07V44.2H87.87V44.2H90.67V44.2H93.46V44.2H96.26V44.2H99.05V43.27H101.85V43.27H104.64V43.27H107.44V43.27H110.23V43.27H113.03V43.27H115.82V43.27H118.62V43.27H121.41V42.34H124.21V42.34H127V42.34H129.8V42.34H132.59V42.34H135.39V42.34H138.18V42.34H140.98V42.34H143.78V42.34H146.57V41.4H149.37V41.4H152.16V41.4H154.96V41.4H157.75V41.4H160.55V41.4H163.34V41.4H166.14V40.47H168.93V40.47H171.73V40.47H174.52V40.47H177.32V40.47H180.11V40.47H182.91V39.54H185.7V39.54H188.5V39.54H191.3V39.54H194.09V39.54H196.89V39.54H199.68V39.54H202.48V39.54H205.27V38.6H208.07V38.6H210.86V38.6H213.66V38.6H216.45V38.6H219.25V38.6H222.04V38.6H224.84V38.6H227.63V38.6H230.43V37.67H233.22V37.67H236.02V37.67H238.81V37.67H241.61V37.67H244.41V37.67H247.2V37.67H250V36.74H252.79V36.74H255.59V36.74H258.38V36.74H261.18V36.74H263.97V36.74H266.77V36.74H269.56V36.74H272.36V36.74H275.15V35.8H277.95V35.8H280.74V35.8H283.54V35.8H286.33V35.8H289.13V35.8H291.93V35.8H294.72V34.87H297.52V34.87H300.31V34.87H303.11V34.87H305.9V34.87H308.7V34.87H311.49V34.87H314.29V33.94H317.08V33.94H319.88V33.94H322.67V33.94H325.47V33.94H328.26V33.94H331.06V33.94H333.85V33.94H336.65V33H339.44V33H342.24V33H345.04V33H347.83V33H350.63V33H353.42V32.07H356.22V32.07H359.01V32.07H361.81V32.07H364.6V32.07H367.4V32.07H370.19V32.07H372.99V31.13H375.78V31.13H378.58V31.13H381.37V31.13H384.17V31.13H386.96V31.13H389.76V31.13H392.56V31.13H395.35V31.13H398.15V30.2H400.94V30.2H403.74V30.2H406.53V30.2H409.33V30.2H412.12V30.2H414.92V30.2H417.71V30.2H420.51V29.27H423.3V29.27H426.1V29.27H428.89V29.27H431.69V29.27H434.48V29.27H437.28V29.27H440.07V29.27H442.87V29.27H445.67V28.33H448.46V28.33H451.26V28.33H454.05V28.33H456.85V28.33H459.64V28.33H462.44V27.4H465.23V27.4H468.03V27.4H470.82V27.4H473.62V27.4H476.41V27.4H479.21V27.4H482V27.4H484.8V27.4H487.59V26.47H490.39V26.47H493.19V26.47H495.98V26.47H498.78V26.47H501.57V26.47H504.37V26.47H507.16V26.47H509.96V26.47H512.75V25.53H515.55V25.53H518.34V25.53H521.14V25.53H523.93V25.53H526.73V25.53H529.52V25.53H532.32V25.53H535.11V24.6H537.91V24.6H540.7V24.6H543.5V24.6H546.3V24.6H549.09V24.6H551.89V24.6H554.68V24.6H557.48V24.6H560.27V23.67H563.07V23.67H565.86V23.67H568.66V23.67H571.45V23.67H574.25V23.67H577.04V23.67H579.84V23.67H582.63V23.67H585.43V22.73H588.22V22.73H591.02V22.73H593.82V22.73H596.61V22.73H599.41V22.73H602.2V22.73H605V22.73H607.79V21.8H610.59V21.8H613.38V21.8H616.18V21.8H618.97V21.8H621.77V21.8H624.56V21.8H627.36V21.8H630.15V20.87H632.95V20.87H635.74V20.87H638.54V20.87H641.33V20.87H644.13V20.87H646.93V19.93H649.72V19.93H652.52V19.93H655.31V19.93H658.11V19.93H660.9V19.93H663.7V19.93H666.49V19.93H669.29V19.93H672.08V19.93H674.88V19H677.67V19H680.47V19H683.26V19H686.06V19H688.85V19H691.65V18.07H694.45V18.07H697.24V18.07H700.04V18.07H702.83V18.07H705.63V18.07H708.42V18.07H711.22V18.07" style="vector-effect: non-scaling-stroke; fill: none; stroke: rgb(214, 39, 40); stroke-opacity: 1; stroke-width: 3px; opacity: 1; stroke-dasharray: 9px, 9px;"/></g><g class="points"/><g class="text"/></g><g class="trace scatter traceb559e4" style="stroke-miterlimit: 2; opacity: 0.5;"><g class="fills"/><g class="errorbars"/><g class="lines"><path class="js-line" d="M15.19,196.39H714.01V196.39" style="vector-effect: non-scaling-stroke; fill: none; stroke: rgb(148, 103, 189); stroke-opacity: 1; stroke-width: 3px; opacity: 1; stroke-dasharray: 9px, 9px;"/></g><g class="points"/><g class="text"/></g><g class="trace scatter trace1b4182" style="stroke-miterlimit: 2; opacity: 1;"><g class="fills"/><g class="errorbars"/><g class="lines"><path class="js-line" d="M15.19,196.39H17.99V196.39H20.78V196.39H23.58V177.87H26.37V178.78H29.17V142.61H31.96V108.38H34.76V75.65H37.55V63.02H40.35V47.01H43.15V285.2H45.94V280.87H48.74V203H51.53V165.65H54.33V93.31H57.12V46.07H59.92V285.2H62.71V280.87H65.51V258.23H68.3V199.74H71.1V162.55H73.89V127.17H76.69V45.14H79.48V285.2H82.28V280.87H85.07V258.4H87.87V218.35H90.67V180.46H93.46V162.73H96.26V90.32H99.05V44.2H101.85V285.2H104.64V280.87H107.44V147.52H110.23V112.88H113.03V116.95H115.82V102.31H118.62V70.14H121.41V43.27H124.21V285.2H127V280.87H129.8V258.23H132.59V218.19H135.39V143.29H138.18V108.85H140.98V57.59H143.78V64.36H146.57V42.34H149.37V285.2H152.16V280.87H154.96V221.43H157.75V183.19H160.55V109.99H163.34V77.52H166.14V41.4H168.93V285.2H171.73V280.87H174.52V184.23H177.32V110.98H180.11V59.61H182.91V40.47H185.7V285.2H188.5V280.87H191.3V239.89H194.09V219.26H196.89V144.09H199.68V146.64H202.48V93.74H205.27V39.54H208.07V285.2H210.86V280.87H213.66V239.72H216.45V237.61H219.25V198.74H222.04V143.09H224.84V71.64H227.63V59.21H230.43V38.6H233.22V285.2H236.02V280.87H238.81V221.42H241.61V164.79H244.41V147.88H247.2V76.19H250V37.67H252.79V285.2H255.59V280.87H258.38V184.39H261.18V148.16H263.97V132H266.77V61.23H269.56V67.82H272.36V55.58H275.15V36.74H277.95V285.2H280.74V280.87H283.54V258.23H286.33V199.73H289.13V199.57H291.93V51.66H294.72V35.8H297.52V285.2H300.31V280.87H303.11V221.26H305.9V201.54H308.7V127.37H311.49V56.69H314.29V34.87H317.08V285.2H319.88V280.87H322.67V221.38H325.47V201.64H328.26V164.36H331.06V128.9H333.85V95.16H336.65V33.94H339.44V285.2H342.24V280.87H345.04V239.72H347.83V182.07H350.63V108.92H353.42V33H356.22V285.2H359.01V280.87H361.81V239.89H364.6V163.93H367.4V109.97H370.19V58.71H372.99V32.07H375.78V285.2H378.58V280.87H381.37V202.69H384.17V147.02H386.96V131.05H389.76V115.72H392.56V82.63H395.35V51.32H398.15V31.13H400.94V285.2H403.74V280.87H406.53V202.9H409.33V184.13H412.12V129.19H414.92V95.44H417.71V63.55H420.51V30.2H423.3V285.2H426.1V280.87H428.89V221.37H431.69V201.64H434.48V146.2H437.28V130.13H440.07V114.85H442.87V63.29H445.67V29.27H448.46V285.2H451.26V280.87H454.05V165.67H456.85V112.03H459.64V97.63H462.44V28.33H465.23V285.2H468.03V280.87H470.82V258.44H473.62V236.9H476.41V197.9H479.21V160.8H482V107.21H484.8V56.02H487.59V27.4H490.39V285.2H493.19V280.87H495.98V184.45H498.78V166.52H501.57V130.95H504.37V134.14H507.16V81.85H509.96V50.41H512.75V26.47H515.55V285.2H518.34V280.87H521.14V258.44H523.93V218.39H526.73V198.81H529.52V143.36H532.32V127.43H535.11V25.53H537.91V285.2H540.7V280.87H543.5V239.89H546.3V200.74H549.09V126.67H551.89V111.56H554.68V78.67H557.48V47.38H560.27V24.6H563.07V285.2H565.86V280.87H568.66V258.23H571.45V200.05H574.25V181.36H577.04V182.09H579.84V108.93H582.63V94.69H585.43V23.67H588.22V285.2H591.02V280.87H593.82V221.21H596.61V201.49H599.41V127.45H602.2V112.3H605V79.55H607.79V22.73H610.59V285.2H613.38V280.87H616.18V239.72H618.97V219.09H621.77V143.93H624.56V127.98H627.36V57.68H630.15V21.8H632.95V285.2H635.74V280.87H638.54V221.38H641.33V164.83H644.13V92.51H646.93V20.87H649.72V285.2H652.52V280.87H655.31V258.23H658.11V199.68H660.9V162.66H663.7V127.28H666.49V93.63H669.29V80.13H672.08V49.12H674.88V19.93H677.67V285.2H680.47V280.87H683.26V165.93H686.06V130.56H688.85V96.75H691.65V19H694.45V285.2H697.24V280.87H700.04V276.75H702.83V235.94H705.63V141.67H708.42V125.83H711.22V92.46" style="vector-effect: non-scaling-stroke; fill: none; stroke: rgb(31, 119, 180); stroke-opacity: 1; stroke-width: 1px; opacity: 1;"/></g><g class="points"/><g class="text"/></g><g class="trace scatter trace0fff9b" style="stroke-miterlimit: 2; opacity: 1;"><g class="fills"/><g class="errorbars"/><g class="lines"/><g class="points"><path class="point" transform="translate(40.35,47.01)" d="M3,0A3,3 0 1,1 0,-3A3,3 0 0,1 3,0Z" style="opacity: 1; stroke-width: 0px; fill: rgb(255, 127, 14); fill-opacity: 1;"/><path class="point" transform="translate(57.12,46.07)" d="M3,0A3,3 0 1,1 0,-3A3,3 0 0,1 3,0Z" style="opacity: 1; stroke-width: 0px; fill: rgb(255, 127, 14); fill-opacity: 1;"/><path class="point" transform="translate(76.69,45.14)" d="M3,0A3,3 0 1,1 0,-3A3,3 0 0,1 3,0Z" style="opacity: 1; stroke-width: 0px; fill: rgb(255, 127, 14); fill-opacity: 1;"/><path class="point" transform="translate(99.05,44.2)" d="M3,0A3,3 0 1,1 0,-3A3,3 0 0,1 3,0Z" style="opacity: 1; stroke-width: 0px; fill: rgb(255, 127, 14); fill-opacity: 1;"/><path class="point" transform="translate(121.41,43.27)" d="M3,0A3,3 0 1,1 0,-3A3,3 0 0,1 3,0Z" style="opacity: 1; stroke-width: 0px; fill: rgb(255, 127, 14); fill-opacity: 1;"/><path class="point" transform="translate(146.57,42.34)" d="M3,0A3,3 0 1,1 0,-3A3,3 0 0,1 3,0Z" style="opacity: 1; stroke-width: 0px; fill: rgb(255, 127, 14); fill-opacity: 1;"/><path class="point" transform="translate(166.14,41.4)" d="M3,0A3,3 0 1,1 0,-3A3,3 0 0,1 3,0Z" style="opacity: 1; stroke-width: 0px; fill: rgb(255, 127, 14); fill-opacity: 1;"/><path class="point" transform="translate(182.91,40.47)" d="M3,0A3,3 0 1,1 0,-3A3,3 0 0,1 3,0Z" style="opacity: 1; stroke-width: 0px; fill: rgb(255, 127, 14); fill-opacity: 1;"/><path class="point" transform="translate(205.27,39.54)" d="M3,0A3,3 0 1,1 0,-3A3,3 0 0,1 3,0Z" style="opacity: 1; stroke-width: 0px; fill: rgb(255, 127, 14); fill-opacity: 1;"/><path class="point" transform="translate(230.43,38.6)" d="M3,0A3,3 0 1,1 0,-3A3,3 0 0,1 3,0Z" style="opacity: 1; stroke-width: 0px; fill: rgb(255, 127, 14); fill-opacity: 1;"/><path class="point" transform="translate(250,37.67)" d="M3,0A3,3 0 1,1 0,-3A3,3 0 0,1 3,0Z" style="opacity: 1; stroke-width: 0px; fill: rgb(255, 127, 14); fill-opacity: 1;"/><path class="point" transform="translate(275.15,36.74)" d="M3,0A3,3 0 1,1 0,-3A3,3 0 0,1 3,0Z" style="opacity: 1; stroke-width: 0px; fill: rgb(255, 127, 14); fill-opacity: 1;"/><path class="point" transform="translate(294.72,35.8)" d="M3,0A3,3 0 1,1 0,-3A3,3 0 0,1 3,0Z" style="opacity: 1; stroke-width: 0px; fill: rgb(255, 127, 14); fill-opacity: 1;"/><path class="point" transform="translate(314.29,34.87)" d="M3,0A3,3 0 1,1 0,-3A3,3 0 0,1 3,0Z" style="opacity: 1; stroke-width: 0px; fill: rgb(255, 127, 14); fill-opacity: 1;"/><path class="point" transform="translate(336.65,33.94)" d="M3,0A3,3 0 1,1 0,-3A3,3 0 0,1 3,0Z" style="opacity: 1; stroke-width: 0px; fill: rgb(255, 127, 14); fill-opacity: 1;"/><path class="point" transform="translate(353.42,33)" d="M3,0A3,3 0 1,1 0,-3A3,3 0 0,1 3,0Z" style="opacity: 1; stroke-width: 0px; fill: rgb(255, 127, 14); fill-opacity: 1;"/><path class="point" transform="translate(372.99,32.07)" d="M3,0A3,3 0 1,1 0,-3A3,3 0 0,1 3,0Z" style="opacity: 1; stroke-width: 0px; fill: rgb(255, 127, 14); fill-opacity: 1;"/><path class="point" transform="translate(398.15,31.13)" d="M3,0A3,3 0 1,1 0,-3A3,3 0 0,1 3,0Z" style="opacity: 1; stroke-width: 0px; fill: rgb(255, 127, 14); fill-opacity: 1;"/><path class="point" transform="translate(420.51,30.2)" d="M3,0A3,3 0 1,1 0,-3A3,3 0 0,1 3,0Z" style="opacity: 1; stroke-width: 0px; fill: rgb(255, 127, 14); fill-opacity: 1;"/><path class="point" transform="translate(445.67,29.27)" d="M3,0A3,3 0 1,1 0,-3A3,3 0 0,1 3,0Z" style="opacity: 1; stroke-width: 0px; fill: rgb(255, 127, 14); fill-opacity: 1;"/><path class="point" transform="translate(462.44,28.33)" d="M3,0A3,3 0 1,1 0,-3A3,3 0 0,1 3,0Z" style="opacity: 1; stroke-width: 0px; fill: rgb(255, 127, 14); fill-opacity: 1;"/><path class="point" transform="translate(487.59,27.4)" d="M3,0A3,3 0 1,1 0,-3A3,3 0 0,1 3,0Z" style="opacity: 1; stroke-width: 0px; fill: rgb(255, 127, 14); fill-opacity: 1;"/><path class="point" transform="translate(512.75,26.47)" d="M3,0A3,3 0 1,1 0,-3A3,3 0 0,1 3,0Z" style="opacity: 1; stroke-width: 0px; fill: rgb(255, 127, 14); fill-opacity: 1;"/><path class="point" transform="translate(535.11,25.53)" d="M3,0A3,3 0 1,1 0,-3A3,3 0 0,1 3,0Z" style="opacity: 1; stroke-width: 0px; fill: rgb(255, 127, 14); fill-opacity: 1;"/><path class="point" transform="translate(560.27,24.6)" d="M3,0A3,3 0 1,1 0,-3A3,3 0 0,1 3,0Z" style="opacity: 1; stroke-width: 0px; fill: rgb(255, 127, 14); fill-opacity: 1;"/><path class="point" transform="translate(585.43,23.67)" d="M3,0A3,3 0 1,1 0,-3A3,3 0 0,1 3,0Z" style="opacity: 1; stroke-width: 0px; fill: rgb(255, 127, 14); fill-opacity: 1;"/><path class="point" transform="translate(607.79,22.73)" d="M3,0A3,3 0 1,1 0,-3A3,3 0 0,1 3,0Z" style="opacity: 1; stroke-width: 0px; fill: rgb(255, 127, 14); fill-opacity: 1;"/><path class="point" transform="translate(630.15,21.8)" d="M3,0A3,3 0 1,1 0,-3A3,3 0 0,1 3,0Z" style="opacity: 1; stroke-width: 0px; fill: rgb(255, 127, 14); fill-opacity: 1;"/><path class="point" transform="translate(646.93,20.87)" d="M3,0A3,3 0 1,1 0,-3A3,3 0 0,1 3,0Z" style="opacity: 1; stroke-width: 0px; fill: rgb(255, 127, 14); fill-opacity: 1;"/><path class="point" transform="translate(674.88,19.93)" d="M3,0A3,3 0 1,1 0,-3A3,3 0 0,1 3,0Z" style="opacity: 1; stroke-width: 0px; fill: rgb(255, 127, 14); fill-opacity: 1;"/><path class="point" transform="translate(691.65,19)" d="M3,0A3,3 0 1,1 0,-3A3,3 0 0,1 3,0Z" style="opacity: 1; stroke-width: 0px; fill: rgb(255, 127, 14); fill-opacity: 1;"/></g><g class="text"/></g></g></g><g class="overplot"/><path class="xlines-above crisp" d="M87,405.5H820" style="fill: none; stroke-width: 1px; stroke: rgb(36, 36, 36); stroke-opacity: 1;"/><path class="ylines-above crisp" d="M87.5,100V405" style="fill: none; stroke-width: 1px; stroke: rgb(36, 36, 36); stroke-opacity: 1;"/><g class="overlines-above"/><g class="xaxislayer-above"><path class="xtick ticks crisp" d="M0,406v5" transform="translate(103.19,0)" style="stroke: rgb(68, 68, 68); stroke-opacity: 1; stroke-width: 1px;"/><path class="xtick ticks crisp" d="M0,406v5" transform="translate(242.96,0)" style="stroke: rgb(68, 68, 68); stroke-opacity: 1; stroke-width: 1px;"/><path class="xtick ticks crisp" d="M0,406v5" transform="translate(382.72,0)" style="stroke: rgb(68, 68, 68); stroke-opacity: 1; stroke-width: 1px;"/><path class="xtick ticks crisp" d="M0,406v5" transform="translate(522.48,0)" style="stroke: rgb(68, 68, 68); stroke-opacity: 1; stroke-width: 1px;"/><path class="xtick ticks crisp" d="M0,406v5" transform="translate(662.25,0)" style="stroke: rgb(68, 68, 68); stroke-opacity: 1; stroke-width: 1px;"/><path class="xtick ticks crisp" d="M0,406v5" transform="translate(802.01,0)" style="stroke: rgb(68, 68, 68); stroke-opacity: 1; stroke-width: 1px;"/><g class="xtick"><text text-anchor="middle" x="0" y="435" transform="translate(103.19,0)" style="font-family: 'Open Sans', verdana, arial, sans-serif; font-size: 20px; fill: rgb(36, 36, 36); fill-opacity: 1; white-space: pre;">0</text></g><g class="xtick"><text text-anchor="middle" x="0" y="435" transform="translate(242.96,0)" style="font-family: 'Open Sans', verdana, arial, sans-serif; font-size: 20px; fill: rgb(36, 36, 36); fill-opacity: 1; white-space: pre;">50</text></g><g class="xtick"><text text-anchor="middle" x="0" y="435" transform="translate(382.72,0)" style="font-family: 'Open Sans', verdana, arial, sans-serif; font-size: 20px; fill: rgb(36, 36, 36); fill-opacity: 1; white-space: pre;">100</text></g><g class="xtick"><text text-anchor="middle" x="0" y="435" transform="translate(522.48,0)" style="font-family: 'Open Sans', verdana, arial, sans-serif; font-size: 20px; fill: rgb(36, 36, 36); fill-opacity: 1; white-space: pre;">150</text></g><g class="xtick"><text text-anchor="middle" x="0" y="435" transform="translate(662.25,0)" style="font-family: 'Open Sans', verdana, arial, sans-serif; font-size: 20px; fill: rgb(36, 36, 36); fill-opacity: 1; white-space: pre;">200</text></g><g class="xtick"><text text-anchor="middle" x="0" y="435" transform="translate(802.01,0)" style="font-family: 'Open Sans', verdana, arial, sans-serif; font-size: 20px; fill: rgb(36, 36, 36); fill-opacity: 1; white-space: pre;">250</text></g></g><g class="yaxislayer-above"><path class="ytick ticks crisp" d="M87,0h-5" transform="translate(0,371.08)" style="stroke: rgb(68, 68, 68); stroke-opacity: 1; stroke-width: 1px;"/><path class="ytick ticks crisp" d="M87,0h-5" transform="translate(0,333.73)" style="stroke: rgb(68, 68, 68); stroke-opacity: 1; stroke-width: 1px;"/><path class="ytick ticks crisp" d="M87,0h-5" transform="translate(0,296.39)" style="stroke: rgb(68, 68, 68); stroke-opacity: 1; stroke-width: 1px;"/><path class="ytick ticks crisp" d="M87,0h-5" transform="translate(0,259.03999999999996)" style="stroke: rgb(68, 68, 68); stroke-opacity: 1; stroke-width: 1px;"/><path class="ytick ticks crisp" d="M87,0h-5" transform="translate(0,221.7)" style="stroke: rgb(68, 68, 68); stroke-opacity: 1; stroke-width: 1px;"/><path class="ytick ticks crisp" d="M87,0h-5" transform="translate(0,184.35)" style="stroke: rgb(68, 68, 68); stroke-opacity: 1; stroke-width: 1px;"/><path class="ytick ticks crisp" d="M87,0h-5" transform="translate(0,147.01)" style="stroke: rgb(68, 68, 68); stroke-opacity: 1; stroke-width: 1px;"/><path class="ytick ticks crisp" d="M87,0h-5" transform="translate(0,109.66)" style="stroke: rgb(68, 68, 68); stroke-opacity: 1; stroke-width: 1px;"/><g class="ytick"><text text-anchor="end" x="78" y="7" transform="translate(0,371.08)" style="font-family: 'Open Sans', verdana, arial, sans-serif; font-size: 20px; fill: rgb(36, 36, 36); fill-opacity: 1; white-space: pre;">−64</text></g><g class="ytick"><text text-anchor="end" x="78" y="7" transform="translate(0,333.73)" style="font-family: 'Open Sans', verdana, arial, sans-serif; font-size: 20px; fill: rgb(36, 36, 36); fill-opacity: 1; white-space: pre;">−62</text></g><g class="ytick"><text text-anchor="end" x="78" y="7" transform="translate(0,296.39)" style="font-family: 'Open Sans', verdana, arial, sans-serif; font-size: 20px; fill: rgb(36, 36, 36); fill-opacity: 1; white-space: pre;">−60</text></g><g class="ytick"><text text-anchor="end" x="78" y="7" transform="translate(0,259.03999999999996)" style="font-family: 'Open Sans', verdana, arial, sans-serif; font-size: 20px; fill: rgb(36, 36, 36); fill-opacity: 1; white-space: pre;">−58</text></g><g class="ytick"><text text-anchor="end" x="78" y="7" transform="translate(0,221.7)" style="font-family: 'Open Sans', verdana, arial, sans-serif; font-size: 20px; fill: rgb(36, 36, 36); fill-opacity: 1; white-space: pre;">−56</text></g><g class="ytick"><text text-anchor="end" x="78" y="7" transform="translate(0,184.35)" style="font-family: 'Open Sans', verdana, arial, sans-serif; font-size: 20px; fill: rgb(36, 36, 36); fill-opacity: 1; white-space: pre;">−54</text></g><g class="ytick"><text text-anchor="end" x="78" y="7" transform="translate(0,147.01)" style="font-family: 'Open Sans', verdana, arial, sans-serif; font-size: 20px; fill: rgb(36, 36, 36); fill-opacity: 1; white-space: pre;">−52</text></g><g class="ytick"><text text-anchor="end" x="78" y="7" transform="translate(0,109.66)" style="font-family: 'Open Sans', verdana, arial, sans-serif; font-size: 20px; fill: rgb(36, 36, 36); fill-opacity: 1; white-space: pre;">−50</text></g></g><g class="overaxes-above"/></g></g><g class="polarlayer"/><g class="ternarylayer"/><g class="geolayer"/><g class="funnelarealayer"/><g class="pielayer"/><g class="treemaplayer"/><g class="sunburstlayer"/><g class="glimages"/><defs id="topdefs-e2ce2c"><g class="clips"/><clipPath id="legende2ce2c"><rect width="510" height="90" x="1" y="1"/></clipPath></defs><g class="layer-above"><g class="imagelayer"/><g class="shapelayer"/></g><g class="infolayer"><g class="legend" pointer-events="all" transform="translate(88,496.5)"><rect class="bg" shape-rendering="crispEdges" width="511" height="91" x="0.5" y="0.5" style="stroke: rgb(5, 5, 25); stroke-opacity: 0; fill: rgb(5, 5, 25); fill-opacity: 0; stroke-width: 1px;"/><g class="scrollbox" transform="" clip-path="url('#legende2ce2c')"><g class="groups"><g class="traces" transform="translate(1,19.200000000000003)" style="opacity: 1;"><text class="legendtext" text-anchor="start" x="40" y="7.0200000000000005" style="font-family: 'Open Sans', verdana, arial, sans-serif; font-size: 18px; fill: rgb(0, 0, 0); fill-opacity: 1; white-space: pre;">Уровень сброса</text><g class="layers" style="opacity: 0.5;"><g class="legendfill"/><g class="legendlines"><path class="js-line" d="M5,0h30" style="fill: none; stroke: rgb(44, 160, 44); stroke-opacity: 1; stroke-dasharray: 9px, 9px; stroke-width: 3px;"/></g><g class="legendsymbols"><g class="legendpoints"/></g></g><rect class="legendtoggle" x="0" y="-13.200000000000001" width="182.453125" height="26.400000000000002" style="fill: rgb(0, 0, 0); fill-opacity: 0;"/></g><g class="traces" transform="translate(287.34375,19.200000000000003)" style="opacity: 1;"><text class="legendtext" text-anchor="start" x="40" y="7.0200000000000005" style="font-family: 'Open Sans', verdana, arial, sans-serif; font-size: 18px; fill: rgb(0, 0, 0); fill-opacity: 1; white-space: pre;">Порог активации</text><g class="layers" style="opacity: 0.5;"><g class="legendfill"/><g class="legendlines"><path class="js-line" d="M5,0h30" style="fill: none; stroke: rgb(214, 39, 40); stroke-opacity: 1; stroke-dasharray: 9px, 9px; stroke-width: 3px;"/></g><g class="legendsymbols"><g class="legendpoints"/></g></g><rect class="legendtoggle" x="0" y="-13.200000000000001" width="194.28125" height="26.400000000000002" style="fill: rgb(0, 0, 0); fill-opacity: 0;"/></g><g class="traces" transform="translate(1,45.6)" style="opacity: 1;"><text class="legendtext" text-anchor="start" x="40" y="7.0200000000000005" style="font-family: 'Open Sans', verdana, arial, sans-serif; font-size: 18px; fill: rgb(0, 0, 0); fill-opacity: 1; white-space: pre;">Уровень релаксации</text><g class="layers" style="opacity: 0.5;"><g class="legendfill"/><g class="legendlines"><path class="js-line" d="M5,0h30" style="fill: none; stroke: rgb(148, 103, 189); stroke-opacity: 1; stroke-dasharray: 9px, 9px; stroke-width: 3px;"/></g><g class="legendsymbols"><g class="legendpoints"/></g></g><rect class="legendtoggle" x="0" y="-13.200000000000001" width="226.078125" height="26.400000000000002" style="fill: rgb(0, 0, 0); fill-opacity: 0;"/></g><g class="traces" transform="translate(287.34375,45.6)" style="opacity: 1;"><text class="legendtext" text-anchor="start" x="40" y="7.0200000000000005" style="font-family: 'Open Sans', verdana, arial, sans-serif; font-size: 18px; fill: rgb(0, 0, 0); fill-opacity: 1; white-space: pre;">Потенциал нейрона</text><g class="layers" style="opacity: 1;"><g class="legendfill"/><g class="legendlines"><path class="js-line" d="M5,0h30" style="fill: none; stroke: rgb(31, 119, 180); stroke-opacity: 1; stroke-width: 1px;"/></g><g class="legendsymbols"><g class="legendpoints"/></g></g><rect class="legendtoggle" x="0" y="-13.200000000000001" width="220.28125" height="26.400000000000002" style="fill: rgb(0, 0, 0); fill-opacity: 0;"/></g><g class="traces" transform="translate(1,72)" style="opacity: 1;"><text class="legendtext" text-anchor="start" x="40" y="7.0200000000000005" style="font-family: 'Open Sans', verdana, arial, sans-serif; font-size: 18px; fill: rgb(0, 0, 0); fill-opacity: 1; white-space: pre;">Моменты спайков нейрона</text><g class="layers" style="opacity: 1;"><g class="legendfill"/><g class="legendlines"/><g class="legendsymbols"><g class="legendpoints"><path class="scatterpts" transform="translate(20,0)" d="M3,0A3,3 0 1,1 0,-3A3,3 0 0,1 3,0Z" style="opacity: 1; stroke-width: 0px; fill: rgb(255, 127, 14); fill-opacity: 1;"/></g></g></g><rect class="legendtoggle" x="0" y="-13.200000000000001" width="283.84375" height="26.400000000000002" style="fill: rgb(0, 0, 0); fill-opacity: 0;"/></g></g></g><rect class="scrollbar" rx="20" ry="3" width="0" height="0" x="0" y="0" style="fill: rgb(128, 139, 164); fill-opacity: 1;"/></g><g class="g-gtitle"/><g class="g-xtitle"><text class="xtitle" x="454" y="472.8" text-anchor="middle" style="font-family: 'Open Sans', verdana, arial, sans-serif; font-size: 24px; fill: rgb(36, 36, 36); opacity: 1; font-weight: normal; white-space: pre;">Время, мс</text></g><g class="g-ytitle" transform="translate(14.1123046875,0)"><text class="ytitle" transform="rotate(-90,11.887500000000003,252.5)" x="11.887500000000003" y="252.5" text-anchor="middle" style="font-family: 'Open Sans', verdana, arial, sans-serif; font-size: 24px; fill: rgb(36, 36, 36); opacity: 1; font-weight: normal; white-space: pre;">Напряжение, мВ</text></g></g></svg>