<svg class="main-svg" xmlns="http://www.w3.org/2000/svg" xmlns:xlink="http://www.w3.org/1999/xlink" width="900" height="600" style="" viewBox="0 0 900 600"><rect x="0" y="0" width="900" height="600" style="fill: rgb(255, 255, 255); fill-opacity: 1;"/><defs id="defs-6921d1"><g class="clips"><clipPath id="clip6921d1xyplot" class="plotclip"><rect width="724" height="305"/></clipPath><clipPath class="axesclip" id="clip6921d1x"><rect x="96" y="0" width="724" height="600"/></clipPath><clipPath class="axesclip" id="clip6921d1y"><rect x="0" y="100" width="900" height="305"/></clipPath><clipPath class="axesclip" id="clip6921d1xy"><rect x="96" y="100" width="724" height="305"/></clipPath></g><g class="gradients"/></defs><g class="bglayer"/><g class="layer-below"><g class="imagelayer"/><g class="shapelayer"/></g><g class="cartesianlayer"><g class="subplot xy"><g class="layer-subplot"><g class="shapelayer"/><g class="imagelayer"/></g><g class="gridlayer"><g class="x"/><g class="y"/></g><g class="zerolinelayer"><path class="xzl zl crisp" transform="translate(117.32,0)" d="M0,100v305" style="stroke: rgb(0, 44, 117); stroke-opacity: 1; stroke-width: 1px;"/></g><path class="xlines-below"/><path class="ylines-below"/><g class="overlines-below"/><g class="xaxislayer-below"/><g class="yaxislayer-below"/><g class="overaxes-below"/><g class="plot" transform="translate(96, 100)" clip-path="url('#clip6921d1xyplot')"><g class="scatterlayer mlayer"><g class="trace scatter trace3bb4f3" style="stroke-miterlimit: 2; opacity: 0.5;"><g class="fills"/><g class="errorbars"/><g class="lines"><path class="js-line" d="M21.32,289.75H686.71V289.75" style="vector-effect: non-scaling-stroke; fill: none; stroke: rgb(44, 160, 44); stroke-opacity: 1; stroke-width: 3px; opacity: 1; stroke-dasharray: 9px, 9px;"/></g><g class="points"/><g class="text"/></g><g class="trace scatter traced46180" style="stroke-miterlimit: 2; opacity: 0.5;"><g class="fills"/><g class="errorbars"/><g class="lines"><path class="js-line" d="M21.32,56.65H23.98V56.65H26.64V56.65H29.3V56.65H31.97V56.65H34.63V56.65H37.29V56.65H39.95V55.75H42.61V55.75H45.27V55.75H47.93V55.75H50.6V55.75H53.26V54.86H55.92V54.86H58.58V54.86H61.24V54.86H63.9V54.86H66.57V54.86H69.23V53.96H71.89V53.96H74.55V53.96H77.21V53.96H79.87V53.96H82.54V53.96H85.2V53.06H87.86V53.06H90.52V53.06H93.18V53.06H95.84V53.06H98.5V53.06H101.17V52.17H103.83V52.17H106.49V52.17H109.15V52.17H111.81V52.17H114.47V51.27H117.14V51.27H119.8V51.27H122.46V51.27H125.12V51.27H127.78V51.27H130.44V50.37H133.1V50.37H135.77V50.37H138.43V50.37H141.09V50.37H143.75V50.37H146.41V50.37H149.07V50.37H151.74V49.48H154.4V49.48H157.06V49.48H159.72V49.48H162.38V49.48H165.04V48.58H167.71V48.58H170.37V48.58H173.03V48.58H175.69V48.58H178.35V47.68H181.01V47.68H183.67V47.68H186.34V47.68H189V47.68H191.66V47.68H194.32V46.79H196.98V46.79H199.64V46.79H202.31V46.79H204.97V46.79H207.63V46.79H210.29V46.79H212.95V45.89H215.61V45.89H218.28V45.89H220.94V45.89H223.6V45.89H226.26V45.89H228.92V45H231.58V45H234.24V45H236.91V45H239.57V45H242.23V45H244.89V45H247.55V44.1H250.21V44.1H252.88V44.1H255.54V44.1H258.2V44.1H260.86V44.1H263.52V43.2H266.18V43.2H268.85V43.2H271.51V43.2H274.17V43.2H276.83V42.31H279.49V42.31H282.15V42.31H284.81V42.31H287.48V42.31H290.14V42.31H292.8V41.41H295.46V41.41H298.12V41.41H300.78V41.41H303.45V41.41H306.11V40.51H308.77V40.51H311.43V40.51H314.09V40.51H316.75V40.51H319.41V40.51H322.08V40.51H324.74V40.51H327.4V39.62H330.06V39.62H332.72V39.62H335.38V39.62H338.05V39.62H340.71V38.72H343.37V38.72H346.03V38.72H348.69V38.72H351.35V38.72H354.02V38.72H356.68V37.82H359.34V37.82H362V37.82H364.66V37.82H367.32V37.82H369.98V37.82H372.65V36.93H375.31V36.93H377.97V36.93H380.63V36.93H383.29V36.93H385.95V36.93H388.62V36.03H391.28V36.03H393.94V36.03H396.6V36.03H399.26V36.03H401.92V36.03H404.59V35.13H407.25V35.13H409.91V35.13H412.57V35.13H415.23V35.13H417.89V34.24H420.55V34.24H423.22V34.24H425.88V34.24H428.54V34.24H431.2V34.24H433.86V33.34H436.52V33.34H439.19V33.34H441.85V33.34H444.51V33.34H447.17V32.45H449.83V32.45H452.49V32.45H455.15V32.45H457.82V32.45H460.48V31.55H463.14V31.55H465.8V31.55H468.46V31.55H471.12V31.55H473.79V31.55H476.45V30.65H479.11V30.65H481.77V30.65H484.43V30.65H487.09V30.65H489.76V29.76H492.42V29.76H495.08V29.76H497.74V29.76H500.4V29.76H503.06V28.86H505.72V28.86H508.39V28.86H511.05V28.86H513.71V28.86H516.37V27.96H519.03V27.96H521.69V27.96H524.36V27.96H527.02V27.96H529.68V27.96H532.34V27.07H535V27.07H537.66V27.07H540.33V27.07H542.99V27.07H545.65V26.17H548.31V26.17H550.97V26.17H553.63V26.17H556.29V26.17H558.96V25.27H561.62V25.27H564.28V25.27H566.94V25.27H569.6V25.27H572.26V25.27H574.93V25.27H577.59V24.38H580.25V24.38H582.91V24.38H585.57V24.38H588.23V24.38H590.9V24.38H593.56V23.48H596.22V23.48H598.88V23.48H601.54V23.48H604.2V23.48H606.86V23.48H609.53V23.48H612.19V22.59H614.85V22.59H617.51V22.59H620.17V22.59H622.83V22.59H625.5V22.59H628.16V21.69H630.82V21.69H633.48V21.69H636.14V21.69H638.8V20.79H641.46V20.79H644.13V20.79H646.79V20.79H649.45V20.79H652.11V20.79H654.77V19.9H657.43V19.9H660.1V19.9H662.76V19.9H665.42V19.9H668.08V19H670.74V19H673.4V19H676.07V19H678.73V19H681.39V19H684.05V18.1" style="vector-effect: non-scaling-stroke; fill: none; stroke: rgb(214, 39, 40); stroke-opacity: 1; stroke-width: 3px; opacity: 1; stroke-dasharray: 9px, 9px;"/></g><g class="points"/><g class="text"/></g><g class="trace scatter traceb10c14" style="stroke-miterlimit: 2; opacity: 0.5;"><g class="fills"/><g class="errorbars"/><g class="lines"><path class="js-line" d="M21.32,200.1H686.71V200.1" style="vector-effect: non-scaling-stroke; fill: none; stroke: rgb(148, 103, 189); stroke-opacity: 1; stroke-width: 3px; opacity: 1; stroke-dasharray: 9px, 9px;"/></g><g class="points"/><g class="text"/></g><g class="trace scatter trace7c5d8f" style="stroke-miterlimit: 2; opacity: 1;"><g class="fills"/><g class="errorbars"/><g class="lines"><path class="js-line" d="M21.32,200.1H23.98V200.1H26.64V182.31H29.3V183.18H31.97V184H34.63V184.79H37.29V134.45H39.95V56.65H42.61V285.38H45.27V281.22H47.93V137.25H50.6V69.17H53.26V55.75H55.92V285.38H58.58V281.22H61.24V206.12H63.9V119.18H66.57V87.55H69.23V54.86H71.89V285.38H74.55V281.22H77.21V206.12H79.87V170.25H82.54V85.29H85.2V53.96H87.86V285.38H90.52V281.22H93.18V259.48H95.84V132.08H98.5V135.4H101.17V53.06H103.83V285.38H106.49V281.22H109.15V170.55H111.81V89.52H114.47V52.17H117.14V285.38H119.8V281.22H122.46V223.9H125.12V118.54H127.78V69.16H130.44V51.27H133.1V285.38H135.77V281.22H138.43V241.69H141.09V204.09H143.75V170.6H146.41V136.47H149.07V104H151.74V50.37H154.4V285.38H157.06V281.22H159.72V206.12H162.38V99.11H165.04V49.48H167.71V285.38H170.37V281.22H173.03V223.9H175.69V98.24H178.35V48.58H181.01V285.38H183.67V281.22H186.34V241.69H189V135.22H191.66V120.6H194.32V47.68H196.98V285.38H199.64V281.22H202.31V241.69H204.97V168.52H207.63V116.69H210.29V69.68H212.95V46.79H215.61V285.38H218.28V281.22H220.94V241.69H223.6V150.73H226.26V64.21H228.92V45.89H231.58V285.38H234.24V281.22H236.91V208.63H239.57V172.64H242.23V138.41H244.89V105.85H247.55V45H250.21V285.38H252.88V281.22H255.54V259.47H258.2V185.44H260.86V97.22H263.52V44.1H266.18V285.38H268.85V281.22H271.51V206.12H274.17V190.55H276.83V43.2H279.49V285.38H282.15V281.22H284.81V230.37H287.48V175.54H290.14V123.38H292.8V42.31H295.46V285.38H298.12V281.22H300.78V241.69H303.45V153.25H306.11V41.41H308.77V285.38H311.43V281.22H314.09V259.47H316.75V185.44H319.41V121.47H322.08V89.74H324.74V77.33H327.4V40.51H330.06V285.38H332.72V281.22H335.38V170.55H338.05V100.85H340.71V39.62H343.37V285.38H346.03V281.22H348.69V259.48H351.35V221.01H354.02V95.49H356.68V38.72H359.34V285.38H362V281.22H364.66V277.26H367.32V166.78H369.98V64.2H372.65V37.82H375.31V285.38H377.97V281.22H380.63V241.69H383.29V186.3H385.95V98.05H388.62V36.93H391.28V285.38H393.94V281.22H396.6V223.9H399.26V151.6H401.92V65.03H404.59V36.03H407.25V285.38H409.91V281.22H412.57V194.8H415.23V143.98H417.89V35.13H420.55V285.38H423.22V281.22H425.88V223.9H428.54V133.81H431.2V83.69H433.86V34.24H436.52V285.38H439.19V281.22H441.85V243.97H444.51V152.9H447.17V33.34H449.83V285.38H452.49V281.22H455.15V188.33H457.82V138.06H460.48V32.45H463.14V285.38H465.8V281.22H468.46V241.69H471.12V204.09H473.79V132.75H476.45V31.55H479.11V285.38H481.77V281.22H484.43V190.84H487.09V66.79H489.76V30.65H492.42V285.38H495.08V281.22H497.74V212.59H500.4V123.05H503.06V29.76H505.72V285.38H508.39V281.22H511.05V190.61H513.71V69.08H516.37V28.86H519.03V285.38H521.69V281.22H524.36V223.9H527.02V171.66H529.68V84.12H532.34V27.96H535V285.38H537.66V281.22H540.33V188.33H542.99V99.98H545.65V27.07H548.31V285.38H550.97V281.22H553.63V194.8H556.29V106.13H558.96V26.17H561.62V285.38H564.28V281.22H566.94V223.9H569.6V187.17H572.26V134.45H574.93V102.08H577.59V25.27H580.25V285.38H582.91V281.22H585.57V206.12H588.23V152.47H590.9V83.65H593.56V24.38H596.22V285.38H598.88V281.22H601.54V241.69H604.2V174.99H606.86V125.13H609.53V57.65H612.19V23.48H614.85V285.38H617.51V281.22H620.17V223.9H622.83V187.17H625.5V98.87H628.16V22.59H630.82V285.38H633.48V281.22H636.14V152.76H638.8V21.69H641.46V285.38H644.13V281.22H646.79V230.37H649.45V211.11H652.11V106.13H654.77V20.79H657.43V285.38H660.1V281.22H662.76V241.69H665.42V168.52H668.08V19.9H670.74V285.38H673.4V281.22H676.07V259.47H678.73V152.14H681.39V118.91H684.05V19" style="vector-effect: non-scaling-stroke; fill: none; stroke: rgb(31, 119, 180); stroke-opacity: 1; stroke-width: 1px; opacity: 1;"/></g><g class="points"/><g class="text"/></g><g class="trace scatter trace180b6f" style="stroke-miterlimit: 2; opacity: 1;"><g class="fills"/><g class="errorbars"/><g class="lines"/><g class="points"><path class="point" transform="translate(39.95,56.65)" d="M3,0A3,3 0 1,1 0,-3A3,3 0 0,1 3,0Z" style="opacity: 1; stroke-width: 0px; fill: rgb(255, 127, 14); fill-opacity: 1;"/><path class="point" transform="translate(53.26,55.75)" d="M3,0A3,3 0 1,1 0,-3A3,3 0 0,1 3,0Z" style="opacity: 1; stroke-width: 0px; fill: rgb(255, 127, 14); fill-opacity: 1;"/><path class="point" transform="translate(69.23,54.86)" d="M3,0A3,3 0 1,1 0,-3A3,3 0 0,1 3,0Z" style="opacity: 1; stroke-width: 0px; fill: rgb(255, 127, 14); fill-opacity: 1;"/><path class="point" transform="translate(85.2,53.96)" d="M3,0A3,3 0 1,1 0,-3A3,3 0 0,1 3,0Z" style="opacity: 1; stroke-width: 0px; fill: rgb(255, 127, 14); fill-opacity: 1;"/><path class="point" transform="translate(101.17,53.06)" d="M3,0A3,3 0 1,1 0,-3A3,3 0 0,1 3,0Z" style="opacity: 1; stroke-width: 0px; fill: rgb(255, 127, 14); fill-opacity: 1;"/><path class="point" transform="translate(114.47,52.17)" d="M3,0A3,3 0 1,1 0,-3A3,3 0 0,1 3,0Z" style="opacity: 1; stroke-width: 0px; fill: rgb(255, 127, 14); fill-opacity: 1;"/><path class="point" transform="translate(130.44,51.27)" d="M3,0A3,3 0 1,1 0,-3A3,3 0 0,1 3,0Z" style="opacity: 1; stroke-width: 0px; fill: rgb(255, 127, 14); fill-opacity: 1;"/><path class="point" transform="translate(151.74,50.37)" d="M3,0A3,3 0 1,1 0,-3A3,3 0 0,1 3,0Z" style="opacity: 1; stroke-width: 0px; fill: rgb(255, 127, 14); fill-opacity: 1;"/><path class="point" transform="translate(165.04,49.48)" d="M3,0A3,3 0 1,1 0,-3A3,3 0 0,1 3,0Z" style="opacity: 1; stroke-width: 0px; fill: rgb(255, 127, 14); fill-opacity: 1;"/><path class="point" transform="translate(178.35,48.58)" d="M3,0A3,3 0 1,1 0,-3A3,3 0 0,1 3,0Z" style="opacity: 1; stroke-width: 0px; fill: rgb(255, 127, 14); fill-opacity: 1;"/><path class="point" transform="translate(194.32,47.68)" d="M3,0A3,3 0 1,1 0,-3A3,3 0 0,1 3,0Z" style="opacity: 1; stroke-width: 0px; fill: rgb(255, 127, 14); fill-opacity: 1;"/><path class="point" transform="translate(212.95,46.79)" d="M3,0A3,3 0 1,1 0,-3A3,3 0 0,1 3,0Z" style="opacity: 1; stroke-width: 0px; fill: rgb(255, 127, 14); fill-opacity: 1;"/><path class="point" transform="translate(228.92,45.89)" d="M3,0A3,3 0 1,1 0,-3A3,3 0 0,1 3,0Z" style="opacity: 1; stroke-width: 0px; fill: rgb(255, 127, 14); fill-opacity: 1;"/><path class="point" transform="translate(247.55,45)" d="M3,0A3,3 0 1,1 0,-3A3,3 0 0,1 3,0Z" style="opacity: 1; stroke-width: 0px; fill: rgb(255, 127, 14); fill-opacity: 1;"/><path class="point" transform="translate(263.52,44.1)" d="M3,0A3,3 0 1,1 0,-3A3,3 0 0,1 3,0Z" style="opacity: 1; stroke-width: 0px; fill: rgb(255, 127, 14); fill-opacity: 1;"/><path class="point" transform="translate(276.83,43.2)" d="M3,0A3,3 0 1,1 0,-3A3,3 0 0,1 3,0Z" style="opacity: 1; stroke-width: 0px; fill: rgb(255, 127, 14); fill-opacity: 1;"/><path class="point" transform="translate(292.8,42.31)" d="M3,0A3,3 0 1,1 0,-3A3,3 0 0,1 3,0Z" style="opacity: 1; stroke-width: 0px; fill: rgb(255, 127, 14); fill-opacity: 1;"/><path class="point" transform="translate(306.11,41.41)" d="M3,0A3,3 0 1,1 0,-3A3,3 0 0,1 3,0Z" style="opacity: 1; stroke-width: 0px; fill: rgb(255, 127, 14); fill-opacity: 1;"/><path class="point" transform="translate(327.4,40.51)" d="M3,0A3,3 0 1,1 0,-3A3,3 0 0,1 3,0Z" style="opacity: 1; stroke-width: 0px; fill: rgb(255, 127, 14); fill-opacity: 1;"/><path class="point" transform="translate(340.71,39.62)" d="M3,0A3,3 0 1,1 0,-3A3,3 0 0,1 3,0Z" style="opacity: 1; stroke-width: 0px; fill: rgb(255, 127, 14); fill-opacity: 1;"/><path class="point" transform="translate(356.68,38.72)" d="M3,0A3,3 0 1,1 0,-3A3,3 0 0,1 3,0Z" style="opacity: 1; stroke-width: 0px; fill: rgb(255, 127, 14); fill-opacity: 1;"/><path class="point" transform="translate(372.65,37.82)" d="M3,0A3,3 0 1,1 0,-3A3,3 0 0,1 3,0Z" style="opacity: 1; stroke-width: 0px; fill: rgb(255, 127, 14); fill-opacity: 1;"/><path class="point" transform="translate(388.62,36.93)" d="M3,0A3,3 0 1,1 0,-3A3,3 0 0,1 3,0Z" style="opacity: 1; stroke-width: 0px; fill: rgb(255, 127, 14); fill-opacity: 1;"/><path class="point" transform="translate(404.59,36.03)" d="M3,0A3,3 0 1,1 0,-3A3,3 0 0,1 3,0Z" style="opacity: 1; stroke-width: 0px; fill: rgb(255, 127, 14); fill-opacity: 1;"/><path class="point" transform="translate(417.89,35.13)" d="M3,0A3,3 0 1,1 0,-3A3,3 0 0,1 3,0Z" style="opacity: 1; stroke-width: 0px; fill: rgb(255, 127, 14); fill-opacity: 1;"/><path class="point" transform="translate(433.86,34.24)" d="M3,0A3,3 0 1,1 0,-3A3,3 0 0,1 3,0Z" style="opacity: 1; stroke-width: 0px; fill: rgb(255, 127, 14); fill-opacity: 1;"/><path class="point" transform="translate(447.17,33.34)" d="M3,0A3,3 0 1,1 0,-3A3,3 0 0,1 3,0Z" style="opacity: 1; stroke-width: 0px; fill: rgb(255, 127, 14); fill-opacity: 1;"/><path class="point" transform="translate(460.48,32.45)" d="M3,0A3,3 0 1,1 0,-3A3,3 0 0,1 3,0Z" style="opacity: 1; stroke-width: 0px; fill: rgb(255, 127, 14); fill-opacity: 1;"/><path class="point" transform="translate(476.45,31.55)" d="M3,0A3,3 0 1,1 0,-3A3,3 0 0,1 3,0Z" style="opacity: 1; stroke-width: 0px; fill: rgb(255, 127, 14); fill-opacity: 1;"/><path class="point" transform="translate(489.76,30.65)" d="M3,0A3,3 0 1,1 0,-3A3,3 0 0,1 3,0Z" style="opacity: 1; stroke-width: 0px; fill: rgb(255, 127, 14); fill-opacity: 1;"/><path class="point" transform="translate(503.06,29.76)" d="M3,0A3,3 0 1,1 0,-3A3,3 0 0,1 3,0Z" style="opacity: 1; stroke-width: 0px; fill: rgb(255, 127, 14); fill-opacity: 1;"/><path class="point" transform="translate(516.37,28.86)" d="M3,0A3,3 0 1,1 0,-3A3,3 0 0,1 3,0Z" style="opacity: 1; stroke-width: 0px; fill: rgb(255, 127, 14); fill-opacity: 1;"/><path class="point" transform="translate(532.34,27.96)" d="M3,0A3,3 0 1,1 0,-3A3,3 0 0,1 3,0Z" style="opacity: 1; stroke-width: 0px; fill: rgb(255, 127, 14); fill-opacity: 1;"/><path class="point" transform="translate(545.65,27.07)" d="M3,0A3,3 0 1,1 0,-3A3,3 0 0,1 3,0Z" style="opacity: 1; stroke-width: 0px; fill: rgb(255, 127, 14); fill-opacity: 1;"/><path class="point" transform="translate(558.96,26.17)" d="M3,0A3,3 0 1,1 0,-3A3,3 0 0,1 3,0Z" style="opacity: 1; stroke-width: 0px; fill: rgb(255, 127, 14); fill-opacity: 1;"/><path class="point" transform="translate(577.59,25.27)" d="M3,0A3,3 0 1,1 0,-3A3,3 0 0,1 3,0Z" style="opacity: 1; stroke-width: 0px; fill: rgb(255, 127, 14); fill-opacity: 1;"/><path class="point" transform="translate(593.56,24.38)" d="M3,0A3,3 0 1,1 0,-3A3,3 0 0,1 3,0Z" style="opacity: 1; stroke-width: 0px; fill: rgb(255, 127, 14); fill-opacity: 1;"/><path class="point" transform="translate(612.19,23.48)" d="M3,0A3,3 0 1,1 0,-3A3,3 0 0,1 3,0Z" style="opacity: 1; stroke-width: 0px; fill: rgb(255, 127, 14); fill-opacity: 1;"/><path class="point" transform="translate(628.16,22.59)" d="M3,0A3,3 0 1,1 0,-3A3,3 0 0,1 3,0Z" style="opacity: 1; stroke-width: 0px; fill: rgb(255, 127, 14); fill-opacity: 1;"/><path class="point" transform="translate(638.8,21.69)" d="M3,0A3,3 0 1,1 0,-3A3,3 0 0,1 3,0Z" style="opacity: 1; stroke-width: 0px; fill: rgb(255, 127, 14); fill-opacity: 1;"/><path class="point" transform="translate(654.77,20.79)" d="M3,0A3,3 0 1,1 0,-3A3,3 0 0,1 3,0Z" style="opacity: 1; stroke-width: 0px; fill: rgb(255, 127, 14); fill-opacity: 1;"/><path class="point" transform="translate(668.08,19.9)" d="M3,0A3,3 0 1,1 0,-3A3,3 0 0,1 3,0Z" style="opacity: 1; stroke-width: 0px; fill: rgb(255, 127, 14); fill-opacity: 1;"/><path class="point" transform="translate(684.05,19)" d="M3,0A3,3 0 1,1 0,-3A3,3 0 0,1 3,0Z" style="opacity: 1; stroke-width: 0px; fill: rgb(255, 127, 14); fill-opacity: 1;"/></g><g class="text"/></g></g></g><g class="overplot"/><path class="xlines-above crisp" d="M95,405.5H820" style="fill: none; stroke-width: 1px; stroke: rgb(36, 36, 36); stroke-opacity: 1;"/><path class="ylines-above crisp" d="M95.5,100V405" style="fill: none; stroke-width: 1px; stroke: rgb(36, 36, 36); stroke-opacity: 1;"/><g class="overlines-above"/><g class="xaxislayer-above"><path class="xtick ticks crisp" d="M0,406v5" transform="translate(117.32,0)" style="stroke: rgb(68, 68, 68); stroke-opacity: 1; stroke-width: 1px;"/><path class="xtick ticks crisp" d="M0,406v5" transform="translate(250.4,0)" style="stroke: rgb(68, 68, 68); stroke-opacity: 1; stroke-width: 1px;"/><path class="xtick ticks crisp" d="M0,406v5" transform="translate(383.48,0)" style="stroke: rgb(68, 68, 68); stroke-opacity: 1; stroke-width: 1px;"/><path class="xtick ticks crisp" d="M0,406v5" transform="translate(516.55,0)" style="stroke: rgb(68, 68, 68); stroke-opacity: 1; stroke-width: 1px;"/><path class="xtick ticks crisp" d="M0,406v5" transform="translate(649.63,0)" style="stroke: rgb(68, 68, 68); stroke-opacity: 1; stroke-width: 1px;"/><path class="xtick ticks crisp" d="M0,406v5" transform="translate(782.71,0)" style="stroke: rgb(68, 68, 68); stroke-opacity: 1; stroke-width: 1px;"/><g class="xtick"><text text-anchor="middle" x="0" y="435" transform="translate(117.32,0)" style="font-family: 'Open Sans', verdana, arial, sans-serif; font-size: 20px; fill: rgb(36, 36, 36); fill-opacity: 1; white-space: pre;">0</text></g><g class="xtick"><text text-anchor="middle" x="0" y="435" transform="translate(250.4,0)" style="font-family: 'Open Sans', verdana, arial, sans-serif; font-size: 20px; fill: rgb(36, 36, 36); fill-opacity: 1; white-space: pre;">50</text></g><g class="xtick"><text text-anchor="middle" x="0" y="435" transform="translate(383.48,0)" style="font-family: 'Open Sans', verdana, arial, sans-serif; font-size: 20px; fill: rgb(36, 36, 36); fill-opacity: 1; white-space: pre;">100</text></g><g class="xtick"><text text-anchor="middle" x="0" y="435" transform="translate(516.55,0)" style="font-family: 'Open Sans', verdana, arial, sans-serif; font-size: 20px; fill: rgb(36, 36, 36); fill-opacity: 1; white-space: pre;">150</text></g><g class="xtick"><text text-anchor="middle" x="0" y="435" transform="translate(649.63,0)" style="font-family: 'Open Sans', verdana, arial, sans-serif; font-size: 20px; fill: rgb(36, 36, 36); fill-opacity: 1; white-space: pre;">200</text></g><g class="xtick"><text text-anchor="middle" x="0" y="435" transform="translate(782.71,0)" style="font-family: 'Open Sans', verdana, arial, sans-serif; font-size: 20px; fill: rgb(36, 36, 36); fill-opacity: 1; white-space: pre;">250</text></g></g><g class="yaxislayer-above"><path class="ytick ticks crisp" d="M95,0h-5" transform="translate(0,371.82)" style="stroke: rgb(68, 68, 68); stroke-opacity: 1; stroke-width: 1px;"/><path class="ytick ticks crisp" d="M95,0h-5" transform="translate(0,335.96000000000004)" style="stroke: rgb(68, 68, 68); stroke-opacity: 1; stroke-width: 1px;"/><path class="ytick ticks crisp" d="M95,0h-5" transform="translate(0,300.1)" style="stroke: rgb(68, 68, 68); stroke-opacity: 1; stroke-width: 1px;"/><path class="ytick ticks crisp" d="M95,0h-5" transform="translate(0,264.23)" style="stroke: rgb(68, 68, 68); stroke-opacity: 1; stroke-width: 1px;"/><path class="ytick ticks crisp" d="M95,0h-5" transform="translate(0,228.37)" style="stroke: rgb(68, 68, 68); stroke-opacity: 1; stroke-width: 1px;"/><path class="ytick ticks crisp" d="M95,0h-5" transform="translate(0,192.51)" style="stroke: rgb(68, 68, 68); stroke-opacity: 1; stroke-width: 1px;"/><path class="ytick ticks crisp" d="M95,0h-5" transform="translate(0,156.65)" style="stroke: rgb(68, 68, 68); stroke-opacity: 1; stroke-width: 1px;"/><path class="ytick ticks crisp" d="M95,0h-5" transform="translate(0,120.78999999999999)" style="stroke: rgb(68, 68, 68); stroke-opacity: 1; stroke-width: 1px;"/><g class="ytick"><text text-anchor="end" x="86" y="7" transform="translate(0,371.82)" style="font-family: 'Open Sans', verdana, arial, sans-serif; font-size: 20px; fill: rgb(36, 36, 36); fill-opacity: 1; white-space: pre;">−64</text></g><g class="ytick"><text text-anchor="end" x="86" y="7" transform="translate(0,335.96000000000004)" style="font-family: 'Open Sans', verdana, arial, sans-serif; font-size: 20px; fill: rgb(36, 36, 36); fill-opacity: 1; white-space: pre;">−62</text></g><g class="ytick"><text text-anchor="end" x="86" y="7" transform="translate(0,300.1)" style="font-family: 'Open Sans', verdana, arial, sans-serif; font-size: 20px; fill: rgb(36, 36, 36); fill-opacity: 1; white-space: pre;">−60</text></g><g class="ytick"><text text-anchor="end" x="86" y="7" transform="translate(0,264.23)" style="font-family: 'Open Sans', verdana, arial, sans-serif; font-size: 20px; fill: rgb(36, 36, 36); fill-opacity: 1; white-space: pre;">−58</text></g><g class="ytick"><text text-anchor="end" x="86" y="7" transform="translate(0,228.37)" style="font-family: 'Open Sans', verdana, arial, sans-serif; font-size: 20px; fill: rgb(36, 36, 36); fill-opacity: 1; white-space: pre;">−56</text></g><g class="ytick"><text text-anchor="end" x="86" y="7" transform="translate(0,192.51)" style="font-family: 'Open Sans', verdana, arial, sans-serif; font-size: 20px; fill: rgb(36, 36, 36); fill-opacity: 1; white-space: pre;">−54</text></g><g class="ytick"><text text-anchor="end" x="86" y="7" transform="translate(0,156.65)" style="font-family: 'Open Sans', verdana, arial, sans-serif; font-size: 20px; fill: rgb(36, 36, 36); fill-opacity: 1; white-space: pre;">−52</text></g><g class="ytick"><text text-anchor="end" x="86" y="7" transform="translate(0,120.78999999999999)" style="font-family: 'Open Sans', verdana, arial, sans-serif; font-size: 20px; fill: rgb(36, 36, 36); fill-opacity: 1; white-space: pre;">−50</text></g></g><g class="overaxes-above"/></g></g><g class="polarlayer"/><g class="ternarylayer"/><g class="geolayer"/><g class="funnelarealayer"/><g class="pielayer"/><g class="treemaplayer"/><g class="sunburstlayer"/><g class="glimages"/><defs id="topdefs-6921d1"><g class="clips"/><clipPath id="legend6921d1"><rect width="526" height="90" x="1" y="1"/></clipPath></defs><g class="layer-above"><g class="imagelayer"/><g class="shapelayer"/></g><g class="infolayer"><g class="legend" pointer-events="all" transform="translate(96, 496.5)"><rect class="bg" shape-rendering="crispEdges" width="527" height="91" x="0.5" y="0.5" style="stroke: rgb(0, 0, 0); stroke-opacity: 1; fill: rgb(5, 5, 25); fill-opacity: 0.1; stroke-width: 1px;"/><g class="scrollbox" transform="translate(0, 0)" clip-path="url('#legend6921d1')"><g class="groups"><g class="traces" transform="translate(1, 19.200000000000003)" style="opacity: 1;"><text class="legendtext user-select-none" text-anchor="start" x="40" y="7.0200000000000005" style="font-family: 'Open Sans', verdana, arial, sans-serif; font-size: 18px; fill: rgb(0, 0, 0); fill-opacity: 1; white-space: pre;">Уровень сброса</text><g class="layers" style="opacity: 0.5;"><g class="legendfill"/><g class="legendlines"><path class="js-line" d="M5,0h30" style="fill: none; stroke: rgb(44, 160, 44); stroke-opacity: 1; stroke-dasharray: 9px, 9px; stroke-width: 3px;"/></g><g class="legendsymbols"><g class="legendpoints"/></g></g><rect class="legendtoggle" pointer-events="all" x="0" y="-13.200000000000001" width="189.453125" height="26.400000000000002" style="cursor: pointer; fill: rgb(0, 0, 0); fill-opacity: 0;"/></g><g class="traces" transform="translate(296.546875, 19.200000000000003)" style="opacity: 1;"><text class="legendtext user-select-none" text-anchor="start" x="40" y="7.0200000000000005" style="font-family: 'Open Sans', verdana, arial, sans-serif; font-size: 18px; fill: rgb(0, 0, 0); fill-opacity: 1; white-space: pre;">Порог активации</text><g class="layers" style="opacity: 0.5;"><g class="legendfill"/><g class="legendlines"><path class="js-line" d="M5,0h30" style="fill: none; stroke: rgb(214, 39, 40); stroke-opacity: 1; stroke-dasharray: 9px, 9px; stroke-width: 3px;"/></g><g class="legendsymbols"><g class="legendpoints"/></g></g><rect class="legendtoggle" pointer-events="all" x="0" y="-13.200000000000001" width="201.984375" height="26.400000000000002" style="cursor: pointer; fill: rgb(0, 0, 0); fill-opacity: 0;"/></g><g class="traces" transform="translate(1, 45.6)" style="opacity: 1;"><text class="legendtext user-select-none" text-anchor="start" x="40" y="7.0200000000000005" style="font-family: 'Open Sans', verdana, arial, sans-serif; font-size: 18px; fill: rgb(0, 0, 0); fill-opacity: 1; white-space: pre;">Уровень релаксации</text><g class="layers" style="opacity: 0.5;"><g class="legendfill"/><g class="legendlines"><path class="js-line" d="M5,0h30" style="fill: none; stroke: rgb(148, 103, 189); stroke-opacity: 1; stroke-dasharray: 9px, 9px; stroke-width: 3px;"/></g><g class="legendsymbols"><g class="legendpoints"/></g></g><rect class="legendtoggle" pointer-events="all" x="0" y="-13.200000000000001" width="235.859375" height="26.400000000000002" style="cursor: pointer; fill: rgb(0, 0, 0); fill-opacity: 0;"/></g><g class="traces" transform="translate(296.546875, 45.6)" style="opacity: 1;"><text class="legendtext user-select-none" text-anchor="start" x="40" y="7.0200000000000005" style="font-family: 'Open Sans', verdana, arial, sans-serif; font-size: 18px; fill: rgb(0, 0, 0); fill-opacity: 1; white-space: pre;">Потенциал нейрона</text><g class="layers" style="opacity: 1;"><g class="legendfill"/><g class="legendlines"><path class="js-line" d="M5,0h30" style="fill: none; stroke: rgb(31, 119, 180); stroke-opacity: 1; stroke-width: 1px;"/></g><g class="legendsymbols"><g class="legendpoints"/></g></g><rect class="legendtoggle" pointer-events="all" x="0" y="-13.200000000000001" width="227.65625" height="26.400000000000002" style="cursor: pointer; fill: rgb(0, 0, 0); fill-opacity: 0;"/></g><g class="traces" transform="translate(1, 72)" style="opacity: 1;"><text class="legendtext user-select-none" text-anchor="start" x="40" y="7.0200000000000005" style="font-family: 'Open Sans', verdana, arial, sans-serif; font-size: 18px; fill: rgb(0, 0, 0); fill-opacity: 1; white-space: pre;">Моменты спайков нейрона</text><g class="layers" style="opacity: 1;"><g class="legendfill"/><g class="legendlines"/><g class="legendsymbols"><g class="legendpoints"><path class="scatterpts" transform="translate(20,0)" d="M3,0A3,3 0 1,1 0,-3A3,3 0 0,1 3,0Z" style="opacity: 1; stroke-width: 0px; fill: rgb(255, 127, 14); fill-opacity: 1;"/></g></g></g><rect class="legendtoggle" pointer-events="all" x="0" y="-13.200000000000001" width="293.046875" height="26.400000000000002" style="cursor: pointer; fill: rgb(0, 0, 0); fill-opacity: 0;"/></g></g></g><rect class="scrollbar" rx="20" ry="3" width="0" height="0" x="0" y="0" style="fill: rgb(128, 139, 164); fill-opacity: 1;"/></g><g class="g-gtitle"/><g class="g-xtitle"><text class="xtitle" x="458" y="470.8" text-anchor="middle" style="font-family: 'Open Sans', verdana, arial, sans-serif; font-size: 24px; fill: rgb(36, 36, 36); opacity: 1; font-weight: normal; white-space: pre;">Время, мс</text></g><g class="g-ytitle" transform="translate(11.5966796875,0)"><text class="ytitle" transform="rotate(-90,12.403125000000003,252.5)" x="12.403125000000003" y="252.5" text-anchor="middle" style="font-family: 'Open Sans', verdana, arial, sans-serif; font-size: 24px; fill: rgb(36, 36, 36); opacity: 1; font-weight: normal; white-space: pre;">Напряжение, мВ</text></g></g></svg>