<svg class="main-svg" xmlns="http://www.w3.org/2000/svg" xmlns:xlink="http://www.w3.org/1999/xlink" width="900" height="600" style="" viewBox="0 0 900 600"><rect x="0" y="0" width="900" height="600" style="fill: rgb(255, 255, 255); fill-opacity: 1;"/><defs id="defs-f3d1af"><g class="clips"><clipPath id="clipf3d1afxyplot" class="plotclip"><rect width="731" height="305"/></clipPath><clipPath class="axesclip" id="clipf3d1afx"><rect x="89" y="0" width="731" height="600"/></clipPath><clipPath class="axesclip" id="clipf3d1afy"><rect x="0" y="100" width="900" height="305"/></clipPath><clipPath class="axesclip" id="clipf3d1afxy"><rect x="89" y="100" width="731" height="305"/></clipPath></g><g class="gradients"/></defs><g class="bglayer"/><g class="layer-below"><g class="imagelayer"/><g class="shapelayer"/></g><g class="cartesianlayer"><g class="subplot xy"><g class="layer-subplot"><g class="shapelayer"/><g class="imagelayer"/></g><g class="gridlayer"><g class="x"/><g class="y"/></g><g class="zerolinelayer"><path class="xzl zl crisp" transform="translate(112.83,0)" d="M0,100v305" style="stroke: rgb(0, 44, 117); stroke-opacity: 1; stroke-width: 1px;"/></g><path class="xlines-below"/><path class="ylines-below"/><g class="overlines-below"/><g class="xaxislayer-below"/><g class="yaxislayer-below"/><g class="overaxes-below"/><g class="plot" transform="translate(89, 100)" clip-path="url('#clipf3d1afxyplot')"><g class="scatterlayer mlayer"><g class="trace scatter trace26390e" style="stroke-miterlimit: 2; opacity: 0.5;"><g class="fills"/><g class="errorbars"/><g class="lines"><path class="js-line" d="M23.83,289.75H709.91V289.75" style="vector-effect: non-scaling-stroke; fill: none; stroke: rgb(44, 160, 44); stroke-opacity: 1; stroke-width: 3px; opacity: 1; stroke-dasharray: 9px, 9px;"/></g><g class="points"/><g class="text"/></g><g class="trace scatter tracecb68c8" style="stroke-miterlimit: 2; opacity: 0.5;"><g class="fills"/><g class="errorbars"/><g class="lines"><path class="js-line" d="M23.83,51.93H26.58V51.93H29.32V51.93H32.07V51.93H34.81V51.93H37.56V51.93H40.3V51.01H43.04V51.01H45.79V51.01H48.53V51.01H51.28V51.01H54.02V51.01H56.77V50.1H59.51V50.1H62.25V50.1H65V50.1H67.74V50.1H70.49V50.1H73.23V49.18H75.98V49.18H78.72V49.18H81.46V49.18H84.21V49.18H86.95V49.18H89.7V49.18H92.44V48.27H95.19V48.27H97.93V48.27H100.67V48.27H103.42V48.27H106.16V48.27H108.91V48.27H111.65V47.35H114.4V47.35H117.14V47.35H119.88V47.35H122.63V47.35H125.37V46.44H128.12V46.44H130.86V46.44H133.61V46.44H136.35V46.44H139.09V46.44H141.84V46.44H144.58V46.44H147.33V45.52H150.07V45.52H152.82V45.52H155.56V45.52H158.31V45.52H161.05V44.61H163.79V44.61H166.54V44.61H169.28V44.61H172.03V44.61H174.77V44.61H177.52V44.61H180.26V44.61H183V43.69H185.75V43.69H188.49V43.69H191.24V43.69H193.98V43.69H196.73V43.69H199.47V43.69H202.21V42.78H204.96V42.78H207.7V42.78H210.45V42.78H213.19V42.78H215.94V42.78H218.68V42.78H221.42V42.78H224.17V41.86H226.91V41.86H229.66V41.86H232.4V41.86H235.15V41.86H237.89V41.86H240.63V40.95H243.38V40.95H246.12V40.95H248.87V40.95H251.61V40.95H254.36V40.95H257.1V40.95H259.84V40.95H262.59V40.03H265.33V40.03H268.08V40.03H270.82V40.03H273.57V40.03H276.31V40.03H279.05V39.12H281.8V39.12H284.54V39.12H287.29V39.12H290.03V39.12H292.78V39.12H295.52V39.12H298.26V38.21H301.01V38.21H303.75V38.21H306.5V38.21H309.24V38.21H311.99V38.21H314.73V38.21H317.47V37.29H320.22V37.29H322.96V37.29H325.71V37.29H328.45V37.29H331.2V36.38H333.94V36.38H336.68V36.38H339.43V36.38H342.17V36.38H344.92V36.38H347.66V35.46H350.41V35.46H353.15V35.46H355.89V35.46H358.64V35.46H361.38V35.46H364.13V35.46H366.87V35.46H369.62V34.55H372.36V34.55H375.11V34.55H377.85V34.55H380.59V34.55H383.34V34.55H386.08V33.63H388.83V33.63H391.57V33.63H394.32V33.63H397.06V33.63H399.8V33.63H402.55V32.72H405.29V32.72H408.04V32.72H410.78V32.72H413.53V32.72H416.27V31.8H419.01V31.8H421.76V31.8H424.5V31.8H427.25V31.8H429.99V31.8H432.74V31.8H435.48V31.8H438.22V30.89H440.97V30.89H443.71V30.89H446.46V30.89H449.2V30.89H451.95V30.89H454.69V29.97H457.43V29.97H460.18V29.97H462.92V29.97H465.67V29.97H468.41V29.97H471.16V29.06H473.9V29.06H476.64V29.06H479.39V29.06H482.13V29.06H484.88V29.06H487.62V28.15H490.37V28.15H493.11V28.15H495.85V28.15H498.6V28.15H501.34V28.15H504.09V27.23H506.83V27.23H509.58V27.23H512.32V27.23H515.06V27.23H517.81V27.23H520.55V27.23H523.3V26.32H526.04V26.32H528.79V26.32H531.53V26.32H534.27V26.32H537.02V26.32H539.76V26.32H542.51V25.4H545.25V25.4H548V25.4H550.74V25.4H553.48V25.4H556.23V24.49H558.97V24.49H561.72V24.49H564.46V24.49H567.21V24.49H569.95V24.49H572.69V24.49H575.44V23.57H578.18V23.57H580.93V23.57H583.67V23.57H586.42V23.57H589.16V23.57H591.91V22.66H594.65V22.66H597.39V22.66H600.14V22.66H602.88V22.66H605.63V22.66H608.37V22.66H611.12V22.66H613.86V22.66H616.6V21.74H619.35V21.74H622.09V21.74H624.84V21.74H627.58V21.74H630.33V21.74H633.07V21.74H635.81V21.74H638.56V20.83H641.3V20.83H644.05V20.83H646.79V20.83H649.54V20.83H652.28V20.83H655.02V20.83H657.77V19.91H660.51V19.91H663.26V19.91H666V19.91H668.75V19.91H671.49V19.91H674.23V19H676.98V19H679.72V19H682.47V19H685.21V19H687.96V19H690.7V18.09H693.44V18.09H696.19V18.09H698.93V18.09H701.68V18.09H704.42V18.09H707.17V18.09" style="vector-effect: non-scaling-stroke; fill: none; stroke: rgb(214, 39, 40); stroke-opacity: 1; stroke-width: 3px; opacity: 1; stroke-dasharray: 9px, 9px;"/></g><g class="points"/><g class="text"/></g><g class="trace scatter trace5122ff" style="stroke-miterlimit: 2; opacity: 0.5;"><g class="fills"/><g class="errorbars"/><g class="lines"><path class="js-line" d="M23.83,198.28H709.91V198.28" style="vector-effect: non-scaling-stroke; fill: none; stroke: rgb(148, 103, 189); stroke-opacity: 1; stroke-width: 3px; opacity: 1; stroke-dasharray: 9px, 9px;"/></g><g class="points"/><g class="text"/></g><g class="trace scatter tracec2b477" style="stroke-miterlimit: 2; opacity: 1;"><g class="fills"/><g class="errorbars"/><g class="lines"><path class="js-line" d="M23.83,198.28H26.58V198.28H29.32V198.28H32.07V143.84H34.81V128.34H37.56V95.46H40.3V51.93H43.04V285.29H45.79V281.05H48.53V222.57H51.28V130.65H54.02V97.66H56.77V51.01H59.51V285.29H62.25V281.05H65V240.72H67.74V202.35H70.49V93.27H73.23V50.1H75.98V285.29H78.72V281.05H81.46V258.86H84.21V201.47H86.95V110.58H89.7V78.56H92.44V49.18H95.19V285.29H97.93V281.05H100.67V222.57H103.42V185.09H106.16V149.44H108.91V97.38H111.65V48.27H114.4V285.29H117.14V281.05H119.88V168.13H122.63V133.31H125.37V47.35H128.12V285.29H130.86V281.05H133.61V222.57H136.35V185.09H139.09V149.44H141.84V115.53H144.58V65.12H147.33V46.44H150.07V285.29H152.82V281.05H155.56V186.28H158.31V168.72H161.05V45.52H163.79V285.29H166.54V281.05H169.28V204.42H172.03V113.39H174.77V117.53H177.52V121.47H180.26V52.63H183V44.61H185.75V285.29H188.49V281.05H191.24V222.57H193.98V148.8H196.73V114.92H199.47V100.84H202.21V43.69H204.96V285.29H207.7V281.05H210.45V222.57H213.19V185.09H215.94V113.15H218.68V81.01H221.42V68.58H224.17V42.78H226.91V285.29H229.66V281.05H232.4V240.72H235.15V147.91H237.89V114.08H240.63V41.86H243.38V285.29H246.12V281.05H248.87V204.42H251.61V185.97H254.36V168.43H257.1V97.3H259.84V65.93H262.59V40.95H265.33V285.29H268.08V281.05H270.82V204.42H273.57V204.12H276.31V94.96H279.05V40.03H281.8V285.29H284.54V281.05H287.29V240.72H290.03V166.06H292.78V95.04H295.52V81.93H298.26V39.12H301.01V285.29H303.75V281.05H306.5V240.71H309.24V220.5H311.99V164.98H314.73V148.45H317.47V38.21H320.22V285.29H322.96V281.05H325.71V186.28H328.45V114.28H331.2V37.29H333.94V285.29H336.68V281.05H339.43V168.12H342.17V151.45H344.92V99.3H347.66V36.38H350.41V285.29H353.15V281.05H355.89V277.01H358.64V236.88H361.38V216.85H364.13V107.06H366.87V57.07H369.62V35.46H372.36V285.29H375.11V281.05H377.85V186.28H380.59V150.57H383.34V98.45H386.08V34.55H388.83V285.29H391.57V281.05H394.32V240.71H397.06V129.77H399.8V78.67H402.55V33.63H405.29V285.29H408.04V281.05H410.78V240.72H413.53V111.62H416.27V32.72H419.01V285.29H421.76V281.05H424.5V222.57H427.25V203.24H429.99V166.7H432.74V131.95H435.48V98.89H438.22V31.8H440.97V285.29H443.71V281.05H446.46V240.71H449.2V166.06H451.95V95.04H454.69V30.89H457.43V285.29H460.18V281.05H462.92V222.57H465.67V130.65H468.41V97.66H471.16V29.97H473.9V285.29H476.64V281.05H479.39V222.57H482.13V166.94H484.88V132.18H487.62V29.06H490.37V285.29H493.11V281.05H495.85V222.57H498.6V148.8H501.34V133.06H504.09V28.15H506.83V285.29H509.58V281.05H512.32V204.42H515.06V131.54H517.81V134.8H520.55V83.45H523.3V27.23H526.04V285.29H528.79V281.05H531.53V204.42H534.27V185.98H537.02V113.99H539.76V81.81H542.51V26.32H545.25V285.29H548V281.05H550.74V149.98H553.48V79.75H556.23V25.4H558.97V285.29H561.72V281.05H564.46V204.42H567.21V204.12H569.95V167.55H572.69V114.61H575.44V24.49H578.18V285.29H580.93V281.05H583.67V222.57H586.42V166.94H589.16V114.03H591.91V23.57H594.65V285.29H597.39V281.05H600.14V222.57H602.88V166.94H605.63V132.18H608.37V80.96H611.12V68.54H613.86V56.72H616.6V22.66H619.35V285.29H622.09V281.05H624.84V258.86H627.58V237.76H630.33V217.69H633.07V162.31H635.81V91.47H638.56V21.74H641.3V285.29H644.05V281.05H646.79V222.57H649.54V166.95H652.28V114.04H655.02V100H657.77V20.83H660.51V285.29H663.26V281.05H666V277.01H668.75V146.14H671.49V76.1H674.23V19.91H676.98V285.29H679.72V281.05H682.47V240.72H685.21V166.06H687.96V113.19H690.7V19H693.44V285.29H696.19V281.05H698.93V222.57H701.68V148.8H704.42V60.48H707.17V67.2" style="vector-effect: non-scaling-stroke; fill: none; stroke: rgb(31, 119, 180); stroke-opacity: 1; stroke-width: 1px; opacity: 1;"/></g><g class="points"/><g class="text"/></g><g class="trace scatter trace0d09ca" style="stroke-miterlimit: 2; opacity: 1;"><g class="fills"/><g class="errorbars"/><g class="lines"/><g class="points"><path class="point" transform="translate(40.3,51.93)" d="M3,0A3,3 0 1,1 0,-3A3,3 0 0,1 3,0Z" style="opacity: 1; stroke-width: 0px; fill: rgb(255, 127, 14); fill-opacity: 1;"/><path class="point" transform="translate(56.77,51.01)" d="M3,0A3,3 0 1,1 0,-3A3,3 0 0,1 3,0Z" style="opacity: 1; stroke-width: 0px; fill: rgb(255, 127, 14); fill-opacity: 1;"/><path class="point" transform="translate(73.23,50.1)" d="M3,0A3,3 0 1,1 0,-3A3,3 0 0,1 3,0Z" style="opacity: 1; stroke-width: 0px; fill: rgb(255, 127, 14); fill-opacity: 1;"/><path class="point" transform="translate(92.44,49.18)" d="M3,0A3,3 0 1,1 0,-3A3,3 0 0,1 3,0Z" style="opacity: 1; stroke-width: 0px; fill: rgb(255, 127, 14); fill-opacity: 1;"/><path class="point" transform="translate(111.65,48.27)" d="M3,0A3,3 0 1,1 0,-3A3,3 0 0,1 3,0Z" style="opacity: 1; stroke-width: 0px; fill: rgb(255, 127, 14); fill-opacity: 1;"/><path class="point" transform="translate(125.37,47.35)" d="M3,0A3,3 0 1,1 0,-3A3,3 0 0,1 3,0Z" style="opacity: 1; stroke-width: 0px; fill: rgb(255, 127, 14); fill-opacity: 1;"/><path class="point" transform="translate(147.33,46.44)" d="M3,0A3,3 0 1,1 0,-3A3,3 0 0,1 3,0Z" style="opacity: 1; stroke-width: 0px; fill: rgb(255, 127, 14); fill-opacity: 1;"/><path class="point" transform="translate(161.05,45.52)" d="M3,0A3,3 0 1,1 0,-3A3,3 0 0,1 3,0Z" style="opacity: 1; stroke-width: 0px; fill: rgb(255, 127, 14); fill-opacity: 1;"/><path class="point" transform="translate(183,44.61)" d="M3,0A3,3 0 1,1 0,-3A3,3 0 0,1 3,0Z" style="opacity: 1; stroke-width: 0px; fill: rgb(255, 127, 14); fill-opacity: 1;"/><path class="point" transform="translate(202.21,43.69)" d="M3,0A3,3 0 1,1 0,-3A3,3 0 0,1 3,0Z" style="opacity: 1; stroke-width: 0px; fill: rgb(255, 127, 14); fill-opacity: 1;"/><path class="point" transform="translate(224.17,42.78)" d="M3,0A3,3 0 1,1 0,-3A3,3 0 0,1 3,0Z" style="opacity: 1; stroke-width: 0px; fill: rgb(255, 127, 14); fill-opacity: 1;"/><path class="point" transform="translate(240.63,41.86)" d="M3,0A3,3 0 1,1 0,-3A3,3 0 0,1 3,0Z" style="opacity: 1; stroke-width: 0px; fill: rgb(255, 127, 14); fill-opacity: 1;"/><path class="point" transform="translate(262.59,40.95)" d="M3,0A3,3 0 1,1 0,-3A3,3 0 0,1 3,0Z" style="opacity: 1; stroke-width: 0px; fill: rgb(255, 127, 14); fill-opacity: 1;"/><path class="point" transform="translate(279.05,40.03)" d="M3,0A3,3 0 1,1 0,-3A3,3 0 0,1 3,0Z" style="opacity: 1; stroke-width: 0px; fill: rgb(255, 127, 14); fill-opacity: 1;"/><path class="point" transform="translate(298.26,39.12)" d="M3,0A3,3 0 1,1 0,-3A3,3 0 0,1 3,0Z" style="opacity: 1; stroke-width: 0px; fill: rgb(255, 127, 14); fill-opacity: 1;"/><path class="point" transform="translate(317.47,38.21)" d="M3,0A3,3 0 1,1 0,-3A3,3 0 0,1 3,0Z" style="opacity: 1; stroke-width: 0px; fill: rgb(255, 127, 14); fill-opacity: 1;"/><path class="point" transform="translate(331.2,37.29)" d="M3,0A3,3 0 1,1 0,-3A3,3 0 0,1 3,0Z" style="opacity: 1; stroke-width: 0px; fill: rgb(255, 127, 14); fill-opacity: 1;"/><path class="point" transform="translate(347.66,36.38)" d="M3,0A3,3 0 1,1 0,-3A3,3 0 0,1 3,0Z" style="opacity: 1; stroke-width: 0px; fill: rgb(255, 127, 14); fill-opacity: 1;"/><path class="point" transform="translate(369.62,35.46)" d="M3,0A3,3 0 1,1 0,-3A3,3 0 0,1 3,0Z" style="opacity: 1; stroke-width: 0px; fill: rgb(255, 127, 14); fill-opacity: 1;"/><path class="point" transform="translate(386.08,34.55)" d="M3,0A3,3 0 1,1 0,-3A3,3 0 0,1 3,0Z" style="opacity: 1; stroke-width: 0px; fill: rgb(255, 127, 14); fill-opacity: 1;"/><path class="point" transform="translate(402.55,33.63)" d="M3,0A3,3 0 1,1 0,-3A3,3 0 0,1 3,0Z" style="opacity: 1; stroke-width: 0px; fill: rgb(255, 127, 14); fill-opacity: 1;"/><path class="point" transform="translate(416.27,32.72)" d="M3,0A3,3 0 1,1 0,-3A3,3 0 0,1 3,0Z" style="opacity: 1; stroke-width: 0px; fill: rgb(255, 127, 14); fill-opacity: 1;"/><path class="point" transform="translate(438.22,31.8)" d="M3,0A3,3 0 1,1 0,-3A3,3 0 0,1 3,0Z" style="opacity: 1; stroke-width: 0px; fill: rgb(255, 127, 14); fill-opacity: 1;"/><path class="point" transform="translate(454.69,30.89)" d="M3,0A3,3 0 1,1 0,-3A3,3 0 0,1 3,0Z" style="opacity: 1; stroke-width: 0px; fill: rgb(255, 127, 14); fill-opacity: 1;"/><path class="point" transform="translate(471.16,29.97)" d="M3,0A3,3 0 1,1 0,-3A3,3 0 0,1 3,0Z" style="opacity: 1; stroke-width: 0px; fill: rgb(255, 127, 14); fill-opacity: 1;"/><path class="point" transform="translate(487.62,29.06)" d="M3,0A3,3 0 1,1 0,-3A3,3 0 0,1 3,0Z" style="opacity: 1; stroke-width: 0px; fill: rgb(255, 127, 14); fill-opacity: 1;"/><path class="point" transform="translate(504.09,28.15)" d="M3,0A3,3 0 1,1 0,-3A3,3 0 0,1 3,0Z" style="opacity: 1; stroke-width: 0px; fill: rgb(255, 127, 14); fill-opacity: 1;"/><path class="point" transform="translate(523.3,27.23)" d="M3,0A3,3 0 1,1 0,-3A3,3 0 0,1 3,0Z" style="opacity: 1; stroke-width: 0px; fill: rgb(255, 127, 14); fill-opacity: 1;"/><path class="point" transform="translate(542.51,26.32)" d="M3,0A3,3 0 1,1 0,-3A3,3 0 0,1 3,0Z" style="opacity: 1; stroke-width: 0px; fill: rgb(255, 127, 14); fill-opacity: 1;"/><path class="point" transform="translate(556.23,25.4)" d="M3,0A3,3 0 1,1 0,-3A3,3 0 0,1 3,0Z" style="opacity: 1; stroke-width: 0px; fill: rgb(255, 127, 14); fill-opacity: 1;"/><path class="point" transform="translate(575.44,24.49)" d="M3,0A3,3 0 1,1 0,-3A3,3 0 0,1 3,0Z" style="opacity: 1; stroke-width: 0px; fill: rgb(255, 127, 14); fill-opacity: 1;"/><path class="point" transform="translate(591.91,23.57)" d="M3,0A3,3 0 1,1 0,-3A3,3 0 0,1 3,0Z" style="opacity: 1; stroke-width: 0px; fill: rgb(255, 127, 14); fill-opacity: 1;"/><path class="point" transform="translate(616.6,22.66)" d="M3,0A3,3 0 1,1 0,-3A3,3 0 0,1 3,0Z" style="opacity: 1; stroke-width: 0px; fill: rgb(255, 127, 14); fill-opacity: 1;"/><path class="point" transform="translate(638.56,21.74)" d="M3,0A3,3 0 1,1 0,-3A3,3 0 0,1 3,0Z" style="opacity: 1; stroke-width: 0px; fill: rgb(255, 127, 14); fill-opacity: 1;"/><path class="point" transform="translate(657.77,20.83)" d="M3,0A3,3 0 1,1 0,-3A3,3 0 0,1 3,0Z" style="opacity: 1; stroke-width: 0px; fill: rgb(255, 127, 14); fill-opacity: 1;"/><path class="point" transform="translate(674.23,19.91)" d="M3,0A3,3 0 1,1 0,-3A3,3 0 0,1 3,0Z" style="opacity: 1; stroke-width: 0px; fill: rgb(255, 127, 14); fill-opacity: 1;"/><path class="point" transform="translate(690.7,19)" d="M3,0A3,3 0 1,1 0,-3A3,3 0 0,1 3,0Z" style="opacity: 1; stroke-width: 0px; fill: rgb(255, 127, 14); fill-opacity: 1;"/></g><g class="text"/></g></g></g><g class="overplot"/><path class="xlines-above crisp" d="M88,405.5H820" style="fill: none; stroke-width: 1px; stroke: rgb(36, 36, 36); stroke-opacity: 1;"/><path class="ylines-above crisp" d="M88.5,100V405" style="fill: none; stroke-width: 1px; stroke: rgb(36, 36, 36); stroke-opacity: 1;"/><g class="overlines-above"/><g class="xaxislayer-above"><path class="xtick ticks crisp" d="M0,406v5" transform="translate(112.83,0)" style="stroke: rgb(68, 68, 68); stroke-opacity: 1; stroke-width: 1px;"/><path class="xtick ticks crisp" d="M0,406v5" transform="translate(250.05,0)" style="stroke: rgb(68, 68, 68); stroke-opacity: 1; stroke-width: 1px;"/><path class="xtick ticks crisp" d="M0,406v5" transform="translate(387.26,0)" style="stroke: rgb(68, 68, 68); stroke-opacity: 1; stroke-width: 1px;"/><path class="xtick ticks crisp" d="M0,406v5" transform="translate(524.48,0)" style="stroke: rgb(68, 68, 68); stroke-opacity: 1; stroke-width: 1px;"/><path class="xtick ticks crisp" d="M0,406v5" transform="translate(661.69,0)" style="stroke: rgb(68, 68, 68); stroke-opacity: 1; stroke-width: 1px;"/><path class="xtick ticks crisp" d="M0,406v5" transform="translate(798.91,0)" style="stroke: rgb(68, 68, 68); stroke-opacity: 1; stroke-width: 1px;"/><g class="xtick"><text text-anchor="middle" x="0" y="435" transform="translate(112.83,0)" style="font-family: 'Open Sans', verdana, arial, sans-serif; font-size: 20px; fill: rgb(36, 36, 36); fill-opacity: 1; white-space: pre;">0</text></g><g class="xtick"><text text-anchor="middle" x="0" y="435" transform="translate(250.05,0)" style="font-family: 'Open Sans', verdana, arial, sans-serif; font-size: 20px; fill: rgb(36, 36, 36); fill-opacity: 1; white-space: pre;">50</text></g><g class="xtick"><text text-anchor="middle" x="0" y="435" transform="translate(387.26,0)" style="font-family: 'Open Sans', verdana, arial, sans-serif; font-size: 20px; fill: rgb(36, 36, 36); fill-opacity: 1; white-space: pre;">100</text></g><g class="xtick"><text text-anchor="middle" x="0" y="435" transform="translate(524.48,0)" style="font-family: 'Open Sans', verdana, arial, sans-serif; font-size: 20px; fill: rgb(36, 36, 36); fill-opacity: 1; white-space: pre;">150</text></g><g class="xtick"><text text-anchor="middle" x="0" y="435" transform="translate(661.69,0)" style="font-family: 'Open Sans', verdana, arial, sans-serif; font-size: 20px; fill: rgb(36, 36, 36); fill-opacity: 1; white-space: pre;">200</text></g><g class="xtick"><text text-anchor="middle" x="0" y="435" transform="translate(798.91,0)" style="font-family: 'Open Sans', verdana, arial, sans-serif; font-size: 20px; fill: rgb(36, 36, 36); fill-opacity: 1; white-space: pre;">250</text></g></g><g class="yaxislayer-above"><path class="ytick ticks crisp" d="M88,0h-5" transform="translate(0,371.46)" style="stroke: rgb(68, 68, 68); stroke-opacity: 1; stroke-width: 1px;"/><path class="ytick ticks crisp" d="M88,0h-5" transform="translate(0,334.87)" style="stroke: rgb(68, 68, 68); stroke-opacity: 1; stroke-width: 1px;"/><path class="ytick ticks crisp" d="M88,0h-5" transform="translate(0,298.28)" style="stroke: rgb(68, 68, 68); stroke-opacity: 1; stroke-width: 1px;"/><path class="ytick ticks crisp" d="M88,0h-5" transform="translate(0,261.69)" style="stroke: rgb(68, 68, 68); stroke-opacity: 1; stroke-width: 1px;"/><path class="ytick ticks crisp" d="M88,0h-5" transform="translate(0,225.1)" style="stroke: rgb(68, 68, 68); stroke-opacity: 1; stroke-width: 1px;"/><path class="ytick ticks crisp" d="M88,0h-5" transform="translate(0,188.51)" style="stroke: rgb(68, 68, 68); stroke-opacity: 1; stroke-width: 1px;"/><path class="ytick ticks crisp" d="M88,0h-5" transform="translate(0,151.93)" style="stroke: rgb(68, 68, 68); stroke-opacity: 1; stroke-width: 1px;"/><path class="ytick ticks crisp" d="M88,0h-5" transform="translate(0,115.34)" style="stroke: rgb(68, 68, 68); stroke-opacity: 1; stroke-width: 1px;"/><g class="ytick"><text text-anchor="end" x="79" y="7" transform="translate(0,371.46)" style="font-family: 'Open Sans', verdana, arial, sans-serif; font-size: 20px; fill: rgb(36, 36, 36); fill-opacity: 1; white-space: pre;">−64</text></g><g class="ytick"><text text-anchor="end" x="79" y="7" transform="translate(0,334.87)" style="font-family: 'Open Sans', verdana, arial, sans-serif; font-size: 20px; fill: rgb(36, 36, 36); fill-opacity: 1; white-space: pre;">−62</text></g><g class="ytick"><text text-anchor="end" x="79" y="7" transform="translate(0,298.28)" style="font-family: 'Open Sans', verdana, arial, sans-serif; font-size: 20px; fill: rgb(36, 36, 36); fill-opacity: 1; white-space: pre;">−60</text></g><g class="ytick"><text text-anchor="end" x="79" y="7" transform="translate(0,261.69)" style="font-family: 'Open Sans', verdana, arial, sans-serif; font-size: 20px; fill: rgb(36, 36, 36); fill-opacity: 1; white-space: pre;">−58</text></g><g class="ytick"><text text-anchor="end" x="79" y="7" transform="translate(0,225.1)" style="font-family: 'Open Sans', verdana, arial, sans-serif; font-size: 20px; fill: rgb(36, 36, 36); fill-opacity: 1; white-space: pre;">−56</text></g><g class="ytick"><text text-anchor="end" x="79" y="7" transform="translate(0,188.51)" style="font-family: 'Open Sans', verdana, arial, sans-serif; font-size: 20px; fill: rgb(36, 36, 36); fill-opacity: 1; white-space: pre;">−54</text></g><g class="ytick"><text text-anchor="end" x="79" y="7" transform="translate(0,151.93)" style="font-family: 'Open Sans', verdana, arial, sans-serif; font-size: 20px; fill: rgb(36, 36, 36); fill-opacity: 1; white-space: pre;">−52</text></g><g class="ytick"><text text-anchor="end" x="79" y="7" transform="translate(0,115.34)" style="font-family: 'Open Sans', verdana, arial, sans-serif; font-size: 20px; fill: rgb(36, 36, 36); fill-opacity: 1; white-space: pre;">−50</text></g></g><g class="overaxes-above"/></g></g><g class="polarlayer"/><g class="ternarylayer"/><g class="geolayer"/><g class="funnelarealayer"/><g class="pielayer"/><g class="treemaplayer"/><g class="sunburstlayer"/><g class="glimages"/><defs id="topdefs-f3d1af"><g class="clips"/><clipPath id="legendf3d1af"><rect width="486" height="90" x="1" y="1"/></clipPath></defs><g class="layer-above"><g class="imagelayer"/><g class="shapelayer"/></g><g class="infolayer"><g class="legend" pointer-events="all" transform="translate(89, 496.5)"><rect class="bg" shape-rendering="crispEdges" width="487" height="91" x="0.5" y="0.5" style="stroke: rgb(5, 5, 25); stroke-opacity: 0; fill: rgb(5, 5, 25); fill-opacity: 0; stroke-width: 1px;"/><g class="scrollbox" transform="translate(0, 0)" clip-path="url('#legendf3d1af')"><g class="groups"><g class="traces" transform="translate(1, 19.200000000000003)" style="opacity: 1;"><text class="legendtext user-select-none" text-anchor="start" x="40" y="7.0200000000000005" style="font-family: 'Open Sans', verdana, arial, sans-serif; font-size: 18px; fill: rgb(0, 0, 0); fill-opacity: 1; white-space: pre;">Уровень сброса</text><g class="layers" style="opacity: 0.5;"><g class="legendfill"/><g class="legendlines"><path class="js-line" d="M5,0h30" style="fill: none; stroke: rgb(44, 160, 44); stroke-opacity: 1; stroke-dasharray: 9px, 9px; stroke-width: 3px;"/></g><g class="legendsymbols"><g class="legendpoints"/></g></g><rect class="legendtoggle" pointer-events="all" x="0" y="-13.200000000000001" width="178.171875" height="26.400000000000002" style="cursor: pointer; fill: rgb(0, 0, 0); fill-opacity: 0;"/></g><g class="traces" transform="translate(273.15625, 19.200000000000003)" style="opacity: 1;"><text class="legendtext user-select-none" text-anchor="start" x="40" y="7.0200000000000005" style="font-family: 'Open Sans', verdana, arial, sans-serif; font-size: 18px; fill: rgb(0, 0, 0); fill-opacity: 1; white-space: pre;">Порог активации</text><g class="layers" style="opacity: 0.5;"><g class="legendfill"/><g class="legendlines"><path class="js-line" d="M5,0h30" style="fill: none; stroke: rgb(214, 39, 40); stroke-opacity: 1; stroke-dasharray: 9px, 9px; stroke-width: 3px;"/></g><g class="legendsymbols"><g class="legendpoints"/></g></g><rect class="legendtoggle" pointer-events="all" x="0" y="-13.200000000000001" width="183.21875" height="26.400000000000002" style="cursor: pointer; fill: rgb(0, 0, 0); fill-opacity: 0;"/></g><g class="traces" transform="translate(1, 45.6)" style="opacity: 1;"><text class="legendtext user-select-none" text-anchor="start" x="40" y="7.0200000000000005" style="font-family: 'Open Sans', verdana, arial, sans-serif; font-size: 18px; fill: rgb(0, 0, 0); fill-opacity: 1; white-space: pre;">Уровень релаксации</text><g class="layers" style="opacity: 0.5;"><g class="legendfill"/><g class="legendlines"><path class="js-line" d="M5,0h30" style="fill: none; stroke: rgb(148, 103, 189); stroke-opacity: 1; stroke-dasharray: 9px, 9px; stroke-width: 3px;"/></g><g class="legendsymbols"><g class="legendpoints"/></g></g><rect class="legendtoggle" pointer-events="all" x="0" y="-13.200000000000001" width="215.296875" height="26.400000000000002" style="cursor: pointer; fill: rgb(0, 0, 0); fill-opacity: 0;"/></g><g class="traces" transform="translate(273.15625, 45.6)" style="opacity: 1;"><text class="legendtext user-select-none" text-anchor="start" x="40" y="7.0200000000000005" style="font-family: 'Open Sans', verdana, arial, sans-serif; font-size: 18px; fill: rgb(0, 0, 0); fill-opacity: 1; white-space: pre;">Потенциал нейрона</text><g class="layers" style="opacity: 1;"><g class="legendfill"/><g class="legendlines"><path class="js-line" d="M5,0h30" style="fill: none; stroke: rgb(31, 119, 180); stroke-opacity: 1; stroke-width: 1px;"/></g><g class="legendsymbols"><g class="legendpoints"/></g></g><rect class="legendtoggle" pointer-events="all" x="0" y="-13.200000000000001" width="210.90625" height="26.400000000000002" style="cursor: pointer; fill: rgb(0, 0, 0); fill-opacity: 0;"/></g><g class="traces" transform="translate(1, 72)" style="opacity: 1;"><text class="legendtext user-select-none" text-anchor="start" x="40" y="7.0200000000000005" style="font-family: 'Open Sans', verdana, arial, sans-serif; font-size: 18px; fill: rgb(0, 0, 0); fill-opacity: 1; white-space: pre;">Моменты спайков нейрона</text><g class="layers" style="opacity: 1;"><g class="legendfill"/><g class="legendlines"/><g class="legendsymbols"><g class="legendpoints"><path class="scatterpts" transform="translate(20,0)" d="M3,0A3,3 0 1,1 0,-3A3,3 0 0,1 3,0Z" style="opacity: 1; stroke-width: 0px; fill: rgb(255, 127, 14); fill-opacity: 1;"/></g></g></g><rect class="legendtoggle" pointer-events="all" x="0" y="-13.200000000000001" width="269.65625" height="26.400000000000002" style="cursor: pointer; fill: rgb(0, 0, 0); fill-opacity: 0;"/></g></g></g><rect class="scrollbar" rx="20" ry="3" width="0" height="0" x="0" y="0" style="fill: rgb(128, 139, 164); fill-opacity: 1;"/></g><g class="g-gtitle"/><g class="g-xtitle"><text class="xtitle" x="454.5" y="470.8" text-anchor="middle" style="font-family: 'Open Sans', verdana, arial, sans-serif; font-size: 24px; fill: rgb(36, 36, 36); opacity: 1; font-weight: normal; white-space: pre;">Время, мс</text></g><g class="g-ytitle" transform="translate(9.7373046875,0)"><text class="ytitle" transform="rotate(-90,12.262500000000003,252.5)" x="12.262500000000003" y="252.5" text-anchor="middle" style="font-family: 'Open Sans', verdana, arial, sans-serif; font-size: 24px; fill: rgb(36, 36, 36); opacity: 1; font-weight: normal; white-space: pre;">Напряжение, мВ</text></g></g></svg>