<svg class="main-svg" xmlns="http://www.w3.org/2000/svg" xmlns:xlink="http://www.w3.org/1999/xlink" width="900" height="600" style="" viewBox="0 0 900 600"><rect x="0" y="0" width="900" height="600" style="fill: rgb(255, 255, 255); fill-opacity: 1;"/><defs id="defs-49bf4d"><g class="clips"><clipPath id="clip49bf4dxyplot" class="plotclip"><rect width="731" height="325"/></clipPath><clipPath class="axesclip" id="clip49bf4dx"><rect x="89" y="0" width="731" height="600"/></clipPath><clipPath class="axesclip" id="clip49bf4dy"><rect x="0" y="100" width="900" height="325"/></clipPath><clipPath class="axesclip" id="clip49bf4dxy"><rect x="89" y="100" width="731" height="325"/></clipPath></g><g class="gradients"/></defs><g class="bglayer"/><g class="layer-below"><g class="imagelayer"/><g class="shapelayer"/></g><g class="cartesianlayer"><g class="subplot xy"><g class="layer-subplot"><g class="shapelayer"/><g class="imagelayer"/></g><g class="gridlayer"><g class="x"/><g class="y"/></g><g class="zerolinelayer"/><path class="xlines-below"/><path class="ylines-below"/><g class="overlines-below"/><g class="xaxislayer-below"/><g class="yaxislayer-below"/><g class="overaxes-below"/><g class="plot" transform="translate(89, 100)" clip-path="url('#clip49bf4dxyplot')"><g class="scatterlayer mlayer"><g class="trace scatter trace224650" style="stroke-miterlimit: 2; opacity: 0.5;"><g class="fills"/><g class="errorbars"/><g class="lines"><path class="js-line" d="M0,308.75H696.27V308.75" style="vector-effect: non-scaling-stroke; fill: none; stroke: rgb(44, 160, 44); stroke-opacity: 1; stroke-width: 3px; opacity: 1; stroke-dasharray: 9px, 9px;"/></g><g class="points"/><g class="text"/></g><g class="trace scatter tracec6bd3a" style="stroke-miterlimit: 2; opacity: 0.5;"><g class="fills"/><g class="errorbars"/><g class="lines"><path class="js-line" d="M0,20H2.79V20H5.57V20H8.36V20H11.14V20H13.93V20H16.71V20H19.5V20H22.28V20H25.07V20H27.85V20H30.64V20H33.42V20H36.21V20H38.99V20H41.78V20H44.56V20H47.35V20H50.13V20H52.92V20H55.7V20H58.49V20H61.27V20H64.06V20H66.84V20H69.63V20H72.41V20H75.2V20H77.98V20H80.77V20H83.55V20H86.34V20H89.12V20H91.91V20H94.69V20H97.48V20H100.26V20H103.05V20H105.83V20H108.62V20H111.4V20H114.19V20H116.97V20H119.76V20H122.54V20H125.33V20H128.11V20H130.9V20H133.68V20H136.47V20H139.25V20H142.04V20H144.82V20H147.61V20H150.39V20H153.18V20H155.96V20H158.75V20H161.53V20H164.32V20H167.1V20H169.89V20H172.68V20H175.46V20H178.25V20H181.03V20H183.82V20H186.6V20H189.39V20H192.17V20H194.96V20H197.74V20H200.53V20H203.31V20H206.1V20H208.88V20H211.67V20H214.45V20H217.24V20H220.02V20H222.81V20H225.59V20H228.38V20H231.16V20H233.95V20H236.73V20H239.52V20H242.3V20H245.09V20H247.87V20H250.66V20H253.44V20H256.23V20H259.01V20H261.8V20H264.58V20H267.37V20H270.15V20H272.94V20H275.72V20H278.51V20H281.29V20H284.08V20H286.86V20H289.65V20H292.43V20H295.22V20H298V20H300.79V20H303.57V20H306.36V20H309.14V20H311.93V20H314.71V20H317.5V20H320.28V20H323.07V20H325.85V20H328.64V20H331.42V20H334.21V20H336.99V20H339.78V20H342.56V20H345.35V20H348.14V20H350.92V20H353.71V20H356.49V20H359.28V20H362.06V20H364.85V20H367.63V20H370.42V20H373.2V20H375.99V20H378.77V20H381.56V20H384.34V20H387.13V20H389.91V20H392.7V20H395.48V20H398.27V20H401.05V20H403.84V20H406.62V20H409.41V20H412.19V20H414.98V20H417.76V20H420.55V20H423.33V20H426.12V20H428.9V20H431.69V20H434.47V20H437.26V20H440.04V20H442.83V20H445.61V20H448.4V20H451.18V20H453.97V20H456.75V20H459.54V20H462.32V20H465.11V20H467.89V20H470.68V20H473.46V20H476.25V20H479.03V20H481.82V20H484.6V20H487.39V20H490.17V20H492.96V20H495.74V20H498.53V20H501.31V20H504.1V20H506.88V20H509.67V20H512.45V20H515.24V20H518.03V20H520.81V20H523.6V20H526.38V20H529.17V20H531.95V20H534.74V20H537.52V20H540.31V20H543.09V20H545.88V20H548.66V20H551.45V20H554.23V20H557.02V20H559.8V20H562.59V20H565.37V20H568.16V20H570.94V20H573.73V20H576.51V20H579.3V20H582.08V20H584.87V20H587.65V20H590.44V20H593.22V20H596.01V20H598.79V20H601.58V20H604.36V20H607.15V20H609.93V20H612.72V20H615.5V20H618.29V20H621.07V20H623.86V20H626.64V20H629.43V20H632.21V20H635V20H637.78V20H640.57V20H643.35V20H646.14V20H648.92V20H651.71V20H654.49V20H657.28V20H660.06V20H662.85V20H665.63V20H668.42V20H671.2V20H673.99V20H676.77V20H679.56V20H682.34V20H685.13V20H687.91V20H690.7V20H693.49V20" style="vector-effect: non-scaling-stroke; fill: none; stroke: rgb(214, 39, 40); stroke-opacity: 1; stroke-width: 3px; opacity: 1; stroke-dasharray: 9px, 9px;"/></g><g class="points"/><g class="text"/></g><g class="trace scatter tracedaf554" style="stroke-miterlimit: 2; opacity: 1;"><g class="fills"/><g class="errorbars"/><g class="lines"><path class="js-line" d="M0,308.75H2.79V308.75H5.57V308.75H8.36V308.75H11.14V308.75H13.93V308.75H16.71V308.75H19.5V308.75H22.28V308.75H25.07V308.75H27.85V308.75H30.64V308.75H33.42V308.75H36.21V308.75H38.99V308.75H41.78V308.75H44.56V308.75H47.35V308.75H50.13V308.75H52.92V308.75H55.7V308.75H58.49V308.75H61.27V308.75H64.06V308.75H66.84V308.75H69.63V308.75H72.41V297.84H75.2V282.6H77.98V282.6H80.77V258.23H83.55V253.23H86.34V239.21H89.12V224.03H91.91V222.76H94.69V188.49H97.48V165.48H100.26V161.98H103.05V161.98H105.83V161.98H108.62V143.84H111.4V143.84H114.19V142.31H116.97V107.58H119.76V107.58H122.54V107.58H125.33V92.43H128.11V92.43H130.9V92.43H133.68V92.43H136.47V92.43H139.25V92.43H142.04V92.43H144.82V85.37H147.61V57.88H150.39V57.88H153.18V43.59H155.96V43.59H158.75V24.68H161.53V24.68H164.32V20H167.1V308.75H169.89V308.75H172.68V308.75H175.46V308.75H178.25V308.75H181.03V308.75H183.82V308.75H186.6V308.75H189.39V308.75H192.17V308.75H194.96V282.87H197.74V282.87H200.53V282.87H203.31V265.72H206.1V248.15H208.88V248.15H211.67V242.66H214.45V227.48H217.24V226.21H220.02V212.52H222.81V192.7H225.59V179.86H228.38V176.36H231.16V176.36H233.95V176.36H236.73V154.01H239.52V154.01H242.3V149H245.09V149H247.87V149H250.66V130.79H253.44V126.99H256.23V124.94H259.01V124.94H261.8V106.03H264.58V105.06H267.37V105.06H270.15V70.79H272.94V55.97H275.72V55.97H278.51V41.96H281.29V41.96H284.08V41.96H286.86V41.96H289.65V20H292.43V308.75H295.22V308.75H298V308.75H300.79V308.75H303.57V308.75H306.36V308.75H309.14V308.75H311.93V308.75H314.71V308.75H317.5V308.75H320.28V302.2H323.07V275.92H325.85V263.28H328.64V245.33H331.42V245.33H334.21V245.33H336.99V217.35H339.78V217.35H342.56V217.35H345.35V213.56H348.14V213.56H350.92V191.73H353.71V170.96H356.49V168.64H359.28V168.64H362.06V168.64H364.85V168.64H367.63V168.64H370.42V156.39H373.2V137.48H375.99V137.48H378.77V100.51H381.56V100.51H384.34V54.29H387.13V54.29H389.91V54.29H392.7V52.24H395.48V52.24H398.27V46.79H401.05V41.78H403.84V41.78H406.62V29.14H409.41V20H412.19V308.75H414.98V308.75H417.76V308.75H420.55V308.75H423.33V308.75H426.12V308.75H428.9V308.75H431.69V308.75H434.47V308.75H437.26V308.75H440.04V274.66H442.83V274.66H445.61V265.34H448.4V260.27H451.18V256.94H453.97V226.11H456.75V226.11H459.54V226.11H462.32V225.14H465.11V225.14H467.89V225.14H470.68V205.92H473.46V187.71H476.25V187.71H479.03V170.34H481.82V165.33H484.6V161.83H487.39V149H490.17V129.53H492.96V129.53H495.74V129.53H498.53V129.53H501.31V112.95H504.1V112.95H506.88V112.95H509.67V101.5H512.45V99.45H515.24V99.45H518.03V99.45H520.81V99.45H523.6V85.27H526.38V68.12H529.17V31.33H531.95V31.33H534.74V20H537.52V308.75H540.31V308.75H543.09V308.75H545.88V308.75H548.66V308.75H551.45V308.75H554.23V308.75H557.02V308.75H559.8V308.75H562.59V308.75H565.37V289.77H568.16V284.77H570.94V284.77H573.73V267.26H576.51V267.26H579.3V267.26H582.08V267.26H584.87V267.26H587.65V267.26H590.44V259.49H593.22V259.49H596.01V231.46H598.79V231.46H601.58V231.46H604.36V231.46H607.15V231.46H609.93V210.32H612.72V210.32H615.5V206.72H618.29V193.89H621.07V193.89H623.86V163.67H626.64V163.67H629.43V163.67H632.21V163.67H635V146.52H637.78V127.61H640.57V122.61H643.35V122.61H646.14V103.75H648.92V92.85H651.71V92.85H654.49V91.57H657.28V91.57H660.06V82.25H662.85V82.25H665.63V54.55H668.42V54.55H671.2V49.06H673.99V49.06H676.77V45.73H679.56V30.55H682.34V30.55H685.13V28.24H687.91V28.24H690.7V20H693.49V308.75" style="vector-effect: non-scaling-stroke; fill: none; stroke: rgb(31, 119, 180); stroke-opacity: 1; stroke-width: 1px; opacity: 1;"/></g><g class="points"/><g class="text"/></g><g class="trace scatter trace5ffb0c" style="stroke-miterlimit: 2; opacity: 1;"><g class="fills"/><g class="errorbars"/><g class="lines"/><g class="points"><path class="point" transform="translate(164.32,20)" d="M3,0A3,3 0 1,1 0,-3A3,3 0 0,1 3,0Z" style="opacity: 1; stroke-width: 0px; fill: rgb(255, 127, 14); fill-opacity: 1;"/><path class="point" transform="translate(289.65,20)" d="M3,0A3,3 0 1,1 0,-3A3,3 0 0,1 3,0Z" style="opacity: 1; stroke-width: 0px; fill: rgb(255, 127, 14); fill-opacity: 1;"/><path class="point" transform="translate(409.41,20)" d="M3,0A3,3 0 1,1 0,-3A3,3 0 0,1 3,0Z" style="opacity: 1; stroke-width: 0px; fill: rgb(255, 127, 14); fill-opacity: 1;"/><path class="point" transform="translate(534.74,20)" d="M3,0A3,3 0 1,1 0,-3A3,3 0 0,1 3,0Z" style="opacity: 1; stroke-width: 0px; fill: rgb(255, 127, 14); fill-opacity: 1;"/><path class="point" transform="translate(690.7,20)" d="M3,0A3,3 0 1,1 0,-3A3,3 0 0,1 3,0Z" style="opacity: 1; stroke-width: 0px; fill: rgb(255, 127, 14); fill-opacity: 1;"/></g><g class="text"/></g></g></g><g class="overplot"/><path class="xlines-above crisp" d="M88,425.5H820" style="fill: none; stroke-width: 1px; stroke: rgb(36, 36, 36); stroke-opacity: 1;"/><path class="ylines-above crisp" d="M88.5,100V425" style="fill: none; stroke-width: 1px; stroke: rgb(36, 36, 36); stroke-opacity: 1;"/><g class="overlines-above"/><g class="xaxislayer-above"><path class="xtick ticks crisp" d="M0,426v5" transform="translate(89,0)" style="stroke: rgb(68, 68, 68); stroke-opacity: 1; stroke-width: 1px;"/><path class="xtick ticks crisp" d="M0,426v5" transform="translate(228.25,0)" style="stroke: rgb(68, 68, 68); stroke-opacity: 1; stroke-width: 1px;"/><path class="xtick ticks crisp" d="M0,426v5" transform="translate(367.51,0)" style="stroke: rgb(68, 68, 68); stroke-opacity: 1; stroke-width: 1px;"/><path class="xtick ticks crisp" d="M0,426v5" transform="translate(506.76,0)" style="stroke: rgb(68, 68, 68); stroke-opacity: 1; stroke-width: 1px;"/><path class="xtick ticks crisp" d="M0,426v5" transform="translate(646.02,0)" style="stroke: rgb(68, 68, 68); stroke-opacity: 1; stroke-width: 1px;"/><path class="xtick ticks crisp" d="M0,426v5" transform="translate(785.27,0)" style="stroke: rgb(68, 68, 68); stroke-opacity: 1; stroke-width: 1px;"/><g class="xtick"><text text-anchor="middle" x="0" y="455" transform="translate(89,0)" style="font-family: 'Open Sans', verdana, arial, sans-serif; font-size: 20px; fill: rgb(36, 36, 36); fill-opacity: 1; white-space: pre;">0</text></g><g class="xtick"><text text-anchor="middle" x="0" y="455" transform="translate(228.25,0)" style="font-family: 'Open Sans', verdana, arial, sans-serif; font-size: 20px; fill: rgb(36, 36, 36); fill-opacity: 1; white-space: pre;">50</text></g><g class="xtick"><text text-anchor="middle" x="0" y="455" transform="translate(367.51,0)" style="font-family: 'Open Sans', verdana, arial, sans-serif; font-size: 20px; fill: rgb(36, 36, 36); fill-opacity: 1; white-space: pre;">100</text></g><g class="xtick"><text text-anchor="middle" x="0" y="455" transform="translate(506.76,0)" style="font-family: 'Open Sans', verdana, arial, sans-serif; font-size: 20px; fill: rgb(36, 36, 36); fill-opacity: 1; white-space: pre;">150</text></g><g class="xtick"><text text-anchor="middle" x="0" y="455" transform="translate(646.02,0)" style="font-family: 'Open Sans', verdana, arial, sans-serif; font-size: 20px; fill: rgb(36, 36, 36); fill-opacity: 1; white-space: pre;">200</text></g><g class="xtick"><text text-anchor="middle" x="0" y="455" transform="translate(785.27,0)" style="font-family: 'Open Sans', verdana, arial, sans-serif; font-size: 20px; fill: rgb(36, 36, 36); fill-opacity: 1; white-space: pre;">250</text></g></g><g class="yaxislayer-above"><path class="ytick ticks crisp" d="M88,0h-5" transform="translate(0,389.5)" style="stroke: rgb(68, 68, 68); stroke-opacity: 1; stroke-width: 1px;"/><path class="ytick ticks crisp" d="M88,0h-5" transform="translate(0,351)" style="stroke: rgb(68, 68, 68); stroke-opacity: 1; stroke-width: 1px;"/><path class="ytick ticks crisp" d="M88,0h-5" transform="translate(0,312.5)" style="stroke: rgb(68, 68, 68); stroke-opacity: 1; stroke-width: 1px;"/><path class="ytick ticks crisp" d="M88,0h-5" transform="translate(0,274)" style="stroke: rgb(68, 68, 68); stroke-opacity: 1; stroke-width: 1px;"/><path class="ytick ticks crisp" d="M88,0h-5" transform="translate(0,235.5)" style="stroke: rgb(68, 68, 68); stroke-opacity: 1; stroke-width: 1px;"/><path class="ytick ticks crisp" d="M88,0h-5" transform="translate(0,197)" style="stroke: rgb(68, 68, 68); stroke-opacity: 1; stroke-width: 1px;"/><path class="ytick ticks crisp" d="M88,0h-5" transform="translate(0,158.5)" style="stroke: rgb(68, 68, 68); stroke-opacity: 1; stroke-width: 1px;"/><path class="ytick ticks crisp" d="M88,0h-5" transform="translate(0,120)" style="stroke: rgb(68, 68, 68); stroke-opacity: 1; stroke-width: 1px;"/><g class="ytick"><text text-anchor="end" x="79" y="7" transform="translate(0,389.5)" style="font-family: 'Open Sans', verdana, arial, sans-serif; font-size: 20px; fill: rgb(36, 36, 36); fill-opacity: 1; white-space: pre;">−64</text></g><g class="ytick"><text text-anchor="end" x="79" y="7" transform="translate(0,351)" style="font-family: 'Open Sans', verdana, arial, sans-serif; font-size: 20px; fill: rgb(36, 36, 36); fill-opacity: 1; white-space: pre;">−62</text></g><g class="ytick"><text text-anchor="end" x="79" y="7" transform="translate(0,312.5)" style="font-family: 'Open Sans', verdana, arial, sans-serif; font-size: 20px; fill: rgb(36, 36, 36); fill-opacity: 1; white-space: pre;">−60</text></g><g class="ytick"><text text-anchor="end" x="79" y="7" transform="translate(0,274)" style="font-family: 'Open Sans', verdana, arial, sans-serif; font-size: 20px; fill: rgb(36, 36, 36); fill-opacity: 1; white-space: pre;">−58</text></g><g class="ytick"><text text-anchor="end" x="79" y="7" transform="translate(0,235.5)" style="font-family: 'Open Sans', verdana, arial, sans-serif; font-size: 20px; fill: rgb(36, 36, 36); fill-opacity: 1; white-space: pre;">−56</text></g><g class="ytick"><text text-anchor="end" x="79" y="7" transform="translate(0,197)" style="font-family: 'Open Sans', verdana, arial, sans-serif; font-size: 20px; fill: rgb(36, 36, 36); fill-opacity: 1; white-space: pre;">−54</text></g><g class="ytick"><text text-anchor="end" x="79" y="7" transform="translate(0,158.5)" style="font-family: 'Open Sans', verdana, arial, sans-serif; font-size: 20px; fill: rgb(36, 36, 36); fill-opacity: 1; white-space: pre;">−52</text></g><g class="ytick"><text text-anchor="end" x="79" y="7" transform="translate(0,120)" style="font-family: 'Open Sans', verdana, arial, sans-serif; font-size: 20px; fill: rgb(36, 36, 36); fill-opacity: 1; white-space: pre;">−50</text></g></g><g class="overaxes-above"/></g></g><g class="polarlayer"/><g class="ternarylayer"/><g class="geolayer"/><g class="funnelarealayer"/><g class="pielayer"/><g class="treemaplayer"/><g class="sunburstlayer"/><g class="glimages"/><defs id="topdefs-49bf4d"><g class="clips"/><clipPath id="legend49bf4d"><rect width="641" height="63" x="1" y="1"/></clipPath></defs><g class="layer-above"><g class="imagelayer"/><g class="shapelayer"/></g><g class="infolayer"><g class="legend" pointer-events="all" transform="translate(89, 522.5)"><rect class="bg" shape-rendering="crispEdges" width="642" height="64" x="0.5" y="0.5" style="stroke: rgb(5, 5, 25); stroke-opacity: 0; fill: rgb(5, 5, 25); fill-opacity: 0; stroke-width: 1px;"/><g class="scrollbox" transform="translate(0, 0)" clip-path="url('#legend49bf4d')"><g class="groups"><g class="traces" transform="translate(1, 19.200000000000003)" style="opacity: 1;"><text class="legendtext user-select-none" text-anchor="start" x="40" y="7.0200000000000005" style="font-family: 'Open Sans', verdana, arial, sans-serif; font-size: 18px; fill: rgb(0, 0, 0); fill-opacity: 1; white-space: pre;">Уровень сброса</text><g class="layers" style="opacity: 0.5;"><g class="legendfill"/><g class="legendlines"><path class="js-line" d="M5,0h30" style="fill: none; stroke: rgb(44, 160, 44); stroke-opacity: 1; stroke-dasharray: 9px, 9px; stroke-width: 3px;"/></g><g class="legendsymbols"><g class="legendpoints"/></g></g><rect class="legendtoggle" pointer-events="all" x="0" y="-13.200000000000001" width="178.171875" height="26.400000000000002" style="cursor: pointer; fill: rgb(0, 0, 0); fill-opacity: 0;"/></g><g class="traces" transform="translate(321.171875, 19.200000000000003)" style="opacity: 1;"><text class="legendtext user-select-none" text-anchor="start" x="40" y="7.0200000000000005" style="font-family: 'Open Sans', verdana, arial, sans-serif; font-size: 18px; fill: rgb(0, 0, 0); fill-opacity: 1; white-space: pre;">Порог активации</text><g class="layers" style="opacity: 0.5;"><g class="legendfill"/><g class="legendlines"><path class="js-line" d="M5,0h30" style="fill: none; stroke: rgb(214, 39, 40); stroke-opacity: 1; stroke-dasharray: 9px, 9px; stroke-width: 3px;"/></g><g class="legendsymbols"><g class="legendpoints"/></g></g><rect class="legendtoggle" pointer-events="all" x="0" y="-13.200000000000001" width="183.21875" height="26.400000000000002" style="cursor: pointer; fill: rgb(0, 0, 0); fill-opacity: 0;"/></g><g class="traces" transform="translate(1, 45.6)" style="opacity: 1;"><text class="legendtext user-select-none" text-anchor="start" x="40" y="7.0200000000000005" style="font-family: 'Open Sans', verdana, arial, sans-serif; font-size: 18px; fill: rgb(0, 0, 0); fill-opacity: 1; white-space: pre;">Потенциал нейрона</text><g class="layers" style="opacity: 1;"><g class="legendfill"/><g class="legendlines"><path class="js-line" d="M5,0h30" style="fill: none; stroke: rgb(31, 119, 180); stroke-opacity: 1; stroke-width: 1px;"/></g><g class="legendsymbols"><g class="legendpoints"/></g></g><rect class="legendtoggle" pointer-events="all" x="0" y="-13.200000000000001" width="210.90625" height="26.400000000000002" style="cursor: pointer; fill: rgb(0, 0, 0); fill-opacity: 0;"/></g><g class="traces" transform="translate(321.171875, 45.6)" style="opacity: 1;"><text class="legendtext user-select-none" text-anchor="start" x="40" y="7.0200000000000005" style="font-family: 'Open Sans', verdana, arial, sans-serif; font-size: 18px; fill: rgb(0, 0, 0); fill-opacity: 1; white-space: pre;">Моменты спайков этого нейрона</text><g class="layers" style="opacity: 1;"><g class="legendfill"/><g class="legendlines"/><g class="legendsymbols"><g class="legendpoints"><path class="scatterpts" transform="translate(20,0)" d="M3,0A3,3 0 1,1 0,-3A3,3 0 0,1 3,0Z" style="opacity: 1; stroke-width: 0px; fill: rgb(255, 127, 14); fill-opacity: 1;"/></g></g></g><rect class="legendtoggle" pointer-events="all" x="0" y="-13.200000000000001" width="317.671875" height="26.400000000000002" style="cursor: pointer; fill: rgb(0, 0, 0); fill-opacity: 0;"/></g></g></g><rect class="scrollbar" rx="20" ry="3" width="0" height="0" x="0" y="0" style="fill: rgb(128, 139, 164); fill-opacity: 1;"/></g><g class="g-gtitle"/><g class="g-xtitle"><text class="xtitle" x="454.5" y="490.8" text-anchor="middle" style="font-family: 'Open Sans', verdana, arial, sans-serif; font-size: 24px; fill: rgb(36, 36, 36); opacity: 1; font-weight: normal; white-space: pre;">Время, мс</text></g><g class="g-ytitle" transform="translate(9.7373046875,0)"><text class="ytitle" transform="rotate(-90,12.262500000000003,262.5)" x="12.262500000000003" y="262.5" text-anchor="middle" style="font-family: 'Open Sans', verdana, arial, sans-serif; font-size: 24px; fill: rgb(36, 36, 36); opacity: 1; font-weight: normal; white-space: pre;">Напряжение, мВ</text></g></g></svg>