<svg class="main-svg" xmlns="http://www.w3.org/2000/svg" xmlns:xlink="http://www.w3.org/1999/xlink" width="900" height="600" style="" viewBox="0 0 900 600"><rect x="0" y="0" width="900" height="600" style="fill: rgb(255, 255, 255); fill-opacity: 1;"/><defs id="defs-97df90"><g class="clips"><clipPath id="clip97df90xyplot" class="plotclip"><rect width="732" height="305"/></clipPath><clipPath class="axesclip" id="clip97df90x"><rect x="88" y="0" width="732" height="600"/></clipPath><clipPath class="axesclip" id="clip97df90y"><rect x="0" y="100" width="900" height="305"/></clipPath><clipPath class="axesclip" id="clip97df90xy"><rect x="88" y="100" width="732" height="305"/></clipPath></g><g class="gradients"/></defs><g class="bglayer"/><g class="layer-below"><g class="imagelayer"/><g class="shapelayer"/></g><g class="cartesianlayer"><g class="subplot xy"><g class="layer-subplot"><g class="shapelayer"/><g class="imagelayer"/></g><g class="gridlayer"><g class="x"/><g class="y"/></g><g class="zerolinelayer"/><path class="xlines-below"/><path class="ylines-below"/><g class="overlines-below"/><g class="xaxislayer-below"/><g class="yaxislayer-below"/><g class="overaxes-below"/><g class="plot" transform="translate(88,100)" clip-path="url('#clip97df90xyplot')"><g class="scatterlayer mlayer"><g class="trace scatter trace2185e2" style="stroke-miterlimit: 2; opacity: 0.5;"><g class="fills"/><g class="errorbars"/><g class="lines"><path class="js-line" d="M0,289.75H732V289.75" style="vector-effect: non-scaling-stroke; fill: none; stroke: rgb(44, 160, 44); stroke-opacity: 1; stroke-width: 3px; opacity: 1; stroke-dasharray: 9px, 9px;"/></g><g class="points"/><g class="text"/></g><g class="trace scatter traceef3602" style="stroke-miterlimit: 2; opacity: 0.5;"><g class="fills"/><g class="errorbars"/><g class="lines"><path class="js-line" d="M0,123.47H2.93V123.47H5.86V123.47H8.78V123.47H11.71V123.47H14.64V123.47H17.57V123.47H20.5V123.47H23.42V123.47H26.35V123.47H29.28V123.47H32.21V123.47H35.14V123.47H38.06V123.47H40.99V123.47H43.92V123.47H46.85V123.47H49.78V123.47H52.7V123.47H55.63V123.47H58.56V123.47H61.49V123.47H64.42V123.47H67.34V123.47H70.27V123.47H73.2V123.47H76.13V123.47H79.06V123.47H81.98V123.47H84.91V123.47H87.84V123.47H90.77V123.47H93.7V123.47H96.62V123.47H99.55V123.47H102.48V123.47H105.41V123.47H108.34V123.47H111.26V123.47H114.19V123.47H117.12V123.47H120.05V123.47H122.98V123.47H125.9V123.47H128.83V123.47H131.76V123.47H134.69V123.47H137.62V123.47H140.54V123.47H143.47V123.47H146.4V123.47H149.33V123.47H152.26V123.47H155.18V68.05H158.11V68.6H161.04V69.14H163.97V69.68H166.9V70.22H169.82V70.75H172.75V71.27H175.68V71.79H178.61V72.31H181.54V72.82H184.46V73.32H187.39V73.82H190.32V74.31H193.25V74.8H196.18V75.29H199.1V75.77H202.03V76.24H204.96V76.71H207.89V77.18H210.82V77.64H213.74V78.09H216.67V78.54H219.6V78.99H222.53V79.43H225.46V79.87H228.38V80.31H231.31V80.74H234.24V81.16H237.17V81.58H240.1V82H243.02V82.41H245.95V82.82H248.88V83.22H251.81V83.62H254.74V84.02H257.66V84.41H260.59V84.8H263.52V85.19H266.45V85.57H269.38V85.94H272.3V86.32H275.23V86.69H278.16V87.05H281.09V87.42H284.02V87.78H286.94V88.13H289.87V88.48H292.8V88.83H295.73V89.17H298.66V89.52H301.58V89.85H304.51V90.19H307.44V90.52H310.37V90.85H313.3V35.75H316.22V36.62H319.15V37.48H322.08V38.34H325.01V39.19H327.94V40.02H330.86V40.85H333.79V41.68H336.72V42.49H339.65V43.3H342.58V44.09H345.5V44.88H348.43V45.67H351.36V46.44H354.29V47.21H357.22V47.97H360.14V48.72H363.07V49.46H366V50.2H368.93V50.93H371.86V51.65H374.78V52.36H377.71V53.07H380.64V53.77H383.57V54.46H386.5V55.15H389.42V55.83H392.35V56.5H395.28V57.17H398.21V57.83H401.14V58.48H404.06V59.13H406.99V59.77H409.92V60.4H412.85V61.03H415.78V61.65H418.7V62.27H421.63V62.88H424.56V63.48H427.49V64.08H430.42V64.67H433.34V65.25H436.27V65.83H439.2V66.41H442.13V66.97H445.06V67.54H447.98V68.09H450.91V68.64H453.84V69.19H456.77V69.73H459.7V70.26H462.62V70.79H465.55V71.32H468.48V71.84H471.41V72.35H474.34V72.86H477.26V73.36H480.19V73.86H483.12V74.35H486.05V74.84H488.98V75.33H491.9V75.81H494.83V76.28H497.76V21.32H500.69V22.34H503.62V23.35H506.54V24.34H509.47V25.33H512.4V26.31H515.33V27.27H518.26V28.23H521.18V29.18H524.11V30.12H527.04V31.04H529.97V31.96H532.9V32.87H535.82V33.78H538.75V34.67H541.68V35.55H544.61V36.43H547.54V37.29H550.46V38.15H553.39V39H556.32V39.84H559.25V40.67H562.18V41.5H565.1V42.31H568.03V43.12H570.96V43.92H573.89V44.71H576.82V45.49H579.74V46.27H582.67V47.04H585.6V47.8H588.53V48.55H591.46V49.3H594.38V50.03H597.31V50.77H600.24V51.49H603.17V52.21H606.1V52.91H609.02V53.62H611.95V54.31H614.88V55H617.81V55.68H620.74V56.36H623.66V57.02H626.59V57.68H629.52V58.34H632.45V58.99H635.38V59.63H638.3V60.26H641.23V60.89H644.16V61.52H647.09V62.13H650.02V62.74H652.94V63.35H655.87V63.94H658.8V64.54H661.73V65.12H664.66V65.7H667.58V66.28H670.51V66.85H673.44V67.41H676.37V67.97H679.3V68.52H682.22V69.07H685.15V69.61H688.08V70.15H691.01V15.25H693.94V16.33H696.86V17.39H699.79V18.45H702.72V19.49H705.65V20.53H708.58V21.55H711.5V22.57H714.43V23.57H717.36V24.56H720.29V25.55H723.22V26.52H726.14V27.49H729.07V28.44" style="vector-effect: non-scaling-stroke; fill: none; stroke: rgb(214, 39, 40); stroke-opacity: 1; stroke-width: 3px; opacity: 1; stroke-dasharray: 9px, 9px;"/></g><g class="points"/><g class="text"/></g><g class="trace scatter trace274947" style="stroke-miterlimit: 2; opacity: 0.5;"><g class="fills"/><g class="errorbars"/><g class="lines"><path class="js-line" d="M0,234.32H732V234.32" style="vector-effect: non-scaling-stroke; fill: none; stroke: rgb(148, 103, 189); stroke-opacity: 1; stroke-width: 3px; opacity: 1; stroke-dasharray: 9px, 9px;"/></g><g class="points"/><g class="text"/></g><g class="trace scatter trace325f62" style="stroke-miterlimit: 2; opacity: 1;"><g class="fills"/><g class="errorbars"/><g class="lines"><path class="js-line" d="M0,234.32H2.93V234.32H5.86V234.32H8.78V234.32H11.71V234.32H14.64V234.32H17.57V234.32H20.5V234.32H23.42V234.32H26.35V234.32H29.28V234.32H32.21V234.32H35.14V234.32H38.06V234.32H40.99V234.32H43.92V234.32H46.85V234.32H49.78V234.32H52.7V234.32H55.63V227.43H58.56V227.5H61.49V227.57H64.42V227.63H67.34V227.7H70.27V227.77H73.2V227.83H76.13V218.7H79.06V218.86H81.98V219.01H84.91V210.42H87.84V206.37H90.77V194.76H93.7V195.15H96.62V183.91H99.55V176.39H102.48V167.18H105.41V157.98H108.34V158.74H111.26V159.49H114.19V160.24H117.12V160.54H120.05V161.27H122.98V152.97H125.9V153.78H128.83V154.58H131.76V142.96H134.69V141.72H137.62V140.76H140.54V131.36H143.47V132.38H146.4V127.47H149.33V128.54H152.26V128.51H155.18V123.47H158.11V289.2H161.04V288.65H163.97V288.11H166.9V287.58H169.82V287.05H172.75V286.52H175.68V286H178.61V285.49H181.54V284.98H184.46V284.48H187.39V283.98H190.32V280.86H193.25V262.36H196.18V254.17H199.1V252.57H202.03V252.39H204.96V235.23H207.89V226.03H210.82V217.29H213.74V217.46H216.67V215.57H219.6V215.76H222.53V207.77H225.46V208.04H228.38V208.3H231.31V208.56H234.24V208.82H237.17V209.07H240.1V199.45H243.02V193.27H245.95V193.68H248.88V194.08H251.81V191.91H254.74V179.55H257.66V179.8H260.59V180.34H263.52V173.62H266.45V156.73H269.38V157.5H272.3V149.24H275.23V150.09H278.16V140.29H281.09V141.23H284.02V127.8H286.94V128.86H289.87V122H292.8V123.12H295.73V124.22H298.66V121.33H301.58V122.46H304.51V111.27H307.44V102.79H310.37V94.91H313.3V90.85H316.22V289.2H319.15V288.65H322.08V288.11H325.01V287.58H327.94V287.05H330.86V286.52H333.79V286H336.72V285.49H339.65V284.98H342.58V284.48H345.5V282.36H348.43V281.88H351.36V279.63H354.29V270.6H357.22V270.24H360.14V269.88H363.07V260.12H366V257.43H368.93V248.17H371.86V239.45H374.78V239.4H377.71V234.18H380.64V224.21H383.57V215.57H386.5V205.26H389.42V181.54H392.35V174.04H395.28V163.19H398.21V163.9H401.14V155.41H404.06V154.79H406.99V155.58H409.92V156.36H412.85V157.14H415.78V137.7H418.7V138.67H421.63V139.62H424.56V135.85H427.49V136.83H430.42V137.8H433.34V138.76H436.27V139.71H439.2V129.58H442.13V130.62H445.06V131.65H447.98V130.62H450.91V131.65H453.84V132.67H456.77V124.66H459.7V125.75H462.62V126.83H465.55V127.9H468.48V102.22H471.41V98.38H474.34V90.98H477.26V82.73H480.19V81.66H483.12V82.1H486.05V81.16H488.98V82.69H491.9V76.94H494.83V78.51H497.76V76.28H500.69V289.2H503.62V288.65H506.54V288.11H509.47V287.58H512.4V287.05H515.33V286.52H518.26V286H521.18V285.49H524.11V284.98H527.04V284.48H529.97V283.98H532.9V283.48H535.82V276.46H538.75V276.04H541.68V264.47H544.61V254.98H547.54V244.17H550.46V244.07H553.39V243.97H556.32V227.95H559.25V218.79H562.18V218.5H565.1V201.75H568.03V193.05H570.96V193.46H573.89V191.28H576.82V191.71H579.74V181.8H582.67V174.22H585.6V174.81H588.53V175.41H591.46V175.99H594.38V169.32H597.31V169.97H600.24V170.61H603.17V171.24H606.1V152.93H609.02V153.74H611.95V151.91H614.88V150.58H617.81V151.42H620.74V143.42H623.66V134.61H626.59V135.18H629.52V131.88H632.45V132.9H635.38V132.14H638.3V125.14H641.23V126.23H644.16V124.86H647.09V116.76H650.02V117.93H652.94V117.46H655.87V102.13H658.8V103.45H661.73V104.75H664.66V103.56H667.58V96.11H670.51V77.55H673.44V79.11H676.37V80.65H679.3V76.56H682.22V78.13H685.15V79.69H688.08V76.06H691.01V70.15H693.94V289.2H696.86V288.65H699.79V288.11H702.72V287.58H705.65V287.05H708.58V286.52H711.5V286H714.43V285.49H717.36V284.98H720.29V284.48H723.22V275.02H726.14V272.47H729.07V272.09" style="vector-effect: non-scaling-stroke; fill: none; stroke: rgb(31, 119, 180); stroke-opacity: 1; stroke-width: 1px; opacity: 1;"/></g><g class="points"/><g class="text"/></g><g class="trace scatter trace08e381" style="stroke-miterlimit: 2; opacity: 1;"><g class="fills"/><g class="errorbars"/><g class="lines"/><g class="points"><path class="point" transform="translate(155.18,123.47)" d="M3,0A3,3 0 1,1 0,-3A3,3 0 0,1 3,0Z" style="opacity: 1; stroke-width: 0px; fill: rgb(255, 127, 14); fill-opacity: 1;"/><path class="point" transform="translate(313.3,90.85)" d="M3,0A3,3 0 1,1 0,-3A3,3 0 0,1 3,0Z" style="opacity: 1; stroke-width: 0px; fill: rgb(255, 127, 14); fill-opacity: 1;"/><path class="point" transform="translate(497.76,76.28)" d="M3,0A3,3 0 1,1 0,-3A3,3 0 0,1 3,0Z" style="opacity: 1; stroke-width: 0px; fill: rgb(255, 127, 14); fill-opacity: 1;"/><path class="point" transform="translate(691.01,70.15)" d="M3,0A3,3 0 1,1 0,-3A3,3 0 0,1 3,0Z" style="opacity: 1; stroke-width: 0px; fill: rgb(255, 127, 14); fill-opacity: 1;"/></g><g class="text"/></g></g></g><g class="overplot"/><path class="xlines-above crisp" d="M87,405.5H820" style="fill: none; stroke-width: 1px; stroke: rgb(36, 36, 36); stroke-opacity: 1;"/><path class="ylines-above crisp" d="M87.5,100V405" style="fill: none; stroke-width: 1px; stroke: rgb(36, 36, 36); stroke-opacity: 1;"/><g class="overlines-above"/><g class="xaxislayer-above"><path class="xtick ticks crisp" d="M0,406v5" transform="translate(88,0)" style="stroke: rgb(68, 68, 68); stroke-opacity: 1; stroke-width: 1px;"/><path class="xtick ticks crisp" d="M0,406v5" transform="translate(234.4,0)" style="stroke: rgb(68, 68, 68); stroke-opacity: 1; stroke-width: 1px;"/><path class="xtick ticks crisp" d="M0,406v5" transform="translate(380.8,0)" style="stroke: rgb(68, 68, 68); stroke-opacity: 1; stroke-width: 1px;"/><path class="xtick ticks crisp" d="M0,406v5" transform="translate(527.2,0)" style="stroke: rgb(68, 68, 68); stroke-opacity: 1; stroke-width: 1px;"/><path class="xtick ticks crisp" d="M0,406v5" transform="translate(673.6,0)" style="stroke: rgb(68, 68, 68); stroke-opacity: 1; stroke-width: 1px;"/><path class="xtick ticks crisp" d="M0,406v5" transform="translate(820,0)" style="stroke: rgb(68, 68, 68); stroke-opacity: 1; stroke-width: 1px;"/><g class="xtick"><text text-anchor="middle" x="0" y="435" transform="translate(88,0)" style="font-family: 'Open Sans', verdana, arial, sans-serif; font-size: 20px; fill: rgb(36, 36, 36); fill-opacity: 1; white-space: pre;">0</text></g><g class="xtick"><text text-anchor="middle" x="0" y="435" transform="translate(234.4,0)" style="font-family: 'Open Sans', verdana, arial, sans-serif; font-size: 20px; fill: rgb(36, 36, 36); fill-opacity: 1; white-space: pre;">50</text></g><g class="xtick"><text text-anchor="middle" x="0" y="435" transform="translate(380.8,0)" style="font-family: 'Open Sans', verdana, arial, sans-serif; font-size: 20px; fill: rgb(36, 36, 36); fill-opacity: 1; white-space: pre;">100</text></g><g class="xtick"><text text-anchor="middle" x="0" y="435" transform="translate(527.2,0)" style="font-family: 'Open Sans', verdana, arial, sans-serif; font-size: 20px; fill: rgb(36, 36, 36); fill-opacity: 1; white-space: pre;">150</text></g><g class="xtick"><text text-anchor="middle" x="0" y="435" transform="translate(673.6,0)" style="font-family: 'Open Sans', verdana, arial, sans-serif; font-size: 20px; fill: rgb(36, 36, 36); fill-opacity: 1; white-space: pre;">200</text></g><g class="xtick"><text text-anchor="middle" x="0" y="435" transform="translate(820,0)" style="font-family: 'Open Sans', verdana, arial, sans-serif; font-size: 20px; fill: rgb(36, 36, 36); fill-opacity: 1; white-space: pre;">250</text></g></g><g class="yaxislayer-above"><path class="ytick ticks crisp" d="M87,0h-5" transform="translate(0,389.75)" style="stroke: rgb(68, 68, 68); stroke-opacity: 1; stroke-width: 1px;"/><path class="ytick ticks crisp" d="M87,0h-5" transform="translate(0,334.32)" style="stroke: rgb(68, 68, 68); stroke-opacity: 1; stroke-width: 1px;"/><path class="ytick ticks crisp" d="M87,0h-5" transform="translate(0,278.9)" style="stroke: rgb(68, 68, 68); stroke-opacity: 1; stroke-width: 1px;"/><path class="ytick ticks crisp" d="M87,0h-5" transform="translate(0,223.47)" style="stroke: rgb(68, 68, 68); stroke-opacity: 1; stroke-width: 1px;"/><path class="ytick ticks crisp" d="M87,0h-5" transform="translate(0,168.05)" style="stroke: rgb(68, 68, 68); stroke-opacity: 1; stroke-width: 1px;"/><path class="ytick ticks crisp" d="M87,0h-5" transform="translate(0,112.62)" style="stroke: rgb(68, 68, 68); stroke-opacity: 1; stroke-width: 1px;"/><g class="ytick"><text text-anchor="end" x="78" y="7" transform="translate(0,389.75)" style="font-family: 'Open Sans', verdana, arial, sans-serif; font-size: 20px; fill: rgb(36, 36, 36); fill-opacity: 1; white-space: pre;">−65</text></g><g class="ytick"><text text-anchor="end" x="78" y="7" transform="translate(0,334.32)" style="font-family: 'Open Sans', verdana, arial, sans-serif; font-size: 20px; fill: rgb(36, 36, 36); fill-opacity: 1; white-space: pre;">−60</text></g><g class="ytick"><text text-anchor="end" x="78" y="7" transform="translate(0,278.9)" style="font-family: 'Open Sans', verdana, arial, sans-serif; font-size: 20px; fill: rgb(36, 36, 36); fill-opacity: 1; white-space: pre;">−55</text></g><g class="ytick"><text text-anchor="end" x="78" y="7" transform="translate(0,223.47)" style="font-family: 'Open Sans', verdana, arial, sans-serif; font-size: 20px; fill: rgb(36, 36, 36); fill-opacity: 1; white-space: pre;">−50</text></g><g class="ytick"><text text-anchor="end" x="78" y="7" transform="translate(0,168.05)" style="font-family: 'Open Sans', verdana, arial, sans-serif; font-size: 20px; fill: rgb(36, 36, 36); fill-opacity: 1; white-space: pre;">−45</text></g><g class="ytick"><text text-anchor="end" x="78" y="7" transform="translate(0,112.62)" style="font-family: 'Open Sans', verdana, arial, sans-serif; font-size: 20px; fill: rgb(36, 36, 36); fill-opacity: 1; white-space: pre;">−40</text></g></g><g class="overaxes-above"/></g></g><g class="polarlayer"/><g class="ternarylayer"/><g class="geolayer"/><g class="funnelarealayer"/><g class="pielayer"/><g class="treemaplayer"/><g class="sunburstlayer"/><g class="glimages"/><defs id="topdefs-97df90"><g class="clips"/><clipPath id="legend97df90"><rect width="561" height="90" x="1" y="1"/></clipPath></defs><g class="layer-above"><g class="imagelayer"/><g class="shapelayer"/></g><g class="infolayer"><g class="legend" pointer-events="all" transform="translate(88,496.5)"><rect class="bg" shape-rendering="crispEdges" width="562" height="91" x="0.5" y="0.5" style="stroke: rgb(5, 5, 25); stroke-opacity: 0; fill: rgb(5, 5, 25); fill-opacity: 0; stroke-width: 1px;"/><g class="scrollbox" transform="" clip-path="url('#legend97df90')"><g class="groups"><g class="traces" transform="translate(1,19.200000000000003)" style="opacity: 1;"><text class="legendtext" text-anchor="start" x="40" y="7.0200000000000005" style="font-family: 'Open Sans', verdana, arial, sans-serif; font-size: 18px; fill: rgb(0, 0, 0); fill-opacity: 1; white-space: pre;">Уровень сброса</text><g class="layers" style="opacity: 0.5;"><g class="legendfill"/><g class="legendlines"><path class="js-line" d="M5,0h30" style="fill: none; stroke: rgb(44, 160, 44); stroke-opacity: 1; stroke-dasharray: 9px, 9px; stroke-width: 3px;"/></g><g class="legendsymbols"><g class="legendpoints"/></g></g><rect class="legendtoggle" x="0" y="-13.200000000000001" width="182.453125" height="26.400000000000002" style="fill: rgb(0, 0, 0); fill-opacity: 0;"/></g><g class="traces" transform="translate(338.734375,19.200000000000003)" style="opacity: 1;"><text class="legendtext" text-anchor="start" x="40" y="7.0200000000000005" style="font-family: 'Open Sans', verdana, arial, sans-serif; font-size: 18px; fill: rgb(0, 0, 0); fill-opacity: 1; white-space: pre;">Порог активации</text><g class="layers" style="opacity: 0.5;"><g class="legendfill"/><g class="legendlines"><path class="js-line" d="M5,0h30" style="fill: none; stroke: rgb(214, 39, 40); stroke-opacity: 1; stroke-dasharray: 9px, 9px; stroke-width: 3px;"/></g><g class="legendsymbols"><g class="legendpoints"/></g></g><rect class="legendtoggle" x="0" y="-13.200000000000001" width="194.28125" height="26.400000000000002" style="fill: rgb(0, 0, 0); fill-opacity: 0;"/></g><g class="traces" transform="translate(1,45.6)" style="opacity: 1;"><text class="legendtext" text-anchor="start" x="40" y="7.0200000000000005" style="font-family: 'Open Sans', verdana, arial, sans-serif; font-size: 18px; fill: rgb(0, 0, 0); fill-opacity: 1; white-space: pre;">Уровень релаксации</text><g class="layers" style="opacity: 0.5;"><g class="legendfill"/><g class="legendlines"><path class="js-line" d="M5,0h30" style="fill: none; stroke: rgb(148, 103, 189); stroke-opacity: 1; stroke-dasharray: 9px, 9px; stroke-width: 3px;"/></g><g class="legendsymbols"><g class="legendpoints"/></g></g><rect class="legendtoggle" x="0" y="-13.200000000000001" width="226.078125" height="26.400000000000002" style="fill: rgb(0, 0, 0); fill-opacity: 0;"/></g><g class="traces" transform="translate(338.734375,45.6)" style="opacity: 1;"><text class="legendtext" text-anchor="start" x="40" y="7.0200000000000005" style="font-family: 'Open Sans', verdana, arial, sans-serif; font-size: 18px; fill: rgb(0, 0, 0); fill-opacity: 1; white-space: pre;">Потенциал нейрона</text><g class="layers" style="opacity: 1;"><g class="legendfill"/><g class="legendlines"><path class="js-line" d="M5,0h30" style="fill: none; stroke: rgb(31, 119, 180); stroke-opacity: 1; stroke-width: 1px;"/></g><g class="legendsymbols"><g class="legendpoints"/></g></g><rect class="legendtoggle" x="0" y="-13.200000000000001" width="220.28125" height="26.400000000000002" style="fill: rgb(0, 0, 0); fill-opacity: 0;"/></g><g class="traces" transform="translate(1,72)" style="opacity: 1;"><text class="legendtext" text-anchor="start" x="40" y="7.0200000000000005" style="font-family: 'Open Sans', verdana, arial, sans-serif; font-size: 18px; fill: rgb(0, 0, 0); fill-opacity: 1; white-space: pre;">Моменты спайков этого нейрона</text><g class="layers" style="opacity: 1;"><g class="legendfill"/><g class="legendlines"/><g class="legendsymbols"><g class="legendpoints"><path class="scatterpts" transform="translate(20,0)" d="M3,0A3,3 0 1,1 0,-3A3,3 0 0,1 3,0Z" style="opacity: 1; stroke-width: 0px; fill: rgb(255, 127, 14); fill-opacity: 1;"/></g></g></g><rect class="legendtoggle" x="0" y="-13.200000000000001" width="335.234375" height="26.400000000000002" style="fill: rgb(0, 0, 0); fill-opacity: 0;"/></g></g></g><rect class="scrollbar" rx="20" ry="3" width="0" height="0" x="0" y="0" style="fill: rgb(128, 139, 164); fill-opacity: 1;"/></g><g class="g-gtitle"/><g class="g-xtitle"><text class="xtitle" x="454" y="472.8" text-anchor="middle" style="font-family: 'Open Sans', verdana, arial, sans-serif; font-size: 24px; fill: rgb(36, 36, 36); opacity: 1; font-weight: normal; white-space: pre;">Время, мс</text></g><g class="g-ytitle" transform="translate(14.1123046875,0)"><text class="ytitle" transform="rotate(-90,11.887500000000003,252.5)" x="11.887500000000003" y="252.5" text-anchor="middle" style="font-family: 'Open Sans', verdana, arial, sans-serif; font-size: 24px; fill: rgb(36, 36, 36); opacity: 1; font-weight: normal; white-space: pre;">Напряжение, мВ</text></g></g></svg>