<svg class="main-svg" xmlns="http://www.w3.org/2000/svg" xmlns:xlink="http://www.w3.org/1999/xlink" width="900" height="600" style="" viewBox="0 0 900 600"><rect x="0" y="0" width="900" height="600" style="fill: rgb(255, 255, 255); fill-opacity: 1;"/><defs id="defs-e126e7"><g class="clips"><clipPath id="clipe126e7xyplot" class="plotclip"><rect width="732" height="325"/></clipPath><clipPath class="axesclip" id="clipe126e7x"><rect x="88" y="0" width="732" height="600"/></clipPath><clipPath class="axesclip" id="clipe126e7y"><rect x="0" y="100" width="900" height="325"/></clipPath><clipPath class="axesclip" id="clipe126e7xy"><rect x="88" y="100" width="732" height="325"/></clipPath></g><g class="gradients"/></defs><g class="bglayer"/><g class="layer-below"><g class="imagelayer"/><g class="shapelayer"/></g><g class="cartesianlayer"><g class="subplot xy"><g class="layer-subplot"><g class="shapelayer"/><g class="imagelayer"/></g><g class="gridlayer"><g class="x"/><g class="y"/></g><g class="zerolinelayer"/><path class="xlines-below"/><path class="ylines-below"/><g class="overlines-below"/><g class="xaxislayer-below"/><g class="yaxislayer-below"/><g class="overaxes-below"/><g class="plot" transform="translate(88,100)" clip-path="url('#clipe126e7xyplot')"><g class="scatterlayer mlayer"><g class="trace scatter trace918dcb" style="stroke-miterlimit: 2; opacity: 0.5;"><g class="fills"/><g class="errorbars"/><g class="lines"><path class="js-line" d="M0,308.75H732V308.75" style="vector-effect: non-scaling-stroke; fill: none; stroke: rgb(44, 160, 44); stroke-opacity: 1; stroke-width: 3px; opacity: 1; stroke-dasharray: 9px, 9px;"/></g><g class="points"/><g class="text"/></g><g class="trace scatter trace9d417d" style="stroke-miterlimit: 2; opacity: 0.5;"><g class="fills"/><g class="errorbars"/><g class="lines"><path class="js-line" d="M0,20H2.93V20H5.86V20H8.78V20H11.71V20H14.64V20H17.57V20H20.5V20H23.42V20H26.35V20H29.28V20H32.21V20H35.14V20H38.06V20H40.99V20H43.92V20H46.85V20H49.78V20H52.7V20H55.63V20H58.56V20H61.49V20H64.42V20H67.34V20H70.27V20H73.2V20H76.13V20H79.06V20H81.98V20H84.91V20H87.84V20H90.77V20H93.7V20H96.62V20H99.55V20H102.48V20H105.41V20H108.34V20H111.26V20H114.19V20H117.12V20H120.05V20H122.98V20H125.9V20H128.83V20H131.76V20H134.69V20H137.62V20H140.54V20H143.47V20H146.4V20H149.33V20H152.26V20H155.18V20H158.11V20H161.04V20H163.97V20H166.9V20H169.82V20H172.75V20H175.68V20H178.61V20H181.54V20H184.46V20H187.39V20H190.32V20H193.25V20H196.18V20H199.1V20H202.03V20H204.96V20H207.89V20H210.82V20H213.74V20H216.67V20H219.6V20H222.53V20H225.46V20H228.38V20H231.31V20H234.24V20H237.17V20H240.1V20H243.02V20H245.95V20H248.88V20H251.81V20H254.74V20H257.66V20H260.59V20H263.52V20H266.45V20H269.38V20H272.3V20H275.23V20H278.16V20H281.09V20H284.02V20H286.94V20H289.87V20H292.8V20H295.73V20H298.66V20H301.58V20H304.51V20H307.44V20H310.37V20H313.3V20H316.22V20H319.15V20H322.08V20H325.01V20H327.94V20H330.86V20H333.79V20H336.72V20H339.65V20H342.58V20H345.5V20H348.43V20H351.36V20H354.29V20H357.22V20H360.14V20H363.07V20H366V20H368.93V20H371.86V20H374.78V20H377.71V20H380.64V20H383.57V20H386.5V20H389.42V20H392.35V20H395.28V20H398.21V20H401.14V20H404.06V20H406.99V20H409.92V20H412.85V20H415.78V20H418.7V20H421.63V20H424.56V20H427.49V20H430.42V20H433.34V20H436.27V20H439.2V20H442.13V20H445.06V20H447.98V20H450.91V20H453.84V20H456.77V20H459.7V20H462.62V20H465.55V20H468.48V20H471.41V20H474.34V20H477.26V20H480.19V20H483.12V20H486.05V20H488.98V20H491.9V20H494.83V20H497.76V20H500.69V20H503.62V20H506.54V20H509.47V20H512.4V20H515.33V20H518.26V20H521.18V20H524.11V20H527.04V20H529.97V20H532.9V20H535.82V20H538.75V20H541.68V20H544.61V20H547.54V20H550.46V20H553.39V20H556.32V20H559.25V20H562.18V20H565.1V20H568.03V20H570.96V20H573.89V20H576.82V20H579.74V20H582.67V20H585.6V20H588.53V20H591.46V20H594.38V20H597.31V20H600.24V20H603.17V20H606.1V20H609.02V20H611.95V20H614.88V20H617.81V20H620.74V20H623.66V20H626.59V20H629.52V20H632.45V20H635.38V20H638.3V20H641.23V20H644.16V20H647.09V20H650.02V20H652.94V20H655.87V20H658.8V20H661.73V20H664.66V20H667.58V20H670.51V20H673.44V20H676.37V20H679.3V20H682.22V20H685.15V20H688.08V20H691.01V20H693.94V20H696.86V20H699.79V20H702.72V20H705.65V20H708.58V20H711.5V20H714.43V20H717.36V20H720.29V20H723.22V20H726.14V20H729.07V20" style="vector-effect: non-scaling-stroke; fill: none; stroke: rgb(214, 39, 40); stroke-opacity: 1; stroke-width: 3px; opacity: 1; stroke-dasharray: 9px, 9px;"/></g><g class="points"/><g class="text"/></g><g class="trace scatter trace5ac711" style="stroke-miterlimit: 2; opacity: 1;"><g class="fills"/><g class="errorbars"/><g class="lines"><path class="js-line" d="M0,308.75H2.93V308.75H5.86V308.75H8.78V308.75H11.71V308.75H14.64V308.75H17.57V308.75H20.5V308.75H23.42V308.75H26.35V308.75H29.28V308.75H32.21V308.75H35.14V308.75H38.06V308.75H40.99V308.75H43.92V308.75H46.85V308.75H49.78V308.75H52.7V308.75H55.63V303.3H58.56V303.3H61.49V303.3H64.42V303.3H67.34V303.3H70.27V303.3H73.2V303.3H76.13V295.7H79.06V295.7H81.98V295.7H84.91V278.37H87.84V276.86H90.77V258.09H93.7V258.09H96.62V235.79H99.55V225.92H102.48V213.32H105.41V195.8H108.34V195.8H111.26V195.8H114.19V195.8H117.12V188.46H120.05V188.46H122.98V169.4H125.9V169.4H128.83V169.4H131.76V158.15H134.69V148.04H137.62V142.49H140.54V123.61H143.47V123.61H146.4V100.82H149.33V100.82H152.26V82.58H155.18V73.63H158.11V54.43H161.04V54.43H163.97V54.43H166.9V54.43H169.82V32.02H172.75V22.9H175.68V20H178.61V308.75H181.54V308.75H184.46V308.75H187.39V308.75H190.32V308.75H193.25V308.75H196.18V308.75H199.1V308.75H202.03V308.75H204.96V308.75H207.89V301.15H210.82V295.33H213.74V295.33H216.67V284H219.6V284H222.53V275.4H225.46V275.4H228.38V275.4H231.31V275.4H234.24V275.4H237.17V275.4H240.1V257.87H243.02V253.1H245.95V253.1H248.88V253.1H251.81V236.55H254.74V198.48H257.66V192.54H260.59V192.54H263.52V185.6H266.45V163.41H269.38V163.41H272.3V144.35H275.23V144.35H278.16V121.45H281.09V121.45H284.02V114.04H286.94V114.04H289.87V105.64H292.8V105.64H295.73V105.64H298.66V95.26H301.58V95.26H304.51V83.89H307.44V66.98H310.37V59.38H313.3V50.78H316.22V32.54H319.15V23.59H322.08V23.59H325.01V23.59H327.94V23.59H330.86V23.59H333.79V23.59H336.72V20H339.65V308.75H342.58V308.75H345.5V308.75H348.43V308.75H351.36V308.75H354.29V308.75H357.22V308.75H360.14V308.75H363.07V308.75H366V308.75H368.93V289.68H371.86V274.11H374.78V274.11H377.71V269.81H380.64V251.4H383.57V234.06H386.5V220.59H389.42V194.21H392.35V184.34H395.28V167.64H398.21V167.64H401.14V164.53H404.06V159.24H406.99V159.24H409.92V159.24H412.85V159.24H415.78V122.83H418.7V122.83H421.63V122.83H424.56V114.89H427.49V114.89H430.42V114.89H433.34V114.89H436.27V114.89H439.2V101.73H442.13V101.73H445.06V101.73H447.98V90.41H450.91V90.41H453.84V90.41H456.77V71.34H459.7V71.34H462.62V71.34H465.55V71.34H468.48V24.72H471.41V20.41H474.34V20H477.26V308.75H480.19V308.75H483.12V308.75H486.05V308.75H488.98V308.75H491.9V308.75H494.83V308.75H497.76V308.75H500.69V308.75H503.62V308.75H506.54V308.75H509.47V291.23H512.4V277.25H515.33V260.4H518.26V260.4H521.18V258.89H524.11V253.6H527.04V253.6H529.97V253.6H532.9V253.6H535.82V248.82H538.75V248.82H541.68V234.28H544.61V226.68H547.54V209.94H550.46V209.94H553.39V209.94H556.32V191.68H559.25V164.18H562.18V156.85H565.1V130.9H568.03V111.84H570.96V111.84H573.89V106.76H576.82V106.76H579.74V87.87H582.67V78.92H585.6V78.92H588.53V78.92H591.46V78.92H594.38V71.98H597.31V71.98H600.24V71.98H603.17V71.98H606.1V37.52H609.02V37.52H611.95V26.64H614.88V20H617.81V308.75H620.74V308.75H623.66V308.75H626.59V308.75H629.52V308.75H632.45V308.75H635.38V308.75H638.3V308.75H641.23V308.75H644.16V308.75H647.09V305.64H650.02V305.64H652.94V301.65H655.87V290.73H658.8V290.73H661.73V290.73H664.66V267.2H667.58V249.86H670.51V228.57H673.44V228.57H676.37V228.57H679.3V211.72H682.22V211.72H685.15V211.72H688.08V207.41H691.01V188.34H693.94V181.01H696.86V163.48H699.79V158.04H702.72V158.04H705.65V158.04H708.58V158.04H711.5V151.1H714.43V151.1H717.36V151.1H720.29V151.1H723.22V138.77H726.14V128.67H729.07V128.67" style="vector-effect: non-scaling-stroke; fill: none; stroke: rgb(31, 119, 180); stroke-opacity: 1; stroke-width: 1px; opacity: 1;"/></g><g class="points"/><g class="text"/></g><g class="trace scatter trace13b203" style="stroke-miterlimit: 2; opacity: 1;"><g class="fills"/><g class="errorbars"/><g class="lines"/><g class="points"><path class="point" transform="translate(175.68,20)" d="M3,0A3,3 0 1,1 0,-3A3,3 0 0,1 3,0Z" style="opacity: 1; stroke-width: 0px; fill: rgb(255, 127, 14); fill-opacity: 1;"/><path class="point" transform="translate(336.72,20)" d="M3,0A3,3 0 1,1 0,-3A3,3 0 0,1 3,0Z" style="opacity: 1; stroke-width: 0px; fill: rgb(255, 127, 14); fill-opacity: 1;"/><path class="point" transform="translate(474.34,20)" d="M3,0A3,3 0 1,1 0,-3A3,3 0 0,1 3,0Z" style="opacity: 1; stroke-width: 0px; fill: rgb(255, 127, 14); fill-opacity: 1;"/><path class="point" transform="translate(614.88,20)" d="M3,0A3,3 0 1,1 0,-3A3,3 0 0,1 3,0Z" style="opacity: 1; stroke-width: 0px; fill: rgb(255, 127, 14); fill-opacity: 1;"/></g><g class="text"/></g></g></g><g class="overplot"/><path class="xlines-above crisp" d="M87,425.5H820" style="fill: none; stroke-width: 1px; stroke: rgb(36, 36, 36); stroke-opacity: 1;"/><path class="ylines-above crisp" d="M87.5,100V425" style="fill: none; stroke-width: 1px; stroke: rgb(36, 36, 36); stroke-opacity: 1;"/><g class="overlines-above"/><g class="xaxislayer-above"><path class="xtick ticks crisp" d="M0,426v5" transform="translate(88,0)" style="stroke: rgb(68, 68, 68); stroke-opacity: 1; stroke-width: 1px;"/><path class="xtick ticks crisp" d="M0,426v5" transform="translate(234.4,0)" style="stroke: rgb(68, 68, 68); stroke-opacity: 1; stroke-width: 1px;"/><path class="xtick ticks crisp" d="M0,426v5" transform="translate(380.8,0)" style="stroke: rgb(68, 68, 68); stroke-opacity: 1; stroke-width: 1px;"/><path class="xtick ticks crisp" d="M0,426v5" transform="translate(527.2,0)" style="stroke: rgb(68, 68, 68); stroke-opacity: 1; stroke-width: 1px;"/><path class="xtick ticks crisp" d="M0,426v5" transform="translate(673.6,0)" style="stroke: rgb(68, 68, 68); stroke-opacity: 1; stroke-width: 1px;"/><path class="xtick ticks crisp" d="M0,426v5" transform="translate(820,0)" style="stroke: rgb(68, 68, 68); stroke-opacity: 1; stroke-width: 1px;"/><g class="xtick"><text text-anchor="middle" x="0" y="455" transform="translate(88,0)" style="font-family: 'Open Sans', verdana, arial, sans-serif; font-size: 20px; fill: rgb(36, 36, 36); fill-opacity: 1; white-space: pre;">0</text></g><g class="xtick"><text text-anchor="middle" x="0" y="455" transform="translate(234.4,0)" style="font-family: 'Open Sans', verdana, arial, sans-serif; font-size: 20px; fill: rgb(36, 36, 36); fill-opacity: 1; white-space: pre;">50</text></g><g class="xtick"><text text-anchor="middle" x="0" y="455" transform="translate(380.8,0)" style="font-family: 'Open Sans', verdana, arial, sans-serif; font-size: 20px; fill: rgb(36, 36, 36); fill-opacity: 1; white-space: pre;">100</text></g><g class="xtick"><text text-anchor="middle" x="0" y="455" transform="translate(527.2,0)" style="font-family: 'Open Sans', verdana, arial, sans-serif; font-size: 20px; fill: rgb(36, 36, 36); fill-opacity: 1; white-space: pre;">150</text></g><g class="xtick"><text text-anchor="middle" x="0" y="455" transform="translate(673.6,0)" style="font-family: 'Open Sans', verdana, arial, sans-serif; font-size: 20px; fill: rgb(36, 36, 36); fill-opacity: 1; white-space: pre;">200</text></g><g class="xtick"><text text-anchor="middle" x="0" y="455" transform="translate(820,0)" style="font-family: 'Open Sans', verdana, arial, sans-serif; font-size: 20px; fill: rgb(36, 36, 36); fill-opacity: 1; white-space: pre;">250</text></g></g><g class="yaxislayer-above"><path class="ytick ticks crisp" d="M87,0h-5" transform="translate(0,389.5)" style="stroke: rgb(68, 68, 68); stroke-opacity: 1; stroke-width: 1px;"/><path class="ytick ticks crisp" d="M87,0h-5" transform="translate(0,351)" style="stroke: rgb(68, 68, 68); stroke-opacity: 1; stroke-width: 1px;"/><path class="ytick ticks crisp" d="M87,0h-5" transform="translate(0,312.5)" style="stroke: rgb(68, 68, 68); stroke-opacity: 1; stroke-width: 1px;"/><path class="ytick ticks crisp" d="M87,0h-5" transform="translate(0,274)" style="stroke: rgb(68, 68, 68); stroke-opacity: 1; stroke-width: 1px;"/><path class="ytick ticks crisp" d="M87,0h-5" transform="translate(0,235.5)" style="stroke: rgb(68, 68, 68); stroke-opacity: 1; stroke-width: 1px;"/><path class="ytick ticks crisp" d="M87,0h-5" transform="translate(0,197)" style="stroke: rgb(68, 68, 68); stroke-opacity: 1; stroke-width: 1px;"/><path class="ytick ticks crisp" d="M87,0h-5" transform="translate(0,158.5)" style="stroke: rgb(68, 68, 68); stroke-opacity: 1; stroke-width: 1px;"/><path class="ytick ticks crisp" d="M87,0h-5" transform="translate(0,120)" style="stroke: rgb(68, 68, 68); stroke-opacity: 1; stroke-width: 1px;"/><g class="ytick"><text text-anchor="end" x="78" y="7" transform="translate(0,389.5)" style="font-family: 'Open Sans', verdana, arial, sans-serif; font-size: 20px; fill: rgb(36, 36, 36); fill-opacity: 1; white-space: pre;">−64</text></g><g class="ytick"><text text-anchor="end" x="78" y="7" transform="translate(0,351)" style="font-family: 'Open Sans', verdana, arial, sans-serif; font-size: 20px; fill: rgb(36, 36, 36); fill-opacity: 1; white-space: pre;">−62</text></g><g class="ytick"><text text-anchor="end" x="78" y="7" transform="translate(0,312.5)" style="font-family: 'Open Sans', verdana, arial, sans-serif; font-size: 20px; fill: rgb(36, 36, 36); fill-opacity: 1; white-space: pre;">−60</text></g><g class="ytick"><text text-anchor="end" x="78" y="7" transform="translate(0,274)" style="font-family: 'Open Sans', verdana, arial, sans-serif; font-size: 20px; fill: rgb(36, 36, 36); fill-opacity: 1; white-space: pre;">−58</text></g><g class="ytick"><text text-anchor="end" x="78" y="7" transform="translate(0,235.5)" style="font-family: 'Open Sans', verdana, arial, sans-serif; font-size: 20px; fill: rgb(36, 36, 36); fill-opacity: 1; white-space: pre;">−56</text></g><g class="ytick"><text text-anchor="end" x="78" y="7" transform="translate(0,197)" style="font-family: 'Open Sans', verdana, arial, sans-serif; font-size: 20px; fill: rgb(36, 36, 36); fill-opacity: 1; white-space: pre;">−54</text></g><g class="ytick"><text text-anchor="end" x="78" y="7" transform="translate(0,158.5)" style="font-family: 'Open Sans', verdana, arial, sans-serif; font-size: 20px; fill: rgb(36, 36, 36); fill-opacity: 1; white-space: pre;">−52</text></g><g class="ytick"><text text-anchor="end" x="78" y="7" transform="translate(0,120)" style="font-family: 'Open Sans', verdana, arial, sans-serif; font-size: 20px; fill: rgb(36, 36, 36); fill-opacity: 1; white-space: pre;">−50</text></g></g><g class="overaxes-above"/></g></g><g class="polarlayer"/><g class="ternarylayer"/><g class="geolayer"/><g class="funnelarealayer"/><g class="pielayer"/><g class="treemaplayer"/><g class="sunburstlayer"/><g class="glimages"/><defs id="topdefs-e126e7"><g class="clips"/><clipPath id="legende126e7"><rect width="676" height="63" x="1" y="1"/></clipPath></defs><g class="layer-above"><g class="imagelayer"/><g class="shapelayer"/></g><g class="infolayer"><g class="legend" pointer-events="all" transform="translate(88,522.5)"><rect class="bg" shape-rendering="crispEdges" width="677" height="64" x="0.5" y="0.5" style="stroke: rgb(5, 5, 25); stroke-opacity: 0; fill: rgb(5, 5, 25); fill-opacity: 0; stroke-width: 1px;"/><g class="scrollbox" transform="" clip-path="url('#legende126e7')"><g class="groups"><g class="traces" transform="translate(1,19.200000000000003)" style="opacity: 1;"><text class="legendtext" text-anchor="start" x="40" y="7.0200000000000005" style="font-family: 'Open Sans', verdana, arial, sans-serif; font-size: 18px; fill: rgb(0, 0, 0); fill-opacity: 1; white-space: pre;">Уровень сброса</text><g class="layers" style="opacity: 0.5;"><g class="legendfill"/><g class="legendlines"><path class="js-line" d="M5,0h30" style="fill: none; stroke: rgb(44, 160, 44); stroke-opacity: 1; stroke-dasharray: 9px, 9px; stroke-width: 3px;"/></g><g class="legendsymbols"><g class="legendpoints"/></g></g><rect class="legendtoggle" x="0" y="-13.200000000000001" width="182.453125" height="26.400000000000002" style="fill: rgb(0, 0, 0); fill-opacity: 0;"/></g><g class="traces" transform="translate(338.734375,19.200000000000003)" style="opacity: 1;"><text class="legendtext" text-anchor="start" x="40" y="7.0200000000000005" style="font-family: 'Open Sans', verdana, arial, sans-serif; font-size: 18px; fill: rgb(0, 0, 0); fill-opacity: 1; white-space: pre;">Порог активации</text><g class="layers" style="opacity: 0.5;"><g class="legendfill"/><g class="legendlines"><path class="js-line" d="M5,0h30" style="fill: none; stroke: rgb(214, 39, 40); stroke-opacity: 1; stroke-dasharray: 9px, 9px; stroke-width: 3px;"/></g><g class="legendsymbols"><g class="legendpoints"/></g></g><rect class="legendtoggle" x="0" y="-13.200000000000001" width="194.28125" height="26.400000000000002" style="fill: rgb(0, 0, 0); fill-opacity: 0;"/></g><g class="traces" transform="translate(1,45.6)" style="opacity: 1;"><text class="legendtext" text-anchor="start" x="40" y="7.0200000000000005" style="font-family: 'Open Sans', verdana, arial, sans-serif; font-size: 18px; fill: rgb(0, 0, 0); fill-opacity: 1; white-space: pre;">Потенциал нейрона</text><g class="layers" style="opacity: 1;"><g class="legendfill"/><g class="legendlines"><path class="js-line" d="M5,0h30" style="fill: none; stroke: rgb(31, 119, 180); stroke-opacity: 1; stroke-width: 1px;"/></g><g class="legendsymbols"><g class="legendpoints"/></g></g><rect class="legendtoggle" x="0" y="-13.200000000000001" width="220.28125" height="26.400000000000002" style="fill: rgb(0, 0, 0); fill-opacity: 0;"/></g><g class="traces" transform="translate(338.734375,45.6)" style="opacity: 1;"><text class="legendtext" text-anchor="start" x="40" y="7.0200000000000005" style="font-family: 'Open Sans', verdana, arial, sans-serif; font-size: 18px; fill: rgb(0, 0, 0); fill-opacity: 1; white-space: pre;">Моменты спайков этого нейрона</text><g class="layers" style="opacity: 1;"><g class="legendfill"/><g class="legendlines"/><g class="legendsymbols"><g class="legendpoints"><path class="scatterpts" transform="translate(20,0)" d="M3,0A3,3 0 1,1 0,-3A3,3 0 0,1 3,0Z" style="opacity: 1; stroke-width: 0px; fill: rgb(255, 127, 14); fill-opacity: 1;"/></g></g></g><rect class="legendtoggle" x="0" y="-13.200000000000001" width="335.234375" height="26.400000000000002" style="fill: rgb(0, 0, 0); fill-opacity: 0;"/></g></g></g><rect class="scrollbar" rx="20" ry="3" width="0" height="0" x="0" y="0" style="fill: rgb(128, 139, 164); fill-opacity: 1;"/></g><g class="g-gtitle"/><g class="g-xtitle"><text class="xtitle" x="454" y="492.8" text-anchor="middle" style="font-family: 'Open Sans', verdana, arial, sans-serif; font-size: 24px; fill: rgb(36, 36, 36); opacity: 1; font-weight: normal; white-space: pre;">Время, мс</text></g><g class="g-ytitle" transform="translate(14.1123046875,0)"><text class="ytitle" transform="rotate(-90,11.887500000000003,262.5)" x="11.887500000000003" y="262.5" text-anchor="middle" style="font-family: 'Open Sans', verdana, arial, sans-serif; font-size: 24px; fill: rgb(36, 36, 36); opacity: 1; font-weight: normal; white-space: pre;">Напряжение, мВ</text></g></g></svg>