<svg class="main-svg" xmlns="http://www.w3.org/2000/svg" xmlns:xlink="http://www.w3.org/1999/xlink" width="900" height="600" style="" viewBox="0 0 900 600"><rect x="0" y="0" width="900" height="600" style="fill: rgb(255, 255, 255); fill-opacity: 1;"/><defs id="defs-6bd52b"><g class="clips"><clipPath id="clip6bd52bxyplot" class="plotclip"><rect width="732" height="325"/></clipPath><clipPath class="axesclip" id="clip6bd52bx"><rect x="88" y="0" width="732" height="600"/></clipPath><clipPath class="axesclip" id="clip6bd52by"><rect x="0" y="100" width="900" height="325"/></clipPath><clipPath class="axesclip" id="clip6bd52bxy"><rect x="88" y="100" width="732" height="325"/></clipPath></g><g class="gradients"/></defs><g class="bglayer"/><g class="layer-below"><g class="imagelayer"/><g class="shapelayer"/></g><g class="cartesianlayer"><g class="subplot xy"><g class="layer-subplot"><g class="shapelayer"/><g class="imagelayer"/></g><g class="gridlayer"><g class="x"/><g class="y"/></g><g class="zerolinelayer"/><path class="xlines-below"/><path class="ylines-below"/><g class="overlines-below"/><g class="xaxislayer-below"/><g class="yaxislayer-below"/><g class="overaxes-below"/><g class="plot" transform="translate(88,100)" clip-path="url('#clip6bd52bxyplot')"><g class="scatterlayer mlayer"><g class="trace scatter trace8cfdb9" style="stroke-miterlimit: 2; opacity: 0.5;"><g class="fills"/><g class="errorbars"/><g class="lines"><path class="js-line" d="M0,308.75H732V308.75" style="vector-effect: non-scaling-stroke; fill: none; stroke: rgb(44, 160, 44); stroke-opacity: 1; stroke-width: 3px; opacity: 1; stroke-dasharray: 9px, 9px;"/></g><g class="points"/><g class="text"/></g><g class="trace scatter tracedf2c01" style="stroke-miterlimit: 2; opacity: 0.5;"><g class="fills"/><g class="errorbars"/><g class="lines"><path class="js-line" d="M0,131.57H2.93V131.57H5.86V131.57H8.78V131.57H11.71V131.57H14.64V131.57H17.57V131.57H20.5V131.57H23.42V131.57H26.35V131.57H29.28V131.57H32.21V131.57H35.14V131.57H38.06V131.57H40.99V131.57H43.92V131.57H46.85V131.57H49.78V131.57H52.7V131.57H55.63V131.57H58.56V131.57H61.49V131.57H64.42V131.57H67.34V131.57H70.27V131.57H73.2V131.57H76.13V131.57H79.06V131.57H81.98V131.57H84.91V131.57H87.84V131.57H90.77V131.57H93.7V131.57H96.62V131.57H99.55V131.57H102.48V131.57H105.41V131.57H108.34V131.57H111.26V131.57H114.19V131.57H117.12V131.57H120.05V131.57H122.98V131.57H125.9V131.57H128.83V131.57H131.76V131.57H134.69V131.57H137.62V131.57H140.54V131.57H143.47V131.57H146.4V131.57H149.33V131.57H152.26V131.57H155.18V72.51H158.11V73.1H161.04V73.68H163.97V74.25H166.9V74.82H169.82V75.39H172.75V75.95H175.68V76.5H178.61V77.05H181.54V77.59H184.46V78.13H187.39V78.66H190.32V79.19H193.25V79.71H196.18V80.22H199.1V80.73H202.03V81.24H204.96V81.74H207.89V82.24H210.82V82.73H213.74V83.21H216.67V83.69H219.6V84.17H222.53V84.64H225.46V85.11H228.38V85.57H231.31V86.03H234.24V86.48H237.17V86.93H240.1V87.38H243.02V87.81H245.95V88.25H248.88V88.68H251.81V89.11H254.74V89.53H257.66V89.95H260.59V90.36H263.52V90.77H266.45V91.18H269.38V91.58H272.3V91.98H275.23V92.37H278.16V92.76H281.09V93.15H284.02V93.53H286.94V93.91H289.87V94.28H292.8V94.66H295.73V95.02H298.66V95.39H301.58V95.75H304.51V96.1H307.44V96.46H310.37V96.8H313.3V38.09H316.22V39.02H319.15V39.94H322.08V40.85H325.01V41.76H327.94V42.65H330.86V43.53H333.79V44.41H336.72V45.28H339.65V46.14H342.58V46.99H345.5V47.83H348.43V48.66H351.36V49.49H354.29V50.3H357.22V51.11H360.14V51.91H363.07V52.7H366V53.49H368.93V54.27H371.86V55.03H374.78V55.8H377.71V56.55H380.64V57.3H383.57V58.04H386.5V58.77H389.42V59.49H392.35V60.21H395.28V60.92H398.21V61.62H401.14V62.32H404.06V63.01H406.99V63.69H409.92V64.36H412.85V65.03H415.78V65.7H418.7V66.35H421.63V67H424.56V67.64H427.49V68.28H430.42V68.91H433.34V69.53H436.27V70.15H439.2V70.76H442.13V71.36H445.06V71.96H447.98V72.56H450.91V73.14H453.84V73.73H456.77V74.3H459.7V74.87H462.62V75.43H465.55V75.99H468.48V76.55H471.41V77.09H474.34V77.64H477.26V78.17H480.19V78.7H483.12V79.23H486.05V79.75H488.98V80.27H491.9V80.78H494.83V81.28H497.76V22.72H500.69V23.8H503.62V24.88H506.54V25.94H509.47V26.99H512.4V28.03H515.33V29.06H518.26V30.08H521.18V31.09H524.11V32.09H527.04V33.08H529.97V34.06H532.9V35.03H535.82V35.99H538.75V36.94H541.68V37.88H544.61V38.82H547.54V39.74H550.46V40.65H553.39V41.56H556.32V42.45H559.25V43.34H562.18V44.22H565.1V45.09H568.03V45.95H570.96V46.8H573.89V47.64H576.82V48.48H579.74V49.3H582.67V50.12H585.6V50.93H588.53V51.74H591.46V52.53H594.38V53.32H597.31V54.09H600.24V54.87H603.17V55.63H606.1V56.38H609.02V57.13H611.95V57.87H614.88V58.61H617.81V59.33H620.74V60.05H623.66V60.76H626.59V61.47H629.52V62.16H632.45V62.86H635.38V63.54H638.3V64.22H641.23V64.89H644.16V65.55H647.09V66.21H650.02V66.86H652.94V67.5H655.87V68.14H658.8V68.77H661.73V69.39H664.66V70.01H667.58V70.63H670.51V71.23H673.44V71.83H676.37V72.43H679.3V73.01H682.22V73.6H685.15V74.17H688.08V74.75H691.01V16.25H693.94V17.4H696.86V18.53H699.79V19.66H702.72V20.77H705.65V21.87H708.58V22.97H711.5V24.05H714.43V25.12H717.36V26.18H720.29V27.22H723.22V28.26H726.14V29.29H729.07V30.31" style="vector-effect: non-scaling-stroke; fill: none; stroke: rgb(214, 39, 40); stroke-opacity: 1; stroke-width: 3px; opacity: 1; stroke-dasharray: 9px, 9px;"/></g><g class="points"/><g class="text"/></g><g class="trace scatter trace553b61" style="stroke-miterlimit: 2; opacity: 0.5;"><g class="fills"/><g class="errorbars"/><g class="lines"><path class="js-line" d="M0,249.69H732V249.69" style="vector-effect: non-scaling-stroke; fill: none; stroke: rgb(148, 103, 189); stroke-opacity: 1; stroke-width: 3px; opacity: 1; stroke-dasharray: 9px, 9px;"/></g><g class="points"/><g class="text"/></g><g class="trace scatter trace69187c" style="stroke-miterlimit: 2; opacity: 1;"><g class="fills"/><g class="errorbars"/><g class="lines"><path class="js-line" d="M0,249.69H2.93V249.69H5.86V249.69H8.78V249.69H11.71V249.69H14.64V249.69H17.57V249.69H20.5V249.69H23.42V249.69H26.35V249.69H29.28V249.69H32.21V249.69H35.14V249.69H38.06V249.69H40.99V249.69H43.92V249.69H46.85V249.69H49.78V249.69H52.7V249.69H55.63V242.34H58.56V242.42H61.49V242.49H64.42V242.56H67.34V242.63H70.27V242.7H73.2V242.77H76.13V233.05H79.06V233.21H81.98V233.38H84.91V224.22H87.84V219.91H90.77V207.53H93.7V207.95H96.62V195.97H99.55V187.96H102.48V178.14H105.41V168.34H108.34V169.15H111.26V169.95H114.19V170.74H117.12V171.06H120.05V171.84H122.98V163H125.9V163.87H128.83V164.72H131.76V152.34H134.69V151.01H137.62V149.99H140.54V139.97H143.47V141.06H146.4V135.83H149.33V136.97H152.26V136.94H155.18V131.57H158.11V308.16H161.04V307.58H163.97V307H166.9V306.43H169.82V305.87H172.75V305.31H175.68V304.76H178.61V304.21H181.54V303.67H184.46V303.13H187.39V302.6H190.32V299.27H193.25V279.57H196.18V270.84H199.1V269.13H202.03V268.94H204.96V250.66H207.89V240.86H210.82V231.54H213.74V231.72H216.67V229.71H219.6V229.9H222.53V221.4H225.46V221.68H228.38V221.96H231.31V222.23H234.24V222.51H237.17V222.78H240.1V212.53H243.02V205.94H245.95V206.38H248.88V206.81H251.81V204.49H254.74V191.33H257.66V191.59H260.59V192.16H263.52V185.01H266.45V167H269.38V167.83H272.3V159.02H275.23V159.93H278.16V149.49H281.09V150.49H284.02V136.18H286.94V137.31H289.87V130H292.8V131.19H295.73V132.37H298.66V129.29H301.58V130.49H304.51V118.57H307.44V109.53H310.37V101.13H313.3V96.8H316.22V308.16H319.15V307.58H322.08V307H325.01V306.43H327.94V305.87H330.86V305.31H333.79V304.76H336.72V304.21H339.65V303.67H342.58V303.13H345.5V300.87H348.43V300.36H351.36V297.97H354.29V288.34H357.22V287.96H360.14V287.58H363.07V277.18H366V274.31H368.93V264.45H371.86V255.15H374.78V255.09H377.71V249.54H380.64V238.92H383.57V229.7H386.5V218.72H389.42V193.44H392.35V185.46H395.28V173.89H398.21V174.65H401.14V165.6H404.06V164.94H406.99V165.78H409.92V166.61H412.85V167.44H415.78V146.73H418.7V147.76H421.63V148.77H424.56V144.76H427.49V145.8H430.42V146.84H433.34V147.86H436.27V148.87H439.2V138.08H442.13V139.19H445.06V140.29H447.98V139.18H450.91V140.28H453.84V141.37H456.77V132.83H459.7V134H462.62V135.15H465.55V136.29H468.48V108.93H471.41V104.83H474.34V96.95H477.26V88.15H480.19V87.01H483.12V87.48H486.05V86.49H488.98V88.11H491.9V81.99H494.83V83.66H497.76V81.28H500.69V308.16H503.62V307.58H506.54V307H509.47V306.43H512.4V305.87H515.33V305.31H518.26V304.76H521.18V304.21H524.11V303.67H527.04V303.13H529.97V302.6H532.9V302.07H535.82V294.59H538.75V294.14H541.68V281.82H544.61V271.7H547.54V260.18H550.46V260.08H553.39V259.97H556.32V242.9H559.25V233.13H562.18V232.83H565.1V214.98H568.03V205.71H570.96V206.14H573.89V203.83H576.82V204.28H579.74V193.72H582.67V185.64H585.6V186.28H588.53V186.91H591.46V187.53H594.38V180.42H597.31V181.11H600.24V181.8H603.17V182.47H606.1V162.96H609.02V163.82H611.95V161.87H614.88V160.46H617.81V161.35H620.74V152.82H623.66V143.44H626.59V144.04H629.52V140.53H632.45V141.62H635.38V140.81H638.3V133.35H641.23V134.5H644.16V133.05H647.09V124.41H650.02V125.66H652.94V125.17H655.87V108.83H658.8V110.23H661.73V111.62H664.66V110.35H667.58V102.41H670.51V82.64H673.44V84.3H676.37V85.94H679.3V81.58H682.22V83.26H685.15V84.91H688.08V81.05H691.01V74.75H693.94V308.16H696.86V307.58H699.79V307H702.72V306.43H705.65V305.87H708.58V305.31H711.5V304.76H714.43V304.21H717.36V303.67H720.29V303.13H723.22V293.06H726.14V290.33H729.07V289.93" style="vector-effect: non-scaling-stroke; fill: none; stroke: rgb(31, 119, 180); stroke-opacity: 1; stroke-width: 1px; opacity: 1;"/></g><g class="points"/><g class="text"/></g><g class="trace scatter traceeafbed" style="stroke-miterlimit: 2; opacity: 1;"><g class="fills"/><g class="errorbars"/><g class="lines"/><g class="points"><path class="point" transform="translate(155.18,131.57)" d="M3,0A3,3 0 1,1 0,-3A3,3 0 0,1 3,0Z" style="opacity: 1; stroke-width: 0px; fill: rgb(255, 127, 14); fill-opacity: 1;"/><path class="point" transform="translate(313.3,96.8)" d="M3,0A3,3 0 1,1 0,-3A3,3 0 0,1 3,0Z" style="opacity: 1; stroke-width: 0px; fill: rgb(255, 127, 14); fill-opacity: 1;"/><path class="point" transform="translate(497.76,81.28)" d="M3,0A3,3 0 1,1 0,-3A3,3 0 0,1 3,0Z" style="opacity: 1; stroke-width: 0px; fill: rgb(255, 127, 14); fill-opacity: 1;"/><path class="point" transform="translate(691.01,74.75)" d="M3,0A3,3 0 1,1 0,-3A3,3 0 0,1 3,0Z" style="opacity: 1; stroke-width: 0px; fill: rgb(255, 127, 14); fill-opacity: 1;"/></g><g class="text"/></g></g></g><g class="overplot"/><path class="xlines-above crisp" d="M87,425.5H820" style="fill: none; stroke-width: 1px; stroke: rgb(36, 36, 36); stroke-opacity: 1;"/><path class="ylines-above crisp" d="M87.5,100V425" style="fill: none; stroke-width: 1px; stroke: rgb(36, 36, 36); stroke-opacity: 1;"/><g class="overlines-above"/><g class="xaxislayer-above"><path class="xtick ticks crisp" d="M0,426v5" transform="translate(88,0)" style="stroke: rgb(68, 68, 68); stroke-opacity: 1; stroke-width: 1px;"/><path class="xtick ticks crisp" d="M0,426v5" transform="translate(234.4,0)" style="stroke: rgb(68, 68, 68); stroke-opacity: 1; stroke-width: 1px;"/><path class="xtick ticks crisp" d="M0,426v5" transform="translate(380.8,0)" style="stroke: rgb(68, 68, 68); stroke-opacity: 1; stroke-width: 1px;"/><path class="xtick ticks crisp" d="M0,426v5" transform="translate(527.2,0)" style="stroke: rgb(68, 68, 68); stroke-opacity: 1; stroke-width: 1px;"/><path class="xtick ticks crisp" d="M0,426v5" transform="translate(673.6,0)" style="stroke: rgb(68, 68, 68); stroke-opacity: 1; stroke-width: 1px;"/><path class="xtick ticks crisp" d="M0,426v5" transform="translate(820,0)" style="stroke: rgb(68, 68, 68); stroke-opacity: 1; stroke-width: 1px;"/><g class="xtick"><text text-anchor="middle" x="0" y="455" transform="translate(88,0)" style="font-family: 'Open Sans', verdana, arial, sans-serif; font-size: 20px; fill: rgb(36, 36, 36); fill-opacity: 1; white-space: pre;">0</text></g><g class="xtick"><text text-anchor="middle" x="0" y="455" transform="translate(234.4,0)" style="font-family: 'Open Sans', verdana, arial, sans-serif; font-size: 20px; fill: rgb(36, 36, 36); fill-opacity: 1; white-space: pre;">50</text></g><g class="xtick"><text text-anchor="middle" x="0" y="455" transform="translate(380.8,0)" style="font-family: 'Open Sans', verdana, arial, sans-serif; font-size: 20px; fill: rgb(36, 36, 36); fill-opacity: 1; white-space: pre;">100</text></g><g class="xtick"><text text-anchor="middle" x="0" y="455" transform="translate(527.2,0)" style="font-family: 'Open Sans', verdana, arial, sans-serif; font-size: 20px; fill: rgb(36, 36, 36); fill-opacity: 1; white-space: pre;">150</text></g><g class="xtick"><text text-anchor="middle" x="0" y="455" transform="translate(673.6,0)" style="font-family: 'Open Sans', verdana, arial, sans-serif; font-size: 20px; fill: rgb(36, 36, 36); fill-opacity: 1; white-space: pre;">200</text></g><g class="xtick"><text text-anchor="middle" x="0" y="455" transform="translate(820,0)" style="font-family: 'Open Sans', verdana, arial, sans-serif; font-size: 20px; fill: rgb(36, 36, 36); fill-opacity: 1; white-space: pre;">250</text></g></g><g class="yaxislayer-above"><path class="ytick ticks crisp" d="M87,0h-5" transform="translate(0,408.75)" style="stroke: rgb(68, 68, 68); stroke-opacity: 1; stroke-width: 1px;"/><path class="ytick ticks crisp" d="M87,0h-5" transform="translate(0,349.69)" style="stroke: rgb(68, 68, 68); stroke-opacity: 1; stroke-width: 1px;"/><path class="ytick ticks crisp" d="M87,0h-5" transform="translate(0,290.63)" style="stroke: rgb(68, 68, 68); stroke-opacity: 1; stroke-width: 1px;"/><path class="ytick ticks crisp" d="M87,0h-5" transform="translate(0,231.57)" style="stroke: rgb(68, 68, 68); stroke-opacity: 1; stroke-width: 1px;"/><path class="ytick ticks crisp" d="M87,0h-5" transform="translate(0,172.51)" style="stroke: rgb(68, 68, 68); stroke-opacity: 1; stroke-width: 1px;"/><path class="ytick ticks crisp" d="M87,0h-5" transform="translate(0,113.45)" style="stroke: rgb(68, 68, 68); stroke-opacity: 1; stroke-width: 1px;"/><g class="ytick"><text text-anchor="end" x="78" y="7" transform="translate(0,408.75)" style="font-family: 'Open Sans', verdana, arial, sans-serif; font-size: 20px; fill: rgb(36, 36, 36); fill-opacity: 1; white-space: pre;">−65</text></g><g class="ytick"><text text-anchor="end" x="78" y="7" transform="translate(0,349.69)" style="font-family: 'Open Sans', verdana, arial, sans-serif; font-size: 20px; fill: rgb(36, 36, 36); fill-opacity: 1; white-space: pre;">−60</text></g><g class="ytick"><text text-anchor="end" x="78" y="7" transform="translate(0,290.63)" style="font-family: 'Open Sans', verdana, arial, sans-serif; font-size: 20px; fill: rgb(36, 36, 36); fill-opacity: 1; white-space: pre;">−55</text></g><g class="ytick"><text text-anchor="end" x="78" y="7" transform="translate(0,231.57)" style="font-family: 'Open Sans', verdana, arial, sans-serif; font-size: 20px; fill: rgb(36, 36, 36); fill-opacity: 1; white-space: pre;">−50</text></g><g class="ytick"><text text-anchor="end" x="78" y="7" transform="translate(0,172.51)" style="font-family: 'Open Sans', verdana, arial, sans-serif; font-size: 20px; fill: rgb(36, 36, 36); fill-opacity: 1; white-space: pre;">−45</text></g><g class="ytick"><text text-anchor="end" x="78" y="7" transform="translate(0,113.45)" style="font-family: 'Open Sans', verdana, arial, sans-serif; font-size: 20px; fill: rgb(36, 36, 36); fill-opacity: 1; white-space: pre;">−40</text></g></g><g class="overaxes-above"/></g></g><g class="polarlayer"/><g class="ternarylayer"/><g class="geolayer"/><g class="funnelarealayer"/><g class="pielayer"/><g class="treemaplayer"/><g class="sunburstlayer"/><g class="glimages"/><defs id="topdefs-6bd52b"><g class="clips"/><clipPath id="legend6bd52b"><rect width="635" height="63" x="1" y="1"/></clipPath></defs><g class="layer-above"><g class="imagelayer"/><g class="shapelayer"/></g><g class="infolayer"><g class="legend" pointer-events="all" transform="translate(88,522.5)"><rect class="bg" shape-rendering="crispEdges" width="636" height="64" x="0.5" y="0.5" style="stroke: rgb(5, 5, 25); stroke-opacity: 0; fill: rgb(5, 5, 25); fill-opacity: 0; stroke-width: 1px;"/><g class="scrollbox" transform="" clip-path="url('#legend6bd52b')"><g class="groups"><g class="traces" transform="translate(1,19.200000000000003)" style="opacity: 1;"><text class="legendtext" text-anchor="start" x="40" y="7.0200000000000005" style="font-family: 'Open Sans', verdana, arial, sans-serif; font-size: 18px; fill: rgb(0, 0, 0); fill-opacity: 1; white-space: pre;">Reset potential</text><g class="layers" style="opacity: 0.5;"><g class="legendfill"/><g class="legendlines"><path class="js-line" d="M5,0h30" style="fill: none; stroke: rgb(44, 160, 44); stroke-opacity: 1; stroke-dasharray: 9px, 9px; stroke-width: 3px;"/></g><g class="legendsymbols"><g class="legendpoints"/></g></g><rect class="legendtoggle" x="0" y="-13.200000000000001" width="168.328125" height="26.400000000000002" style="fill: rgb(0, 0, 0); fill-opacity: 0;"/></g><g class="traces" transform="translate(225.390625,19.200000000000003)" style="opacity: 1;"><text class="legendtext" text-anchor="start" x="40" y="7.0200000000000005" style="font-family: 'Open Sans', verdana, arial, sans-serif; font-size: 18px; fill: rgb(0, 0, 0); fill-opacity: 1; white-space: pre;">Activation threshhold</text><g class="layers" style="opacity: 0.5;"><g class="legendfill"/><g class="legendlines"><path class="js-line" d="M5,0h30" style="fill: none; stroke: rgb(214, 39, 40); stroke-opacity: 1; stroke-dasharray: 9px, 9px; stroke-width: 3px;"/></g><g class="legendsymbols"><g class="legendpoints"/></g></g><rect class="legendtoggle" x="0" y="-13.200000000000001" width="221.890625" height="26.400000000000002" style="fill: rgb(0, 0, 0); fill-opacity: 0;"/></g><g class="traces" transform="translate(449.78125,19.200000000000003)" style="opacity: 1;"><text class="legendtext" text-anchor="start" x="40" y="7.0200000000000005" style="font-family: 'Open Sans', verdana, arial, sans-serif; font-size: 18px; fill: rgb(0, 0, 0); fill-opacity: 1; white-space: pre;">Resting potential</text><g class="layers" style="opacity: 0.5;"><g class="legendfill"/><g class="legendlines"><path class="js-line" d="M5,0h30" style="fill: none; stroke: rgb(148, 103, 189); stroke-opacity: 1; stroke-dasharray: 9px, 9px; stroke-width: 3px;"/></g><g class="legendsymbols"><g class="legendpoints"/></g></g><rect class="legendtoggle" x="0" y="-13.200000000000001" width="183.6875" height="26.400000000000002" style="fill: rgb(0, 0, 0); fill-opacity: 0;"/></g><g class="traces" transform="translate(1,45.6)" style="opacity: 1;"><text class="legendtext" text-anchor="start" x="40" y="7.0200000000000005" style="font-family: 'Open Sans', verdana, arial, sans-serif; font-size: 18px; fill: rgb(0, 0, 0); fill-opacity: 1; white-space: pre;">Voltage</text><g class="layers" style="opacity: 1;"><g class="legendfill"/><g class="legendlines"><path class="js-line" d="M5,0h30" style="fill: none; stroke: rgb(31, 119, 180); stroke-opacity: 1; stroke-width: 1px;"/></g><g class="legendsymbols"><g class="legendpoints"/></g></g><rect class="legendtoggle" x="0" y="-13.200000000000001" width="104.96875" height="26.400000000000002" style="fill: rgb(0, 0, 0); fill-opacity: 0;"/></g><g class="traces" transform="translate(225.390625,45.6)" style="opacity: 1;"><text class="legendtext" text-anchor="start" x="40" y="7.0200000000000005" style="font-family: 'Open Sans', verdana, arial, sans-serif; font-size: 18px; fill: rgb(0, 0, 0); fill-opacity: 1; white-space: pre;">Spikes</text><g class="layers" style="opacity: 1;"><g class="legendfill"/><g class="legendlines"/><g class="legendsymbols"><g class="legendpoints"><path class="scatterpts" transform="translate(20,0)" d="M3,0A3,3 0 1,1 0,-3A3,3 0 0,1 3,0Z" style="opacity: 1; stroke-width: 0px; fill: rgb(255, 127, 14); fill-opacity: 1;"/></g></g></g><rect class="legendtoggle" x="0" y="-13.200000000000001" width="96.109375" height="26.400000000000002" style="fill: rgb(0, 0, 0); fill-opacity: 0;"/></g></g></g><rect class="scrollbar" rx="20" ry="3" width="0" height="0" x="0" y="0" style="fill: rgb(128, 139, 164); fill-opacity: 1;"/></g><g class="g-gtitle"><text class="gtitle" x="45" y="50" text-anchor="start" dy="0em" style="font-family: 'Open Sans', verdana, arial, sans-serif; font-size: 17px; fill: rgb(36, 36, 36); opacity: 1; font-weight: normal; white-space: pre;">alif</text></g><g class="g-xtitle"><text class="xtitle" x="454" y="492.8" text-anchor="middle" style="font-family: 'Open Sans', verdana, arial, sans-serif; font-size: 24px; fill: rgb(36, 36, 36); opacity: 1; font-weight: normal; white-space: pre;">Time</text></g><g class="g-ytitle" transform="translate(14.1123046875,0)"><text class="ytitle" transform="rotate(-90,11.887500000000003,262.5)" x="11.887500000000003" y="262.5" text-anchor="middle" style="font-family: 'Open Sans', verdana, arial, sans-serif; font-size: 24px; fill: rgb(36, 36, 36); opacity: 1; font-weight: normal; white-space: pre;">Voltage</text></g></g></svg>