<svg class="main-svg" xmlns="http://www.w3.org/2000/svg" xmlns:xlink="http://www.w3.org/1999/xlink" width="800" height="500" style="" viewBox="0 0 800 500"><rect x="0" y="0" width="800" height="500" style="fill: rgb(255, 255, 255); fill-opacity: 1;"/><defs id="defs-031412"><g class="clips"><clipPath id="clip031412xyplot" class="plotclip"><rect width="633" height="228"/></clipPath><clipPath class="axesclip" id="clip031412x"><rect x="87" y="0" width="633" height="500"/></clipPath><clipPath class="axesclip" id="clip031412y"><rect x="0" y="100" width="800" height="228"/></clipPath><clipPath class="axesclip" id="clip031412xy"><rect x="87" y="100" width="633" height="228"/></clipPath></g><g class="gradients"/></defs><g class="bglayer"><rect class="bg" x="87" y="100" width="633" height="228" style="fill: rgb(229, 236, 246); fill-opacity: 1; stroke-width: 0;"/></g><g class="layer-below"><g class="imagelayer"/><g class="shapelayer"/></g><g class="cartesianlayer"><g class="subplot xy"><g class="layer-subplot"><g class="shapelayer"/><g class="imagelayer"/></g><g class="gridlayer"><g class="x"><path class="xgrid crisp" transform="translate(213.6,0)" d="M0,100v228" style="stroke: rgb(255, 255, 255); stroke-opacity: 1; stroke-width: 1px;"/><path class="xgrid crisp" transform="translate(340.2,0)" d="M0,100v228" style="stroke: rgb(255, 255, 255); stroke-opacity: 1; stroke-width: 1px;"/><path class="xgrid crisp" transform="translate(466.8,0)" d="M0,100v228" style="stroke: rgb(255, 255, 255); stroke-opacity: 1; stroke-width: 1px;"/><path class="xgrid crisp" transform="translate(593.4,0)" d="M0,100v228" style="stroke: rgb(255, 255, 255); stroke-opacity: 1; stroke-width: 1px;"/></g><g class="y"><path class="ygrid crisp" transform="translate(0,316.6)" d="M87,0h633" style="stroke: rgb(255, 255, 255); stroke-opacity: 1; stroke-width: 1px;"/><path class="ygrid crisp" transform="translate(0,278.78999999999996)" d="M87,0h633" style="stroke: rgb(255, 255, 255); stroke-opacity: 1; stroke-width: 1px;"/><path class="ygrid crisp" transform="translate(0,240.98)" d="M87,0h633" style="stroke: rgb(255, 255, 255); stroke-opacity: 1; stroke-width: 1px;"/><path class="ygrid crisp" transform="translate(0,203.17000000000002)" d="M87,0h633" style="stroke: rgb(255, 255, 255); stroke-opacity: 1; stroke-width: 1px;"/><path class="ygrid crisp" transform="translate(0,165.36)" d="M87,0h633" style="stroke: rgb(255, 255, 255); stroke-opacity: 1; stroke-width: 1px;"/><path class="ygrid crisp" transform="translate(0,127.55)" d="M87,0h633" style="stroke: rgb(255, 255, 255); stroke-opacity: 1; stroke-width: 1px;"/></g></g><g class="zerolinelayer"><path class="xzl zl crisp" transform="translate(87,0)" d="M0,100v228" style="stroke: rgb(0, 44, 117); stroke-opacity: 1; stroke-width: 2px;"/></g><path class="xlines-below"/><path class="ylines-below"/><g class="overlines-below"/><g class="xaxislayer-below"/><g class="yaxislayer-below"/><g class="overaxes-below"/><g class="plot" transform="translate(87, 100)" clip-path="url('#clip031412xyplot')"><g class="scatterlayer mlayer"><g class="trace scatter trace24c475" style="stroke-miterlimit: 2; opacity: 0.5;"><g class="fills"/><g class="errorbars"/><g class="lines"><path class="js-line" d="M0,216.6H633V216.6" style="vector-effect: non-scaling-stroke; fill: none; stroke: rgb(0, 204, 150); stroke-opacity: 1; stroke-width: 3px; opacity: 1; stroke-dasharray: 9px, 9px;"/></g><g class="points"/><g class="text"/></g><g class="trace scatter trace5f7079" style="stroke-miterlimit: 2; opacity: 0.5;"><g class="fills"/><g class="errorbars"/><g class="lines"><path class="js-line" d="M0,103.17H2.53V103.17H5.06V103.17H7.6V103.17H10.13V103.17H12.66V103.17H15.19V103.17H17.72V103.17H20.26V103.17H22.79V103.17H25.32V103.17H27.85V103.17H30.38V103.17H32.92V103.17H35.45V103.17H37.98V103.17H40.51V103.17H43.04V103.17H45.58V103.17H48.11V103.17H50.64V103.17H53.17V103.17H55.7V103.17H58.24V103.17H60.77V103.17H63.3V103.17H65.83V103.17H68.36V103.17H70.9V103.17H73.43V103.17H75.96V103.17H78.49V103.17H81.02V103.17H83.56V103.17H86.09V103.17H88.62V103.17H91.15V65.36H93.68V65.73H96.22V66.11H98.75V66.47H101.28V66.84H103.81V67.2H106.34V67.56H108.88V67.91H111.41V68.26H113.94V68.61H116.47V68.96H119V69.3H121.54V69.63H124.07V69.97H126.6V70.3H129.13V70.62H131.66V70.95H134.2V71.27H136.73V71.59H139.26V71.9H141.79V72.21H144.32V72.52H146.86V72.82H149.39V73.13H151.92V73.43H154.45V73.72H156.98V74.01H159.52V74.3H162.05V74.59H164.58V74.88H167.11V75.16H169.64V75.44H172.18V75.71H174.71V75.99H177.24V76.26H179.77V76.52H182.3V76.79H184.84V77.05H187.37V77.31H189.9V77.57H192.43V77.82H194.96V78.08H197.5V78.32H200.03V78.57H202.56V78.82H205.09V79.06H207.62V79.3H210.16V79.54H212.69V79.77H215.22V42.19H217.75V42.8H220.28V43.4H222.82V44H225.35V44.58H227.88V45.17H230.41V45.74H232.94V46.32H235.48V46.88H238.01V47.44H240.54V48H243.07V48.55H245.6V49.09H248.14V49.63H250.67V50.16H253.2V50.69H255.73V51.21H258.26V51.73H260.8V52.24H263.33V52.74H265.86V53.25H268.39V53.74H270.92V54.23H273.46V54.72H275.99V55.2H278.52V55.68H281.05V56.15H283.58V56.62H286.12V57.08H288.65V57.54H291.18V58H293.71V58.45H296.24V58.89H298.78V59.33H301.31V59.77H303.84V60.2H306.37V60.63H308.9V61.05H311.44V61.47H313.97V61.88H316.5V62.3H319.03V62.7H321.56V63.11H324.1V63.5H326.63V63.9H329.16V64.29H331.69V64.68H334.22V27.25H336.76V28H339.29V28.75H341.82V29.49H344.35V30.23H346.88V30.95H349.42V31.67H351.95V32.38H354.48V33.09H357.01V33.78H359.54V34.47H362.08V35.16H364.61V35.83H367.14V36.5H369.67V37.17H372.2V37.82H374.74V38.47H377.27V39.12H379.8V39.75H382.33V40.39H384.86V41.01H387.4V41.63H389.93V42.24H392.46V42.85H394.99V43.45H397.52V44.04H400.06V44.63H402.59V45.21H405.12V45.79H407.65V46.36H410.18V46.93H412.72V47.48H415.25V48.04H417.78V48.59H420.31V49.13H422.84V49.67H425.38V50.2H427.91V50.73H430.44V51.25H432.97V51.77H435.5V52.28H438.04V52.78H440.57V53.29H443.1V53.78H445.63V54.27H448.16V54.76H450.7V55.24H453.23V55.72H455.76V56.19H458.29V56.66H460.82V57.12H463.36V57.58H465.89V20.22H468.42V21.05H470.95V21.86H473.48V22.67H476.02V23.47H478.55V24.27H481.08V25.05H483.61V25.83H486.14V26.6H488.68V27.36H491.21V28.11H493.74V28.86H496.27V29.6H498.8V30.33H501.34V31.06H503.87V31.78H506.4V32.49H508.93V33.19H511.46V33.89H514V34.57H516.53V35.26H519.06V35.93H521.59V36.6H524.12V37.26H526.66V37.92H529.19V38.57H531.72V39.21H534.25V39.85H536.78V40.48H539.32V41.1H541.85V41.72H544.38V42.33H546.91V42.94H549.44V43.54H551.98V44.13H554.51V44.72H557.04V45.3H559.57V45.87H562.1V46.44H564.64V47.01H567.17V47.57H569.7V48.12H572.23V48.67H574.76V11.4H577.3V12.31H579.83V13.22H582.36V14.11H584.89V15H587.42V15.88H589.96V16.74H592.49V17.6H595.02V18.46H597.55V19.3H600.08V20.13H602.62V20.96H605.15V21.78H607.68V22.59H610.21V23.39H612.74V24.18H615.28V24.97H617.81V25.75H620.34V26.52H622.87V27.28H625.4V28.03H627.94V28.78H630.47V29.52" style="vector-effect: non-scaling-stroke; fill: none; stroke: rgb(171, 99, 250); stroke-opacity: 1; stroke-width: 3px; opacity: 1; stroke-dasharray: 9px, 9px;"/></g><g class="points"/><g class="text"/></g><g class="trace scatter tracedb490d" style="stroke-miterlimit: 2; opacity: 0.5;"><g class="fills"/><g class="errorbars"/><g class="lines"><path class="js-line" d="M0,178.79H633V178.79" style="vector-effect: non-scaling-stroke; fill: none; stroke: rgb(255, 161, 90); stroke-opacity: 1; stroke-width: 3px; opacity: 1; stroke-dasharray: 9px, 9px;"/></g><g class="points"/><g class="text"/></g><g class="trace scatter tracee58308" style="stroke-miterlimit: 2; opacity: 1;"><g class="fills"/><g class="errorbars"/><g class="lines"><path class="js-line" d="M0,178.79H2.53V178.79H5.06V178.79H7.6V178.79H10.13V178.79H12.66V178.79H15.19V178.79H17.72V178.79H20.26V178.79H22.79V178.79H25.32V178.79H27.85V178.79H30.38V178.79H32.92V178.79H35.45V178.79H37.98V178.79H40.51V178.79H43.04V178.79H45.58V178.79H48.11V178.79H50.64V178.79H53.17V178.79H55.7V178.79H58.24V176.17H60.77V176.2H63.3V176.22H65.83V176.25H68.36V170.43H70.9V170.51H73.43V163.33H75.96V155.8H78.49V137.65H81.02V138.06H83.56V123.58H86.09V104.23H88.62V103.59H91.15V103.17H93.68V216.22H96.22V215.85H98.75V215.48H101.28V215.12H103.81V214.76H106.34V214.4H108.88V214.04H111.41V213.69H113.94V213.35H116.47V213H119V209.31H121.54V201.31H124.07V201.08H126.6V195.22H129.13V195.06H131.66V187.88H134.2V187.79H136.73V181.84H139.26V181.81H141.79V170.02H144.32V160H146.86V157.74H149.39V154.41H151.92V153.3H154.45V153.56H156.98V152.38H159.52V141.25H162.05V132.89H164.58V131.52H167.11V131.99H169.64V118.93H172.18V113.77H174.71V113.05H177.24V113.7H179.77V114.35H182.3V114.99H184.84V110.27H187.37V106.66H189.9V107.38H192.43V108.09H194.96V98.67H197.5V99.47H200.03V96.25H202.56V97.07H205.09V91.56H207.62V83.3H210.16V84.25H212.69V80.7H215.22V79.77H217.75V216.22H220.28V215.85H222.82V215.48H225.35V215.12H227.88V214.76H230.41V214.4H232.94V214.04H235.48V213.69H238.01V213.35H240.54V213H243.07V205.64H245.6V201.08H248.14V196.42H250.67V194.81H253.2V194.65H255.73V191.84H258.26V188.36H260.8V185.72H263.33V167.8H265.86V167.91H268.39V168.01H270.92V168.12H273.46V168.23H275.99V168.33H278.52V168.44H281.05V163.09H283.58V163.25H286.12V159.4H288.65V154.72H291.18V147.26H293.71V137.89H296.24V138.3H298.78V138.7H301.31V126.34H303.84V126.86H306.37V117.39H308.9V105.26H311.44V93.52H313.97V94.36H316.5V85.81H319.03V73.63H321.56V74.68H324.1V73.89H326.63V69.13H329.16V70.11H331.69V64.87H334.22V64.68H336.76V216.22H339.29V215.85H341.82V215.48H344.35V215.12H346.88V214.76H349.42V214.4H351.95V214.04H354.48V213.69H357.01V213.35H359.54V213H362.08V208.37H364.61V204.07H367.14V193.81H369.67V193.66H372.2V186.24H374.74V186.17H377.27V186.1H379.8V181.53H382.33V174.43H384.86V174.47H387.4V173.16H389.93V172.58H392.46V161.81H394.99V156.94H397.52V157.15H400.06V136.1H402.59V129.64H405.12V127.51H407.65V128.02H410.18V128.52H412.72V120.91H415.25V110.09H417.78V99.18H420.31V92.48H422.84V87.58H425.38V88.49H427.91V87.96H430.44V88.86H432.97V83.43H435.5V78.37H438.04V74.34H440.57V75.38H443.1V76.41H445.63V67.3H448.16V68.41H450.7V65.51H453.23V60.07H455.76V61.25H458.29V62.42H460.82V60.23H463.36V61.41H465.89V57.58H468.42V216.22H470.95V215.85H473.48V215.48H476.02V215.12H478.55V214.76H481.08V214.4H483.61V214.04H486.14V213.69H488.68V213.35H491.21V213H493.74V212.66H496.27V212.32H498.8V195.46H501.34V183.47H503.87V183.43H506.4V176.18H508.93V170.36H511.46V170.44H514V167.91H516.53V168.01H519.06V168.12H521.59V161.35H524.12V161.52H526.66V149.68H529.19V148.05H531.72V144.94H534.25V145.28H536.78V132.29H539.32V119.57H541.85V120.16H544.38V120.74H546.91V121.22H549.44V109.43H551.98V97.13H554.51V81.53H557.04V82.49H559.57V83.45H562.1V68.16H564.64V69.26H567.17V70.35H569.7V71.43H572.23V57.93H574.76V48.67H577.3V216.22H579.83V215.85H582.36V215.48H584.89V215.12H587.42V214.76H589.96V214.4H592.49V214.04H595.02V213.69H597.55V213.35H600.08V213H602.62V210.04H605.15V203.85H607.68V203.6H610.21V203.35H612.74V199.7H615.28V186.93H617.81V180.63H620.34V179.26H622.87V179.26H625.4V172.93H627.94V172.99H630.47V169.04" style="vector-effect: non-scaling-stroke; fill: none; stroke: rgb(99, 110, 250); stroke-opacity: 1; stroke-width: 2px; opacity: 1;"/></g><g class="points"/><g class="text"/></g><g class="trace scatter trace8d26f1" style="stroke-miterlimit: 2; opacity: 1;"><g class="fills"/><g class="errorbars"/><g class="lines"/><g class="points"><path class="point" transform="translate(91.15,103.17)" d="M3,0A3,3 0 1,1 0,-3A3,3 0 0,1 3,0Z" style="opacity: 1; stroke-width: 0px; fill: rgb(239, 85, 59); fill-opacity: 1;"/><path class="point" transform="translate(215.22,79.77)" d="M3,0A3,3 0 1,1 0,-3A3,3 0 0,1 3,0Z" style="opacity: 1; stroke-width: 0px; fill: rgb(239, 85, 59); fill-opacity: 1;"/><path class="point" transform="translate(334.22,64.68)" d="M3,0A3,3 0 1,1 0,-3A3,3 0 0,1 3,0Z" style="opacity: 1; stroke-width: 0px; fill: rgb(239, 85, 59); fill-opacity: 1;"/><path class="point" transform="translate(465.89,57.58)" d="M3,0A3,3 0 1,1 0,-3A3,3 0 0,1 3,0Z" style="opacity: 1; stroke-width: 0px; fill: rgb(239, 85, 59); fill-opacity: 1;"/><path class="point" transform="translate(574.76,48.67)" d="M3,0A3,3 0 1,1 0,-3A3,3 0 0,1 3,0Z" style="opacity: 1; stroke-width: 0px; fill: rgb(239, 85, 59); fill-opacity: 1;"/></g><g class="text"/></g></g></g><g class="overplot"/><path class="xlines-above crisp" d="M0,0" style="fill: none;"/><path class="ylines-above crisp" d="M0,0" style="fill: none;"/><g class="overlines-above"/><g class="xaxislayer-above"><g class="xtick"><text text-anchor="middle" x="0" y="349" transform="translate(87,0)" style="font-family: 'Open Sans', verdana, arial, sans-serif; font-size: 20px; fill: rgb(42, 63, 95); fill-opacity: 1; white-space: pre;">0</text></g><g class="xtick"><text text-anchor="middle" x="0" y="349" transform="translate(213.6,0)" style="font-family: 'Open Sans', verdana, arial, sans-serif; font-size: 20px; fill: rgb(42, 63, 95); fill-opacity: 1; white-space: pre;">50</text></g><g class="xtick"><text text-anchor="middle" x="0" y="349" transform="translate(340.2,0)" style="font-family: 'Open Sans', verdana, arial, sans-serif; font-size: 20px; fill: rgb(42, 63, 95); fill-opacity: 1; white-space: pre;">100</text></g><g class="xtick"><text text-anchor="middle" x="0" y="349" transform="translate(466.8,0)" style="font-family: 'Open Sans', verdana, arial, sans-serif; font-size: 20px; fill: rgb(42, 63, 95); fill-opacity: 1; white-space: pre;">150</text></g><g class="xtick"><text text-anchor="middle" x="0" y="349" transform="translate(593.4,0)" style="font-family: 'Open Sans', verdana, arial, sans-serif; font-size: 20px; fill: rgb(42, 63, 95); fill-opacity: 1; white-space: pre;">200</text></g><g class="xtick"><text text-anchor="middle" x="0" y="349" transform="translate(720,0)" style="font-family: 'Open Sans', verdana, arial, sans-serif; font-size: 20px; fill: rgb(42, 63, 95); fill-opacity: 1; white-space: pre;">250</text></g></g><g class="yaxislayer-above"><g class="ytick"><text text-anchor="end" x="86" y="7" transform="translate(0,316.6)" style="font-family: 'Open Sans', verdana, arial, sans-serif; font-size: 20px; fill: rgb(42, 63, 95); fill-opacity: 1; white-space: pre;">−65</text></g><g class="ytick"><text text-anchor="end" x="86" y="7" transform="translate(0,278.78999999999996)" style="font-family: 'Open Sans', verdana, arial, sans-serif; font-size: 20px; fill: rgb(42, 63, 95); fill-opacity: 1; white-space: pre;">−60</text></g><g class="ytick"><text text-anchor="end" x="86" y="7" transform="translate(0,240.98)" style="font-family: 'Open Sans', verdana, arial, sans-serif; font-size: 20px; fill: rgb(42, 63, 95); fill-opacity: 1; white-space: pre;">−55</text></g><g class="ytick"><text text-anchor="end" x="86" y="7" transform="translate(0,203.17000000000002)" style="font-family: 'Open Sans', verdana, arial, sans-serif; font-size: 20px; fill: rgb(42, 63, 95); fill-opacity: 1; white-space: pre;">−50</text></g><g class="ytick"><text text-anchor="end" x="86" y="7" transform="translate(0,165.36)" style="font-family: 'Open Sans', verdana, arial, sans-serif; font-size: 20px; fill: rgb(42, 63, 95); fill-opacity: 1; white-space: pre;">−45</text></g><g class="ytick"><text text-anchor="end" x="86" y="7" transform="translate(0,127.55)" style="font-family: 'Open Sans', verdana, arial, sans-serif; font-size: 20px; fill: rgb(42, 63, 95); fill-opacity: 1; white-space: pre;">−40</text></g></g><g class="overaxes-above"/></g></g><g class="polarlayer"/><g class="ternarylayer"/><g class="geolayer"/><g class="funnelarealayer"/><g class="pielayer"/><g class="treemaplayer"/><g class="sunburstlayer"/><g class="glimages"/><defs id="topdefs-031412"><g class="clips"/><clipPath id="legend031412"><rect width="476" height="90" x="1" y="1"/></clipPath></defs><g class="layer-above"><g class="imagelayer"/><g class="shapelayer"/></g><g class="infolayer"><g class="legend" pointer-events="all" transform="translate(87, 396.40000000000003)"><rect class="bg" shape-rendering="crispEdges" width="477" height="91" x="0.5" y="0.5" style="stroke: rgb(0, 0, 0); stroke-opacity: 1; fill: rgb(25, 211, 243); fill-opacity: 0.1; stroke-width: 1px;"/><g class="scrollbox" transform="translate(0, 0)" clip-path="url('#legend031412')"><g class="groups"><g class="traces" transform="translate(1, 19.200000000000003)" style="opacity: 1;"><text class="legendtext user-select-none" text-anchor="start" x="40" y="7.0200000000000005" style="font-family: 'Open Sans', verdana, arial, sans-serif; font-size: 18px; fill: rgb(0, 0, 0); fill-opacity: 1; white-space: pre;">Reset potential</text><g class="layers" style="opacity: 0.5;"><g class="legendfill"/><g class="legendlines"><path class="js-line" d="M5,0h30" style="fill: none; stroke: rgb(0, 204, 150); stroke-opacity: 1; stroke-dasharray: 9px, 9px; stroke-width: 3px;"/></g><g class="legendsymbols"><g class="legendpoints"/></g></g><rect class="legendtoggle" pointer-events="all" x="0" y="-13.200000000000001" width="177.953125" height="26.400000000000002" style="cursor: pointer; fill: rgb(0, 0, 0); fill-opacity: 0;"/></g><g class="traces" transform="translate(238.640625, 19.200000000000003)" style="opacity: 1;"><text class="legendtext user-select-none" text-anchor="start" x="40" y="7.0200000000000005" style="font-family: 'Open Sans', verdana, arial, sans-serif; font-size: 18px; fill: rgb(0, 0, 0); fill-opacity: 1; white-space: pre;">Activation threshhold</text><g class="layers" style="opacity: 0.5;"><g class="legendfill"/><g class="legendlines"><path class="js-line" d="M5,0h30" style="fill: none; stroke: rgb(171, 99, 250); stroke-opacity: 1; stroke-dasharray: 9px, 9px; stroke-width: 3px;"/></g><g class="legendsymbols"><g class="legendpoints"/></g></g><rect class="legendtoggle" pointer-events="all" x="0" y="-13.200000000000001" width="235.140625" height="26.400000000000002" style="cursor: pointer; fill: rgb(0, 0, 0); fill-opacity: 0;"/></g><g class="traces" transform="translate(1, 45.6)" style="opacity: 1;"><text class="legendtext user-select-none" text-anchor="start" x="40" y="7.0200000000000005" style="font-family: 'Open Sans', verdana, arial, sans-serif; font-size: 18px; fill: rgb(0, 0, 0); fill-opacity: 1; white-space: pre;">Resting potential</text><g class="layers" style="opacity: 0.5;"><g class="legendfill"/><g class="legendlines"><path class="js-line" d="M5,0h30" style="fill: none; stroke: rgb(255, 161, 90); stroke-opacity: 1; stroke-dasharray: 9px, 9px; stroke-width: 3px;"/></g><g class="legendsymbols"><g class="legendpoints"/></g></g><rect class="legendtoggle" pointer-events="all" x="0" y="-13.200000000000001" width="194.78125" height="26.400000000000002" style="cursor: pointer; fill: rgb(0, 0, 0); fill-opacity: 0;"/></g><g class="traces" transform="translate(238.640625, 45.6)" style="opacity: 1;"><text class="legendtext user-select-none" text-anchor="start" x="40" y="7.0200000000000005" style="font-family: 'Open Sans', verdana, arial, sans-serif; font-size: 18px; fill: rgb(0, 0, 0); fill-opacity: 1; white-space: pre;">Voltage</text><g class="layers" style="opacity: 1;"><g class="legendfill"/><g class="legendlines"><path class="js-line" d="M5,0h30" style="fill: none; stroke: rgb(99, 110, 250); stroke-opacity: 1; stroke-width: 2px;"/></g><g class="legendsymbols"><g class="legendpoints"/></g></g><rect class="legendtoggle" pointer-events="all" x="0" y="-13.200000000000001" width="110.921875" height="26.400000000000002" style="cursor: pointer; fill: rgb(0, 0, 0); fill-opacity: 0;"/></g><g class="traces" transform="translate(1, 72)" style="opacity: 1;"><text class="legendtext user-select-none" text-anchor="start" x="40" y="7.0200000000000005" style="font-family: 'Open Sans', verdana, arial, sans-serif; font-size: 18px; fill: rgb(0, 0, 0); fill-opacity: 1; white-space: pre;">Spikes</text><g class="layers" style="opacity: 1;"><g class="legendfill"/><g class="legendlines"/><g class="legendsymbols"><g class="legendpoints"><path class="scatterpts" transform="translate(20,0)" d="M3,0A3,3 0 1,1 0,-3A3,3 0 0,1 3,0Z" style="opacity: 1; stroke-width: 0px; fill: rgb(239, 85, 59); fill-opacity: 1;"/></g></g></g><rect class="legendtoggle" pointer-events="all" x="0" y="-13.200000000000001" width="101.546875" height="26.400000000000002" style="cursor: pointer; fill: rgb(0, 0, 0); fill-opacity: 0;"/></g></g></g><rect class="scrollbar" rx="20" ry="3" width="0" height="0" x="0" y="0" style="fill: rgb(128, 139, 164); fill-opacity: 1;"/></g><g class="g-gtitle"><text class="gtitle" x="40" y="50" text-anchor="start" dy="0em" style="font-family: 'Open Sans', verdana, arial, sans-serif; font-size: 17px; fill: rgb(42, 63, 95); opacity: 1; font-weight: normal; white-space: pre;">alif</text></g><g class="g-xtitle"><text class="xtitle" x="403.5" y="384.8" text-anchor="middle" style="font-family: 'Open Sans', verdana, arial, sans-serif; font-size: 24px; fill: rgb(42, 63, 95); opacity: 1; font-weight: normal; white-space: pre;">Time</text></g><g class="g-ytitle" transform="translate(11.5966796875,0)"><text class="ytitle" transform="rotate(-90,12.403125000000003,214)" x="12.403125000000003" y="214" text-anchor="middle" style="font-family: 'Open Sans', verdana, arial, sans-serif; font-size: 24px; fill: rgb(42, 63, 95); opacity: 1; font-weight: normal; white-space: pre;">Voltage</text></g></g></svg>