<svg class="main-svg" xmlns="http://www.w3.org/2000/svg" xmlns:xlink="http://www.w3.org/1999/xlink" width="900" height="600" style="" viewBox="0 0 900 600"><rect x="0" y="0" width="900" height="600" style="fill: rgb(255, 255, 255); fill-opacity: 1;"/><defs id="defs-df75b8"><g class="clips"><clipPath id="clipdf75b8xyplot" class="plotclip"><rect width="724" height="325"/></clipPath><clipPath class="axesclip" id="clipdf75b8x"><rect x="96" y="0" width="724" height="600"/></clipPath><clipPath class="axesclip" id="clipdf75b8y"><rect x="0" y="100" width="900" height="325"/></clipPath><clipPath class="axesclip" id="clipdf75b8xy"><rect x="96" y="100" width="724" height="325"/></clipPath></g><g class="gradients"/></defs><g class="bglayer"/><g class="layer-below"><g class="imagelayer"/><g class="shapelayer"/></g><g class="cartesianlayer"><g class="subplot xy"><g class="layer-subplot"><g class="shapelayer"/><g class="imagelayer"/></g><g class="gridlayer"><g class="x"/><g class="y"/></g><g class="zerolinelayer"/><path class="xlines-below"/><path class="ylines-below"/><g class="overlines-below"/><g class="xaxislayer-below"/><g class="yaxislayer-below"/><g class="overaxes-below"/><g class="plot" transform="translate(96, 100)" clip-path="url('#clipdf75b8xyplot')"><g class="scatterlayer mlayer"><g class="trace scatter trace2be1ad" style="stroke-miterlimit: 2; opacity: 0.5;"><g class="fills"/><g class="errorbars"/><g class="lines"><path class="js-line" d="M0,308.75H724V308.75" style="vector-effect: non-scaling-stroke; fill: none; stroke: rgb(44, 160, 44); stroke-opacity: 1; stroke-width: 3px; opacity: 1; stroke-dasharray: 9px, 9px;"/></g><g class="points"/><g class="text"/></g><g class="trace scatter tracef84805" style="stroke-miterlimit: 2; opacity: 0.5;"><g class="fills"/><g class="errorbars"/><g class="lines"><path class="js-line" d="M0,116.16H2.9V116.16H5.79V116.16H8.69V116.16H11.58V116.16H14.48V116.16H17.38V116.16H20.27V116.16H23.17V116.16H26.06V116.16H28.96V116.16H31.86V116.16H34.75V116.16H37.65V116.16H40.54V116.16H43.44V116.16H46.34V116.16H49.23V116.16H52.13V116.16H55.02V116.16H57.92V116.16H60.82V116.16H63.71V116.16H66.61V116.16H69.5V116.16H72.4V116.16H75.3V116.16H78.19V116.16H81.09V116.16H83.98V116.16H86.88V116.16H89.78V116.16H92.67V116.16H95.57V116.16H98.46V116.16H101.36V116.16H104.26V116.16H107.15V116.16H110.05V116.16H112.94V116.16H115.84V116.16H118.74V116.16H121.63V115.41H124.53V115.42H127.42V115.43H130.32V115.44H133.22V115.44H136.11V115.45H139.01V115.46H141.9V115.46H144.8V115.47H147.7V115.48H150.59V115.48H153.49V115.49H156.38V115.5H159.28V115.5H162.18V115.51H165.07V115.52H167.97V115.52H170.86V115.53H173.76V115.54H176.66V115.54H179.55V115.55H182.45V115.55H185.34V115.56H188.24V115.57H191.14V115.57H194.03V115.58H196.93V115.58H199.82V115.59H202.72V115.6H205.62V115.6H208.51V115.61H211.41V115.61H214.3V115.62H217.2V115.62H220.1V115.63H222.99V115.63H225.89V115.64H228.78V115.64H231.68V115.65H234.58V115.65H237.47V115.66H240.37V115.66H243.26V115.67H246.16V115.67H249.06V115.68H251.95V115.68H254.85V115.69H257.74V115.69H260.64V115.7H263.54V115.7H266.43V115.71H269.33V115.71H272.22V115.71H275.12V115.72H278.02V115.72H280.91V115.73H283.81V115.73H286.7V115.74H289.6V115.74H292.5V115.74H295.39V115.75H298.29V115.01H301.18V115.02H304.08V115.03H306.98V115.05H309.87V115.06H312.77V115.07H315.66V115.08H318.56V115.09H321.46V115.1H324.35V115.11H327.25V115.12H330.14V115.13H333.04V115.14H335.94V115.15H338.83V115.16H341.73V115.17H344.62V115.18H347.52V115.19H350.42V115.2H353.31V115.21H356.21V115.22H359.1V115.23H362V115.24H364.9V115.25H367.79V115.26H370.69V115.26H373.58V115.27H376.48V115.28H379.38V115.29H382.27V115.3H385.17V115.31H388.06V115.32H390.96V115.32H393.86V115.33H396.75V115.34H399.65V115.35H402.54V115.36H405.44V115.37H408.34V115.37H411.23V115.38H414.13V115.39H417.02V115.4H419.92V115.4H422.82V115.41H425.71V115.42H428.61V115.43H431.5V115.43H434.4V115.44H437.3V115.45H440.19V115.45H443.09V115.46H445.98V115.47H448.88V115.48H451.78V115.48H454.67V115.49H457.57V115.5H460.46V115.5H463.36V115.51H466.26V114.77H469.15V114.79H472.05V114.8H474.94V114.82H477.84V114.83H480.74V114.84H483.63V114.85H486.53V114.87H489.42V114.88H492.32V114.89H495.22V114.91H498.11V114.92H501.01V114.93H503.9V114.94H506.8V114.95H509.7V114.97H512.59V114.98H515.49V114.99H518.38V115H521.28V115.01H524.18V115.02H527.07V115.04H529.97V115.05H532.86V115.06H535.76V115.07H538.66V115.08H541.55V115.09H544.45V115.1H547.34V115.11H550.24V115.12H553.14V115.13H556.03V115.14H558.93V115.15H561.82V115.16H564.72V115.17H567.62V115.18H570.51V115.19H573.41V115.2H576.3V115.21H579.2V115.22H582.1V115.23H584.99V115.24H587.89V115.25H590.78V115.26H593.68V115.27H596.58V115.27H599.47V115.28H602.37V115.29H605.26V115.3H608.16V115.31H611.06V115.32H613.95V115.33H616.85V115.33H619.74V115.34H622.64V115.35H625.54V115.36H628.43V115.37H631.33V115.37H634.22V115.38H637.12V114.65H640.02V114.66H642.91V114.68H645.81V114.69H648.7V114.71H651.6V114.72H654.5V114.74H657.39V114.75H660.29V114.76H663.18V114.78H666.08V114.79H668.98V114.81H671.87V114.82H674.77V114.83H677.66V114.85H680.56V114.86H683.46V114.87H686.35V114.88H689.25V114.9H692.14V114.91H695.04V114.92H697.94V114.93H700.83V114.95H703.73V114.96H706.62V114.97H709.52V114.98H712.42V114.99H715.31V115.01H718.21V115.02H721.1V115.03" style="vector-effect: non-scaling-stroke; fill: none; stroke: rgb(214, 39, 40); stroke-opacity: 1; stroke-width: 3px; opacity: 1; stroke-dasharray: 9px, 9px;"/></g><g class="points"/><g class="text"/></g><g class="trace scatter trace865c65" style="stroke-miterlimit: 2; opacity: 0.5;"><g class="fills"/><g class="errorbars"/><g class="lines"><path class="js-line" d="M0,234.68H724V234.68" style="vector-effect: non-scaling-stroke; fill: none; stroke: rgb(148, 103, 189); stroke-opacity: 1; stroke-width: 3px; opacity: 1; stroke-dasharray: 9px, 9px;"/></g><g class="points"/><g class="text"/></g><g class="trace scatter trace8aafe3" style="stroke-miterlimit: 2; opacity: 1;"><g class="fills"/><g class="errorbars"/><g class="lines"><path class="js-line" d="M0,234.68H2.9V234.68H5.79V234.68H8.69V234.68H11.58V234.68H14.48V234.68H17.38V234.68H20.27V234.68H23.17V234.68H26.06V234.68H28.96V234.68H31.86V234.68H34.75V234.68H37.65V234.68H40.54V234.68H43.44V234.68H46.34V234.68H49.23V234.68H52.13V234.68H55.02V234.68H57.92V234.68H60.82V234.68H63.71V222.65H66.61V212.31H69.5V212.53H72.4V212.75H75.3V212.97H78.19V213.19H81.09V213.4H83.98V203.8H86.88V196.07H89.78V195.48H92.67V175.37H95.57V167.12H98.46V155.89H101.36V137.86H104.26V116.99H107.15V106.22H110.05V91.16H112.94V88.23H115.84V89.69H118.74V91.13H121.63V116.16H124.53V308.01H127.42V307.28H130.32V306.56H133.22V305.85H136.11V305.14H139.01V304.44H141.9V303.74H144.8V303.05H147.7V302.37H150.59V301.7H153.49V301.03H156.38V296.88H159.28V296.26H162.18V295.65H165.07V288.58H167.97V276.02H170.86V261.74H173.76V253.91H176.66V253.72H179.55V251.96H182.45V251.79H185.34V244.93H188.24V240.47H191.14V232.38H194.03V221.35H196.93V213.61H199.82V203.49H202.72V198.17H205.62V182.19H208.51V164.41H211.41V152.26H214.3V132.52H217.2V133.51H220.1V124.25H222.99V123.89H225.89V124.99H228.78V126.08H231.68V124.31H234.58V125.41H237.47V120.22H240.37V121.36H243.26V122.49H246.16V123.61H249.06V112.71H251.95V105.24H254.85V106.53H257.74V107.8H260.64V109.06H263.54V89.33H266.43V90.78H269.33V92.21H272.22V82.03H275.12V83.55H278.02V63.88H280.91V57.05H283.81V58.82H286.7V54.64H289.6V49.98H292.5V51.82H295.39V47.58H298.29V115.75H301.18V308.01H304.08V307.28H306.98V306.56H309.87V305.85H312.77V305.14H315.66V304.44H318.56V303.74H321.46V303.05H324.35V302.37H327.25V301.7H330.14V290.2H333.04V281.98H335.94V280.66H338.83V278.65H341.73V262.16H344.62V246.37H347.52V246.25H350.42V231H353.31V229.9H356.21V229.95H359.1V230H362V225.14H364.9V218.54H367.79V218.7H370.69V218.86H373.58V210.49H376.48V210.73H379.38V203.53H382.27V203.84H385.17V204.15H388.06V193.5H390.96V175.1H393.86V162.13H396.75V161.28H399.65V131.61H402.54V119.78H405.44V120.92H408.34V112.08H411.23V113.3H414.13V106.53H417.02V107.81H419.92V109.07H422.82V110.32H425.71V86.81H428.61V69.09H431.5V70.74H434.4V65.68H437.3V67.36H440.19V69.03H443.09V66.27H445.98V65.96H448.88V62.22H451.78V49.22H454.67V44.81H457.57V41.79H460.46V21.35H463.36V23.48H466.26V115.51H469.15V308.01H472.05V307.28H474.94V306.56H477.84V305.85H480.74V305.14H483.63V304.44H486.53V303.74H489.42V303.05H492.32V302.37H495.22V301.7H498.11V300.06H501.01V284.15H503.9V283.65H506.8V267.63H509.7V257.75H512.59V257.52H515.49V257.29H518.38V250.38H521.28V219.11H524.18V219.27H527.07V212.97H529.97V213.18H532.86V213.4H535.76V200.47H538.66V190.41H541.55V189.39H544.45V175.4H547.34V171.09H550.24V154.58H553.14V149.63H556.03V135.78H558.93V136.77H561.82V137.74H564.72V125.61H567.62V126.67H570.51V124.9H573.41V125.99H576.3V127.07H579.2V128.14H582.1V129.2H584.99V114.08H587.89V115.28H590.78V101.76H593.68V103.08H596.58V91.44H599.47V68.59H602.37V60.64H605.26V52.46H608.16V44.6H611.06V40.44H613.95V31.32H616.85V33.35H619.74V23.91H622.64V24.93H625.54V20.56H628.43V16.25H631.33V18.42H634.22V20.58H637.12V115.38H640.02V308.01H642.91V307.28H645.81V306.56H648.7V305.85H651.6V305.14H654.5V304.44H657.39V303.74H660.29V303.05H663.18V302.37H666.08V301.7H668.98V301.03H671.87V281.36H674.77V273.36H677.66V272.97H680.56V268.23H683.46V260.26H686.35V260H689.25V259.75H692.14V251.46H695.04V239.27H697.94V239.23H700.83V235.69H703.73V234.11H706.62V215.08H709.52V207.61H712.42V207.88H715.31V208.14H718.21V176.18H721.1V175.68" style="vector-effect: non-scaling-stroke; fill: none; stroke: rgb(31, 119, 180); stroke-opacity: 1; stroke-width: 1px; opacity: 1;"/></g><g class="points"/><g class="text"/></g><g class="trace scatter trace338387" style="stroke-miterlimit: 2; opacity: 1;"><g class="fills"/><g class="errorbars"/><g class="lines"/><g class="points"><path class="point" transform="translate(121.63,116.16)" d="M3,0A3,3 0 1,1 0,-3A3,3 0 0,1 3,0Z" style="opacity: 1; stroke-width: 0px; fill: rgb(255, 127, 14); fill-opacity: 1;"/><path class="point" transform="translate(298.29,115.75)" d="M3,0A3,3 0 1,1 0,-3A3,3 0 0,1 3,0Z" style="opacity: 1; stroke-width: 0px; fill: rgb(255, 127, 14); fill-opacity: 1;"/><path class="point" transform="translate(466.26,115.51)" d="M3,0A3,3 0 1,1 0,-3A3,3 0 0,1 3,0Z" style="opacity: 1; stroke-width: 0px; fill: rgb(255, 127, 14); fill-opacity: 1;"/><path class="point" transform="translate(637.12,115.38)" d="M3,0A3,3 0 1,1 0,-3A3,3 0 0,1 3,0Z" style="opacity: 1; stroke-width: 0px; fill: rgb(255, 127, 14); fill-opacity: 1;"/></g><g class="text"/></g></g></g><g class="overplot"/><path class="xlines-above crisp" d="M95,425.5H820" style="fill: none; stroke-width: 1px; stroke: rgb(36, 36, 36); stroke-opacity: 1;"/><path class="ylines-above crisp" d="M95.5,100V425" style="fill: none; stroke-width: 1px; stroke: rgb(36, 36, 36); stroke-opacity: 1;"/><g class="overlines-above"/><g class="xaxislayer-above"><path class="xtick ticks crisp" d="M0,426v5" transform="translate(96,0)" style="stroke: rgb(68, 68, 68); stroke-opacity: 1; stroke-width: 1px;"/><path class="xtick ticks crisp" d="M0,426v5" transform="translate(240.8,0)" style="stroke: rgb(68, 68, 68); stroke-opacity: 1; stroke-width: 1px;"/><path class="xtick ticks crisp" d="M0,426v5" transform="translate(385.6,0)" style="stroke: rgb(68, 68, 68); stroke-opacity: 1; stroke-width: 1px;"/><path class="xtick ticks crisp" d="M0,426v5" transform="translate(530.4,0)" style="stroke: rgb(68, 68, 68); stroke-opacity: 1; stroke-width: 1px;"/><path class="xtick ticks crisp" d="M0,426v5" transform="translate(675.2,0)" style="stroke: rgb(68, 68, 68); stroke-opacity: 1; stroke-width: 1px;"/><path class="xtick ticks crisp" d="M0,426v5" transform="translate(820,0)" style="stroke: rgb(68, 68, 68); stroke-opacity: 1; stroke-width: 1px;"/><g class="xtick"><text text-anchor="middle" x="0" y="455" transform="translate(96,0)" style="font-family: 'Open Sans', verdana, arial, sans-serif; font-size: 20px; fill: rgb(36, 36, 36); fill-opacity: 1; white-space: pre;">0</text></g><g class="xtick"><text text-anchor="middle" x="0" y="455" transform="translate(240.8,0)" style="font-family: 'Open Sans', verdana, arial, sans-serif; font-size: 20px; fill: rgb(36, 36, 36); fill-opacity: 1; white-space: pre;">50</text></g><g class="xtick"><text text-anchor="middle" x="0" y="455" transform="translate(385.6,0)" style="font-family: 'Open Sans', verdana, arial, sans-serif; font-size: 20px; fill: rgb(36, 36, 36); fill-opacity: 1; white-space: pre;">100</text></g><g class="xtick"><text text-anchor="middle" x="0" y="455" transform="translate(530.4,0)" style="font-family: 'Open Sans', verdana, arial, sans-serif; font-size: 20px; fill: rgb(36, 36, 36); fill-opacity: 1; white-space: pre;">150</text></g><g class="xtick"><text text-anchor="middle" x="0" y="455" transform="translate(675.2,0)" style="font-family: 'Open Sans', verdana, arial, sans-serif; font-size: 20px; fill: rgb(36, 36, 36); fill-opacity: 1; white-space: pre;">200</text></g><g class="xtick"><text text-anchor="middle" x="0" y="455" transform="translate(820,0)" style="font-family: 'Open Sans', verdana, arial, sans-serif; font-size: 20px; fill: rgb(36, 36, 36); fill-opacity: 1; white-space: pre;">250</text></g></g><g class="yaxislayer-above"><path class="ytick ticks crisp" d="M95,0h-5" transform="translate(0,408.75)" style="stroke: rgb(68, 68, 68); stroke-opacity: 1; stroke-width: 1px;"/><path class="ytick ticks crisp" d="M95,0h-5" transform="translate(0,334.68)" style="stroke: rgb(68, 68, 68); stroke-opacity: 1; stroke-width: 1px;"/><path class="ytick ticks crisp" d="M95,0h-5" transform="translate(0,260.6)" style="stroke: rgb(68, 68, 68); stroke-opacity: 1; stroke-width: 1px;"/><path class="ytick ticks crisp" d="M95,0h-5" transform="translate(0,186.53)" style="stroke: rgb(68, 68, 68); stroke-opacity: 1; stroke-width: 1px;"/><path class="ytick ticks crisp" d="M95,0h-5" transform="translate(0,112.45)" style="stroke: rgb(68, 68, 68); stroke-opacity: 1; stroke-width: 1px;"/><g class="ytick"><text text-anchor="end" x="86" y="7" transform="translate(0,408.75)" style="font-family: 'Open Sans', verdana, arial, sans-serif; font-size: 20px; fill: rgb(36, 36, 36); fill-opacity: 1; white-space: pre;">−65</text></g><g class="ytick"><text text-anchor="end" x="86" y="7" transform="translate(0,334.68)" style="font-family: 'Open Sans', verdana, arial, sans-serif; font-size: 20px; fill: rgb(36, 36, 36); fill-opacity: 1; white-space: pre;">−60</text></g><g class="ytick"><text text-anchor="end" x="86" y="7" transform="translate(0,260.6)" style="font-family: 'Open Sans', verdana, arial, sans-serif; font-size: 20px; fill: rgb(36, 36, 36); fill-opacity: 1; white-space: pre;">−55</text></g><g class="ytick"><text text-anchor="end" x="86" y="7" transform="translate(0,186.53)" style="font-family: 'Open Sans', verdana, arial, sans-serif; font-size: 20px; fill: rgb(36, 36, 36); fill-opacity: 1; white-space: pre;">−50</text></g><g class="ytick"><text text-anchor="end" x="86" y="7" transform="translate(0,112.45)" style="font-family: 'Open Sans', verdana, arial, sans-serif; font-size: 20px; fill: rgb(36, 36, 36); fill-opacity: 1; white-space: pre;">−45</text></g></g><g class="overaxes-above"/></g></g><g class="polarlayer"/><g class="ternarylayer"/><g class="geolayer"/><g class="funnelarealayer"/><g class="pielayer"/><g class="treemaplayer"/><g class="sunburstlayer"/><g class="glimages"/><defs id="topdefs-df75b8"><g class="clips"/><clipPath id="legenddf75b8"><rect width="673" height="63" x="1" y="1"/></clipPath></defs><g class="layer-above"><g class="imagelayer"/><g class="shapelayer"/></g><g class="infolayer"><g class="legend" pointer-events="all" transform="translate(96, 522.5)"><rect class="bg" shape-rendering="crispEdges" width="674" height="64" x="0.5" y="0.5" style="stroke: rgb(0, 0, 0); stroke-opacity: 1; fill: rgb(5, 5, 25); fill-opacity: 0.1; stroke-width: 1px;"/><g class="scrollbox" transform="translate(0, 0)" clip-path="url('#legenddf75b8')"><g class="groups"><g class="traces" transform="translate(1, 19.200000000000003)" style="opacity: 1;"><text class="legendtext user-select-none" text-anchor="start" x="40" y="7.0200000000000005" style="font-family: 'Open Sans', verdana, arial, sans-serif; font-size: 18px; fill: rgb(0, 0, 0); fill-opacity: 1; white-space: pre;">Reset potential</text><g class="layers" style="opacity: 0.5;"><g class="legendfill"/><g class="legendlines"><path class="js-line" d="M5,0h30" style="fill: none; stroke: rgb(44, 160, 44); stroke-opacity: 1; stroke-dasharray: 9px, 9px; stroke-width: 3px;"/></g><g class="legendsymbols"><g class="legendpoints"/></g></g><rect class="legendtoggle" pointer-events="all" x="0" y="-13.200000000000001" width="177.953125" height="26.400000000000002" style="cursor: pointer; fill: rgb(0, 0, 0); fill-opacity: 0;"/></g><g class="traces" transform="translate(238.640625, 19.200000000000003)" style="opacity: 1;"><text class="legendtext user-select-none" text-anchor="start" x="40" y="7.0200000000000005" style="font-family: 'Open Sans', verdana, arial, sans-serif; font-size: 18px; fill: rgb(0, 0, 0); fill-opacity: 1; white-space: pre;">Activation threshhold</text><g class="layers" style="opacity: 0.5;"><g class="legendfill"/><g class="legendlines"><path class="js-line" d="M5,0h30" style="fill: none; stroke: rgb(214, 39, 40); stroke-opacity: 1; stroke-dasharray: 9px, 9px; stroke-width: 3px;"/></g><g class="legendsymbols"><g class="legendpoints"/></g></g><rect class="legendtoggle" pointer-events="all" x="0" y="-13.200000000000001" width="235.140625" height="26.400000000000002" style="cursor: pointer; fill: rgb(0, 0, 0); fill-opacity: 0;"/></g><g class="traces" transform="translate(476.28125, 19.200000000000003)" style="opacity: 1;"><text class="legendtext user-select-none" text-anchor="start" x="40" y="7.0200000000000005" style="font-family: 'Open Sans', verdana, arial, sans-serif; font-size: 18px; fill: rgb(0, 0, 0); fill-opacity: 1; white-space: pre;">Resting potential</text><g class="layers" style="opacity: 0.5;"><g class="legendfill"/><g class="legendlines"><path class="js-line" d="M5,0h30" style="fill: none; stroke: rgb(148, 103, 189); stroke-opacity: 1; stroke-dasharray: 9px, 9px; stroke-width: 3px;"/></g><g class="legendsymbols"><g class="legendpoints"/></g></g><rect class="legendtoggle" pointer-events="all" x="0" y="-13.200000000000001" width="194.78125" height="26.400000000000002" style="cursor: pointer; fill: rgb(0, 0, 0); fill-opacity: 0;"/></g><g class="traces" transform="translate(1, 45.6)" style="opacity: 1;"><text class="legendtext user-select-none" text-anchor="start" x="40" y="7.0200000000000005" style="font-family: 'Open Sans', verdana, arial, sans-serif; font-size: 18px; fill: rgb(0, 0, 0); fill-opacity: 1; white-space: pre;">Voltage</text><g class="layers" style="opacity: 1;"><g class="legendfill"/><g class="legendlines"><path class="js-line" d="M5,0h30" style="fill: none; stroke: rgb(31, 119, 180); stroke-opacity: 1; stroke-width: 1px;"/></g><g class="legendsymbols"><g class="legendpoints"/></g></g><rect class="legendtoggle" pointer-events="all" x="0" y="-13.200000000000001" width="110.921875" height="26.400000000000002" style="cursor: pointer; fill: rgb(0, 0, 0); fill-opacity: 0;"/></g><g class="traces" transform="translate(238.640625, 45.6)" style="opacity: 1;"><text class="legendtext user-select-none" text-anchor="start" x="40" y="7.0200000000000005" style="font-family: 'Open Sans', verdana, arial, sans-serif; font-size: 18px; fill: rgb(0, 0, 0); fill-opacity: 1; white-space: pre;">Spikes</text><g class="layers" style="opacity: 1;"><g class="legendfill"/><g class="legendlines"/><g class="legendsymbols"><g class="legendpoints"><path class="scatterpts" transform="translate(20,0)" d="M3,0A3,3 0 1,1 0,-3A3,3 0 0,1 3,0Z" style="opacity: 1; stroke-width: 0px; fill: rgb(255, 127, 14); fill-opacity: 1;"/></g></g></g><rect class="legendtoggle" pointer-events="all" x="0" y="-13.200000000000001" width="101.546875" height="26.400000000000002" style="cursor: pointer; fill: rgb(0, 0, 0); fill-opacity: 0;"/></g></g></g><rect class="scrollbar" rx="20" ry="3" width="0" height="0" x="0" y="0" style="fill: rgb(128, 139, 164); fill-opacity: 1;"/></g><g class="g-gtitle"><text class="gtitle" x="45" y="50" text-anchor="start" dy="0em" style="font-family: 'Open Sans', verdana, arial, sans-serif; font-size: 17px; fill: rgb(36, 36, 36); opacity: 1; font-weight: normal; white-space: pre;">alif</text></g><g class="g-xtitle"><text class="xtitle" x="458" y="490.8" text-anchor="middle" style="font-family: 'Open Sans', verdana, arial, sans-serif; font-size: 24px; fill: rgb(36, 36, 36); opacity: 1; font-weight: normal; white-space: pre;">Time</text></g><g class="g-ytitle" transform="translate(11.5966796875,0)"><text class="ytitle" transform="rotate(-90,12.403125000000003,262.5)" x="12.403125000000003" y="262.5" text-anchor="middle" style="font-family: 'Open Sans', verdana, arial, sans-serif; font-size: 24px; fill: rgb(36, 36, 36); opacity: 1; font-weight: normal; white-space: pre;">Voltage</text></g></g></svg>