<svg class="main-svg" xmlns="http://www.w3.org/2000/svg" xmlns:xlink="http://www.w3.org/1999/xlink" width="800" height="500" style="" viewBox="0 0 800 500"><rect x="0" y="0" width="800" height="500" style="fill: rgb(255, 255, 255); fill-opacity: 1;"/><defs id="defs-e6980b"><g class="clips"><clipPath id="clipe6980bxyplot" class="plotclip"><rect width="633" height="314"/></clipPath><clipPath class="axesclip" id="clipe6980bx"><rect x="87" y="0" width="633" height="500"/></clipPath><clipPath class="axesclip" id="clipe6980by"><rect x="0" y="106" width="800" height="314"/></clipPath><clipPath class="axesclip" id="clipe6980bxy"><rect x="87" y="106" width="633" height="314"/></clipPath></g><g class="gradients"/></defs><g class="bglayer"><rect class="bg" x="87" y="106" width="633" height="314" style="fill: rgb(229, 236, 246); fill-opacity: 1; stroke-width: 0;"/></g><g class="layer-below"><g class="imagelayer"/><g class="shapelayer"/></g><g class="cartesianlayer"><g class="subplot xy"><g class="layer-subplot"><g class="shapelayer"/><g class="imagelayer"/></g><g class="gridlayer"><g class="x"><path class="xgrid crisp" transform="translate(213.6,0)" d="M0,106v314" style="stroke: rgb(255, 255, 255); stroke-opacity: 1; stroke-width: 1px;"/><path class="xgrid crisp" transform="translate(340.2,0)" d="M0,106v314" style="stroke: rgb(255, 255, 255); stroke-opacity: 1; stroke-width: 1px;"/><path class="xgrid crisp" transform="translate(466.8,0)" d="M0,106v314" style="stroke: rgb(255, 255, 255); stroke-opacity: 1; stroke-width: 1px;"/><path class="xgrid crisp" transform="translate(593.4,0)" d="M0,106v314" style="stroke: rgb(255, 255, 255); stroke-opacity: 1; stroke-width: 1px;"/></g><g class="y"><path class="ygrid crisp" transform="translate(0,404.3)" d="M87,0h633" style="stroke: rgb(255, 255, 255); stroke-opacity: 1; stroke-width: 1px;"/><path class="ygrid crisp" transform="translate(0,344.65999999999997)" d="M87,0h633" style="stroke: rgb(255, 255, 255); stroke-opacity: 1; stroke-width: 1px;"/><path class="ygrid crisp" transform="translate(0,285.02)" d="M87,0h633" style="stroke: rgb(255, 255, 255); stroke-opacity: 1; stroke-width: 1px;"/><path class="ygrid crisp" transform="translate(0,225.38)" d="M87,0h633" style="stroke: rgb(255, 255, 255); stroke-opacity: 1; stroke-width: 1px;"/><path class="ygrid crisp" transform="translate(0,165.73)" d="M87,0h633" style="stroke: rgb(255, 255, 255); stroke-opacity: 1; stroke-width: 1px;"/></g></g><g class="zerolinelayer"><path class="xzl zl crisp" transform="translate(87,0)" d="M0,106v314" style="stroke: rgb(0, 44, 117); stroke-opacity: 1; stroke-width: 2px;"/></g><path class="xlines-below"/><path class="ylines-below"/><g class="overlines-below"/><g class="xaxislayer-below"/><g class="yaxislayer-below"/><g class="overaxes-below"/><g class="plot" transform="translate(87, 106)" clip-path="url('#clipe6980bxyplot')"><g class="scatterlayer mlayer"><g class="trace scatter trace16560f" style="stroke-miterlimit: 2; opacity: 0.5;"><g class="fills"/><g class="errorbars"/><g class="lines"><path class="js-line" d="M0,298.3L633,298.3" style="vector-effect: non-scaling-stroke; fill: none; stroke: rgb(0, 204, 150); stroke-opacity: 1; stroke-width: 3px; opacity: 1; stroke-dasharray: 9px, 9px;"/></g><g class="points"/><g class="text"/></g><g class="trace scatter tracea54380" style="stroke-miterlimit: 2; opacity: 0.5;"><g class="fills"/><g class="errorbars"/><g class="lines"><path class="js-line" d="M0,119.38L139.26,119.38L141.79,59.73L179.77,68.04L182.3,68.55L225.35,76.5L227.88,76.92L273.46,83.92L275.99,84.27L321.56,90.05L324.1,30.7L359.54,42.29L362.08,43.05L400.06,53.68L402.59,54.34L440.57,63.4L443.1,63.95L483.61,72.15L486.14,72.62L498.8,74.9L501.34,15.7L534.25,28.34L536.78,29.24L572.23,41.02L574.76,41.8L612.74,52.6L615.28,53.27L630.47,57.12" style="vector-effect: non-scaling-stroke; fill: none; stroke: rgb(171, 99, 250); stroke-opacity: 1; stroke-width: 3px; opacity: 1; stroke-dasharray: 9px, 9px;"/></g><g class="points"/><g class="text"/></g><g class="trace scatter trace4d8cbd" style="stroke-miterlimit: 2; opacity: 0.5;"><g class="fills"/><g class="errorbars"/><g class="lines"><path class="js-line" d="M0,238.66L633,238.66" style="vector-effect: non-scaling-stroke; fill: none; stroke: rgb(255, 161, 90); stroke-opacity: 1; stroke-width: 3px; opacity: 1; stroke-dasharray: 9px, 9px;"/></g><g class="points"/><g class="text"/></g><g class="trace scatter trace38b248" style="stroke-miterlimit: 2; opacity: 1;"><g class="fills"/><g class="errorbars"/><g class="lines"><path class="js-line" d="M0,238.66L96.22,238.66L98.75,227.14L101.28,215.6L103.81,215.66L106.34,215.89L108.88,213.3L113.94,213.24L116.47,202.62L121.54,176.8L124.07,175.91L126.6,154.47L129.13,155.31L131.66,127.61L134.2,128.71L136.73,123.32L139.26,124.47L141.79,298.3L144.32,297.71L146.86,297.12L149.39,285.48L156.98,284.09L159.52,273.02L162.05,262.45L164.58,262.21L167.11,259.13L169.64,258.24L172.18,251.6L174.71,251.47L177.24,251.34L179.77,249.22L182.3,249.11L184.84,244.43L202.56,244.04L205.09,239.64L212.69,239.61L215.22,232.68L222.82,232.85L225.35,215.49L227.88,215.72L230.41,202.75L232.94,192.47L235.48,192.93L238.01,183.6L240.54,170.75L243.07,160.17L245.6,160.95L248.14,154.29L250.67,152.24L253.2,141.92L255.73,136.06L258.26,136.21L260.8,131.62L263.33,132.69L265.86,122.51L268.39,112.15L270.92,111.51L273.46,112.78L275.99,113.09L278.52,100.16L281.05,101.54L283.58,102.91L286.12,92.84L291.18,95.73L293.71,94.57L296.24,96.01L298.78,92.84L311.44,99.27L313.97,100.66L319.03,103.39L321.56,97.77L324.1,298.3L326.63,297.71L329.16,297.12L331.69,291.79L339.29,290.22L341.82,286.89L344.35,286.41L346.88,274.98L349.42,274.61L351.95,267.54L354.48,248.91L357.01,248.81L359.54,226.69L362.08,226.81L369.67,227.16L372.2,204.38L374.74,178.63L377.27,165.05L379.8,158.43L382.33,159.23L384.86,157.71L387.4,147L389.93,147.91L392.46,144.27L397.52,140.09L400.06,134.25L402.59,135.29L405.12,127.5L410.18,129.7L412.72,129.9L427.91,136.24L430.44,132.84L438.04,135.96L440.57,125.73L453.23,131.24L455.76,127.73L463.36,131L465.89,127.33L468.42,123.35L470.95,124.5L473.48,125.63L476.02,123.94L478.55,119.56L481.08,113.3L486.14,88.56L488.68,90.05L491.21,76.57L493.74,78.18L496.27,79.78L498.8,78.25L501.34,298.3L503.87,297.71L506.4,297.12L508.93,280.67L511.46,280.25L514,257.55L519.06,256.61L521.59,250.83L524.12,248.93L526.66,241.73L531.72,241.67L534.25,230.12L536.78,230.21L539.32,218.35L541.85,211.74L544.38,212L559.57,213.56L562.1,200.49L564.64,196.89L567.17,197.31L577.3,198.93L579.83,188.13L589.96,190.11L592.49,188.6L595.02,189.1L597.55,181.72L600.08,174.58L602.62,175.22L605.15,168.92L607.68,169.62L610.21,162.86L612.74,151.61L617.81,144.23L620.34,133.51L622.87,134.56L625.4,124.96L627.94,126.09L630.47,120.24" style="vector-effect: non-scaling-stroke; fill: none; stroke: rgb(99, 110, 250); stroke-opacity: 1; stroke-width: 2px; opacity: 1;"/></g><g class="points"/><g class="text"/></g><g class="trace scatter trace5fb8b8" style="stroke-miterlimit: 2; opacity: 1;"><g class="fills"/><g class="errorbars"/><g class="lines"/><g class="points"><path class="point" transform="translate(141.79,119.38)" d="M3,0A3,3 0 1,1 0,-3A3,3 0 0,1 3,0Z" style="opacity: 1; stroke-width: 0px; fill: rgb(239, 85, 59); fill-opacity: 1;"/><path class="point" transform="translate(324.1,90.05)" d="M3,0A3,3 0 1,1 0,-3A3,3 0 0,1 3,0Z" style="opacity: 1; stroke-width: 0px; fill: rgb(239, 85, 59); fill-opacity: 1;"/><path class="point" transform="translate(501.34,74.9)" d="M3,0A3,3 0 1,1 0,-3A3,3 0 0,1 3,0Z" style="opacity: 1; stroke-width: 0px; fill: rgb(239, 85, 59); fill-opacity: 1;"/></g><g class="text"/></g></g></g><g class="overplot"/><path class="xlines-above crisp" d="M0,0" style="fill: none;"/><path class="ylines-above crisp" d="M0,0" style="fill: none;"/><g class="overlines-above"/><g class="xaxislayer-above"><g class="xtick"><text text-anchor="middle" x="0" y="441" transform="translate(87,0)" style="font-family: 'Open Sans', verdana, arial, sans-serif; font-size: 20px; fill: rgb(42, 63, 95); fill-opacity: 1; white-space: pre;">0</text></g><g class="xtick"><text text-anchor="middle" x="0" y="441" transform="translate(213.6,0)" style="font-family: 'Open Sans', verdana, arial, sans-serif; font-size: 20px; fill: rgb(42, 63, 95); fill-opacity: 1; white-space: pre;">50</text></g><g class="xtick"><text text-anchor="middle" x="0" y="441" transform="translate(340.2,0)" style="font-family: 'Open Sans', verdana, arial, sans-serif; font-size: 20px; fill: rgb(42, 63, 95); fill-opacity: 1; white-space: pre;">100</text></g><g class="xtick"><text text-anchor="middle" x="0" y="441" transform="translate(466.8,0)" style="font-family: 'Open Sans', verdana, arial, sans-serif; font-size: 20px; fill: rgb(42, 63, 95); fill-opacity: 1; white-space: pre;">150</text></g><g class="xtick"><text text-anchor="middle" x="0" y="441" transform="translate(593.4,0)" style="font-family: 'Open Sans', verdana, arial, sans-serif; font-size: 20px; fill: rgb(42, 63, 95); fill-opacity: 1; white-space: pre;">200</text></g><g class="xtick"><text text-anchor="middle" x="0" y="441" transform="translate(720,0)" style="font-family: 'Open Sans', verdana, arial, sans-serif; font-size: 20px; fill: rgb(42, 63, 95); fill-opacity: 1; white-space: pre;">250</text></g></g><g class="yaxislayer-above"><g class="ytick"><text text-anchor="end" x="86" y="7" transform="translate(0,404.3)" style="font-family: 'Open Sans', verdana, arial, sans-serif; font-size: 20px; fill: rgb(42, 63, 95); fill-opacity: 1; white-space: pre;">−65</text></g><g class="ytick"><text text-anchor="end" x="86" y="7" transform="translate(0,344.65999999999997)" style="font-family: 'Open Sans', verdana, arial, sans-serif; font-size: 20px; fill: rgb(42, 63, 95); fill-opacity: 1; white-space: pre;">−60</text></g><g class="ytick"><text text-anchor="end" x="86" y="7" transform="translate(0,285.02)" style="font-family: 'Open Sans', verdana, arial, sans-serif; font-size: 20px; fill: rgb(42, 63, 95); fill-opacity: 1; white-space: pre;">−55</text></g><g class="ytick"><text text-anchor="end" x="86" y="7" transform="translate(0,225.38)" style="font-family: 'Open Sans', verdana, arial, sans-serif; font-size: 20px; fill: rgb(42, 63, 95); fill-opacity: 1; white-space: pre;">−50</text></g><g class="ytick"><text text-anchor="end" x="86" y="7" transform="translate(0,165.73)" style="font-family: 'Open Sans', verdana, arial, sans-serif; font-size: 20px; fill: rgb(42, 63, 95); fill-opacity: 1; white-space: pre;">−45</text></g><g class="ytick"><text text-anchor="end" x="86" y="7" transform="translate(0,106.09)" style="font-family: 'Open Sans', verdana, arial, sans-serif; font-size: 20px; fill: rgb(42, 63, 95); fill-opacity: 1; white-space: pre;">−40</text></g></g><g class="overaxes-above"/></g></g><g class="polarlayer"/><g class="ternarylayer"/><g class="geolayer"/><g class="funnelarealayer"/><g class="pielayer"/><g class="treemaplayer"/><g class="sunburstlayer"/><g class="glimages"/><defs id="topdefs-e6980b"><g class="clips"/><clipPath id="legende6980b"><rect width="337" height="74" x="1" y="1"/></clipPath></defs><g class="layer-above"><g class="imagelayer"/><g class="shapelayer"/></g><g class="infolayer"><g class="legend" pointer-events="all" transform="translate(87, 11.799999999999983)"><rect class="bg" shape-rendering="crispEdges" width="338" height="75" x="0.5" y="0.5" style="stroke: rgb(0, 0, 0); stroke-opacity: 1; fill: rgb(25, 211, 243); fill-opacity: 0.1; stroke-width: 1px;"/><g class="scrollbox" transform="translate(0, 0)" clip-path="url('#legende6980b')"><g class="groups"><g class="traces" transform="translate(1, 16.6)" style="opacity: 1;"><text class="legendtext user-select-none" text-anchor="start" x="40" y="5.46" style="font-family: 'Open Sans', verdana, arial, sans-serif; font-size: 14px; fill: rgb(0, 0, 0); fill-opacity: 1; white-space: pre;">Потенциал покоя</text><g class="layers" style="opacity: 0.5;"><g class="legendfill"/><g class="legendlines"><path class="js-line" d="M5,0h30" style="fill: none; stroke: rgb(0, 204, 150); stroke-opacity: 1; stroke-dasharray: 9px, 9px; stroke-width: 3px;"/></g><g class="legendsymbols"><g class="legendpoints"/></g></g><rect class="legendtoggle" pointer-events="all" x="0" y="-10.6" width="168.328125" height="21.2" style="cursor: pointer; fill: rgb(0, 0, 0); fill-opacity: 0;"/></g><g class="traces" transform="translate(214.546875, 16.6)" style="opacity: 1;"><text class="legendtext user-select-none" text-anchor="start" x="40" y="5.46" style="font-family: 'Open Sans', verdana, arial, sans-serif; font-size: 14px; fill: rgb(0, 0, 0); fill-opacity: 1; white-space: pre;">Порог</text><g class="layers" style="opacity: 0.5;"><g class="legendfill"/><g class="legendlines"><path class="js-line" d="M5,0h30" style="fill: none; stroke: rgb(171, 99, 250); stroke-opacity: 1; stroke-dasharray: 9px, 9px; stroke-width: 3px;"/></g><g class="legendsymbols"><g class="legendpoints"/></g></g><rect class="legendtoggle" pointer-events="all" x="0" y="-10.6" width="85.75" height="21.2" style="cursor: pointer; fill: rgb(0, 0, 0); fill-opacity: 0;"/></g><g class="traces" transform="translate(1, 37.8)" style="opacity: 1;"><text class="legendtext user-select-none" text-anchor="start" x="40" y="5.46" style="font-family: 'Open Sans', verdana, arial, sans-serif; font-size: 14px; fill: rgb(0, 0, 0); fill-opacity: 1; white-space: pre;">Потенциал релаксации</text><g class="layers" style="opacity: 0.5;"><g class="legendfill"/><g class="legendlines"><path class="js-line" d="M5,0h30" style="fill: none; stroke: rgb(255, 161, 90); stroke-opacity: 1; stroke-dasharray: 9px, 9px; stroke-width: 3px;"/></g><g class="legendsymbols"><g class="legendpoints"/></g></g><rect class="legendtoggle" pointer-events="all" x="0" y="-10.6" width="211.046875" height="21.2" style="cursor: pointer; fill: rgb(0, 0, 0); fill-opacity: 0;"/></g><g class="traces" transform="translate(214.546875, 37.8)" style="opacity: 1;"><text class="legendtext user-select-none" text-anchor="start" x="40" y="5.46" style="font-family: 'Open Sans', verdana, arial, sans-serif; font-size: 14px; fill: rgb(0, 0, 0); fill-opacity: 1; white-space: pre;">Потенциал</text><g class="layers" style="opacity: 1;"><g class="legendfill"/><g class="legendlines"><path class="js-line" d="M5,0h30" style="fill: none; stroke: rgb(99, 110, 250); stroke-opacity: 1; stroke-width: 2px;"/></g><g class="legendsymbols"><g class="legendpoints"/></g></g><rect class="legendtoggle" pointer-events="all" x="0" y="-10.6" width="120.8125" height="21.2" style="cursor: pointer; fill: rgb(0, 0, 0); fill-opacity: 0;"/></g><g class="traces" transform="translate(1, 59)" style="opacity: 1;"><text class="legendtext user-select-none" text-anchor="start" x="40" y="5.46" style="font-family: 'Open Sans', verdana, arial, sans-serif; font-size: 14px; fill: rgb(0, 0, 0); fill-opacity: 1; white-space: pre;">Спайки</text><g class="layers" style="opacity: 1;"><g class="legendfill"/><g class="legendlines"/><g class="legendsymbols"><g class="legendpoints"><path class="scatterpts" transform="translate(20,0)" d="M3,0A3,3 0 1,1 0,-3A3,3 0 0,1 3,0Z" style="opacity: 1; stroke-width: 0px; fill: rgb(239, 85, 59); fill-opacity: 1;"/></g></g></g><rect class="legendtoggle" pointer-events="all" x="0" y="-10.6" width="95.859375" height="21.2" style="cursor: pointer; fill: rgb(0, 0, 0); fill-opacity: 0;"/></g></g></g><rect class="scrollbar" rx="20" ry="3" width="0" height="0" x="0" y="0" style="fill: rgb(128, 139, 164); fill-opacity: 1;"/></g><g class="g-gtitle"/><g class="g-xtitle"><text class="xtitle" x="403.5" y="476.8" text-anchor="middle" style="font-family: 'Open Sans', verdana, arial, sans-serif; font-size: 24px; fill: rgb(42, 63, 95); opacity: 1; font-weight: normal; white-space: pre;">Время, мс</text></g><g class="g-ytitle" transform="translate(11.5966796875,0)"><text class="ytitle" transform="rotate(-90,12.403125000000003,263)" x="12.403125000000003" y="263" text-anchor="middle" style="font-family: 'Open Sans', verdana, arial, sans-serif; font-size: 24px; fill: rgb(42, 63, 95); opacity: 1; font-weight: normal; white-space: pre;">Напряжение, мВ</text></g></g></svg>