<svg class="main-svg" xmlns="http://www.w3.org/2000/svg" xmlns:xlink="http://www.w3.org/1999/xlink" width="800" height="500" style="" viewBox="0 0 800 500"><rect x="0" y="0" width="800" height="500" style="fill: rgb(255, 255, 255); fill-opacity: 1;"/><defs id="defs-f502a3"><g class="clips"><clipPath id="clipf502a3xyplot" class="plotclip"><rect width="633" height="228"/></clipPath><clipPath class="axesclip" id="clipf502a3x"><rect x="87" y="0" width="633" height="500"/></clipPath><clipPath class="axesclip" id="clipf502a3y"><rect x="0" y="100" width="800" height="228"/></clipPath><clipPath class="axesclip" id="clipf502a3xy"><rect x="87" y="100" width="633" height="228"/></clipPath></g><g class="gradients"/></defs><g class="bglayer"><rect class="bg" x="87" y="100" width="633" height="228" style="fill: rgb(229, 236, 246); fill-opacity: 1; stroke-width: 0;"/></g><g class="layer-below"><g class="imagelayer"/><g class="shapelayer"/></g><g class="cartesianlayer"><g class="subplot xy"><g class="layer-subplot"><g class="shapelayer"/><g class="imagelayer"/></g><g class="gridlayer"><g class="x"><path class="xgrid crisp" transform="translate(213.6,0)" d="M0,100v228" style="stroke: rgb(255, 255, 255); stroke-opacity: 1; stroke-width: 1px;"/><path class="xgrid crisp" transform="translate(340.2,0)" d="M0,100v228" style="stroke: rgb(255, 255, 255); stroke-opacity: 1; stroke-width: 1px;"/><path class="xgrid crisp" transform="translate(466.8,0)" d="M0,100v228" style="stroke: rgb(255, 255, 255); stroke-opacity: 1; stroke-width: 1px;"/><path class="xgrid crisp" transform="translate(593.4,0)" d="M0,100v228" style="stroke: rgb(255, 255, 255); stroke-opacity: 1; stroke-width: 1px;"/></g><g class="y"><path class="ygrid crisp" transform="translate(0,316.6)" d="M87,0h633" style="stroke: rgb(255, 255, 255); stroke-opacity: 1; stroke-width: 1px;"/><path class="ygrid crisp" transform="translate(0,277.8)" d="M87,0h633" style="stroke: rgb(255, 255, 255); stroke-opacity: 1; stroke-width: 1px;"/><path class="ygrid crisp" transform="translate(0,238.99)" d="M87,0h633" style="stroke: rgb(255, 255, 255); stroke-opacity: 1; stroke-width: 1px;"/><path class="ygrid crisp" transform="translate(0,200.19)" d="M87,0h633" style="stroke: rgb(255, 255, 255); stroke-opacity: 1; stroke-width: 1px;"/><path class="ygrid crisp" transform="translate(0,161.38)" d="M87,0h633" style="stroke: rgb(255, 255, 255); stroke-opacity: 1; stroke-width: 1px;"/><path class="ygrid crisp" transform="translate(0,122.58)" d="M87,0h633" style="stroke: rgb(255, 255, 255); stroke-opacity: 1; stroke-width: 1px;"/></g></g><g class="zerolinelayer"><path class="xzl zl crisp" transform="translate(87,0)" d="M0,100v228" style="stroke: rgb(0, 44, 117); stroke-opacity: 1; stroke-width: 2px;"/></g><path class="xlines-below"/><path class="ylines-below"/><g class="overlines-below"/><g class="xaxislayer-below"/><g class="yaxislayer-below"/><g class="overaxes-below"/><g class="plot" transform="translate(87, 100)" clip-path="url('#clipf502a3xyplot')"><g class="scatterlayer mlayer"><g class="trace scatter trace359ae7" style="stroke-miterlimit: 2; opacity: 0.5;"><g class="fills"/><g class="errorbars"/><g class="lines"><path class="js-line" d="M0,216.6H633V216.6" style="vector-effect: non-scaling-stroke; fill: none; stroke: rgb(0, 204, 150); stroke-opacity: 1; stroke-width: 3px; opacity: 1; stroke-dasharray: 9px, 9px;"/></g><g class="points"/><g class="text"/></g><g class="trace scatter traceba6d39" style="stroke-miterlimit: 2; opacity: 0.5;"><g class="fills"/><g class="errorbars"/><g class="lines"><path class="js-line" d="M0,100.19H2.53V100.19H5.06V100.19H7.6V100.19H10.13V100.19H12.66V100.19H15.19V100.19H17.72V100.19H20.26V100.19H22.79V100.19H25.32V100.19H27.85V100.19H30.38V100.19H32.92V100.19H35.45V100.19H37.98V100.19H40.51V100.19H43.04V100.19H45.58V100.19H48.11V100.19H50.64V100.19H53.17V100.19H55.7V100.19H58.24V100.19H60.77V100.19H63.3V100.19H65.83V100.19H68.36V100.19H70.9V100.19H73.43V100.19H75.96V100.19H78.49V100.19H81.02V100.19H83.56V100.19H86.09V100.19H88.62V100.19H91.15V100.19H93.68V61.38H96.22V61.77H98.75V62.15H101.28V62.53H103.81V62.9H106.34V63.28H108.88V63.64H111.41V64.01H113.94V64.37H116.47V64.72H119V65.08H121.54V65.43H124.07V65.77H126.6V66.11H129.13V66.45H131.66V66.79H134.2V67.12H136.73V67.45H139.26V67.78H141.79V68.1H144.32V68.42H146.86V68.73H149.39V69.05H151.92V69.36H154.45V69.66H156.98V69.97H159.52V70.27H162.05V70.57H164.58V70.86H167.11V71.15H169.64V71.44H172.18V71.73H174.71V72.01H177.24V72.29H179.77V72.57H182.3V72.84H184.84V73.11H187.37V73.38H189.9V73.65H192.43V73.91H194.96V74.18H197.5V74.43H200.03V74.69H202.56V74.94H205.09V75.2H207.62V75.44H210.16V75.69H212.69V75.93H215.22V37.37H217.75V38H220.28V38.62H222.82V39.23H225.35V39.83H227.88V40.44H230.41V41.03H232.94V41.62H235.48V42.2H238.01V42.78H240.54V43.35H243.07V43.92H245.6V44.47H248.14V45.03H250.67V45.58H253.2V46.12H255.73V46.66H258.26V47.19H260.8V47.72H263.33V48.24H265.86V48.76H268.39V49.27H270.92V49.78H273.46V50.28H275.99V50.77H278.52V51.27H281.05V51.75H283.58V52.24H286.12V52.71H288.65V53.18H291.18V53.65H293.71V54.12H296.24V54.57H298.78V55.03H301.31V55.48H303.84V55.92H306.37V56.36H308.9V56.8H311.44V57.23H313.97V57.66H316.5V58.08H319.03V58.5H321.56V58.91H324.1V59.33H326.63V59.73H329.16V21.33H331.69V22.11H334.22V22.89H336.76V23.66H339.29V24.42H341.82V25.18H344.35V25.92H346.88V26.66H349.42V27.39H351.95V28.12H354.48V28.83H357.01V29.54H359.54V30.25H362.08V30.94H364.61V31.63H367.14V32.31H369.67V32.99H372.2V33.66H374.74V34.32H377.27V34.98H379.8V35.62H382.33V36.27H384.86V36.9H387.4V37.53H389.93V38.16H392.46V38.77H394.99V39.38H397.52V39.99H400.06V40.59H402.59V41.18H405.12V41.77H407.65V42.35H410.18V42.93H412.72V43.5H415.25V44.06H417.78V44.62H420.31V45.17H422.84V45.72H425.38V46.26H427.91V46.8H430.44V47.33H432.97V47.85H435.5V48.37H438.04V48.89H440.57V49.4H443.1V49.91H445.63V50.41H448.16V50.9H450.7V51.39H453.23V51.88H455.76V13.55H458.29V14.42H460.82V15.27H463.36V16.11H465.89V16.95H468.42V17.78H470.95V18.6H473.48V19.41H476.02V20.21H478.55V21.01H481.08V21.8H483.61V22.58H486.14V23.35H488.68V24.11H491.21V24.87H493.74V25.62H496.27V26.36H498.8V27.1H501.34V27.82H503.87V28.55H506.4V29.26H508.93V29.96H511.46V30.66H514V31.35H516.53V32.04H519.06V32.72H521.59V33.39H524.12V34.05H526.66V34.71H529.19V35.36H531.72V36.01H534.25V36.65H536.78V37.28H539.32V37.9H541.85V38.52H544.38V39.14H546.91V39.75H549.44V40.35H551.98V40.94H554.51V41.53H557.04V42.12H559.57V42.69H562.1V43.27H564.64V43.83H567.17V44.39H569.7V44.95H572.23V45.5H574.76V46.04H577.3V46.58H579.83V47.11H582.36V47.64H584.89V48.16H587.42V48.68H589.96V49.19H592.49V49.7H595.02V11.4H597.55V12.28H600.08V13.16H602.62V14.02H605.15V14.88H607.68V15.73H610.21V16.57H612.74V17.4H615.28V18.23H617.81V19.04H620.34V19.85H622.87V20.65H625.4V21.44H627.94V22.22H630.47V23" style="vector-effect: non-scaling-stroke; fill: none; stroke: rgb(171, 99, 250); stroke-opacity: 1; stroke-width: 3px; opacity: 1; stroke-dasharray: 9px, 9px;"/></g><g class="points"/><g class="text"/></g><g class="trace scatter tracefca6b1" style="stroke-miterlimit: 2; opacity: 0.5;"><g class="fills"/><g class="errorbars"/><g class="lines"><path class="js-line" d="M0,177.8H633V177.8" style="vector-effect: non-scaling-stroke; fill: none; stroke: rgb(255, 161, 90); stroke-opacity: 1; stroke-width: 3px; opacity: 1; stroke-dasharray: 9px, 9px;"/></g><g class="points"/><g class="text"/></g><g class="trace scatter trace6ce90c" style="stroke-miterlimit: 2; opacity: 1;"><g class="fills"/><g class="errorbars"/><g class="lines"><path class="js-line" d="M0,177.8H2.53V177.8H5.06V177.8H7.6V177.8H10.13V177.8H12.66V177.8H15.19V177.8H17.72V177.8H20.26V177.8H22.79V177.8H25.32V177.8H27.85V177.8H30.38V177.8H32.92V177.8H35.45V177.8H37.98V177.8H40.51V177.8H43.04V177.8H45.58V177.8H48.11V177.8H50.64V177.8H53.17V177.8H55.7V177.8H58.24V177.8H60.77V177.8H63.3V177.8H65.83V177.41H68.36V163.42H70.9V157.8H73.43V140.78H75.96V138.65H78.49V135.95H81.02V120.44H83.56V117.19H86.09V113.73H88.62V109.86H91.15V101.89H93.68V100.19H96.22V216.21H98.75V215.83H101.28V215.45H103.81V215.08H106.34V214.71H108.88V214.34H111.41V213.98H113.94V213.62H116.47V213.26H119V212.91H121.54V212.56H124.07V206.44H126.6V206.15H129.13V199.57H131.66V195.82H134.2V195.65H136.73V195.47H139.26V195.29H141.79V192.68H144.32V185.2H146.86V180.42H149.39V180.4H151.92V174.99H154.45V169.42H156.98V168.15H159.52V165.13H162.05V157.72H164.58V136.11H167.11V136.53H169.64V130.51H172.18V130.98H174.71V127.29H177.24V126.56H179.77V127.07H182.3V122.12H184.84V121.53H187.37V120.88H189.9V104.86H192.43V101.19H194.96V95.91H197.5V96.73H200.03V97.53H202.56V98.33H205.09V86.04H207.62V80.02H210.16V77.46H212.69V78.46H215.22V75.93H217.75V216.21H220.28V215.83H222.82V215.45H225.35V215.08H227.88V214.71H230.41V214.34H232.94V213.98H235.48V213.62H238.01V213.26H240.54V212.91H243.07V211.34H245.6V198.55H248.14V198.34H250.67V188.93H253.2V183.3H255.73V175.9H258.26V175.92H260.8V175.93H263.33V171.68H265.86V151.8H268.39V147.9H270.92V148.19H273.46V143.41H275.99V143.75H278.52V141.65H281.05V127.96H283.58V116.95H286.12V117.17H288.65V117.78H291.18V118.37H293.71V118.97H296.24V112.61H298.78V113.26H301.31V104.21H303.84V104.94H306.37V104.27H308.9V89.73H311.44V90.6H313.97V84.13H316.5V77.5H319.03V78.5H321.56V67.31H324.1V60.89H326.63V62.06H329.16V59.73H331.69V216.21H334.22V215.83H336.76V215.45H339.29V215.08H341.82V214.71H344.35V214.34H346.88V213.98H349.42V213.62H351.95V213.26H354.48V212.91H357.01V209.44H359.54V204.53H362.08V199.96H364.61V197.51H367.14V182.19H369.67V175.21H372.2V172.73H374.74V172.78H377.27V172.14H379.8V172.2H382.33V167.56H384.86V156.57H387.4V153.25H389.93V153.12H392.46V153.36H394.99V149.78H397.52V144.46H400.06V137.49H402.59V132.12H405.12V125.12H407.65V118.84H410.18V111.87H412.72V112.52H415.25V113.17H417.78V110.7H420.31V105.32H422.84V104.09H425.38V104.82H427.91V99.24H430.44V96.94H432.97V94.66H435.5V94.26H438.04V78.99H440.57V79.97H443.1V58.76H445.63V55.78H448.16V54.45H450.7V55.62H453.23V53.79H455.76V51.88H458.29V216.21H460.82V215.83H463.36V215.45H465.89V215.08H468.42V214.71H470.95V214.34H473.48V213.98H476.02V213.62H478.55V213.26H481.08V212.91H483.61V206.26H486.14V203.2H488.68V188.3H491.21V181.39H493.74V181.35H496.27V175.94H498.8V175.96H501.34V170.83H503.87V170.89H506.4V166.9H508.93V163.92H511.46V162.1H514V162.26H516.53V162.41H519.06V152.07H521.59V145.49H524.12V145.05H526.66V140.61H529.19V140.98H531.72V135.84H534.25V114.34H536.78V114H539.32V96.52H541.85V92.8H544.38V85.51H546.91V86.42H549.44V81.07H551.98V71.57H554.51V67.23H557.04V62.55H559.57V63.7H562.1V63.44H564.64V64.58H567.17V65.71H569.7V66.82H572.23V66.71H574.76V62.44H577.3V63.58H579.83V62.61H582.36V59.06H584.89V57.06H587.42V58.26H589.96V52.65H592.49V50.45H595.02V49.7H597.55V216.21H600.08V215.83H602.62V215.45H605.15V215.08H607.68V214.71H610.21V214.34H612.74V213.98H615.28V213.62H617.81V213.26H620.34V212.91H622.87V208.08H625.4V207.77H627.94V200.23H630.47V190.47" style="vector-effect: non-scaling-stroke; fill: none; stroke: rgb(99, 110, 250); stroke-opacity: 1; stroke-width: 1px; opacity: 1;"/></g><g class="points"/><g class="text"/></g><g class="trace scatter tracea3a8f1" style="stroke-miterlimit: 2; opacity: 1;"><g class="fills"/><g class="errorbars"/><g class="lines"/><g class="points"><path class="point" transform="translate(93.68,100.19)" d="M3,0A3,3 0 1,1 0,-3A3,3 0 0,1 3,0Z" style="opacity: 1; stroke-width: 0px; fill: rgb(239, 85, 59); fill-opacity: 1;"/><path class="point" transform="translate(215.22,75.93)" d="M3,0A3,3 0 1,1 0,-3A3,3 0 0,1 3,0Z" style="opacity: 1; stroke-width: 0px; fill: rgb(239, 85, 59); fill-opacity: 1;"/><path class="point" transform="translate(329.16,59.73)" d="M3,0A3,3 0 1,1 0,-3A3,3 0 0,1 3,0Z" style="opacity: 1; stroke-width: 0px; fill: rgb(239, 85, 59); fill-opacity: 1;"/><path class="point" transform="translate(455.76,51.88)" d="M3,0A3,3 0 1,1 0,-3A3,3 0 0,1 3,0Z" style="opacity: 1; stroke-width: 0px; fill: rgb(239, 85, 59); fill-opacity: 1;"/><path class="point" transform="translate(595.02,49.7)" d="M3,0A3,3 0 1,1 0,-3A3,3 0 0,1 3,0Z" style="opacity: 1; stroke-width: 0px; fill: rgb(239, 85, 59); fill-opacity: 1;"/></g><g class="text"/></g></g></g><g class="overplot"/><path class="xlines-above crisp" d="M0,0" style="fill: none;"/><path class="ylines-above crisp" d="M0,0" style="fill: none;"/><g class="overlines-above"/><g class="xaxislayer-above"><g class="xtick"><text text-anchor="middle" x="0" y="349" transform="translate(87,0)" style="font-family: 'Open Sans', verdana, arial, sans-serif; font-size: 20px; fill: rgb(42, 63, 95); fill-opacity: 1; white-space: pre;">0</text></g><g class="xtick"><text text-anchor="middle" x="0" y="349" transform="translate(213.6,0)" style="font-family: 'Open Sans', verdana, arial, sans-serif; font-size: 20px; fill: rgb(42, 63, 95); fill-opacity: 1; white-space: pre;">50</text></g><g class="xtick"><text text-anchor="middle" x="0" y="349" transform="translate(340.2,0)" style="font-family: 'Open Sans', verdana, arial, sans-serif; font-size: 20px; fill: rgb(42, 63, 95); fill-opacity: 1; white-space: pre;">100</text></g><g class="xtick"><text text-anchor="middle" x="0" y="349" transform="translate(466.8,0)" style="font-family: 'Open Sans', verdana, arial, sans-serif; font-size: 20px; fill: rgb(42, 63, 95); fill-opacity: 1; white-space: pre;">150</text></g><g class="xtick"><text text-anchor="middle" x="0" y="349" transform="translate(593.4,0)" style="font-family: 'Open Sans', verdana, arial, sans-serif; font-size: 20px; fill: rgb(42, 63, 95); fill-opacity: 1; white-space: pre;">200</text></g><g class="xtick"><text text-anchor="middle" x="0" y="349" transform="translate(720,0)" style="font-family: 'Open Sans', verdana, arial, sans-serif; font-size: 20px; fill: rgb(42, 63, 95); fill-opacity: 1; white-space: pre;">250</text></g></g><g class="yaxislayer-above"><g class="ytick"><text text-anchor="end" x="86" y="7" transform="translate(0,316.6)" style="font-family: 'Open Sans', verdana, arial, sans-serif; font-size: 20px; fill: rgb(42, 63, 95); fill-opacity: 1; white-space: pre;">−65</text></g><g class="ytick"><text text-anchor="end" x="86" y="7" transform="translate(0,277.8)" style="font-family: 'Open Sans', verdana, arial, sans-serif; font-size: 20px; fill: rgb(42, 63, 95); fill-opacity: 1; white-space: pre;">−60</text></g><g class="ytick"><text text-anchor="end" x="86" y="7" transform="translate(0,238.99)" style="font-family: 'Open Sans', verdana, arial, sans-serif; font-size: 20px; fill: rgb(42, 63, 95); fill-opacity: 1; white-space: pre;">−55</text></g><g class="ytick"><text text-anchor="end" x="86" y="7" transform="translate(0,200.19)" style="font-family: 'Open Sans', verdana, arial, sans-serif; font-size: 20px; fill: rgb(42, 63, 95); fill-opacity: 1; white-space: pre;">−50</text></g><g class="ytick"><text text-anchor="end" x="86" y="7" transform="translate(0,161.38)" style="font-family: 'Open Sans', verdana, arial, sans-serif; font-size: 20px; fill: rgb(42, 63, 95); fill-opacity: 1; white-space: pre;">−45</text></g><g class="ytick"><text text-anchor="end" x="86" y="7" transform="translate(0,122.58)" style="font-family: 'Open Sans', verdana, arial, sans-serif; font-size: 20px; fill: rgb(42, 63, 95); fill-opacity: 1; white-space: pre;">−40</text></g></g><g class="overaxes-above"/></g></g><g class="polarlayer"/><g class="ternarylayer"/><g class="geolayer"/><g class="funnelarealayer"/><g class="pielayer"/><g class="treemaplayer"/><g class="sunburstlayer"/><g class="glimages"/><defs id="topdefs-f502a3"><g class="clips"/><clipPath id="legendf502a3"><rect width="484" height="90" x="1" y="1"/></clipPath></defs><g class="layer-above"><g class="imagelayer"/><g class="shapelayer"/></g><g class="infolayer"><g class="legend" pointer-events="all" transform="translate(87, 396.40000000000003)"><rect class="bg" shape-rendering="crispEdges" width="485" height="91" x="0.5" y="0.5" style="stroke: rgb(0, 0, 0); stroke-opacity: 1; fill: rgb(25, 211, 243); fill-opacity: 0.1; stroke-width: 1px;"/><g class="scrollbox" transform="translate(0, 0)" clip-path="url('#legendf502a3')"><g class="groups"><g class="traces" transform="translate(1, 19.200000000000003)" style="opacity: 1;"><text class="legendtext user-select-none" text-anchor="start" x="40" y="7.0200000000000005" style="font-family: 'Open Sans', verdana, arial, sans-serif; font-size: 18px; fill: rgb(0, 0, 0); fill-opacity: 1; white-space: pre;">Уровень сброса</text><g class="layers" style="opacity: 0.5;"><g class="legendfill"/><g class="legendlines"><path class="js-line" d="M5,0h30" style="fill: none; stroke: rgb(0, 204, 150); stroke-opacity: 1; stroke-dasharray: 9px, 9px; stroke-width: 3px;"/></g><g class="legendsymbols"><g class="legendpoints"/></g></g><rect class="legendtoggle" pointer-events="all" x="0" y="-13.200000000000001" width="189.453125" height="26.400000000000002" style="cursor: pointer; fill: rgb(0, 0, 0); fill-opacity: 0;"/></g><g class="traces" transform="translate(254.453125, 19.200000000000003)" style="opacity: 1;"><text class="legendtext user-select-none" text-anchor="start" x="40" y="7.0200000000000005" style="font-family: 'Open Sans', verdana, arial, sans-serif; font-size: 18px; fill: rgb(0, 0, 0); fill-opacity: 1; white-space: pre;">Порог активации</text><g class="layers" style="opacity: 0.5;"><g class="legendfill"/><g class="legendlines"><path class="js-line" d="M5,0h30" style="fill: none; stroke: rgb(171, 99, 250); stroke-opacity: 1; stroke-dasharray: 9px, 9px; stroke-width: 3px;"/></g><g class="legendsymbols"><g class="legendpoints"/></g></g><rect class="legendtoggle" pointer-events="all" x="0" y="-13.200000000000001" width="201.984375" height="26.400000000000002" style="cursor: pointer; fill: rgb(0, 0, 0); fill-opacity: 0;"/></g><g class="traces" transform="translate(1, 45.6)" style="opacity: 1;"><text class="legendtext user-select-none" text-anchor="start" x="40" y="7.0200000000000005" style="font-family: 'Open Sans', verdana, arial, sans-serif; font-size: 18px; fill: rgb(0, 0, 0); fill-opacity: 1; white-space: pre;">Уровень релаксации</text><g class="layers" style="opacity: 0.5;"><g class="legendfill"/><g class="legendlines"><path class="js-line" d="M5,0h30" style="fill: none; stroke: rgb(255, 161, 90); stroke-opacity: 1; stroke-dasharray: 9px, 9px; stroke-width: 3px;"/></g><g class="legendsymbols"><g class="legendpoints"/></g></g><rect class="legendtoggle" pointer-events="all" x="0" y="-13.200000000000001" width="235.859375" height="26.400000000000002" style="cursor: pointer; fill: rgb(0, 0, 0); fill-opacity: 0;"/></g><g class="traces" transform="translate(254.453125, 45.6)" style="opacity: 1;"><text class="legendtext user-select-none" text-anchor="start" x="40" y="7.0200000000000005" style="font-family: 'Open Sans', verdana, arial, sans-serif; font-size: 18px; fill: rgb(0, 0, 0); fill-opacity: 1; white-space: pre;">Потенциал нейрона</text><g class="layers" style="opacity: 1;"><g class="legendfill"/><g class="legendlines"><path class="js-line" d="M5,0h30" style="fill: none; stroke: rgb(99, 110, 250); stroke-opacity: 1; stroke-width: 1px;"/></g><g class="legendsymbols"><g class="legendpoints"/></g></g><rect class="legendtoggle" pointer-events="all" x="0" y="-13.200000000000001" width="227.65625" height="26.400000000000002" style="cursor: pointer; fill: rgb(0, 0, 0); fill-opacity: 0;"/></g><g class="traces" transform="translate(1, 72)" style="opacity: 1;"><text class="legendtext user-select-none" text-anchor="start" x="40" y="7.0200000000000005" style="font-family: 'Open Sans', verdana, arial, sans-serif; font-size: 18px; fill: rgb(0, 0, 0); fill-opacity: 1; white-space: pre;">Спайки этого нейрона</text><g class="layers" style="opacity: 1;"><g class="legendfill"/><g class="legendlines"/><g class="legendsymbols"><g class="legendpoints"><path class="scatterpts" transform="translate(20,0)" d="M3,0A3,3 0 1,1 0,-3A3,3 0 0,1 3,0Z" style="opacity: 1; stroke-width: 0px; fill: rgb(239, 85, 59); fill-opacity: 1;"/></g></g></g><rect class="legendtoggle" pointer-events="all" x="0" y="-13.200000000000001" width="250.953125" height="26.400000000000002" style="cursor: pointer; fill: rgb(0, 0, 0); fill-opacity: 0;"/></g></g></g><rect class="scrollbar" rx="20" ry="3" width="0" height="0" x="0" y="0" style="fill: rgb(128, 139, 164); fill-opacity: 1;"/></g><g class="g-gtitle"/><g class="g-xtitle"><text class="xtitle" x="403.5" y="384.8" text-anchor="middle" style="font-family: 'Open Sans', verdana, arial, sans-serif; font-size: 24px; fill: rgb(42, 63, 95); opacity: 1; font-weight: normal; white-space: pre;">Время, мс</text></g><g class="g-ytitle" transform="translate(11.5966796875,0)"><text class="ytitle" transform="rotate(-90,12.403125000000003,214)" x="12.403125000000003" y="214" text-anchor="middle" style="font-family: 'Open Sans', verdana, arial, sans-serif; font-size: 24px; fill: rgb(42, 63, 95); opacity: 1; font-weight: normal; white-space: pre;">Напряжение, мВ</text></g></g></svg>