<svg class="main-svg" xmlns="http://www.w3.org/2000/svg" xmlns:xlink="http://www.w3.org/1999/xlink" width="800" height="500" style="" viewBox="0 0 800 500"><rect x="0" y="0" width="800" height="500" style="fill: rgb(255, 255, 255); fill-opacity: 1;"/><defs id="defs-4a450c"><g class="clips"><clipPath id="clip4a450cxyplot" class="plotclip"><rect width="633" height="268"/></clipPath><clipPath class="axesclip" id="clip4a450cx"><rect x="87" y="0" width="633" height="500"/></clipPath><clipPath class="axesclip" id="clip4a450cy"><rect x="0" y="100" width="800" height="268"/></clipPath><clipPath class="axesclip" id="clip4a450cxy"><rect x="87" y="100" width="633" height="268"/></clipPath></g><g class="gradients"/></defs><g class="bglayer"><rect class="bg" x="87" y="100" width="633" height="268" style="fill: rgb(229, 236, 246); fill-opacity: 1; stroke-width: 0;"/></g><g class="layer-below"><g class="imagelayer"/><g class="shapelayer"/></g><g class="cartesianlayer"><g class="subplot xy"><g class="layer-subplot"><g class="shapelayer"/><g class="imagelayer"/></g><g class="gridlayer"><g class="x"><path class="xgrid crisp" transform="translate(213.6,0)" d="M0,100v268" style="stroke: rgb(255, 255, 255); stroke-opacity: 1; stroke-width: 1px;"/><path class="xgrid crisp" transform="translate(340.2,0)" d="M0,100v268" style="stroke: rgb(255, 255, 255); stroke-opacity: 1; stroke-width: 1px;"/><path class="xgrid crisp" transform="translate(466.8,0)" d="M0,100v268" style="stroke: rgb(255, 255, 255); stroke-opacity: 1; stroke-width: 1px;"/><path class="xgrid crisp" transform="translate(593.4,0)" d="M0,100v268" style="stroke: rgb(255, 255, 255); stroke-opacity: 1; stroke-width: 1px;"/></g><g class="y"><path class="ygrid crisp" transform="translate(0,354.6)" d="M87,0h633" style="stroke: rgb(255, 255, 255); stroke-opacity: 1; stroke-width: 1px;"/><path class="ygrid crisp" transform="translate(0,275.45)" d="M87,0h633" style="stroke: rgb(255, 255, 255); stroke-opacity: 1; stroke-width: 1px;"/><path class="ygrid crisp" transform="translate(0,196.3)" d="M87,0h633" style="stroke: rgb(255, 255, 255); stroke-opacity: 1; stroke-width: 1px;"/><path class="ygrid crisp" transform="translate(0,117.15)" d="M87,0h633" style="stroke: rgb(255, 255, 255); stroke-opacity: 1; stroke-width: 1px;"/></g></g><g class="zerolinelayer"><path class="xzl zl crisp" transform="translate(87,0)" d="M0,100v268" style="stroke: rgb(0, 44, 117); stroke-opacity: 1; stroke-width: 2px;"/></g><path class="xlines-below"/><path class="ylines-below"/><g class="overlines-below"/><g class="xaxislayer-below"/><g class="yaxislayer-below"/><g class="overaxes-below"/><g class="plot" transform="translate(87, 100)" clip-path="url('#clip4a450cxyplot')"><g class="scatterlayer mlayer"><g class="trace scatter tracef0b581" style="stroke-miterlimit: 2; opacity: 0.5;"><g class="fills"/><g class="errorbars"/><g class="lines"><path class="js-line" d="M0,254.6H633V254.6" style="vector-effect: non-scaling-stroke; fill: none; stroke: rgb(0, 204, 150); stroke-opacity: 1; stroke-width: 3px; opacity: 1; stroke-dasharray: 9px, 9px;"/></g><g class="points"/><g class="text"/></g><g class="trace scatter trace0d2dca" style="stroke-miterlimit: 2; opacity: 0.5;"><g class="fills"/><g class="errorbars"/><g class="lines"><path class="js-line" d="M0,17.15H2.53V17.15H5.06V17.15H7.6V17.15H10.13V17.15H12.66V17.15H15.19V17.15H17.72V17.15H20.26V17.15H22.79V17.15H25.32V17.15H27.85V17.15H30.38V17.15H32.92V17.15H35.45V17.15H37.98V17.15H40.51V17.15H43.04V17.15H45.58V17.15H48.11V17.15H50.64V17.15H53.17V17.15H55.7V17.15H58.24V17.15H60.77V17.15H63.3V17.15H65.83V17.15H68.36V17.15H70.9V17.15H73.43V17.15H75.96V17.15H78.49V17.15H81.02V17.15H83.56V17.15H86.09V17.15H88.62V17.15H91.15V17.15H93.68V17.15H96.22V17.15H98.75V17.15H101.28V17.15H103.81V17.15H106.34V17.15H108.88V17.15H111.41V17.15H113.94V17.15H116.47V17.15H119V17.15H121.54V17.15H124.07V17.15H126.6V17.15H129.13V17.15H131.66V17.15H134.2V17.15H136.73V17.15H139.26V17.15H141.79V17.15H144.32V17.15H146.86V17.15H149.39V17.15H151.92V17.15H154.45V17.15H156.98V17.15H159.52V17.15H162.05V17.15H164.58V17.15H167.11V17.15H169.64V17.15H172.18V17.15H174.71V17.15H177.24V17.15H179.77V17.15H182.3V17.15H184.84V17.15H187.37V17.15H189.9V17.15H192.43V17.15H194.96V17.15H197.5V17.15H200.03V17.15H202.56V17.15H205.09V17.15H207.62V17.15H210.16V17.15H212.69V17.15H215.22V17.15H217.75V17.15H220.28V17.15H222.82V17.15H225.35V17.15H227.88V17.15H230.41V17.15H232.94V17.15H235.48V17.15H238.01V17.15H240.54V17.15H243.07V17.15H245.6V17.15H248.14V17.15H250.67V17.15H253.2V17.15H255.73V17.15H258.26V17.15H260.8V17.15H263.33V17.15H265.86V17.15H268.39V17.15H270.92V17.15H273.46V17.15H275.99V17.15H278.52V17.15H281.05V17.15H283.58V17.15H286.12V17.15H288.65V17.15H291.18V17.15H293.71V17.15H296.24V17.15H298.78V17.15H301.31V17.15H303.84V17.15H306.37V17.15H308.9V17.15H311.44V17.15H313.97V17.15H316.5V17.15H319.03V17.15H321.56V17.15H324.1V17.15H326.63V17.15H329.16V17.15H331.69V17.15H334.22V17.15H336.76V17.15H339.29V17.15H341.82V17.15H344.35V17.15H346.88V17.15H349.42V17.15H351.95V17.15H354.48V17.15H357.01V17.15H359.54V17.15H362.08V17.15H364.61V17.15H367.14V17.15H369.67V17.15H372.2V17.15H374.74V17.15H377.27V17.15H379.8V17.15H382.33V17.15H384.86V17.15H387.4V17.15H389.93V17.15H392.46V17.15H394.99V17.15H397.52V17.15H400.06V17.15H402.59V17.15H405.12V17.15H407.65V17.15H410.18V17.15H412.72V17.15H415.25V17.15H417.78V17.15H420.31V17.15H422.84V17.15H425.38V17.15H427.91V17.15H430.44V17.15H432.97V17.15H435.5V17.15H438.04V17.15H440.57V17.15H443.1V17.15H445.63V17.15H448.16V17.15H450.7V17.15H453.23V17.15H455.76V17.15H458.29V17.15H460.82V17.15H463.36V17.15H465.89V17.15H468.42V17.15H470.95V17.15H473.48V17.15H476.02V17.15H478.55V17.15H481.08V17.15H483.61V17.15H486.14V17.15H488.68V17.15H491.21V17.15H493.74V17.15H496.27V17.15H498.8V17.15H501.34V17.15H503.87V17.15H506.4V17.15H508.93V17.15H511.46V17.15H514V17.15H516.53V17.15H519.06V17.15H521.59V17.15H524.12V17.15H526.66V17.15H529.19V17.15H531.72V17.15H534.25V17.15H536.78V17.15H539.32V17.15H541.85V17.15H544.38V17.15H546.91V17.15H549.44V17.15H551.98V17.15H554.51V17.15H557.04V17.15H559.57V17.15H562.1V17.15H564.64V17.15H567.17V17.15H569.7V17.15H572.23V17.15H574.76V17.15H577.3V17.15H579.83V17.15H582.36V17.15H584.89V17.15H587.42V17.15H589.96V17.15H592.49V17.15H595.02V17.15H597.55V17.15H600.08V17.15H602.62V17.15H605.15V17.15H607.68V17.15H610.21V17.15H612.74V17.15H615.28V17.15H617.81V17.15H620.34V17.15H622.87V17.15H625.4V17.15H627.94V17.15H630.47V17.15" style="vector-effect: non-scaling-stroke; fill: none; stroke: rgb(171, 99, 250); stroke-opacity: 1; stroke-width: 3px; opacity: 1; stroke-dasharray: 9px, 9px;"/></g><g class="points"/><g class="text"/></g><g class="trace scatter trace76ede7" style="stroke-miterlimit: 2; opacity: 1;"><g class="fills"/><g class="errorbars"/><g class="lines"><path class="js-line" d="M0,254.6H2.53V254.6H5.06V254.6H7.6V254.6H10.13V254.6H12.66V254.6H15.19V254.6H17.72V254.6H20.26V254.6H22.79V254.6H25.32V254.6H27.85V254.6H30.38V254.6H32.92V254.6H35.45V254.6H37.98V254.6H40.51V254.6H43.04V254.6H45.58V254.6H48.11V254.6H50.64V254.6H53.17V254.6H55.7V254.6H58.24V254.6H60.77V254.6H63.3V254.6H65.83V248.08H68.36V224.64H70.9V224.52H73.43V193.19H75.96V182.83H78.49V173.49H81.02V148.28H83.56V128.46H86.09V116.85H88.62V96.71H91.15V88.86H93.68V72.14H96.22V57.92H98.75V52.12H101.28V28.17H103.81V23.17H106.34V17.15H108.88V254.6H111.41V254.6H113.94V254.6H116.47V254.6H119V254.6H121.54V254.6H124.07V254.6H126.6V254.6H129.13V254.6H131.66V254.6H134.2V254.6H136.73V254.6H139.26V254.6H141.79V252.5H144.32V241.12H146.86V237.31H149.39V237.31H151.92V237.24H154.45V228.09H156.98V218H159.52V208.28H162.05V175.05H164.58V145.15H167.11V145.15H169.64V120.64H172.18V120.64H174.71V117.74H177.24V104.71H179.77V104.71H182.3V82.68H184.84V72.96H187.37V62.21H189.9V51.45H192.43V46.43H194.96V42.78H197.5V42.78H200.03V42.78H202.56V42.78H205.09V27.07H207.62V21.19H210.16V17.15H212.69V254.6H215.22V254.6H217.75V254.6H220.28V254.6H222.82V254.6H225.35V254.6H227.88V254.6H230.41V254.6H232.94V254.6H235.48V254.6H238.01V245.45H240.54V221.43H243.07V210.16H245.6V184.66H248.14V184.66H250.67V154.17H253.2V141.68H255.73V121.69H258.26V121.69H260.8V121.69H263.33V94.33H265.86V69.77H268.39V66.87H270.92V66.87H273.46V43.21H275.99V43.21H278.52V41.11H281.05V21.24H283.58V17.15H286.12V254.6H288.65V254.6H291.18V254.6H293.71V254.6H296.24V254.6H298.78V254.6H301.31V254.6H303.84V254.6H306.37V254.6H308.9V254.6H311.44V254.6H313.97V243.21H316.5V237.41H319.03V237.41H321.56V230.28H324.1V227.94H326.63V227.94H329.16V217.76H331.69V208.42H334.22V194.89H336.76V179.86H339.29V168.25H341.82V160.11H344.35V160.11H346.88V143.43H349.42V138.41H351.95V120.5H354.48V106.18H357.01V96.45H359.54V92.98H362.08V80.76H364.61V67.32H367.14V49.96H369.67V44.08H372.2V33.72H374.74V33.72H377.27V17.15H379.8V254.6H382.33V254.6H384.86V254.6H387.4V254.6H389.93V254.6H392.46V254.6H394.99V254.6H397.52V254.6H400.06V254.6H402.59V254.6H405.12V232.81H407.65V225.74H410.18V219.94H412.72V219.94H415.25V219.94H417.78V210.22H420.31V206.57H422.84V193.04H425.38V193.04H427.91V180.62H430.44V180.19H432.97V170.85H435.5V157.81H438.04V130.41H440.57V130.41H443.1V107.85H445.63V104.95H448.16V90.33H450.7V83.23H453.23V68.9H455.76V43.57H458.29V43.57H460.82V28.37H463.36V17.15H465.89V254.6H468.42V254.6H470.95V254.6H473.48V254.6H476.02V254.6H478.55V254.6H481.08V254.6H483.61V254.6H486.14V254.6H488.68V254.6H491.21V247.53H493.74V247.53H496.27V247.47H498.8V247.47H501.34V236.35H503.87V236.35H506.4V224.74H508.93V215.4H511.46V201.87H514V201.87H516.53V201.87H519.06V182.22H521.59V160.04H524.12V156.84H526.66V151.76H529.19V151.76H531.72V139.26H534.25V115.3H536.78V105.27H539.32V80.14H541.85V70.94H544.38V54.32H546.91V54.32H549.44V27.26H551.98V17.15H554.51V254.6H557.04V254.6H559.57V254.6H562.1V254.6H564.64V254.6H567.17V254.6H569.7V254.6H572.23V254.6H574.76V254.6H577.3V254.6H579.83V253.9H582.36V250.09H584.89V223.52H587.42V223.52H589.96V216.45H592.49V212.19H595.02V203.04H597.55V191.65H600.08V181.73H602.62V172H605.15V160.4H607.68V141.03H610.21V141.03H612.74V117.17H615.28V114.47H617.81V105.07H620.34V105.07H622.87V100.13H625.4V100.13H627.94V85.74H630.47V65.27" style="vector-effect: non-scaling-stroke; fill: none; stroke: rgb(99, 110, 250); stroke-opacity: 1; stroke-width: 1px; opacity: 1;"/></g><g class="points"/><g class="text"/></g><g class="trace scatter trace0e6684" style="stroke-miterlimit: 2; opacity: 1;"><g class="fills"/><g class="errorbars"/><g class="lines"/><g class="points"><path class="point" transform="translate(106.34,17.15)" d="M3,0A3,3 0 1,1 0,-3A3,3 0 0,1 3,0Z" style="opacity: 1; stroke-width: 0px; fill: rgb(239, 85, 59); fill-opacity: 1;"/><path class="point" transform="translate(210.16,17.15)" d="M3,0A3,3 0 1,1 0,-3A3,3 0 0,1 3,0Z" style="opacity: 1; stroke-width: 0px; fill: rgb(239, 85, 59); fill-opacity: 1;"/><path class="point" transform="translate(283.58,17.15)" d="M3,0A3,3 0 1,1 0,-3A3,3 0 0,1 3,0Z" style="opacity: 1; stroke-width: 0px; fill: rgb(239, 85, 59); fill-opacity: 1;"/><path class="point" transform="translate(377.27,17.15)" d="M3,0A3,3 0 1,1 0,-3A3,3 0 0,1 3,0Z" style="opacity: 1; stroke-width: 0px; fill: rgb(239, 85, 59); fill-opacity: 1;"/><path class="point" transform="translate(463.36,17.15)" d="M3,0A3,3 0 1,1 0,-3A3,3 0 0,1 3,0Z" style="opacity: 1; stroke-width: 0px; fill: rgb(239, 85, 59); fill-opacity: 1;"/><path class="point" transform="translate(551.98,17.15)" d="M3,0A3,3 0 1,1 0,-3A3,3 0 0,1 3,0Z" style="opacity: 1; stroke-width: 0px; fill: rgb(239, 85, 59); fill-opacity: 1;"/></g><g class="text"/></g></g></g><g class="overplot"/><path class="xlines-above crisp" d="M0,0" style="fill: none;"/><path class="ylines-above crisp" d="M0,0" style="fill: none;"/><g class="overlines-above"/><g class="xaxislayer-above"><g class="xtick"><text text-anchor="middle" x="0" y="389" transform="translate(87,0)" style="font-family: 'Open Sans', verdana, arial, sans-serif; font-size: 20px; fill: rgb(42, 63, 95); fill-opacity: 1; white-space: pre;">0</text></g><g class="xtick"><text text-anchor="middle" x="0" y="389" transform="translate(213.6,0)" style="font-family: 'Open Sans', verdana, arial, sans-serif; font-size: 20px; fill: rgb(42, 63, 95); fill-opacity: 1; white-space: pre;">50</text></g><g class="xtick"><text text-anchor="middle" x="0" y="389" transform="translate(340.2,0)" style="font-family: 'Open Sans', verdana, arial, sans-serif; font-size: 20px; fill: rgb(42, 63, 95); fill-opacity: 1; white-space: pre;">100</text></g><g class="xtick"><text text-anchor="middle" x="0" y="389" transform="translate(466.8,0)" style="font-family: 'Open Sans', verdana, arial, sans-serif; font-size: 20px; fill: rgb(42, 63, 95); fill-opacity: 1; white-space: pre;">150</text></g><g class="xtick"><text text-anchor="middle" x="0" y="389" transform="translate(593.4,0)" style="font-family: 'Open Sans', verdana, arial, sans-serif; font-size: 20px; fill: rgb(42, 63, 95); fill-opacity: 1; white-space: pre;">200</text></g><g class="xtick"><text text-anchor="middle" x="0" y="389" transform="translate(720,0)" style="font-family: 'Open Sans', verdana, arial, sans-serif; font-size: 20px; fill: rgb(42, 63, 95); fill-opacity: 1; white-space: pre;">250</text></g></g><g class="yaxislayer-above"><g class="ytick"><text text-anchor="end" x="86" y="7" transform="translate(0,354.6)" style="font-family: 'Open Sans', verdana, arial, sans-serif; font-size: 20px; fill: rgb(42, 63, 95); fill-opacity: 1; white-space: pre;">−65</text></g><g class="ytick"><text text-anchor="end" x="86" y="7" transform="translate(0,275.45)" style="font-family: 'Open Sans', verdana, arial, sans-serif; font-size: 20px; fill: rgb(42, 63, 95); fill-opacity: 1; white-space: pre;">−60</text></g><g class="ytick"><text text-anchor="end" x="86" y="7" transform="translate(0,196.3)" style="font-family: 'Open Sans', verdana, arial, sans-serif; font-size: 20px; fill: rgb(42, 63, 95); fill-opacity: 1; white-space: pre;">−55</text></g><g class="ytick"><text text-anchor="end" x="86" y="7" transform="translate(0,117.15)" style="font-family: 'Open Sans', verdana, arial, sans-serif; font-size: 20px; fill: rgb(42, 63, 95); fill-opacity: 1; white-space: pre;">−50</text></g></g><g class="overaxes-above"/></g></g><g class="polarlayer"/><g class="ternarylayer"/><g class="geolayer"/><g class="funnelarealayer"/><g class="pielayer"/><g class="treemaplayer"/><g class="sunburstlayer"/><g class="glimages"/><defs id="topdefs-4a450c"><g class="clips"/><clipPath id="legend4a450c"><rect width="105" height="37" x="1" y="1"/></clipPath></defs><g class="layer-above"><g class="imagelayer"/><g class="shapelayer"/></g><g class="infolayer"><g class="legend" pointer-events="all" transform="translate(87, 448.40000000000003)"><rect class="bg" shape-rendering="crispEdges" width="106" height="38" x="0.5" y="0.5" style="stroke: rgb(0, 0, 0); stroke-opacity: 1; fill: rgb(25, 211, 243); fill-opacity: 0.1; stroke-width: 1px;"/><g class="scrollbox" transform="translate(0, 0)" clip-path="url('#legend4a450c')"><g class="groups"><g class="traces" transform="translate(1, 19.200000000000003)" style="opacity: 1;"><text class="legendtext user-select-none" text-anchor="start" x="40" y="7.0200000000000005" style="font-family: 'Open Sans', verdana, arial, sans-serif; font-size: 18px; fill: rgb(0, 0, 0); fill-opacity: 1; white-space: pre;">Reset potential</text><g class="layers" style="opacity: 0.5;"><g class="legendfill"/><g class="legendlines"><path class="js-line" d="M5,0h30" style="fill: none; stroke: rgb(0, 204, 150); stroke-opacity: 1; stroke-dasharray: 9px, 9px; stroke-width: 3px;"/></g><g class="legendsymbols"><g class="legendpoints"/></g></g><rect class="legendtoggle" pointer-events="all" x="0" y="-13.200000000000001" width="177.953125" height="26.400000000000002" style="cursor: pointer; fill: rgb(0, 0, 0); fill-opacity: 0;"/></g><g class="traces" transform="translate(181.453125, 19.200000000000003)" style="opacity: 1;"><text class="legendtext user-select-none" text-anchor="start" x="40" y="7.0200000000000005" style="font-family: 'Open Sans', verdana, arial, sans-serif; font-size: 18px; fill: rgb(0, 0, 0); fill-opacity: 1; white-space: pre;">Activation threshhold</text><g class="layers" style="opacity: 0.5;"><g class="legendfill"/><g class="legendlines"><path class="js-line" d="M5,0h30" style="fill: none; stroke: rgb(171, 99, 250); stroke-opacity: 1; stroke-dasharray: 9px, 9px; stroke-width: 3px;"/></g><g class="legendsymbols"><g class="legendpoints"/></g></g><rect class="legendtoggle" pointer-events="all" x="0" y="-13.200000000000001" width="235.140625" height="26.400000000000002" style="cursor: pointer; fill: rgb(0, 0, 0); fill-opacity: 0;"/></g><g class="traces" transform="translate(419.09375, 19.200000000000003)" style="opacity: 1;"><text class="legendtext user-select-none" text-anchor="start" x="40" y="7.0200000000000005" style="font-family: 'Open Sans', verdana, arial, sans-serif; font-size: 18px; fill: rgb(0, 0, 0); fill-opacity: 1; white-space: pre;">Voltage</text><g class="layers" style="opacity: 1;"><g class="legendfill"/><g class="legendlines"><path class="js-line" d="M5,0h30" style="fill: none; stroke: rgb(99, 110, 250); stroke-opacity: 1; stroke-width: 1px;"/></g><g class="legendsymbols"><g class="legendpoints"/></g></g><rect class="legendtoggle" pointer-events="all" x="0" y="-13.200000000000001" width="110.921875" height="26.400000000000002" style="cursor: pointer; fill: rgb(0, 0, 0); fill-opacity: 0;"/></g><g class="traces" transform="translate(1, 45.6)" style="opacity: 1;"><text class="legendtext user-select-none" text-anchor="start" x="40" y="7.0200000000000005" style="font-family: 'Open Sans', verdana, arial, sans-serif; font-size: 18px; fill: rgb(0, 0, 0); fill-opacity: 1; white-space: pre;">Spikes</text><g class="layers" style="opacity: 1;"><g class="legendfill"/><g class="legendlines"/><g class="legendsymbols"><g class="legendpoints"><path class="scatterpts" transform="translate(20,0)" d="M3,0A3,3 0 1,1 0,-3A3,3 0 0,1 3,0Z" style="opacity: 1; stroke-width: 0px; fill: rgb(239, 85, 59); fill-opacity: 1;"/></g></g></g><rect class="legendtoggle" pointer-events="all" x="0" y="-13.200000000000001" width="101.546875" height="26.400000000000002" style="cursor: pointer; fill: rgb(0, 0, 0); fill-opacity: 0;"/></g></g></g><rect class="scrollbar" rx="20" ry="3" width="0" height="0" x="0" y="0" style="fill: rgb(128, 139, 164); fill-opacity: 1;"/></g><g class="g-gtitle"><text class="gtitle" x="40" y="50" text-anchor="start" dy="0em" style="font-family: 'Open Sans', verdana, arial, sans-serif; font-size: 17px; fill: rgb(42, 63, 95); opacity: 1; font-weight: normal; white-space: pre;">if</text></g><g class="g-xtitle"><text class="xtitle" x="403.5" y="424.8" text-anchor="middle" style="font-family: 'Open Sans', verdana, arial, sans-serif; font-size: 24px; fill: rgb(42, 63, 95); opacity: 1; font-weight: normal; white-space: pre;">Time</text></g><g class="g-ytitle" transform="translate(11.5966796875,0)"><text class="ytitle" transform="rotate(-90,12.403125000000003,234)" x="12.403125000000003" y="234" text-anchor="middle" style="font-family: 'Open Sans', verdana, arial, sans-serif; font-size: 24px; fill: rgb(42, 63, 95); opacity: 1; font-weight: normal; white-space: pre;">Voltage</text></g></g></svg>