<svg class="main-svg" xmlns="http://www.w3.org/2000/svg" xmlns:xlink="http://www.w3.org/1999/xlink" width="900" height="600" style="" viewBox="0 0 900 600"><rect x="0" y="0" width="900" height="600" style="fill: rgb(255, 255, 255); fill-opacity: 1;"/><defs id="defs-7376f8"><g class="clips"><clipPath id="clip7376f8xyplot" class="plotclip"><rect width="724" height="345"/></clipPath><clipPath class="axesclip" id="clip7376f8x"><rect x="96" y="0" width="724" height="600"/></clipPath><clipPath class="axesclip" id="clip7376f8y"><rect x="0" y="100" width="900" height="345"/></clipPath><clipPath class="axesclip" id="clip7376f8xy"><rect x="96" y="100" width="724" height="345"/></clipPath></g><g class="gradients"/></defs><g class="bglayer"/><g class="layer-below"><g class="imagelayer"/><g class="shapelayer"/></g><g class="cartesianlayer"><g class="subplot xy"><g class="layer-subplot"><g class="shapelayer"/><g class="imagelayer"/></g><g class="gridlayer"><g class="x"/><g class="y"/></g><g class="zerolinelayer"/><path class="xlines-below"/><path class="ylines-below"/><g class="overlines-below"/><g class="xaxislayer-below"/><g class="yaxislayer-below"/><g class="overaxes-below"/><g class="plot" transform="translate(96, 100)" clip-path="url('#clip7376f8xyplot')"><g class="scatterlayer mlayer"><g class="trace scatter trace45a08e" style="stroke-miterlimit: 2; opacity: 0.5;"><g class="fills"/><g class="errorbars"/><g class="lines"><path class="js-line" d="M0,327.75H724V327.75" style="vector-effect: non-scaling-stroke; fill: none; stroke: rgb(44, 160, 44); stroke-opacity: 1; stroke-width: 3px; opacity: 1; stroke-dasharray: 9px, 9px;"/></g><g class="points"/><g class="text"/></g><g class="trace scatter trace923603" style="stroke-miterlimit: 2; opacity: 0.5;"><g class="fills"/><g class="errorbars"/><g class="lines"><path class="js-line" d="M0,57.55H2.9V57.55H5.79V57.55H8.69V57.55H11.58V57.55H14.48V57.55H17.38V57.55H20.27V57.55H23.17V57.55H26.06V57.55H28.96V57.55H31.86V57.55H34.75V57.55H37.65V57.55H40.54V57.55H43.44V57.55H46.34V57.55H49.23V57.55H52.13V57.55H55.02V57.55H57.92V57.55H60.82V57.55H63.71V57.55H66.61V57.55H69.5V57.55H72.4V57.55H75.3V57.55H78.19V57.55H81.09V57.55H83.98V57.55H86.88V57.55H89.78V57.55H92.67V57.55H95.57V57.55H98.46V57.55H101.36V57.55H104.26V57.55H107.15V57.55H110.05V57.55H112.94V57.55H115.84V57.55H118.74V57.55H121.63V57.55H124.53V57.55H127.42V57.55H130.32V57.55H133.22V57.55H136.11V57.55H139.01V57.55H141.9V57.55H144.8V57.55H147.7V57.55H150.59V57.55H153.49V57.55H156.38V57.55H159.28V57.55H162.18V57.55H165.07V57.55H167.97V57.55H170.86V57.55H173.76V57.55H176.66V57.55H179.55V57.55H182.45V57.55H185.34V57.55H188.24V57.55H191.14V57.55H194.03V57.55H196.93V57.55H199.82V57.55H202.72V57.55H205.62V57.55H208.51V57.55H211.41V57.55H214.3V57.55H217.2V57.55H220.1V57.55H222.99V57.55H225.89V57.55H228.78V57.55H231.68V57.55H234.58V57.55H237.47V57.55H240.37V57.55H243.26V57.55H246.16V57.55H249.06V57.55H251.95V57.55H254.85V57.55H257.74V57.55H260.64V57.55H263.54V57.55H266.43V57.55H269.33V57.55H272.22V57.55H275.12V57.55H278.02V57.55H280.91V57.55H283.81V57.55H286.7V57.55H289.6V57.55H292.5V57.55H295.39V57.55H298.29V57.55H301.18V57.55H304.08V57.55H306.98V57.55H309.87V57.55H312.77V57.55H315.66V57.55H318.56V57.55H321.46V57.55H324.35V57.55H327.25V57.55H330.14V57.55H333.04V57.55H335.94V57.55H338.83V57.55H341.73V57.55H344.62V57.55H347.52V57.55H350.42V57.55H353.31V57.55H356.21V57.55H359.1V57.55H362V57.55H364.9V57.55H367.79V57.55H370.69V57.55H373.58V57.55H376.48V57.55H379.38V57.55H382.27V57.55H385.17V57.55H388.06V57.55H390.96V57.55H393.86V57.55H396.75V57.55H399.65V57.55H402.54V57.55H405.44V57.55H408.34V57.55H411.23V57.55H414.13V57.55H417.02V57.55H419.92V57.55H422.82V57.55H425.71V57.55H428.61V57.55H431.5V57.55H434.4V57.55H437.3V57.55H440.19V57.55H443.09V57.55H445.98V57.55H448.88V57.55H451.78V57.55H454.67V57.55H457.57V57.55H460.46V57.55H463.36V57.55H466.26V57.55H469.15V57.55H472.05V57.55H474.94V57.55H477.84V57.55H480.74V57.55H483.63V57.55H486.53V57.55H489.42V57.55H492.32V57.55H495.22V57.55H498.11V57.55H501.01V57.55H503.9V57.55H506.8V57.55H509.7V57.55H512.59V57.55H515.49V57.55H518.38V57.55H521.28V57.55H524.18V57.55H527.07V57.55H529.97V57.55H532.86V57.55H535.76V57.55H538.66V57.55H541.55V57.55H544.45V57.55H547.34V57.55H550.24V57.55H553.14V57.55H556.03V57.55H558.93V57.55H561.82V57.55H564.72V57.55H567.62V57.55H570.51V57.55H573.41V57.55H576.3V57.55H579.2V57.55H582.1V57.55H584.99V57.55H587.89V57.55H590.78V57.55H593.68V57.55H596.58V57.55H599.47V57.55H602.37V57.55H605.26V57.55H608.16V57.55H611.06V57.55H613.95V57.55H616.85V57.55H619.74V57.55H622.64V57.55H625.54V57.55H628.43V57.55H631.33V57.55H634.22V57.55H637.12V57.55H640.02V57.55H642.91V57.55H645.81V57.55H648.7V57.55H651.6V57.55H654.5V57.55H657.39V57.55H660.29V57.55H663.18V57.55H666.08V57.55H668.98V57.55H671.87V57.55H674.77V57.55H677.66V57.55H680.56V57.55H683.46V57.55H686.35V57.55H689.25V57.55H692.14V57.55H695.04V57.55H697.94V57.55H700.83V57.55H703.73V57.55H706.62V57.55H709.52V57.55H712.42V57.55H715.31V57.55H718.21V57.55H721.1V57.55" style="vector-effect: non-scaling-stroke; fill: none; stroke: rgb(214, 39, 40); stroke-opacity: 1; stroke-width: 3px; opacity: 1; stroke-dasharray: 9px, 9px;"/></g><g class="points"/><g class="text"/></g><g class="trace scatter trace53b518" style="stroke-miterlimit: 2; opacity: 1;"><g class="fills"/><g class="errorbars"/><g class="lines"><path class="js-line" d="M0,327.75H2.9V327.75H5.79V327.75H8.69V327.75H11.58V327.75H14.48V327.75H17.38V327.75H20.27V327.75H23.17V327.75H26.06V327.75H28.96V327.75H31.86V327.75H34.75V327.75H37.65V327.75H40.54V327.75H43.44V327.75H46.34V327.75H49.23V327.75H52.13V327.75H55.02V327.75H57.92V327.75H60.82V327.75H63.71V313.65H66.61V286H69.5V286H72.4V286H75.3V286H78.19V286H81.09V286H83.98V279.29H86.88V277.76H89.78V263.92H92.67V231.69H95.57V211.65H98.46V192.2H101.36V143.07H104.26V85.24H107.15V33.72H110.05V30.96H112.94V27.24H115.84V27.24H118.74V27.24H121.63V24.01H124.53V21.28H127.42V57.55H130.32V327.75H133.22V327.75H136.11V327.75H139.01V327.75H141.9V327.75H144.8V327.75H147.7V327.75H150.59V327.75H153.49V327.75H156.38V327.75H159.28V327.75H162.18V327.75H165.07V312.64H167.97V298.54H170.86V271.34H173.76V257.54H176.66V257.54H179.55V249.48H182.45V249.48H185.34V244.09H188.24V240.36H191.14V238.83H194.03V232.91H196.93V201.95H199.82V189.62H202.72V177.2H205.62V174.45H208.51V144.46H211.41V126.24H214.3V92.93H217.2V77.85H220.1V50.82H222.99V37.02H225.89V37.02H228.78V37.02H231.68V17.57H234.58V17.57H237.47V57.55H240.37V327.75H243.26V327.75H246.16V327.75H249.06V327.75H251.95V327.75H254.85V327.75H257.74V327.75H260.64V327.75H263.54V327.75H266.43V327.75H269.33V327.75H272.22V316.31H275.12V316.31H278.02V295.13H280.91V282.26H283.81V282.26H286.7V270.47H289.6V269.51H292.5V269.51H295.39V255.16H298.29V218.13H301.18V183.01H304.08V161.44H306.98V149.1H309.87V135.1H312.77V116.77H315.66V88.62H318.56V88.62H321.46V71.55H324.35V57.76H327.25V57.76H330.14V31H333.04V17.25H335.94V57.55H338.83V327.75H341.73V327.75H344.62V327.75H347.52V327.75H350.42V327.75H353.31V327.75H356.21V327.75H359.1V327.75H362V327.75H364.9V327.75H367.79V327.75H370.69V327.75H373.58V314.88H376.48V314.88H379.38V300.08H382.27V300.08H385.17V300.08H388.06V285.07H390.96V240.07H393.86V197.8H396.75V189.74H399.65V156.54H402.54V138.32H405.44V138.32H408.34V122.01H411.23V122.01H414.13V114.69H417.02V114.69H419.92V114.69H422.82V114.69H425.71V76.33H428.61V64.12H431.5V64.12H434.4V58.73H437.3V58.73H440.19V58.73H443.09V24.83H445.98V57.55H448.88V327.75H451.78V327.75H454.67V327.75H457.57V327.75H460.46V327.75H463.36V327.75H466.26V327.75H469.15V327.75H472.05V327.75H474.94V327.75H477.84V310.8H480.74V310.8H483.63V310.8H486.53V296.79H489.42V288.73H492.32V285.01H495.22V285.01H498.11V271.17H501.01V231.06H503.9V231.06H506.8V209.96H509.7V176.86H512.59V176.86H515.49V176.86H518.38V171.47H521.28V149.91H524.18V149.91H527.07V148.95H529.97V148.95H532.86V148.95H535.76V142.46H538.66V107.97H541.55V94.17H544.45V89.65H547.34V83.6H550.24V53.27H553.14V39.07H556.03V23.01H558.93V23.01H561.82V23.01H564.72V57.55H567.62V327.75H570.51V327.75H573.41V327.75H576.3V327.75H579.2V327.75H582.1V327.75H584.99V327.75H587.89V327.75H590.78V327.75H593.68V327.75H596.58V318.32H599.47V288.58H602.37V278.99H605.26V256.89H608.16V242.15H611.06V227.81H613.95V221.88H616.85V221.88H619.74V205.65H622.64V195.97H625.54V195H628.43V177.37H631.33V177.37H634.22V177.37H637.12V138.45H640.02V132.41H642.91V120.07H645.81V120.07H648.7V113.59H651.6V96.64H654.5V79.58H657.39V79.58H660.29V79.58H663.18V37.83H666.08V28.84H668.98V28.84H671.87V57.55H674.77V327.75H677.66V327.75H680.56V327.75H683.46V327.75H686.35V327.75H689.25V327.75H692.14V327.75H695.04V327.75H697.94V327.75H700.83V327.75H703.73V319.69H706.62V306.45H709.52V292.71H712.42V292.71H715.31V292.71H718.21V244.72H721.1V235.04" style="vector-effect: non-scaling-stroke; fill: none; stroke: rgb(31, 119, 180); stroke-opacity: 1; stroke-width: 1px; opacity: 1;"/></g><g class="points"/><g class="text"/></g><g class="trace scatter trace5980ac" style="stroke-miterlimit: 2; opacity: 1;"><g class="fills"/><g class="errorbars"/><g class="lines"/><g class="points"><path class="point" transform="translate(127.42,57.55)" d="M3,0A3,3 0 1,1 0,-3A3,3 0 0,1 3,0Z" style="opacity: 1; stroke-width: 0px; fill: rgb(255, 127, 14); fill-opacity: 1;"/><path class="point" transform="translate(237.47,57.55)" d="M3,0A3,3 0 1,1 0,-3A3,3 0 0,1 3,0Z" style="opacity: 1; stroke-width: 0px; fill: rgb(255, 127, 14); fill-opacity: 1;"/><path class="point" transform="translate(335.94,57.55)" d="M3,0A3,3 0 1,1 0,-3A3,3 0 0,1 3,0Z" style="opacity: 1; stroke-width: 0px; fill: rgb(255, 127, 14); fill-opacity: 1;"/><path class="point" transform="translate(445.98,57.55)" d="M3,0A3,3 0 1,1 0,-3A3,3 0 0,1 3,0Z" style="opacity: 1; stroke-width: 0px; fill: rgb(255, 127, 14); fill-opacity: 1;"/><path class="point" transform="translate(564.72,57.55)" d="M3,0A3,3 0 1,1 0,-3A3,3 0 0,1 3,0Z" style="opacity: 1; stroke-width: 0px; fill: rgb(255, 127, 14); fill-opacity: 1;"/><path class="point" transform="translate(671.87,57.55)" d="M3,0A3,3 0 1,1 0,-3A3,3 0 0,1 3,0Z" style="opacity: 1; stroke-width: 0px; fill: rgb(255, 127, 14); fill-opacity: 1;"/></g><g class="text"/></g></g></g><g class="overplot"/><path class="xlines-above crisp" d="M95,445.5H820" style="fill: none; stroke-width: 1px; stroke: rgb(36, 36, 36); stroke-opacity: 1;"/><path class="ylines-above crisp" d="M95.5,100V445" style="fill: none; stroke-width: 1px; stroke: rgb(36, 36, 36); stroke-opacity: 1;"/><g class="overlines-above"/><g class="xaxislayer-above"><path class="xtick ticks crisp" d="M0,446v5" transform="translate(96,0)" style="stroke: rgb(68, 68, 68); stroke-opacity: 1; stroke-width: 1px;"/><path class="xtick ticks crisp" d="M0,446v5" transform="translate(240.8,0)" style="stroke: rgb(68, 68, 68); stroke-opacity: 1; stroke-width: 1px;"/><path class="xtick ticks crisp" d="M0,446v5" transform="translate(385.6,0)" style="stroke: rgb(68, 68, 68); stroke-opacity: 1; stroke-width: 1px;"/><path class="xtick ticks crisp" d="M0,446v5" transform="translate(530.4,0)" style="stroke: rgb(68, 68, 68); stroke-opacity: 1; stroke-width: 1px;"/><path class="xtick ticks crisp" d="M0,446v5" transform="translate(675.2,0)" style="stroke: rgb(68, 68, 68); stroke-opacity: 1; stroke-width: 1px;"/><path class="xtick ticks crisp" d="M0,446v5" transform="translate(820,0)" style="stroke: rgb(68, 68, 68); stroke-opacity: 1; stroke-width: 1px;"/><g class="xtick"><text text-anchor="middle" x="0" y="475" transform="translate(96,0)" style="font-family: 'Open Sans', verdana, arial, sans-serif; font-size: 20px; fill: rgb(36, 36, 36); fill-opacity: 1; white-space: pre;">0</text></g><g class="xtick"><text text-anchor="middle" x="0" y="475" transform="translate(240.8,0)" style="font-family: 'Open Sans', verdana, arial, sans-serif; font-size: 20px; fill: rgb(36, 36, 36); fill-opacity: 1; white-space: pre;">50</text></g><g class="xtick"><text text-anchor="middle" x="0" y="475" transform="translate(385.6,0)" style="font-family: 'Open Sans', verdana, arial, sans-serif; font-size: 20px; fill: rgb(36, 36, 36); fill-opacity: 1; white-space: pre;">100</text></g><g class="xtick"><text text-anchor="middle" x="0" y="475" transform="translate(530.4,0)" style="font-family: 'Open Sans', verdana, arial, sans-serif; font-size: 20px; fill: rgb(36, 36, 36); fill-opacity: 1; white-space: pre;">150</text></g><g class="xtick"><text text-anchor="middle" x="0" y="475" transform="translate(675.2,0)" style="font-family: 'Open Sans', verdana, arial, sans-serif; font-size: 20px; fill: rgb(36, 36, 36); fill-opacity: 1; white-space: pre;">200</text></g><g class="xtick"><text text-anchor="middle" x="0" y="475" transform="translate(820,0)" style="font-family: 'Open Sans', verdana, arial, sans-serif; font-size: 20px; fill: rgb(36, 36, 36); fill-opacity: 1; white-space: pre;">250</text></g></g><g class="yaxislayer-above"><path class="ytick ticks crisp" d="M95,0h-5" transform="translate(0,406.97)" style="stroke: rgb(68, 68, 68); stroke-opacity: 1; stroke-width: 1px;"/><path class="ytick ticks crisp" d="M95,0h-5" transform="translate(0,365.4)" style="stroke: rgb(68, 68, 68); stroke-opacity: 1; stroke-width: 1px;"/><path class="ytick ticks crisp" d="M95,0h-5" transform="translate(0,323.83000000000004)" style="stroke: rgb(68, 68, 68); stroke-opacity: 1; stroke-width: 1px;"/><path class="ytick ticks crisp" d="M95,0h-5" transform="translate(0,282.26)" style="stroke: rgb(68, 68, 68); stroke-opacity: 1; stroke-width: 1px;"/><path class="ytick ticks crisp" d="M95,0h-5" transform="translate(0,240.69)" style="stroke: rgb(68, 68, 68); stroke-opacity: 1; stroke-width: 1px;"/><path class="ytick ticks crisp" d="M95,0h-5" transform="translate(0,199.12)" style="stroke: rgb(68, 68, 68); stroke-opacity: 1; stroke-width: 1px;"/><path class="ytick ticks crisp" d="M95,0h-5" transform="translate(0,157.55)" style="stroke: rgb(68, 68, 68); stroke-opacity: 1; stroke-width: 1px;"/><path class="ytick ticks crisp" d="M95,0h-5" transform="translate(0,115.99)" style="stroke: rgb(68, 68, 68); stroke-opacity: 1; stroke-width: 1px;"/><g class="ytick"><text text-anchor="end" x="86" y="7" transform="translate(0,406.97)" style="font-family: 'Open Sans', verdana, arial, sans-serif; font-size: 20px; fill: rgb(36, 36, 36); fill-opacity: 1; white-space: pre;">−64</text></g><g class="ytick"><text text-anchor="end" x="86" y="7" transform="translate(0,365.4)" style="font-family: 'Open Sans', verdana, arial, sans-serif; font-size: 20px; fill: rgb(36, 36, 36); fill-opacity: 1; white-space: pre;">−62</text></g><g class="ytick"><text text-anchor="end" x="86" y="7" transform="translate(0,323.83000000000004)" style="font-family: 'Open Sans', verdana, arial, sans-serif; font-size: 20px; fill: rgb(36, 36, 36); fill-opacity: 1; white-space: pre;">−60</text></g><g class="ytick"><text text-anchor="end" x="86" y="7" transform="translate(0,282.26)" style="font-family: 'Open Sans', verdana, arial, sans-serif; font-size: 20px; fill: rgb(36, 36, 36); fill-opacity: 1; white-space: pre;">−58</text></g><g class="ytick"><text text-anchor="end" x="86" y="7" transform="translate(0,240.69)" style="font-family: 'Open Sans', verdana, arial, sans-serif; font-size: 20px; fill: rgb(36, 36, 36); fill-opacity: 1; white-space: pre;">−56</text></g><g class="ytick"><text text-anchor="end" x="86" y="7" transform="translate(0,199.12)" style="font-family: 'Open Sans', verdana, arial, sans-serif; font-size: 20px; fill: rgb(36, 36, 36); fill-opacity: 1; white-space: pre;">−54</text></g><g class="ytick"><text text-anchor="end" x="86" y="7" transform="translate(0,157.55)" style="font-family: 'Open Sans', verdana, arial, sans-serif; font-size: 20px; fill: rgb(36, 36, 36); fill-opacity: 1; white-space: pre;">−52</text></g><g class="ytick"><text text-anchor="end" x="86" y="7" transform="translate(0,115.99)" style="font-family: 'Open Sans', verdana, arial, sans-serif; font-size: 20px; fill: rgb(36, 36, 36); fill-opacity: 1; white-space: pre;">−50</text></g></g><g class="overaxes-above"/></g></g><g class="polarlayer"/><g class="ternarylayer"/><g class="geolayer"/><g class="funnelarealayer"/><g class="pielayer"/><g class="treemaplayer"/><g class="sunburstlayer"/><g class="glimages"/><defs id="topdefs-7376f8"><g class="clips"/><clipPath id="legend7376f8"><rect width="636" height="37" x="1" y="1"/></clipPath></defs><g class="layer-above"><g class="imagelayer"/><g class="shapelayer"/></g><g class="infolayer"><g class="legend" pointer-events="all" transform="translate(96, 548.5)"><rect class="bg" shape-rendering="crispEdges" width="637" height="38" x="0.5" y="0.5" style="stroke: rgb(0, 0, 0); stroke-opacity: 1; fill: rgb(5, 5, 25); fill-opacity: 0.1; stroke-width: 1px;"/><g class="scrollbox" transform="translate(0, 0)" clip-path="url('#legend7376f8')"><g class="groups"><g class="traces" transform="translate(1, 19.200000000000003)" style="opacity: 1;"><text class="legendtext user-select-none" text-anchor="start" x="40" y="7.0200000000000005" style="font-family: 'Open Sans', verdana, arial, sans-serif; font-size: 18px; fill: rgb(0, 0, 0); fill-opacity: 1; white-space: pre;">Reset potential</text><g class="layers" style="opacity: 0.5;"><g class="legendfill"/><g class="legendlines"><path class="js-line" d="M5,0h30" style="fill: none; stroke: rgb(44, 160, 44); stroke-opacity: 1; stroke-dasharray: 9px, 9px; stroke-width: 3px;"/></g><g class="legendsymbols"><g class="legendpoints"/></g></g><rect class="legendtoggle" pointer-events="all" x="0" y="-13.200000000000001" width="177.953125" height="26.400000000000002" style="cursor: pointer; fill: rgb(0, 0, 0); fill-opacity: 0;"/></g><g class="traces" transform="translate(181.453125, 19.200000000000003)" style="opacity: 1;"><text class="legendtext user-select-none" text-anchor="start" x="40" y="7.0200000000000005" style="font-family: 'Open Sans', verdana, arial, sans-serif; font-size: 18px; fill: rgb(0, 0, 0); fill-opacity: 1; white-space: pre;">Activation threshhold</text><g class="layers" style="opacity: 0.5;"><g class="legendfill"/><g class="legendlines"><path class="js-line" d="M5,0h30" style="fill: none; stroke: rgb(214, 39, 40); stroke-opacity: 1; stroke-dasharray: 9px, 9px; stroke-width: 3px;"/></g><g class="legendsymbols"><g class="legendpoints"/></g></g><rect class="legendtoggle" pointer-events="all" x="0" y="-13.200000000000001" width="235.140625" height="26.400000000000002" style="cursor: pointer; fill: rgb(0, 0, 0); fill-opacity: 0;"/></g><g class="traces" transform="translate(419.09375, 19.200000000000003)" style="opacity: 1;"><text class="legendtext user-select-none" text-anchor="start" x="40" y="7.0200000000000005" style="font-family: 'Open Sans', verdana, arial, sans-serif; font-size: 18px; fill: rgb(0, 0, 0); fill-opacity: 1; white-space: pre;">Voltage</text><g class="layers" style="opacity: 1;"><g class="legendfill"/><g class="legendlines"><path class="js-line" d="M5,0h30" style="fill: none; stroke: rgb(31, 119, 180); stroke-opacity: 1; stroke-width: 1px;"/></g><g class="legendsymbols"><g class="legendpoints"/></g></g><rect class="legendtoggle" pointer-events="all" x="0" y="-13.200000000000001" width="110.921875" height="26.400000000000002" style="cursor: pointer; fill: rgb(0, 0, 0); fill-opacity: 0;"/></g><g class="traces" transform="translate(532.515625, 19.200000000000003)" style="opacity: 1;"><text class="legendtext user-select-none" text-anchor="start" x="40" y="7.0200000000000005" style="font-family: 'Open Sans', verdana, arial, sans-serif; font-size: 18px; fill: rgb(0, 0, 0); fill-opacity: 1; white-space: pre;">Spikes</text><g class="layers" style="opacity: 1;"><g class="legendfill"/><g class="legendlines"/><g class="legendsymbols"><g class="legendpoints"><path class="scatterpts" transform="translate(20,0)" d="M3,0A3,3 0 1,1 0,-3A3,3 0 0,1 3,0Z" style="opacity: 1; stroke-width: 0px; fill: rgb(255, 127, 14); fill-opacity: 1;"/></g></g></g><rect class="legendtoggle" pointer-events="all" x="0" y="-13.200000000000001" width="101.546875" height="26.400000000000002" style="cursor: pointer; fill: rgb(0, 0, 0); fill-opacity: 0;"/></g></g></g><rect class="scrollbar" rx="20" ry="3" width="0" height="0" x="0" y="0" style="fill: rgb(128, 139, 164); fill-opacity: 1;"/></g><g class="g-gtitle"><text class="gtitle" x="45" y="50" text-anchor="start" dy="0em" style="font-family: 'Open Sans', verdana, arial, sans-serif; font-size: 17px; fill: rgb(36, 36, 36); opacity: 1; font-weight: normal; white-space: pre;">if</text></g><g class="g-xtitle"><text class="xtitle" x="458" y="510.8" text-anchor="middle" style="font-family: 'Open Sans', verdana, arial, sans-serif; font-size: 24px; fill: rgb(36, 36, 36); opacity: 1; font-weight: normal; white-space: pre;">Time</text></g><g class="g-ytitle" transform="translate(11.5966796875,0)"><text class="ytitle" transform="rotate(-90,12.403125000000003,272.5)" x="12.403125000000003" y="272.5" text-anchor="middle" style="font-family: 'Open Sans', verdana, arial, sans-serif; font-size: 24px; fill: rgb(36, 36, 36); opacity: 1; font-weight: normal; white-space: pre;">Voltage</text></g></g></svg>