<svg class="main-svg" xmlns="http://www.w3.org/2000/svg" xmlns:xlink="http://www.w3.org/1999/xlink" width="900" height="600" style="" viewBox="0 0 900 600"><rect x="0" y="0" width="900" height="600" style="fill: rgb(255, 255, 255); fill-opacity: 1;"/><defs id="defs-adb99a"><g class="clips"><clipPath id="clipadb99axyplot" class="plotclip"><rect width="731" height="325"/></clipPath><clipPath class="axesclip" id="clipadb99ax"><rect x="89" y="0" width="731" height="600"/></clipPath><clipPath class="axesclip" id="clipadb99ay"><rect x="0" y="100" width="900" height="325"/></clipPath><clipPath class="axesclip" id="clipadb99axy"><rect x="89" y="100" width="731" height="325"/></clipPath></g><g class="gradients"/></defs><g class="bglayer"/><g class="layer-below"><g class="imagelayer"/><g class="shapelayer"/></g><g class="cartesianlayer"><g class="subplot xy"><g class="layer-subplot"><g class="shapelayer"/><g class="imagelayer"/></g><g class="gridlayer"><g class="x"/><g class="y"/></g><g class="zerolinelayer"/><path class="xlines-below"/><path class="ylines-below"/><g class="overlines-below"/><g class="xaxislayer-below"/><g class="yaxislayer-below"/><g class="overaxes-below"/><g class="plot" transform="translate(89, 100)" clip-path="url('#clipadb99axyplot')"><g class="scatterlayer mlayer"><g class="trace scatter tracec9319c" style="stroke-miterlimit: 2; opacity: 0.5;"><g class="fills"/><g class="errorbars"/><g class="lines"><path class="js-line" d="M0,308.75H731V308.75" style="vector-effect: non-scaling-stroke; fill: none; stroke: rgb(44, 160, 44); stroke-opacity: 1; stroke-width: 3px; opacity: 1; stroke-dasharray: 9px, 9px;"/></g><g class="points"/><g class="text"/></g><g class="trace scatter tracefd592e" style="stroke-miterlimit: 2; opacity: 0.5;"><g class="fills"/><g class="errorbars"/><g class="lines"><path class="js-line" d="M0,129.96H2.92V129.96H5.85V129.96H8.77V129.96H11.7V129.96H14.62V129.96H17.54V129.96H20.47V129.96H23.39V129.96H26.32V129.96H29.24V129.96H32.16V129.96H35.09V129.96H38.01V129.96H40.94V129.96H43.86V129.96H46.78V129.96H49.71V129.96H52.63V129.96H55.56V129.96H58.48V129.96H61.4V129.96H64.33V129.96H67.25V129.96H70.18V129.96H73.1V129.96H76.02V129.96H78.95V129.96H81.87V129.96H84.8V129.96H87.72V129.96H90.64V129.96H93.57V129.96H96.49V129.96H99.42V129.96H102.34V129.96H105.26V129.96H108.19V129.96H111.11V129.96H114.04V129.96H116.96V129.96H119.88V129.96H122.81V70.36H125.73V70.96H128.66V71.54H131.58V72.13H134.5V72.7H137.43V73.27H140.35V73.83H143.28V74.39H146.2V74.95H149.12V75.49H152.05V76.04H154.97V76.57H157.9V77.1H160.82V77.63H163.74V78.15H166.67V78.67H169.59V79.18H172.52V79.68H175.44V80.18H178.36V80.68H181.29V81.17H184.21V81.65H187.14V82.13H190.06V82.61H192.98V83.08H195.91V83.55H198.83V84.01H201.76V84.47H204.68V84.92H207.6V85.37H210.53V85.81H213.45V86.25H216.38V86.68H219.3V87.11H222.22V87.54H225.15V87.96H228.07V88.38H231V88.79H233.92V89.2H236.84V89.61H239.77V90.01H242.69V90.41H245.62V90.8H248.54V91.19H251.46V91.58H254.39V91.96H257.31V92.34H260.24V92.71H263.16V93.08H266.08V93.45H269.01V93.81H271.93V94.17H274.86V94.53H277.78V94.88H280.7V95.23H283.63V95.58H286.55V36.32H289.48V37.25H292.4V38.18H295.32V39.09H298.25V39.99H301.17V40.89H304.1V41.77H307.02V42.65H309.94V43.52H312.87V44.38H315.79V45.23H318.72V46.08H321.64V46.91H324.56V47.74H327.49V48.55H330.41V49.36H333.34V50.17H336.26V50.96H339.18V51.75H342.11V52.52H345.03V53.3H347.96V54.06H350.88V54.81H353.8V55.56H356.73V56.3H359.65V57.03H362.58V57.76H365.5V58.48H368.42V59.19H371.35V59.89H374.27V60.59H377.2V61.28H380.12V61.96H383.04V62.64H385.97V63.31H388.89V63.97H391.82V64.63H394.74V65.28H397.66V65.92H400.59V66.56H403.51V67.19H406.44V67.82H409.36V68.44H412.28V69.05H415.21V69.65H418.13V70.25H421.06V70.85H423.98V71.44H426.9V72.02H429.83V72.59H432.75V73.17H435.68V73.73H438.6V74.29H441.52V74.84H444.45V75.39H447.37V75.94H450.3V76.47H453.22V77.01H456.14V77.53H459.07V78.05H461.99V78.57H464.92V79.08H467.84V79.59H470.76V80.09H473.69V20.99H476.61V22.07H479.54V23.15H482.46V24.21H485.38V25.26H488.31V26.3H491.23V27.33H494.16V28.36H497.08V29.37H500V30.37H502.93V31.36H505.85V32.34H508.78V33.31H511.7V34.27H514.62V35.22H517.55V36.17H520.47V37.1H523.4V38.02H526.32V38.94H529.24V39.85H532.17V40.74H535.09V41.63H538.02V42.51H540.94V43.38H543.86V44.24H546.79V45.09H549.71V45.94H552.64V46.77H555.56V47.6H558.48V48.42H561.41V49.23H564.33V50.04H567.26V50.83H570.18V51.62H573.1V52.4H576.03V53.17H578.95V53.93H581.88V54.69H584.8V55.44H587.72V56.18H590.65V56.91H593.57V57.64H596.5V58.36H599.42V59.07H602.34V59.78H605.27V60.48H608.19V61.17H611.12V61.85H614.04V62.53H616.96V63.2H619.89V63.87H622.81V64.52H625.74V65.17H628.66V65.82H631.58V66.46H634.51V67.09H637.43V67.71H640.36V68.33H643.28V68.95H646.2V69.55H649.13V70.16H652.05V70.75H654.98V71.34H657.9V71.92H660.82V72.5H663.75V73.07H666.67V73.64H669.6V74.2H672.52V74.75H675.44V75.3H678.37V16.25H681.29V17.38H684.22V18.5H687.14V19.61H690.06V20.71H692.99V21.8H695.91V22.87H698.84V23.94H701.76V24.99H704.68V26.04H707.61V27.07H710.53V28.09H713.46V29.11H716.38V30.11H719.3V31.11H722.23V32.09H725.15V33.06H728.08V34.03" style="vector-effect: non-scaling-stroke; fill: none; stroke: rgb(214, 39, 40); stroke-opacity: 1; stroke-width: 3px; opacity: 1; stroke-dasharray: 9px, 9px;"/></g><g class="points"/><g class="text"/></g><g class="trace scatter trace559d9b" style="stroke-miterlimit: 2; opacity: 0.5;"><g class="fills"/><g class="errorbars"/><g class="lines"><path class="js-line" d="M0,249.15H731V249.15" style="vector-effect: non-scaling-stroke; fill: none; stroke: rgb(148, 103, 189); stroke-opacity: 1; stroke-width: 3px; opacity: 1; stroke-dasharray: 9px, 9px;"/></g><g class="points"/><g class="text"/></g><g class="trace scatter trace2031aa" style="stroke-miterlimit: 2; opacity: 1;"><g class="fills"/><g class="errorbars"/><g class="lines"><path class="js-line" d="M0,249.15H2.92V249.15H5.85V249.15H8.77V249.15H11.7V249.15H14.62V249.15H17.54V249.15H20.47V249.15H23.39V249.15H26.32V249.15H29.24V249.15H32.16V249.15H35.09V249.15H38.01V249.15H40.94V249.15H43.86V249.15H46.78V249.15H49.71V249.15H52.63V249.15H55.56V249.15H58.48V249.15H61.4V249.15H64.33V249.15H67.25V249.15H70.18V249.15H73.1V249.15H76.02V239.01H78.95V223.69H81.87V223.94H84.8V210.33H87.72V210.29H90.64V199.73H93.57V197.04H96.49V188.84H99.42V176.43H102.34V164.63H105.26V162.07H108.19V162.93H111.11V163.79H114.04V146.32H116.96V147.35H119.88V141.7H122.81V129.96H125.73V308.16H128.66V307.57H131.58V306.99H134.5V306.41H137.43V305.84H140.35V305.28H143.28V304.72H146.2V304.17H149.12V303.62H152.05V303.08H154.97V283.45H157.9V283.11H160.82V281.46H163.74V281.13H166.67V275.89H169.59V275.62H172.52V268.24H175.44V259.75H178.36V259.65H181.29V259.54H184.21V252.07H187.14V252.04H190.06V237.87H192.98V237.98H195.91V238.1H198.83V238.21H201.76V232.67H204.68V217.95H207.6V218.26H210.53V218.57H213.45V212.68H216.38V205.94H219.3V206.37H222.22V197.93H225.15V195.26H228.07V187.08H231V180.38H233.92V150.12H236.84V149.36H239.77V146.95H242.69V147.97H245.62V148.98H248.54V132.71H251.46V133.86H254.39V134.59H257.31V135.73H260.24V136.86H263.16V130.75H266.08V123.63H269.01V113.86H271.93V115.2H274.86V111.61H277.78V108.93H280.7V110.33H283.63V98.7H286.55V95.58H289.48V308.16H292.4V307.57H295.32V306.99H298.25V306.41H301.17V305.84H304.1V305.28H307.02V304.72H309.94V304.17H312.87V303.62H315.79V303.08H318.72V302.54H321.64V302.01H324.56V301.48H327.49V297.78H330.41V297.3H333.34V296.82H336.26V289.26H339.18V279.18H342.11V269.43H345.03V247.17H347.96V247.19H350.88V247.21H353.8V238.6H356.73V238.71H359.65V238.81H362.58V230.62H365.5V230.8H368.42V216.97H371.35V204.96H374.27V201.7H377.2V202.18H380.12V202.64H383.04V203.11H385.97V203.57H388.89V201.72H391.82V197.26H394.74V197.78H397.66V183.32H400.59V183.97H403.51V161.84H406.44V162.71H409.36V163.57H412.28V153.39H415.21V154.34H418.13V146.35H421.06V146.95H423.98V147.96H426.9V139.52H429.83V131.66H432.75V126.17H435.68V120.27H438.6V121.55H441.52V122.82H444.45V113.94H447.37V108.18H450.3V109.58H453.22V110.97H456.14V112.34H459.07V104.84H461.99V98.16H464.92V99.67H467.84V95.95H470.76V80.46H473.69V80.09H476.61V308.16H479.54V307.57H482.46V306.99H485.38V306.41H488.31V305.84H491.23V305.28H494.16V304.72H497.08V304.17H500V303.62H502.93V303.08H505.85V302.12H508.78V298.18H511.7V295.96H514.62V275.6H517.55V275.34H520.47V275.08H523.4V274.82H526.32V265.61H529.24V265.45H532.17V265.29H535.09V258.01H538.02V246.89H540.94V246.91H543.86V246.94H546.79V246.96H549.71V230.87H552.64V224.86H555.56V210.63H558.48V211.02H561.41V195.01H564.33V188.24H567.26V188.84H570.18V189.44H573.1V190.04H576.03V190.62H578.95V182.49H581.88V177.95H584.8V165.86H587.72V161.04H590.65V161.92H593.57V151.31H596.5V151.85H599.42V152.82H602.34V139.42H605.27V140.52H608.19V141.6H611.12V142.67H614.04V143.73H616.96V144.78H619.89V133.18H622.81V134.33H625.74V119.4H628.66V120.69H631.58V121.97H634.51V123.24H637.43V124.49H640.36V116.78H643.28V118.1H646.2V101.72H649.13V101.44H652.05V102.91H654.98V87.81H657.9V89.42H660.82V91.01H663.75V92.58H666.67V87.95H669.6V84.63H672.52V85.84H675.44V87.47H678.37V75.3H681.29V308.16H684.22V307.57H687.14V306.99H690.06V306.41H692.99V305.84H695.91V305.28H698.84V304.72H701.76V304.17H704.68V303.62H707.61V303.08H710.53V291.41H713.46V287.8H716.38V287.42H719.3V283.34H722.23V283H725.15V272.41H728.08V261.56" style="vector-effect: non-scaling-stroke; fill: none; stroke: rgb(31, 119, 180); stroke-opacity: 1; stroke-width: 1px; opacity: 1;"/></g><g class="points"/><g class="text"/></g><g class="trace scatter trace1a3573" style="stroke-miterlimit: 2; opacity: 1;"><g class="fills"/><g class="errorbars"/><g class="lines"/><g class="points"><path class="point" transform="translate(122.81,129.96)" d="M3,0A3,3 0 1,1 0,-3A3,3 0 0,1 3,0Z" style="opacity: 1; stroke-width: 0px; fill: rgb(255, 127, 14); fill-opacity: 1;"/><path class="point" transform="translate(286.55,95.58)" d="M3,0A3,3 0 1,1 0,-3A3,3 0 0,1 3,0Z" style="opacity: 1; stroke-width: 0px; fill: rgb(255, 127, 14); fill-opacity: 1;"/><path class="point" transform="translate(473.69,80.09)" d="M3,0A3,3 0 1,1 0,-3A3,3 0 0,1 3,0Z" style="opacity: 1; stroke-width: 0px; fill: rgb(255, 127, 14); fill-opacity: 1;"/><path class="point" transform="translate(678.37,75.3)" d="M3,0A3,3 0 1,1 0,-3A3,3 0 0,1 3,0Z" style="opacity: 1; stroke-width: 0px; fill: rgb(255, 127, 14); fill-opacity: 1;"/></g><g class="text"/></g></g></g><g class="overplot"/><path class="xlines-above crisp" d="M88,425.5H820" style="fill: none; stroke-width: 1px; stroke: rgb(36, 36, 36); stroke-opacity: 1;"/><path class="ylines-above crisp" d="M88.5,100V425" style="fill: none; stroke-width: 1px; stroke: rgb(36, 36, 36); stroke-opacity: 1;"/><g class="overlines-above"/><g class="xaxislayer-above"><path class="xtick ticks crisp" d="M0,426v5" transform="translate(89,0)" style="stroke: rgb(68, 68, 68); stroke-opacity: 1; stroke-width: 1px;"/><path class="xtick ticks crisp" d="M0,426v5" transform="translate(235.2,0)" style="stroke: rgb(68, 68, 68); stroke-opacity: 1; stroke-width: 1px;"/><path class="xtick ticks crisp" d="M0,426v5" transform="translate(381.4,0)" style="stroke: rgb(68, 68, 68); stroke-opacity: 1; stroke-width: 1px;"/><path class="xtick ticks crisp" d="M0,426v5" transform="translate(527.6,0)" style="stroke: rgb(68, 68, 68); stroke-opacity: 1; stroke-width: 1px;"/><path class="xtick ticks crisp" d="M0,426v5" transform="translate(673.8,0)" style="stroke: rgb(68, 68, 68); stroke-opacity: 1; stroke-width: 1px;"/><path class="xtick ticks crisp" d="M0,426v5" transform="translate(820,0)" style="stroke: rgb(68, 68, 68); stroke-opacity: 1; stroke-width: 1px;"/><g class="xtick"><text text-anchor="middle" x="0" y="455" transform="translate(89,0)" style="font-family: 'Open Sans', verdana, arial, sans-serif; font-size: 20px; fill: rgb(36, 36, 36); fill-opacity: 1; white-space: pre;">0</text></g><g class="xtick"><text text-anchor="middle" x="0" y="455" transform="translate(235.2,0)" style="font-family: 'Open Sans', verdana, arial, sans-serif; font-size: 20px; fill: rgb(36, 36, 36); fill-opacity: 1; white-space: pre;">50</text></g><g class="xtick"><text text-anchor="middle" x="0" y="455" transform="translate(381.4,0)" style="font-family: 'Open Sans', verdana, arial, sans-serif; font-size: 20px; fill: rgb(36, 36, 36); fill-opacity: 1; white-space: pre;">100</text></g><g class="xtick"><text text-anchor="middle" x="0" y="455" transform="translate(527.6,0)" style="font-family: 'Open Sans', verdana, arial, sans-serif; font-size: 20px; fill: rgb(36, 36, 36); fill-opacity: 1; white-space: pre;">150</text></g><g class="xtick"><text text-anchor="middle" x="0" y="455" transform="translate(673.8,0)" style="font-family: 'Open Sans', verdana, arial, sans-serif; font-size: 20px; fill: rgb(36, 36, 36); fill-opacity: 1; white-space: pre;">200</text></g><g class="xtick"><text text-anchor="middle" x="0" y="455" transform="translate(820,0)" style="font-family: 'Open Sans', verdana, arial, sans-serif; font-size: 20px; fill: rgb(36, 36, 36); fill-opacity: 1; white-space: pre;">250</text></g></g><g class="yaxislayer-above"><path class="ytick ticks crisp" d="M88,0h-5" transform="translate(0,408.75)" style="stroke: rgb(68, 68, 68); stroke-opacity: 1; stroke-width: 1px;"/><path class="ytick ticks crisp" d="M88,0h-5" transform="translate(0,349.15)" style="stroke: rgb(68, 68, 68); stroke-opacity: 1; stroke-width: 1px;"/><path class="ytick ticks crisp" d="M88,0h-5" transform="translate(0,289.56)" style="stroke: rgb(68, 68, 68); stroke-opacity: 1; stroke-width: 1px;"/><path class="ytick ticks crisp" d="M88,0h-5" transform="translate(0,229.96)" style="stroke: rgb(68, 68, 68); stroke-opacity: 1; stroke-width: 1px;"/><path class="ytick ticks crisp" d="M88,0h-5" transform="translate(0,170.36)" style="stroke: rgb(68, 68, 68); stroke-opacity: 1; stroke-width: 1px;"/><path class="ytick ticks crisp" d="M88,0h-5" transform="translate(0,110.77)" style="stroke: rgb(68, 68, 68); stroke-opacity: 1; stroke-width: 1px;"/><g class="ytick"><text text-anchor="end" x="79" y="7" transform="translate(0,408.75)" style="font-family: 'Open Sans', verdana, arial, sans-serif; font-size: 20px; fill: rgb(36, 36, 36); fill-opacity: 1; white-space: pre;">−65</text></g><g class="ytick"><text text-anchor="end" x="79" y="7" transform="translate(0,349.15)" style="font-family: 'Open Sans', verdana, arial, sans-serif; font-size: 20px; fill: rgb(36, 36, 36); fill-opacity: 1; white-space: pre;">−60</text></g><g class="ytick"><text text-anchor="end" x="79" y="7" transform="translate(0,289.56)" style="font-family: 'Open Sans', verdana, arial, sans-serif; font-size: 20px; fill: rgb(36, 36, 36); fill-opacity: 1; white-space: pre;">−55</text></g><g class="ytick"><text text-anchor="end" x="79" y="7" transform="translate(0,229.96)" style="font-family: 'Open Sans', verdana, arial, sans-serif; font-size: 20px; fill: rgb(36, 36, 36); fill-opacity: 1; white-space: pre;">−50</text></g><g class="ytick"><text text-anchor="end" x="79" y="7" transform="translate(0,170.36)" style="font-family: 'Open Sans', verdana, arial, sans-serif; font-size: 20px; fill: rgb(36, 36, 36); fill-opacity: 1; white-space: pre;">−45</text></g><g class="ytick"><text text-anchor="end" x="79" y="7" transform="translate(0,110.77)" style="font-family: 'Open Sans', verdana, arial, sans-serif; font-size: 20px; fill: rgb(36, 36, 36); fill-opacity: 1; white-space: pre;">−40</text></g></g><g class="overaxes-above"/></g></g><g class="polarlayer"/><g class="ternarylayer"/><g class="geolayer"/><g class="funnelarealayer"/><g class="pielayer"/><g class="treemaplayer"/><g class="sunburstlayer"/><g class="glimages"/><defs id="topdefs-adb99a"><g class="clips"/><clipPath id="legendadb99a"><rect width="606" height="63" x="1" y="1"/></clipPath></defs><g class="layer-above"><g class="imagelayer"/><g class="shapelayer"/></g><g class="infolayer"><g class="legend" pointer-events="all" transform="translate(89, 522.5)"><rect class="bg" shape-rendering="crispEdges" width="607" height="64" x="0.5" y="0.5" style="stroke: rgb(5, 5, 25); stroke-opacity: 0; fill: rgb(5, 5, 25); fill-opacity: 0; stroke-width: 1px;"/><g class="scrollbox" transform="translate(0, 0)" clip-path="url('#legendadb99a')"><g class="groups"><g class="traces" transform="translate(1, 19.200000000000003)" style="opacity: 1;"><text class="legendtext user-select-none" text-anchor="start" x="40" y="7.0200000000000005" style="font-family: 'Open Sans', verdana, arial, sans-serif; font-size: 18px; fill: rgb(0, 0, 0); fill-opacity: 1; white-space: pre;">Reset potential</text><g class="layers" style="opacity: 0.5;"><g class="legendfill"/><g class="legendlines"><path class="js-line" d="M5,0h30" style="fill: none; stroke: rgb(44, 160, 44); stroke-opacity: 1; stroke-dasharray: 9px, 9px; stroke-width: 3px;"/></g><g class="legendsymbols"><g class="legendpoints"/></g></g><rect class="legendtoggle" pointer-events="all" x="0" y="-13.200000000000001" width="162.578125" height="26.400000000000002" style="cursor: pointer; fill: rgb(0, 0, 0); fill-opacity: 0;"/></g><g class="traces" transform="translate(214.109375, 19.200000000000003)" style="opacity: 1;"><text class="legendtext user-select-none" text-anchor="start" x="40" y="7.0200000000000005" style="font-family: 'Open Sans', verdana, arial, sans-serif; font-size: 18px; fill: rgb(0, 0, 0); fill-opacity: 1; white-space: pre;">Activation threshhold</text><g class="layers" style="opacity: 0.5;"><g class="legendfill"/><g class="legendlines"><path class="js-line" d="M5,0h30" style="fill: none; stroke: rgb(214, 39, 40); stroke-opacity: 1; stroke-dasharray: 9px, 9px; stroke-width: 3px;"/></g><g class="legendsymbols"><g class="legendpoints"/></g></g><rect class="legendtoggle" pointer-events="all" x="0" y="-13.200000000000001" width="210.609375" height="26.400000000000002" style="cursor: pointer; fill: rgb(0, 0, 0); fill-opacity: 0;"/></g><g class="traces" transform="translate(427.21875, 19.200000000000003)" style="opacity: 1;"><text class="legendtext user-select-none" text-anchor="start" x="40" y="7.0200000000000005" style="font-family: 'Open Sans', verdana, arial, sans-serif; font-size: 18px; fill: rgb(0, 0, 0); fill-opacity: 1; white-space: pre;">Resting potential</text><g class="layers" style="opacity: 0.5;"><g class="legendfill"/><g class="legendlines"><path class="js-line" d="M5,0h30" style="fill: none; stroke: rgb(148, 103, 189); stroke-opacity: 1; stroke-dasharray: 9px, 9px; stroke-width: 3px;"/></g><g class="legendsymbols"><g class="legendpoints"/></g></g><rect class="legendtoggle" pointer-events="all" x="0" y="-13.200000000000001" width="176.59375" height="26.400000000000002" style="cursor: pointer; fill: rgb(0, 0, 0); fill-opacity: 0;"/></g><g class="traces" transform="translate(1, 45.6)" style="opacity: 1;"><text class="legendtext user-select-none" text-anchor="start" x="40" y="7.0200000000000005" style="font-family: 'Open Sans', verdana, arial, sans-serif; font-size: 18px; fill: rgb(0, 0, 0); fill-opacity: 1; white-space: pre;">Voltage</text><g class="layers" style="opacity: 1;"><g class="legendfill"/><g class="legendlines"><path class="js-line" d="M5,0h30" style="fill: none; stroke: rgb(31, 119, 180); stroke-opacity: 1; stroke-width: 1px;"/></g><g class="legendsymbols"><g class="legendpoints"/></g></g><rect class="legendtoggle" pointer-events="all" x="0" y="-13.200000000000001" width="104.546875" height="26.400000000000002" style="cursor: pointer; fill: rgb(0, 0, 0); fill-opacity: 0;"/></g><g class="traces" transform="translate(214.109375, 45.6)" style="opacity: 1;"><text class="legendtext user-select-none" text-anchor="start" x="40" y="7.0200000000000005" style="font-family: 'Open Sans', verdana, arial, sans-serif; font-size: 18px; fill: rgb(0, 0, 0); fill-opacity: 1; white-space: pre;">Spikes</text><g class="layers" style="opacity: 1;"><g class="legendfill"/><g class="legendlines"/><g class="legendsymbols"><g class="legendpoints"><path class="scatterpts" transform="translate(20,0)" d="M3,0A3,3 0 1,1 0,-3A3,3 0 0,1 3,0Z" style="opacity: 1; stroke-width: 0px; fill: rgb(255, 127, 14); fill-opacity: 1;"/></g></g></g><rect class="legendtoggle" pointer-events="all" x="0" y="-13.200000000000001" width="98.53125" height="26.400000000000002" style="cursor: pointer; fill: rgb(0, 0, 0); fill-opacity: 0;"/></g></g></g><rect class="scrollbar" rx="20" ry="3" width="0" height="0" x="0" y="0" style="fill: rgb(128, 139, 164); fill-opacity: 1;"/></g><g class="g-gtitle"><text class="gtitle" x="45" y="50" text-anchor="start" dy="0em" style="font-family: 'Open Sans', verdana, arial, sans-serif; font-size: 17px; fill: rgb(36, 36, 36); opacity: 1; font-weight: normal; white-space: pre;">alif</text></g><g class="g-xtitle"><text class="xtitle" x="454.5" y="490.8" text-anchor="middle" style="font-family: 'Open Sans', verdana, arial, sans-serif; font-size: 24px; fill: rgb(36, 36, 36); opacity: 1; font-weight: normal; white-space: pre;">Time</text></g><g class="g-ytitle" transform="translate(9.7373046875,0)"><text class="ytitle" transform="rotate(-90,12.262500000000003,262.5)" x="12.262500000000003" y="262.5" text-anchor="middle" style="font-family: 'Open Sans', verdana, arial, sans-serif; font-size: 24px; fill: rgb(36, 36, 36); opacity: 1; font-weight: normal; white-space: pre;">Voltage</text></g></g></svg>