<svg class="main-svg" xmlns="http://www.w3.org/2000/svg" xmlns:xlink="http://www.w3.org/1999/xlink" width="900" height="600" style="" viewBox="0 0 900 600"><rect x="0" y="0" width="900" height="600" style="fill: rgb(255, 255, 255); fill-opacity: 1;"/><defs id="defs-c519e5"><g class="clips"><clipPath id="clipc519e5xyplot" class="plotclip"><rect width="724" height="305"/></clipPath><clipPath class="axesclip" id="clipc519e5x"><rect x="96" y="0" width="724" height="600"/></clipPath><clipPath class="axesclip" id="clipc519e5y"><rect x="0" y="100" width="900" height="305"/></clipPath><clipPath class="axesclip" id="clipc519e5xy"><rect x="96" y="100" width="724" height="305"/></clipPath></g><g class="gradients"/></defs><g class="bglayer"/><g class="layer-below"><g class="imagelayer"/><g class="shapelayer"/></g><g class="cartesianlayer"><g class="subplot xy"><g class="layer-subplot"><g class="shapelayer"/><g class="imagelayer"/></g><g class="gridlayer"><g class="x"/><g class="y"/></g><g class="zerolinelayer"/><path class="xlines-below"/><path class="ylines-below"/><g class="overlines-below"/><g class="xaxislayer-below"/><g class="yaxislayer-below"/><g class="overaxes-below"/><g class="plot" transform="translate(96, 100)" clip-path="url('#clipc519e5xyplot')"><g class="scatterlayer mlayer"><g class="trace scatter tracef73c9b" style="stroke-miterlimit: 2; opacity: 0.5;"><g class="fills"/><g class="errorbars"/><g class="lines"><path class="js-line" d="M0,289.75H724V289.75" style="vector-effect: non-scaling-stroke; fill: none; stroke: rgb(44, 160, 44); stroke-opacity: 1; stroke-width: 3px; opacity: 1; stroke-dasharray: 9px, 9px;"/></g><g class="points"/><g class="text"/></g><g class="trace scatter tracef20e17" style="stroke-miterlimit: 2; opacity: 0.5;"><g class="fills"/><g class="errorbars"/><g class="lines"><path class="js-line" d="M0,109.01H2.9V109.01H5.79V109.01H8.69V109.01H11.58V109.01H14.48V109.01H17.38V109.01H20.27V109.01H23.17V109.01H26.06V109.01H28.96V109.01H31.86V109.01H34.75V109.01H37.65V109.01H40.54V109.01H43.44V109.01H46.34V109.01H49.23V109.01H52.13V109.01H55.02V109.01H57.92V109.01H60.82V109.01H63.71V109.01H66.61V109.01H69.5V109.01H72.4V109.01H75.3V109.01H78.19V109.01H81.09V109.01H83.98V109.01H86.88V109.01H89.78V109.01H92.67V109.01H95.57V109.01H98.46V109.01H101.36V109.01H104.26V109.01H107.15V109.01H110.05V109.01H112.94V109.01H115.84V109.01H118.74V109.01H121.63V108.31H124.53V108.32H127.42V108.33H130.32V108.33H133.22V108.34H136.11V108.35H139.01V108.35H141.9V108.36H144.8V108.37H147.7V108.37H150.59V108.38H153.49V108.38H156.38V108.39H159.28V108.4H162.18V108.4H165.07V108.41H167.97V108.41H170.86V108.42H173.76V108.43H176.66V108.43H179.55V108.44H182.45V108.44H185.34V108.45H188.24V108.45H191.14V108.46H194.03V108.47H196.93V108.47H199.82V108.48H202.72V108.48H205.62V108.49H208.51V108.49H211.41V108.5H214.3V108.5H217.2V108.51H220.1V108.51H222.99V108.52H225.89V108.52H228.78V108.53H231.68V108.53H234.58V108.54H237.47V108.54H240.37V108.55H243.26V108.55H246.16V108.55H249.06V108.56H251.95V108.56H254.85V108.57H257.74V108.57H260.64V108.58H263.54V108.58H266.43V108.59H269.33V108.59H272.22V108.59H275.12V108.6H278.02V108.6H280.91V108.61H283.81V108.61H286.7V108.61H289.6V108.62H292.5V108.62H295.39V108.63H298.29V107.93H301.18V107.94H304.08V107.96H306.98V107.97H309.87V107.98H312.77V107.99H315.66V108H318.56V108.01H321.46V108.02H324.35V108.03H327.25V108.04H330.14V108.05H333.04V108.06H335.94V108.06H338.83V108.07H341.73V108.08H344.62V108.09H347.52V108.1H350.42V108.11H353.31V108.12H356.21V108.13H359.1V108.14H362V108.15H364.9V108.15H367.79V108.16H370.69V108.17H373.58V108.18H376.48V108.19H379.38V108.2H382.27V108.2H385.17V108.21H388.06V108.22H390.96V108.23H393.86V108.24H396.75V108.24H399.65V108.25H402.54V108.26H405.44V108.27H408.34V108.27H411.23V108.28H414.13V108.29H417.02V108.3H419.92V108.3H422.82V108.31H425.71V108.32H428.61V108.32H431.5V108.33H434.4V108.34H437.3V108.34H440.19V108.35H443.09V108.36H445.98V108.36H448.88V108.37H451.78V108.38H454.67V108.38H457.57V108.39H460.46V108.39H463.36V108.4H466.26V107.71H469.15V107.72H472.05V107.74H474.94V107.75H477.84V107.76H480.74V107.77H483.63V107.79H486.53V107.8H489.42V107.81H492.32V107.82H495.22V107.83H498.11V107.85H501.01V107.86H503.9V107.87H506.8V107.88H509.7V107.89H512.59V107.9H515.49V107.91H518.38V107.92H521.28V107.94H524.18V107.95H527.07V107.96H529.97V107.97H532.86V107.98H535.76V107.99H538.66V108H541.55V108.01H544.45V108.02H547.34V108.03H550.24V108.04H553.14V108.05H556.03V108.06H558.93V108.07H561.82V108.08H564.72V108.08H567.62V108.09H570.51V108.1H573.41V108.11H576.3V108.12H579.2V108.13H582.1V108.14H584.99V108.15H587.89V108.16H590.78V108.16H593.68V108.17H596.58V108.18H599.47V108.19H602.37V108.2H605.26V108.21H608.16V108.21H611.06V108.22H613.95V108.23H616.85V108.24H619.74V108.24H622.64V108.25H625.54V108.26H628.43V108.27H631.33V108.27H634.22V108.28H637.12V107.59H640.02V107.61H642.91V107.62H645.81V107.64H648.7V107.65H651.6V107.66H654.5V107.68H657.39V107.69H660.29V107.7H663.18V107.72H666.08V107.73H668.98V107.74H671.87V107.75H674.77V107.77H677.66V107.78H680.56V107.79H683.46V107.8H686.35V107.81H689.25V107.83H692.14V107.84H695.04V107.85H697.94V107.86H700.83V107.87H703.73V107.88H706.62V107.9H709.52V107.91H712.42V107.92H715.31V107.93H718.21V107.94H721.1V107.95" style="vector-effect: non-scaling-stroke; fill: none; stroke: rgb(214, 39, 40); stroke-opacity: 1; stroke-width: 3px; opacity: 1; stroke-dasharray: 9px, 9px;"/></g><g class="points"/><g class="text"/></g><g class="trace scatter traceb3a255" style="stroke-miterlimit: 2; opacity: 0.5;"><g class="fills"/><g class="errorbars"/><g class="lines"><path class="js-line" d="M0,220.23H724V220.23" style="vector-effect: non-scaling-stroke; fill: none; stroke: rgb(148, 103, 189); stroke-opacity: 1; stroke-width: 3px; opacity: 1; stroke-dasharray: 9px, 9px;"/></g><g class="points"/><g class="text"/></g><g class="trace scatter trace264a62" style="stroke-miterlimit: 2; opacity: 1;"><g class="fills"/><g class="errorbars"/><g class="lines"><path class="js-line" d="M0,220.23H2.9V220.23H5.79V220.23H8.69V220.23H11.58V220.23H14.48V220.23H17.38V220.23H20.27V220.23H23.17V220.23H26.06V220.23H28.96V220.23H31.86V220.23H34.75V220.23H37.65V220.23H40.54V220.23H43.44V220.23H46.34V220.23H49.23V220.23H52.13V220.23H55.02V220.23H57.92V220.23H60.82V220.23H63.71V208.95H66.61V199.24H69.5V199.45H72.4V199.66H75.3V199.86H78.19V200.07H81.09V200.27H83.98V191.26H86.88V184.01H89.78V183.45H92.67V164.58H95.57V156.83H98.46V146.3H101.36V129.38H104.26V109.79H107.15V99.68H110.05V85.55H112.94V82.8H115.84V84.17H118.74V85.52H121.63V109.01H124.53V289.06H127.42V288.37H130.32V287.7H133.22V287.02H136.11V286.36H139.01V285.7H141.9V285.05H144.8V284.41H147.7V283.77H150.59V283.13H153.49V282.51H156.38V278.61H159.28V278.03H162.18V277.45H165.07V270.82H167.97V259.03H170.86V245.63H173.76V238.29H176.66V238.11H179.55V236.46H182.45V236.3H185.34V229.86H188.24V225.67H191.14V218.08H194.03V207.73H196.93V200.46H199.82V190.96H202.72V185.97H205.62V170.98H208.51V154.3H211.41V142.89H214.3V124.36H217.2V125.29H220.1V116.61H222.99V116.26H225.89V117.3H228.78V118.32H231.68V116.66H234.58V117.69H237.47V112.83H240.37V113.89H243.26V114.95H246.16V116H249.06V105.78H251.95V98.76H254.85V99.97H257.74V101.17H260.64V102.35H263.54V83.83H266.43V85.19H269.33V86.53H272.22V76.98H275.12V78.41H278.02V59.95H280.91V53.54H283.81V55.2H286.7V51.28H289.6V46.9H292.5V48.63H295.39V44.66H298.29V108.63H301.18V289.06H304.08V288.37H306.98V287.7H309.87V287.02H312.77V286.36H315.66V285.7H318.56V285.05H321.46V284.41H324.35V283.77H327.25V283.13H330.14V272.34H333.04V264.63H335.94V263.39H338.83V261.5H341.73V246.03H344.62V231.21H347.52V231.1H350.42V216.79H353.31V215.75H356.21V215.8H359.1V215.84H362V211.28H364.9V205.09H367.79V205.24H370.69V205.39H373.58V197.54H376.48V197.76H379.38V191.01H382.27V191.3H385.17V191.59H388.06V181.59H390.96V164.32H393.86V152.15H396.75V151.36H399.65V123.51H402.54V112.41H405.44V113.48H408.34V105.19H411.23V106.33H414.13V99.97H417.02V101.17H419.92V102.36H422.82V103.53H425.71V81.47H428.61V64.84H431.5V66.39H434.4V61.64H437.3V63.22H440.19V64.78H443.09V62.19H445.98V61.9H448.88V58.39H451.78V46.19H454.67V42.05H457.57V39.22H460.46V20.04H463.36V22.03H466.26V108.4H469.15V289.06H472.05V288.37H474.94V287.7H477.84V287.02H480.74V286.36H483.63V285.7H486.53V285.05H489.42V284.41H492.32V283.77H495.22V283.13H498.11V281.59H501.01V266.66H503.9V266.2H506.8V251.16H509.7V241.89H512.59V241.67H515.49V241.46H518.38V234.97H521.28V205.63H524.18V205.77H527.07V199.86H529.97V200.06H532.86V200.26H535.76V188.13H538.66V178.7H541.55V177.73H544.45V164.61H547.34V160.56H550.24V145.07H553.14V140.42H556.03V127.43H558.93V128.35H561.82V129.26H564.72V117.88H567.62V118.88H570.51V117.21H573.41V118.24H576.3V119.25H579.2V120.26H582.1V121.25H584.99V107.06H587.89V108.19H590.78V95.5H593.68V96.74H596.58V85.81H599.47V64.37H602.37V56.91H605.26V49.23H608.16V41.86H611.06V37.95H613.95V29.4H616.85V31.3H619.74V22.44H622.64V23.4H625.54V19.3H628.43V15.25H631.33V17.29H634.22V19.31H637.12V108.28H640.02V289.06H642.91V288.37H645.81V287.7H648.7V287.02H651.6V286.36H654.5V285.7H657.39V285.05H660.29V284.41H663.18V283.77H666.08V283.13H668.98V282.51H671.87V264.05H674.77V256.53H677.66V256.17H680.56V251.72H683.46V244.24H686.35V244H689.25V243.76H692.14V235.99H695.04V224.55H697.94V224.5H700.83V221.18H703.73V219.7H706.62V201.85H709.52V194.83H712.42V195.09H715.31V195.34H718.21V165.34H721.1V164.87" style="vector-effect: non-scaling-stroke; fill: none; stroke: rgb(31, 119, 180); stroke-opacity: 1; stroke-width: 1px; opacity: 1;"/></g><g class="points"/><g class="text"/></g><g class="trace scatter tracebfa62c" style="stroke-miterlimit: 2; opacity: 1;"><g class="fills"/><g class="errorbars"/><g class="lines"/><g class="points"><path class="point" transform="translate(121.63,109.01)" d="M3,0A3,3 0 1,1 0,-3A3,3 0 0,1 3,0Z" style="opacity: 1; stroke-width: 0px; fill: rgb(255, 127, 14); fill-opacity: 1;"/><path class="point" transform="translate(298.29,108.63)" d="M3,0A3,3 0 1,1 0,-3A3,3 0 0,1 3,0Z" style="opacity: 1; stroke-width: 0px; fill: rgb(255, 127, 14); fill-opacity: 1;"/><path class="point" transform="translate(466.26,108.4)" d="M3,0A3,3 0 1,1 0,-3A3,3 0 0,1 3,0Z" style="opacity: 1; stroke-width: 0px; fill: rgb(255, 127, 14); fill-opacity: 1;"/><path class="point" transform="translate(637.12,108.28)" d="M3,0A3,3 0 1,1 0,-3A3,3 0 0,1 3,0Z" style="opacity: 1; stroke-width: 0px; fill: rgb(255, 127, 14); fill-opacity: 1;"/></g><g class="text"/></g></g></g><g class="overplot"/><path class="xlines-above crisp" d="M95,405.5H820" style="fill: none; stroke-width: 1px; stroke: rgb(36, 36, 36); stroke-opacity: 1;"/><path class="ylines-above crisp" d="M95.5,100V405" style="fill: none; stroke-width: 1px; stroke: rgb(36, 36, 36); stroke-opacity: 1;"/><g class="overlines-above"/><g class="xaxislayer-above"><path class="xtick ticks crisp" d="M0,406v5" transform="translate(96,0)" style="stroke: rgb(68, 68, 68); stroke-opacity: 1; stroke-width: 1px;"/><path class="xtick ticks crisp" d="M0,406v5" transform="translate(240.8,0)" style="stroke: rgb(68, 68, 68); stroke-opacity: 1; stroke-width: 1px;"/><path class="xtick ticks crisp" d="M0,406v5" transform="translate(385.6,0)" style="stroke: rgb(68, 68, 68); stroke-opacity: 1; stroke-width: 1px;"/><path class="xtick ticks crisp" d="M0,406v5" transform="translate(530.4,0)" style="stroke: rgb(68, 68, 68); stroke-opacity: 1; stroke-width: 1px;"/><path class="xtick ticks crisp" d="M0,406v5" transform="translate(675.2,0)" style="stroke: rgb(68, 68, 68); stroke-opacity: 1; stroke-width: 1px;"/><path class="xtick ticks crisp" d="M0,406v5" transform="translate(820,0)" style="stroke: rgb(68, 68, 68); stroke-opacity: 1; stroke-width: 1px;"/><g class="xtick"><text text-anchor="middle" x="0" y="435" transform="translate(96,0)" style="font-family: 'Open Sans', verdana, arial, sans-serif; font-size: 20px; fill: rgb(36, 36, 36); fill-opacity: 1; white-space: pre;">0</text></g><g class="xtick"><text text-anchor="middle" x="0" y="435" transform="translate(240.8,0)" style="font-family: 'Open Sans', verdana, arial, sans-serif; font-size: 20px; fill: rgb(36, 36, 36); fill-opacity: 1; white-space: pre;">50</text></g><g class="xtick"><text text-anchor="middle" x="0" y="435" transform="translate(385.6,0)" style="font-family: 'Open Sans', verdana, arial, sans-serif; font-size: 20px; fill: rgb(36, 36, 36); fill-opacity: 1; white-space: pre;">100</text></g><g class="xtick"><text text-anchor="middle" x="0" y="435" transform="translate(530.4,0)" style="font-family: 'Open Sans', verdana, arial, sans-serif; font-size: 20px; fill: rgb(36, 36, 36); fill-opacity: 1; white-space: pre;">150</text></g><g class="xtick"><text text-anchor="middle" x="0" y="435" transform="translate(675.2,0)" style="font-family: 'Open Sans', verdana, arial, sans-serif; font-size: 20px; fill: rgb(36, 36, 36); fill-opacity: 1; white-space: pre;">200</text></g><g class="xtick"><text text-anchor="middle" x="0" y="435" transform="translate(820,0)" style="font-family: 'Open Sans', verdana, arial, sans-serif; font-size: 20px; fill: rgb(36, 36, 36); fill-opacity: 1; white-space: pre;">250</text></g></g><g class="yaxislayer-above"><path class="ytick ticks crisp" d="M95,0h-5" transform="translate(0,389.75)" style="stroke: rgb(68, 68, 68); stroke-opacity: 1; stroke-width: 1px;"/><path class="ytick ticks crisp" d="M95,0h-5" transform="translate(0,320.23)" style="stroke: rgb(68, 68, 68); stroke-opacity: 1; stroke-width: 1px;"/><path class="ytick ticks crisp" d="M95,0h-5" transform="translate(0,250.72)" style="stroke: rgb(68, 68, 68); stroke-opacity: 1; stroke-width: 1px;"/><path class="ytick ticks crisp" d="M95,0h-5" transform="translate(0,181.2)" style="stroke: rgb(68, 68, 68); stroke-opacity: 1; stroke-width: 1px;"/><path class="ytick ticks crisp" d="M95,0h-5" transform="translate(0,111.68)" style="stroke: rgb(68, 68, 68); stroke-opacity: 1; stroke-width: 1px;"/><g class="ytick"><text text-anchor="end" x="86" y="7" transform="translate(0,389.75)" style="font-family: 'Open Sans', verdana, arial, sans-serif; font-size: 20px; fill: rgb(36, 36, 36); fill-opacity: 1; white-space: pre;">−65</text></g><g class="ytick"><text text-anchor="end" x="86" y="7" transform="translate(0,320.23)" style="font-family: 'Open Sans', verdana, arial, sans-serif; font-size: 20px; fill: rgb(36, 36, 36); fill-opacity: 1; white-space: pre;">−60</text></g><g class="ytick"><text text-anchor="end" x="86" y="7" transform="translate(0,250.72)" style="font-family: 'Open Sans', verdana, arial, sans-serif; font-size: 20px; fill: rgb(36, 36, 36); fill-opacity: 1; white-space: pre;">−55</text></g><g class="ytick"><text text-anchor="end" x="86" y="7" transform="translate(0,181.2)" style="font-family: 'Open Sans', verdana, arial, sans-serif; font-size: 20px; fill: rgb(36, 36, 36); fill-opacity: 1; white-space: pre;">−50</text></g><g class="ytick"><text text-anchor="end" x="86" y="7" transform="translate(0,111.68)" style="font-family: 'Open Sans', verdana, arial, sans-serif; font-size: 20px; fill: rgb(36, 36, 36); fill-opacity: 1; white-space: pre;">−45</text></g></g><g class="overaxes-above"/></g></g><g class="polarlayer"/><g class="ternarylayer"/><g class="geolayer"/><g class="funnelarealayer"/><g class="pielayer"/><g class="treemaplayer"/><g class="sunburstlayer"/><g class="glimages"/><defs id="topdefs-c519e5"><g class="clips"/><clipPath id="legendc519e5"><rect width="582" height="90" x="1" y="1"/></clipPath></defs><g class="layer-above"><g class="imagelayer"/><g class="shapelayer"/></g><g class="infolayer"><g class="legend" pointer-events="all" transform="translate(96, 496.5)"><rect class="bg" shape-rendering="crispEdges" width="583" height="91" x="0.5" y="0.5" style="stroke: rgb(0, 0, 0); stroke-opacity: 1; fill: rgb(5, 5, 25); fill-opacity: 0.1; stroke-width: 1px;"/><g class="scrollbox" transform="translate(0, 0)" clip-path="url('#legendc519e5')"><g class="groups"><g class="traces" transform="translate(1, 19.200000000000003)" style="opacity: 1;"><text class="legendtext user-select-none" text-anchor="start" x="40" y="7.0200000000000005" style="font-family: 'Open Sans', verdana, arial, sans-serif; font-size: 18px; fill: rgb(0, 0, 0); fill-opacity: 1; white-space: pre;">Уровень сброса</text><g class="layers" style="opacity: 0.5;"><g class="legendfill"/><g class="legendlines"><path class="js-line" d="M5,0h30" style="fill: none; stroke: rgb(44, 160, 44); stroke-opacity: 1; stroke-dasharray: 9px, 9px; stroke-width: 3px;"/></g><g class="legendsymbols"><g class="legendpoints"/></g></g><rect class="legendtoggle" pointer-events="all" x="0" y="-13.200000000000001" width="189.453125" height="26.400000000000002" style="cursor: pointer; fill: rgb(0, 0, 0); fill-opacity: 0;"/></g><g class="traces" transform="translate(351.984375, 19.200000000000003)" style="opacity: 1;"><text class="legendtext user-select-none" text-anchor="start" x="40" y="7.0200000000000005" style="font-family: 'Open Sans', verdana, arial, sans-serif; font-size: 18px; fill: rgb(0, 0, 0); fill-opacity: 1; white-space: pre;">Порог активации</text><g class="layers" style="opacity: 0.5;"><g class="legendfill"/><g class="legendlines"><path class="js-line" d="M5,0h30" style="fill: none; stroke: rgb(214, 39, 40); stroke-opacity: 1; stroke-dasharray: 9px, 9px; stroke-width: 3px;"/></g><g class="legendsymbols"><g class="legendpoints"/></g></g><rect class="legendtoggle" pointer-events="all" x="0" y="-13.200000000000001" width="201.984375" height="26.400000000000002" style="cursor: pointer; fill: rgb(0, 0, 0); fill-opacity: 0;"/></g><g class="traces" transform="translate(1, 45.6)" style="opacity: 1;"><text class="legendtext user-select-none" text-anchor="start" x="40" y="7.0200000000000005" style="font-family: 'Open Sans', verdana, arial, sans-serif; font-size: 18px; fill: rgb(0, 0, 0); fill-opacity: 1; white-space: pre;">Уровень релаксации</text><g class="layers" style="opacity: 0.5;"><g class="legendfill"/><g class="legendlines"><path class="js-line" d="M5,0h30" style="fill: none; stroke: rgb(148, 103, 189); stroke-opacity: 1; stroke-dasharray: 9px, 9px; stroke-width: 3px;"/></g><g class="legendsymbols"><g class="legendpoints"/></g></g><rect class="legendtoggle" pointer-events="all" x="0" y="-13.200000000000001" width="235.859375" height="26.400000000000002" style="cursor: pointer; fill: rgb(0, 0, 0); fill-opacity: 0;"/></g><g class="traces" transform="translate(351.984375, 45.6)" style="opacity: 1;"><text class="legendtext user-select-none" text-anchor="start" x="40" y="7.0200000000000005" style="font-family: 'Open Sans', verdana, arial, sans-serif; font-size: 18px; fill: rgb(0, 0, 0); fill-opacity: 1; white-space: pre;">Потенциал нейрона</text><g class="layers" style="opacity: 1;"><g class="legendfill"/><g class="legendlines"><path class="js-line" d="M5,0h30" style="fill: none; stroke: rgb(31, 119, 180); stroke-opacity: 1; stroke-width: 1px;"/></g><g class="legendsymbols"><g class="legendpoints"/></g></g><rect class="legendtoggle" pointer-events="all" x="0" y="-13.200000000000001" width="227.65625" height="26.400000000000002" style="cursor: pointer; fill: rgb(0, 0, 0); fill-opacity: 0;"/></g><g class="traces" transform="translate(1, 72)" style="opacity: 1;"><text class="legendtext user-select-none" text-anchor="start" x="40" y="7.0200000000000005" style="font-family: 'Open Sans', verdana, arial, sans-serif; font-size: 18px; fill: rgb(0, 0, 0); fill-opacity: 1; white-space: pre;">Моменты спайков этого нейрона</text><g class="layers" style="opacity: 1;"><g class="legendfill"/><g class="legendlines"/><g class="legendsymbols"><g class="legendpoints"><path class="scatterpts" transform="translate(20,0)" d="M3,0A3,3 0 1,1 0,-3A3,3 0 0,1 3,0Z" style="opacity: 1; stroke-width: 0px; fill: rgb(255, 127, 14); fill-opacity: 1;"/></g></g></g><rect class="legendtoggle" pointer-events="all" x="0" y="-13.200000000000001" width="348.484375" height="26.400000000000002" style="cursor: pointer; fill: rgb(0, 0, 0); fill-opacity: 0;"/></g></g></g><rect class="scrollbar" rx="20" ry="3" width="0" height="0" x="0" y="0" style="fill: rgb(128, 139, 164); fill-opacity: 1;"/></g><g class="g-gtitle"/><g class="g-xtitle"><text class="xtitle" x="458" y="470.8" text-anchor="middle" style="font-family: 'Open Sans', verdana, arial, sans-serif; font-size: 24px; fill: rgb(36, 36, 36); opacity: 1; font-weight: normal; white-space: pre;">Время, мс</text></g><g class="g-ytitle" transform="translate(11.5966796875,0)"><text class="ytitle" transform="rotate(-90,12.403125000000003,252.5)" x="12.403125000000003" y="252.5" text-anchor="middle" style="font-family: 'Open Sans', verdana, arial, sans-serif; font-size: 24px; fill: rgb(36, 36, 36); opacity: 1; font-weight: normal; white-space: pre;">Напряжение, мВ</text></g></g></svg>