<svg class="main-svg" xmlns="http://www.w3.org/2000/svg" xmlns:xlink="http://www.w3.org/1999/xlink" width="900" height="600" style="" viewBox="0 0 900 600"><rect x="0" y="0" width="900" height="600" style="fill: rgb(255, 255, 255); fill-opacity: 1;"/><defs id="defs-6180c4"><g class="clips"><clipPath id="clip6180c4xyplot" class="plotclip"><rect width="724" height="325"/></clipPath><clipPath class="axesclip" id="clip6180c4x"><rect x="96" y="0" width="724" height="600"/></clipPath><clipPath class="axesclip" id="clip6180c4y"><rect x="0" y="100" width="900" height="325"/></clipPath><clipPath class="axesclip" id="clip6180c4xy"><rect x="96" y="100" width="724" height="325"/></clipPath></g><g class="gradients"/></defs><g class="bglayer"/><g class="layer-below"><g class="imagelayer"/><g class="shapelayer"/></g><g class="cartesianlayer"><g class="subplot xy"><g class="layer-subplot"><g class="shapelayer"/><g class="imagelayer"/></g><g class="gridlayer"><g class="x"/><g class="y"/></g><g class="zerolinelayer"/><path class="xlines-below"/><path class="ylines-below"/><g class="overlines-below"/><g class="xaxislayer-below"/><g class="yaxislayer-below"/><g class="overaxes-below"/><g class="plot" transform="translate(96, 100)" clip-path="url('#clip6180c4xyplot')"><g class="scatterlayer mlayer"><g class="trace scatter traceca35de" style="stroke-miterlimit: 2; opacity: 0.5;"><g class="fills"/><g class="errorbars"/><g class="lines"><path class="js-line" d="M0,308.75H724V308.75" style="vector-effect: non-scaling-stroke; fill: none; stroke: rgb(44, 160, 44); stroke-opacity: 1; stroke-width: 3px; opacity: 1; stroke-dasharray: 9px, 9px;"/></g><g class="points"/><g class="text"/></g><g class="trace scatter tracee87862" style="stroke-miterlimit: 2; opacity: 0.5;"><g class="fills"/><g class="errorbars"/><g class="lines"><path class="js-line" d="M0,54.22H2.9V54.22H5.79V54.22H8.69V54.22H11.58V54.22H14.48V54.22H17.38V54.22H20.27V54.22H23.17V54.22H26.06V54.22H28.96V54.22H31.86V54.22H34.75V54.22H37.65V54.22H40.54V54.22H43.44V54.22H46.34V54.22H49.23V54.22H52.13V54.22H55.02V54.22H57.92V54.22H60.82V54.22H63.71V54.22H66.61V54.22H69.5V54.22H72.4V54.22H75.3V54.22H78.19V54.22H81.09V54.22H83.98V54.22H86.88V54.22H89.78V54.22H92.67V54.22H95.57V54.22H98.46V54.22H101.36V54.22H104.26V54.22H107.15V54.22H110.05V54.22H112.94V54.22H115.84V54.22H118.74V54.22H121.63V54.22H124.53V54.22H127.42V54.22H130.32V54.22H133.22V54.22H136.11V54.22H139.01V54.22H141.9V54.22H144.8V54.22H147.7V54.22H150.59V54.22H153.49V54.22H156.38V54.22H159.28V54.22H162.18V54.22H165.07V54.22H167.97V54.22H170.86V54.22H173.76V54.22H176.66V54.22H179.55V54.22H182.45V54.22H185.34V54.22H188.24V54.22H191.14V54.22H194.03V54.22H196.93V54.22H199.82V54.22H202.72V54.22H205.62V54.22H208.51V54.22H211.41V54.22H214.3V54.22H217.2V54.22H220.1V54.22H222.99V54.22H225.89V54.22H228.78V54.22H231.68V54.22H234.58V54.22H237.47V54.22H240.37V54.22H243.26V54.22H246.16V54.22H249.06V54.22H251.95V54.22H254.85V54.22H257.74V54.22H260.64V54.22H263.54V54.22H266.43V54.22H269.33V54.22H272.22V54.22H275.12V54.22H278.02V54.22H280.91V54.22H283.81V54.22H286.7V54.22H289.6V54.22H292.5V54.22H295.39V54.22H298.29V54.22H301.18V54.22H304.08V54.22H306.98V54.22H309.87V54.22H312.77V54.22H315.66V54.22H318.56V54.22H321.46V54.22H324.35V54.22H327.25V54.22H330.14V54.22H333.04V54.22H335.94V54.22H338.83V54.22H341.73V54.22H344.62V54.22H347.52V54.22H350.42V54.22H353.31V54.22H356.21V54.22H359.1V54.22H362V54.22H364.9V54.22H367.79V54.22H370.69V54.22H373.58V54.22H376.48V54.22H379.38V54.22H382.27V54.22H385.17V54.22H388.06V54.22H390.96V54.22H393.86V54.22H396.75V54.22H399.65V54.22H402.54V54.22H405.44V54.22H408.34V54.22H411.23V54.22H414.13V54.22H417.02V54.22H419.92V54.22H422.82V54.22H425.71V54.22H428.61V54.22H431.5V54.22H434.4V54.22H437.3V54.22H440.19V54.22H443.09V54.22H445.98V54.22H448.88V54.22H451.78V54.22H454.67V54.22H457.57V54.22H460.46V54.22H463.36V54.22H466.26V54.22H469.15V54.22H472.05V54.22H474.94V54.22H477.84V54.22H480.74V54.22H483.63V54.22H486.53V54.22H489.42V54.22H492.32V54.22H495.22V54.22H498.11V54.22H501.01V54.22H503.9V54.22H506.8V54.22H509.7V54.22H512.59V54.22H515.49V54.22H518.38V54.22H521.28V54.22H524.18V54.22H527.07V54.22H529.97V54.22H532.86V54.22H535.76V54.22H538.66V54.22H541.55V54.22H544.45V54.22H547.34V54.22H550.24V54.22H553.14V54.22H556.03V54.22H558.93V54.22H561.82V54.22H564.72V54.22H567.62V54.22H570.51V54.22H573.41V54.22H576.3V54.22H579.2V54.22H582.1V54.22H584.99V54.22H587.89V54.22H590.78V54.22H593.68V54.22H596.58V54.22H599.47V54.22H602.37V54.22H605.26V54.22H608.16V54.22H611.06V54.22H613.95V54.22H616.85V54.22H619.74V54.22H622.64V54.22H625.54V54.22H628.43V54.22H631.33V54.22H634.22V54.22H637.12V54.22H640.02V54.22H642.91V54.22H645.81V54.22H648.7V54.22H651.6V54.22H654.5V54.22H657.39V54.22H660.29V54.22H663.18V54.22H666.08V54.22H668.98V54.22H671.87V54.22H674.77V54.22H677.66V54.22H680.56V54.22H683.46V54.22H686.35V54.22H689.25V54.22H692.14V54.22H695.04V54.22H697.94V54.22H700.83V54.22H703.73V54.22H706.62V54.22H709.52V54.22H712.42V54.22H715.31V54.22H718.21V54.22H721.1V54.22" style="vector-effect: non-scaling-stroke; fill: none; stroke: rgb(214, 39, 40); stroke-opacity: 1; stroke-width: 3px; opacity: 1; stroke-dasharray: 9px, 9px;"/></g><g class="points"/><g class="text"/></g><g class="trace scatter tracef3dcd5" style="stroke-miterlimit: 2; opacity: 1;"><g class="fills"/><g class="errorbars"/><g class="lines"><path class="js-line" d="M0,308.75H2.9V308.75H5.79V308.75H8.69V308.75H11.58V308.75H14.48V308.75H17.38V308.75H20.27V308.75H23.17V308.75H26.06V308.75H28.96V308.75H31.86V308.75H34.75V308.75H37.65V308.75H40.54V308.75H43.44V308.75H46.34V308.75H49.23V308.75H52.13V308.75H55.02V308.75H57.92V308.75H60.82V308.75H63.71V295.47H66.61V269.42H69.5V269.42H72.4V269.42H75.3V269.42H78.19V269.42H81.09V269.42H83.98V263.1H86.88V261.66H89.78V248.62H92.67V218.26H95.57V199.38H98.46V181.05H101.36V134.78H104.26V80.3H107.15V31.76H110.05V29.17H112.94V25.66H115.84V25.66H118.74V25.66H121.63V22.62H124.53V20.04H127.42V54.22H130.32V308.75H133.22V308.75H136.11V308.75H139.01V308.75H141.9V308.75H144.8V308.75H147.7V308.75H150.59V308.75H153.49V308.75H156.38V308.75H159.28V308.75H162.18V308.75H165.07V294.51H167.97V281.23H170.86V255.61H173.76V242.61H176.66V242.61H179.55V235.02H182.45V235.02H185.34V229.94H188.24V226.43H191.14V224.98H194.03V219.4H196.93V190.24H199.82V178.62H202.72V166.93H205.62V164.34H208.51V136.09H211.41V118.93H214.3V87.55H217.2V73.34H220.1V47.87H222.99V34.87H225.89V34.87H228.78V34.87H231.68V16.55H234.58V16.55H237.47V54.22H240.37V308.75H243.26V308.75H246.16V308.75H249.06V308.75H251.95V308.75H254.85V308.75H257.74V308.75H260.64V308.75H263.54V308.75H266.43V308.75H269.33V308.75H272.22V297.97H275.12V297.97H278.02V278.02H280.91V265.9H283.81V265.9H286.7V254.79H289.6V253.88H292.5V253.88H295.39V240.37H298.29V205.49H301.18V172.4H304.08V152.08H306.98V140.46H309.87V127.26H312.77V110H315.66V83.48H318.56V83.48H321.46V67.4H324.35V54.41H327.25V54.41H330.14V29.2H333.04V16.25H335.94V54.22H338.83V308.75H341.73V308.75H344.62V308.75H347.52V308.75H350.42V308.75H353.31V308.75H356.21V308.75H359.1V308.75H362V308.75H364.9V308.75H367.79V308.75H370.69V308.75H373.58V296.63H376.48V296.63H379.38V282.68H382.27V282.68H385.17V282.68H388.06V268.54H390.96V226.15H393.86V186.33H396.75V178.74H399.65V147.46H402.54V130.3H405.44V130.3H408.34V114.93H411.23V114.93H414.13V108.05H417.02V108.05H419.92V108.05H422.82V108.05H425.71V71.91H428.61V60.41H431.5V60.41H434.4V55.33H437.3V55.33H440.19V55.33H443.09V23.39H445.98V54.22H448.88V308.75H451.78V308.75H454.67V308.75H457.57V308.75H460.46V308.75H463.36V308.75H466.26V308.75H469.15V308.75H472.05V308.75H474.94V308.75H477.84V292.78H480.74V292.78H483.63V292.78H486.53V279.59H489.42V271.99H492.32V268.48H495.22V268.48H498.11V255.45H501.01V217.67H503.9V217.67H506.8V197.79H509.7V166.61H512.59V166.61H515.49V166.61H518.38V161.53H521.28V141.22H524.18V141.22H527.07V140.31H529.97V140.31H532.86V140.31H535.76V134.2H538.66V101.71H541.55V88.71H544.45V84.45H547.34V78.76H550.24V50.18H553.14V36.81H556.03V21.68H558.93V21.68H561.82V21.68H564.72V54.22H567.62V308.75H570.51V308.75H573.41V308.75H576.3V308.75H579.2V308.75H582.1V308.75H584.99V308.75H587.89V308.75H590.78V308.75H593.68V308.75H596.58V299.87H599.47V271.85H602.37V262.81H605.26V242H608.16V228.11H611.06V214.6H613.95V209.02H616.85V209.02H619.74V193.72H622.64V184.61H625.54V183.7H628.43V167.09H631.33V167.09H634.22V167.09H637.12V130.43H640.02V124.73H642.91V113.11H645.81V113.11H648.7V107H651.6V91.04H654.5V74.96H657.39V74.96H660.29V74.96H663.18V35.63H666.08V27.17H668.98V27.17H671.87V54.22H674.77V308.75H677.66V308.75H680.56V308.75H683.46V308.75H686.35V308.75H689.25V308.75H692.14V308.75H695.04V308.75H697.94V308.75H700.83V308.75H703.73V301.16H706.62V288.69H709.52V275.74H712.42V275.74H715.31V275.74H718.21V230.53H721.1V221.42" style="vector-effect: non-scaling-stroke; fill: none; stroke: rgb(31, 119, 180); stroke-opacity: 1; stroke-width: 1px; opacity: 1;"/></g><g class="points"/><g class="text"/></g><g class="trace scatter tracefde8f3" style="stroke-miterlimit: 2; opacity: 1;"><g class="fills"/><g class="errorbars"/><g class="lines"/><g class="points"><path class="point" transform="translate(127.42,54.22)" d="M3,0A3,3 0 1,1 0,-3A3,3 0 0,1 3,0Z" style="opacity: 1; stroke-width: 0px; fill: rgb(255, 127, 14); fill-opacity: 1;"/><path class="point" transform="translate(237.47,54.22)" d="M3,0A3,3 0 1,1 0,-3A3,3 0 0,1 3,0Z" style="opacity: 1; stroke-width: 0px; fill: rgb(255, 127, 14); fill-opacity: 1;"/><path class="point" transform="translate(335.94,54.22)" d="M3,0A3,3 0 1,1 0,-3A3,3 0 0,1 3,0Z" style="opacity: 1; stroke-width: 0px; fill: rgb(255, 127, 14); fill-opacity: 1;"/><path class="point" transform="translate(445.98,54.22)" d="M3,0A3,3 0 1,1 0,-3A3,3 0 0,1 3,0Z" style="opacity: 1; stroke-width: 0px; fill: rgb(255, 127, 14); fill-opacity: 1;"/><path class="point" transform="translate(564.72,54.22)" d="M3,0A3,3 0 1,1 0,-3A3,3 0 0,1 3,0Z" style="opacity: 1; stroke-width: 0px; fill: rgb(255, 127, 14); fill-opacity: 1;"/><path class="point" transform="translate(671.87,54.22)" d="M3,0A3,3 0 1,1 0,-3A3,3 0 0,1 3,0Z" style="opacity: 1; stroke-width: 0px; fill: rgb(255, 127, 14); fill-opacity: 1;"/></g><g class="text"/></g></g></g><g class="overplot"/><path class="xlines-above crisp" d="M95,425.5H820" style="fill: none; stroke-width: 1px; stroke: rgb(36, 36, 36); stroke-opacity: 1;"/><path class="ylines-above crisp" d="M95.5,100V425" style="fill: none; stroke-width: 1px; stroke: rgb(36, 36, 36); stroke-opacity: 1;"/><g class="overlines-above"/><g class="xaxislayer-above"><path class="xtick ticks crisp" d="M0,426v5" transform="translate(96,0)" style="stroke: rgb(68, 68, 68); stroke-opacity: 1; stroke-width: 1px;"/><path class="xtick ticks crisp" d="M0,426v5" transform="translate(240.8,0)" style="stroke: rgb(68, 68, 68); stroke-opacity: 1; stroke-width: 1px;"/><path class="xtick ticks crisp" d="M0,426v5" transform="translate(385.6,0)" style="stroke: rgb(68, 68, 68); stroke-opacity: 1; stroke-width: 1px;"/><path class="xtick ticks crisp" d="M0,426v5" transform="translate(530.4,0)" style="stroke: rgb(68, 68, 68); stroke-opacity: 1; stroke-width: 1px;"/><path class="xtick ticks crisp" d="M0,426v5" transform="translate(675.2,0)" style="stroke: rgb(68, 68, 68); stroke-opacity: 1; stroke-width: 1px;"/><path class="xtick ticks crisp" d="M0,426v5" transform="translate(820,0)" style="stroke: rgb(68, 68, 68); stroke-opacity: 1; stroke-width: 1px;"/><g class="xtick"><text text-anchor="middle" x="0" y="455" transform="translate(96,0)" style="font-family: 'Open Sans', verdana, arial, sans-serif; font-size: 20px; fill: rgb(36, 36, 36); fill-opacity: 1; white-space: pre;">0</text></g><g class="xtick"><text text-anchor="middle" x="0" y="455" transform="translate(240.8,0)" style="font-family: 'Open Sans', verdana, arial, sans-serif; font-size: 20px; fill: rgb(36, 36, 36); fill-opacity: 1; white-space: pre;">50</text></g><g class="xtick"><text text-anchor="middle" x="0" y="455" transform="translate(385.6,0)" style="font-family: 'Open Sans', verdana, arial, sans-serif; font-size: 20px; fill: rgb(36, 36, 36); fill-opacity: 1; white-space: pre;">100</text></g><g class="xtick"><text text-anchor="middle" x="0" y="455" transform="translate(530.4,0)" style="font-family: 'Open Sans', verdana, arial, sans-serif; font-size: 20px; fill: rgb(36, 36, 36); fill-opacity: 1; white-space: pre;">150</text></g><g class="xtick"><text text-anchor="middle" x="0" y="455" transform="translate(675.2,0)" style="font-family: 'Open Sans', verdana, arial, sans-serif; font-size: 20px; fill: rgb(36, 36, 36); fill-opacity: 1; white-space: pre;">200</text></g><g class="xtick"><text text-anchor="middle" x="0" y="455" transform="translate(820,0)" style="font-family: 'Open Sans', verdana, arial, sans-serif; font-size: 20px; fill: rgb(36, 36, 36); fill-opacity: 1; white-space: pre;">250</text></g></g><g class="yaxislayer-above"><path class="ytick ticks crisp" d="M95,0h-5" transform="translate(0,389.17)" style="stroke: rgb(68, 68, 68); stroke-opacity: 1; stroke-width: 1px;"/><path class="ytick ticks crisp" d="M95,0h-5" transform="translate(0,350.01)" style="stroke: rgb(68, 68, 68); stroke-opacity: 1; stroke-width: 1px;"/><path class="ytick ticks crisp" d="M95,0h-5" transform="translate(0,310.85)" style="stroke: rgb(68, 68, 68); stroke-opacity: 1; stroke-width: 1px;"/><path class="ytick ticks crisp" d="M95,0h-5" transform="translate(0,271.69)" style="stroke: rgb(68, 68, 68); stroke-opacity: 1; stroke-width: 1px;"/><path class="ytick ticks crisp" d="M95,0h-5" transform="translate(0,232.54)" style="stroke: rgb(68, 68, 68); stroke-opacity: 1; stroke-width: 1px;"/><path class="ytick ticks crisp" d="M95,0h-5" transform="translate(0,193.38)" style="stroke: rgb(68, 68, 68); stroke-opacity: 1; stroke-width: 1px;"/><path class="ytick ticks crisp" d="M95,0h-5" transform="translate(0,154.22)" style="stroke: rgb(68, 68, 68); stroke-opacity: 1; stroke-width: 1px;"/><path class="ytick ticks crisp" d="M95,0h-5" transform="translate(0,115.06)" style="stroke: rgb(68, 68, 68); stroke-opacity: 1; stroke-width: 1px;"/><g class="ytick"><text text-anchor="end" x="86" y="7" transform="translate(0,389.17)" style="font-family: 'Open Sans', verdana, arial, sans-serif; font-size: 20px; fill: rgb(36, 36, 36); fill-opacity: 1; white-space: pre;">−64</text></g><g class="ytick"><text text-anchor="end" x="86" y="7" transform="translate(0,350.01)" style="font-family: 'Open Sans', verdana, arial, sans-serif; font-size: 20px; fill: rgb(36, 36, 36); fill-opacity: 1; white-space: pre;">−62</text></g><g class="ytick"><text text-anchor="end" x="86" y="7" transform="translate(0,310.85)" style="font-family: 'Open Sans', verdana, arial, sans-serif; font-size: 20px; fill: rgb(36, 36, 36); fill-opacity: 1; white-space: pre;">−60</text></g><g class="ytick"><text text-anchor="end" x="86" y="7" transform="translate(0,271.69)" style="font-family: 'Open Sans', verdana, arial, sans-serif; font-size: 20px; fill: rgb(36, 36, 36); fill-opacity: 1; white-space: pre;">−58</text></g><g class="ytick"><text text-anchor="end" x="86" y="7" transform="translate(0,232.54)" style="font-family: 'Open Sans', verdana, arial, sans-serif; font-size: 20px; fill: rgb(36, 36, 36); fill-opacity: 1; white-space: pre;">−56</text></g><g class="ytick"><text text-anchor="end" x="86" y="7" transform="translate(0,193.38)" style="font-family: 'Open Sans', verdana, arial, sans-serif; font-size: 20px; fill: rgb(36, 36, 36); fill-opacity: 1; white-space: pre;">−54</text></g><g class="ytick"><text text-anchor="end" x="86" y="7" transform="translate(0,154.22)" style="font-family: 'Open Sans', verdana, arial, sans-serif; font-size: 20px; fill: rgb(36, 36, 36); fill-opacity: 1; white-space: pre;">−52</text></g><g class="ytick"><text text-anchor="end" x="86" y="7" transform="translate(0,115.06)" style="font-family: 'Open Sans', verdana, arial, sans-serif; font-size: 20px; fill: rgb(36, 36, 36); fill-opacity: 1; white-space: pre;">−50</text></g></g><g class="overaxes-above"/></g></g><g class="polarlayer"/><g class="ternarylayer"/><g class="geolayer"/><g class="funnelarealayer"/><g class="pielayer"/><g class="treemaplayer"/><g class="sunburstlayer"/><g class="glimages"/><defs id="topdefs-6180c4"><g class="clips"/><clipPath id="legend6180c4"><rect width="702" height="63" x="1" y="1"/></clipPath></defs><g class="layer-above"><g class="imagelayer"/><g class="shapelayer"/></g><g class="infolayer"><g class="legend" pointer-events="all" transform="translate(96, 522.5)"><rect class="bg" shape-rendering="crispEdges" width="703" height="64" x="0.5" y="0.5" style="stroke: rgb(0, 0, 0); stroke-opacity: 1; fill: rgb(5, 5, 25); fill-opacity: 0.1; stroke-width: 1px;"/><g class="scrollbox" transform="translate(0, 0)" clip-path="url('#legend6180c4')"><g class="groups"><g class="traces" transform="translate(1, 19.200000000000003)" style="opacity: 1;"><text class="legendtext user-select-none" text-anchor="start" x="40" y="7.0200000000000005" style="font-family: 'Open Sans', verdana, arial, sans-serif; font-size: 18px; fill: rgb(0, 0, 0); fill-opacity: 1; white-space: pre;">Уровень сброса</text><g class="layers" style="opacity: 0.5;"><g class="legendfill"/><g class="legendlines"><path class="js-line" d="M5,0h30" style="fill: none; stroke: rgb(44, 160, 44); stroke-opacity: 1; stroke-dasharray: 9px, 9px; stroke-width: 3px;"/></g><g class="legendsymbols"><g class="legendpoints"/></g></g><rect class="legendtoggle" pointer-events="all" x="0" y="-13.200000000000001" width="189.453125" height="26.400000000000002" style="cursor: pointer; fill: rgb(0, 0, 0); fill-opacity: 0;"/></g><g class="traces" transform="translate(351.984375, 19.200000000000003)" style="opacity: 1;"><text class="legendtext user-select-none" text-anchor="start" x="40" y="7.0200000000000005" style="font-family: 'Open Sans', verdana, arial, sans-serif; font-size: 18px; fill: rgb(0, 0, 0); fill-opacity: 1; white-space: pre;">Порог активации</text><g class="layers" style="opacity: 0.5;"><g class="legendfill"/><g class="legendlines"><path class="js-line" d="M5,0h30" style="fill: none; stroke: rgb(214, 39, 40); stroke-opacity: 1; stroke-dasharray: 9px, 9px; stroke-width: 3px;"/></g><g class="legendsymbols"><g class="legendpoints"/></g></g><rect class="legendtoggle" pointer-events="all" x="0" y="-13.200000000000001" width="201.984375" height="26.400000000000002" style="cursor: pointer; fill: rgb(0, 0, 0); fill-opacity: 0;"/></g><g class="traces" transform="translate(1, 45.6)" style="opacity: 1;"><text class="legendtext user-select-none" text-anchor="start" x="40" y="7.0200000000000005" style="font-family: 'Open Sans', verdana, arial, sans-serif; font-size: 18px; fill: rgb(0, 0, 0); fill-opacity: 1; white-space: pre;">Потенциал нейрона</text><g class="layers" style="opacity: 1;"><g class="legendfill"/><g class="legendlines"><path class="js-line" d="M5,0h30" style="fill: none; stroke: rgb(31, 119, 180); stroke-opacity: 1; stroke-width: 1px;"/></g><g class="legendsymbols"><g class="legendpoints"/></g></g><rect class="legendtoggle" pointer-events="all" x="0" y="-13.200000000000001" width="227.65625" height="26.400000000000002" style="cursor: pointer; fill: rgb(0, 0, 0); fill-opacity: 0;"/></g><g class="traces" transform="translate(351.984375, 45.6)" style="opacity: 1;"><text class="legendtext user-select-none" text-anchor="start" x="40" y="7.0200000000000005" style="font-family: 'Open Sans', verdana, arial, sans-serif; font-size: 18px; fill: rgb(0, 0, 0); fill-opacity: 1; white-space: pre;">Моменты спайков этого нейрона</text><g class="layers" style="opacity: 1;"><g class="legendfill"/><g class="legendlines"/><g class="legendsymbols"><g class="legendpoints"><path class="scatterpts" transform="translate(20,0)" d="M3,0A3,3 0 1,1 0,-3A3,3 0 0,1 3,0Z" style="opacity: 1; stroke-width: 0px; fill: rgb(255, 127, 14); fill-opacity: 1;"/></g></g></g><rect class="legendtoggle" pointer-events="all" x="0" y="-13.200000000000001" width="348.484375" height="26.400000000000002" style="cursor: pointer; fill: rgb(0, 0, 0); fill-opacity: 0;"/></g></g></g><rect class="scrollbar" rx="20" ry="3" width="0" height="0" x="0" y="0" style="fill: rgb(128, 139, 164); fill-opacity: 1;"/></g><g class="g-gtitle"/><g class="g-xtitle"><text class="xtitle" x="458" y="490.8" text-anchor="middle" style="font-family: 'Open Sans', verdana, arial, sans-serif; font-size: 24px; fill: rgb(36, 36, 36); opacity: 1; font-weight: normal; white-space: pre;">Время, мс</text></g><g class="g-ytitle" transform="translate(11.5966796875,0)"><text class="ytitle" transform="rotate(-90,12.403125000000003,262.5)" x="12.403125000000003" y="262.5" text-anchor="middle" style="font-family: 'Open Sans', verdana, arial, sans-serif; font-size: 24px; fill: rgb(36, 36, 36); opacity: 1; font-weight: normal; white-space: pre;">Напряжение, мВ</text></g></g></svg>