<svg class="main-svg" xmlns="http://www.w3.org/2000/svg" xmlns:xlink="http://www.w3.org/1999/xlink" width="800" height="500" style="" viewBox="0 0 800 500"><rect x="0" y="0" width="800" height="500" style="fill: rgb(255, 255, 255); fill-opacity: 1;"/><defs id="defs-cf5ce5"><g class="clips"><clipPath id="clipcf5ce5xyplot" class="plotclip"><rect width="633" height="248"/></clipPath><clipPath class="axesclip" id="clipcf5ce5x"><rect x="87" y="0" width="633" height="500"/></clipPath><clipPath class="axesclip" id="clipcf5ce5y"><rect x="0" y="100" width="800" height="248"/></clipPath><clipPath class="axesclip" id="clipcf5ce5xy"><rect x="87" y="100" width="633" height="248"/></clipPath></g><g class="gradients"/></defs><g class="bglayer"><rect class="bg" x="87" y="100" width="633" height="248" style="fill: rgb(229, 236, 246); fill-opacity: 1; stroke-width: 0;"/></g><g class="layer-below"><g class="imagelayer"/><g class="shapelayer"/></g><g class="cartesianlayer"><g class="subplot xy"><g class="layer-subplot"><g class="shapelayer"/><g class="imagelayer"/></g><g class="gridlayer"><g class="x"><path class="xgrid crisp" transform="translate(213.6,0)" d="M0,100v248" style="stroke: rgb(255, 255, 255); stroke-opacity: 1; stroke-width: 1px;"/><path class="xgrid crisp" transform="translate(340.2,0)" d="M0,100v248" style="stroke: rgb(255, 255, 255); stroke-opacity: 1; stroke-width: 1px;"/><path class="xgrid crisp" transform="translate(466.8,0)" d="M0,100v248" style="stroke: rgb(255, 255, 255); stroke-opacity: 1; stroke-width: 1px;"/><path class="xgrid crisp" transform="translate(593.4,0)" d="M0,100v248" style="stroke: rgb(255, 255, 255); stroke-opacity: 1; stroke-width: 1px;"/></g><g class="y"><path class="ygrid crisp" transform="translate(0,335.6)" d="M87,0h633" style="stroke: rgb(255, 255, 255); stroke-opacity: 1; stroke-width: 1px;"/><path class="ygrid crisp" transform="translate(0,262.45)" d="M87,0h633" style="stroke: rgb(255, 255, 255); stroke-opacity: 1; stroke-width: 1px;"/><path class="ygrid crisp" transform="translate(0,189.3)" d="M87,0h633" style="stroke: rgb(255, 255, 255); stroke-opacity: 1; stroke-width: 1px;"/><path class="ygrid crisp" transform="translate(0,116.15)" d="M87,0h633" style="stroke: rgb(255, 255, 255); stroke-opacity: 1; stroke-width: 1px;"/></g></g><g class="zerolinelayer"><path class="xzl zl crisp" transform="translate(87,0)" d="M0,100v248" style="stroke: rgb(0, 44, 117); stroke-opacity: 1; stroke-width: 2px;"/></g><path class="xlines-below"/><path class="ylines-below"/><g class="overlines-below"/><g class="xaxislayer-below"/><g class="yaxislayer-below"/><g class="overaxes-below"/><g class="plot" transform="translate(87, 100)" clip-path="url('#clipcf5ce5xyplot')"><g class="scatterlayer mlayer"><g class="trace scatter trace732141" style="stroke-miterlimit: 2; opacity: 0.5;"><g class="fills"/><g class="errorbars"/><g class="lines"><path class="js-line" d="M0,235.6H633V235.6" style="vector-effect: non-scaling-stroke; fill: none; stroke: rgb(0, 204, 150); stroke-opacity: 1; stroke-width: 3px; opacity: 1; stroke-dasharray: 9px, 9px;"/></g><g class="points"/><g class="text"/></g><g class="trace scatter tracef77e66" style="stroke-miterlimit: 2; opacity: 0.5;"><g class="fills"/><g class="errorbars"/><g class="lines"><path class="js-line" d="M0,16.15H2.53V16.15H5.06V16.15H7.6V16.15H10.13V16.15H12.66V16.15H15.19V16.15H17.72V16.15H20.26V16.15H22.79V16.15H25.32V16.15H27.85V16.15H30.38V16.15H32.92V16.15H35.45V16.15H37.98V16.15H40.51V16.15H43.04V16.15H45.58V16.15H48.11V16.15H50.64V16.15H53.17V16.15H55.7V16.15H58.24V16.15H60.77V16.15H63.3V16.15H65.83V16.15H68.36V16.15H70.9V16.15H73.43V16.15H75.96V16.15H78.49V16.15H81.02V16.15H83.56V16.15H86.09V16.15H88.62V16.15H91.15V16.15H93.68V16.15H96.22V16.15H98.75V16.15H101.28V16.15H103.81V16.15H106.34V16.15H108.88V16.15H111.41V16.15H113.94V16.15H116.47V16.15H119V16.15H121.54V16.15H124.07V16.15H126.6V16.15H129.13V16.15H131.66V16.15H134.2V16.15H136.73V16.15H139.26V16.15H141.79V16.15H144.32V16.15H146.86V16.15H149.39V16.15H151.92V16.15H154.45V16.15H156.98V16.15H159.52V16.15H162.05V16.15H164.58V16.15H167.11V16.15H169.64V16.15H172.18V16.15H174.71V16.15H177.24V16.15H179.77V16.15H182.3V16.15H184.84V16.15H187.37V16.15H189.9V16.15H192.43V16.15H194.96V16.15H197.5V16.15H200.03V16.15H202.56V16.15H205.09V16.15H207.62V16.15H210.16V16.15H212.69V16.15H215.22V16.15H217.75V16.15H220.28V16.15H222.82V16.15H225.35V16.15H227.88V16.15H230.41V16.15H232.94V16.15H235.48V16.15H238.01V16.15H240.54V16.15H243.07V16.15H245.6V16.15H248.14V16.15H250.67V16.15H253.2V16.15H255.73V16.15H258.26V16.15H260.8V16.15H263.33V16.15H265.86V16.15H268.39V16.15H270.92V16.15H273.46V16.15H275.99V16.15H278.52V16.15H281.05V16.15H283.58V16.15H286.12V16.15H288.65V16.15H291.18V16.15H293.71V16.15H296.24V16.15H298.78V16.15H301.31V16.15H303.84V16.15H306.37V16.15H308.9V16.15H311.44V16.15H313.97V16.15H316.5V16.15H319.03V16.15H321.56V16.15H324.1V16.15H326.63V16.15H329.16V16.15H331.69V16.15H334.22V16.15H336.76V16.15H339.29V16.15H341.82V16.15H344.35V16.15H346.88V16.15H349.42V16.15H351.95V16.15H354.48V16.15H357.01V16.15H359.54V16.15H362.08V16.15H364.61V16.15H367.14V16.15H369.67V16.15H372.2V16.15H374.74V16.15H377.27V16.15H379.8V16.15H382.33V16.15H384.86V16.15H387.4V16.15H389.93V16.15H392.46V16.15H394.99V16.15H397.52V16.15H400.06V16.15H402.59V16.15H405.12V16.15H407.65V16.15H410.18V16.15H412.72V16.15H415.25V16.15H417.78V16.15H420.31V16.15H422.84V16.15H425.38V16.15H427.91V16.15H430.44V16.15H432.97V16.15H435.5V16.15H438.04V16.15H440.57V16.15H443.1V16.15H445.63V16.15H448.16V16.15H450.7V16.15H453.23V16.15H455.76V16.15H458.29V16.15H460.82V16.15H463.36V16.15H465.89V16.15H468.42V16.15H470.95V16.15H473.48V16.15H476.02V16.15H478.55V16.15H481.08V16.15H483.61V16.15H486.14V16.15H488.68V16.15H491.21V16.15H493.74V16.15H496.27V16.15H498.8V16.15H501.34V16.15H503.87V16.15H506.4V16.15H508.93V16.15H511.46V16.15H514V16.15H516.53V16.15H519.06V16.15H521.59V16.15H524.12V16.15H526.66V16.15H529.19V16.15H531.72V16.15H534.25V16.15H536.78V16.15H539.32V16.15H541.85V16.15H544.38V16.15H546.91V16.15H549.44V16.15H551.98V16.15H554.51V16.15H557.04V16.15H559.57V16.15H562.1V16.15H564.64V16.15H567.17V16.15H569.7V16.15H572.23V16.15H574.76V16.15H577.3V16.15H579.83V16.15H582.36V16.15H584.89V16.15H587.42V16.15H589.96V16.15H592.49V16.15H595.02V16.15H597.55V16.15H600.08V16.15H602.62V16.15H605.15V16.15H607.68V16.15H610.21V16.15H612.74V16.15H615.28V16.15H617.81V16.15H620.34V16.15H622.87V16.15H625.4V16.15H627.94V16.15H630.47V16.15" style="vector-effect: non-scaling-stroke; fill: none; stroke: rgb(171, 99, 250); stroke-opacity: 1; stroke-width: 3px; opacity: 1; stroke-dasharray: 9px, 9px;"/></g><g class="points"/><g class="text"/></g><g class="trace scatter trace5b8818" style="stroke-miterlimit: 2; opacity: 1;"><g class="fills"/><g class="errorbars"/><g class="lines"><path class="js-line" d="M0,235.6H2.53V235.6H5.06V235.6H7.6V235.6H10.13V235.6H12.66V235.6H15.19V235.6H17.72V235.6H20.26V235.6H22.79V235.6H25.32V235.6H27.85V235.6H30.38V235.6H32.92V235.6H35.45V235.6H37.98V235.6H40.51V235.6H43.04V235.6H45.58V235.6H48.11V235.6H50.64V235.6H53.17V235.6H55.7V235.6H58.24V235.6H60.77V235.6H63.3V235.6H65.83V229.57H68.36V207.91H70.9V207.8H73.43V178.84H75.96V169.27H78.49V160.64H81.02V137.34H83.56V119.02H86.09V108.29H88.62V89.68H91.15V82.43H93.68V66.97H96.22V53.83H98.75V48.47H101.28V26.33H103.81V21.71H106.34V16.15H108.88V235.6H111.41V235.6H113.94V235.6H116.47V235.6H119V235.6H121.54V235.6H124.07V235.6H126.6V235.6H129.13V235.6H131.66V235.6H134.2V235.6H136.73V235.6H139.26V235.6H141.79V233.66H144.32V223.14H146.86V219.62H149.39V219.62H151.92V219.56H154.45V211.1H156.98V201.77H159.52V192.79H162.05V162.08H164.58V134.45H167.11V134.45H169.64V111.8H172.18V111.8H174.71V109.12H177.24V97.07H179.77V97.07H182.3V76.71H184.84V67.73H187.37V57.8H189.9V47.85H192.43V43.21H194.96V39.84H197.5V39.84H200.03V39.84H202.56V39.84H205.09V25.32H207.62V19.88H210.16V16.15H212.69V235.6H215.22V235.6H217.75V235.6H220.28V235.6H222.82V235.6H225.35V235.6H227.88V235.6H230.41V235.6H232.94V235.6H235.48V235.6H238.01V227.14H240.54V204.95H243.07V194.53H245.6V170.96H248.14V170.96H250.67V142.78H253.2V131.24H255.73V112.77H258.26V112.77H260.8V112.77H263.33V87.48H265.86V64.78H268.39V62.1H270.92V62.1H273.46V40.23H275.99V40.23H278.52V38.29H281.05V19.93H283.58V16.15H286.12V235.6H288.65V235.6H291.18V235.6H293.71V235.6H296.24V235.6H298.78V235.6H301.31V235.6H303.84V235.6H306.37V235.6H308.9V235.6H311.44V235.6H313.97V225.08H316.5V219.72H319.03V219.72H321.56V213.12H324.1V210.96H326.63V210.96H329.16V201.55H331.69V192.92H334.22V180.42H336.76V166.53H339.29V155.8H341.82V148.28H344.35V148.28H346.88V132.86H349.42V128.22H351.95V111.67H354.48V98.43H357.01V89.44H359.54V86.23H362.08V74.93H364.61V62.52H367.14V46.47H369.67V41.04H372.2V31.46H374.74V31.46H377.27V16.15H379.8V235.6H382.33V235.6H384.86V235.6H387.4V235.6H389.93V235.6H392.46V235.6H394.99V235.6H397.52V235.6H400.06V235.6H402.59V235.6H405.12V215.47H407.65V208.93H410.18V203.57H412.72V203.57H415.25V203.57H417.78V194.58H420.31V191.21H422.84V178.71H425.38V178.71H427.91V167.23H430.44V166.83H432.97V158.2H435.5V146.15H438.04V120.83H440.57V120.83H443.1V99.97H445.63V97.29H448.16V83.78H450.7V77.22H453.23V63.98H455.76V40.57H458.29V40.57H460.82V26.52H463.36V16.15H465.89V235.6H468.42V235.6H470.95V235.6H473.48V235.6H476.02V235.6H478.55V235.6H481.08V235.6H483.61V235.6H486.14V235.6H488.68V235.6H491.21V229.06H493.74V229.06H496.27V229.01H498.8V229.01H501.34V218.73H503.87V218.73H506.4V208.01H508.93V199.37H511.46V186.87H514V186.87H516.53V186.87H519.06V168.71H521.59V148.2H524.12V145.25H526.66V140.55H529.19V140.55H531.72V129H534.25V106.86H536.78V97.59H539.32V74.37H541.85V65.86H544.38V50.5H546.91V50.5H549.44V25.49H551.98V16.15H554.51V235.6H557.04V235.6H559.57V235.6H562.1V235.6H564.64V235.6H567.17V235.6H569.7V235.6H572.23V235.6H574.76V235.6H577.3V235.6H579.83V234.95H582.36V231.43H584.89V206.88H587.42V206.88H589.96V200.34H592.49V196.41H595.02V187.95H597.55V177.43H600.08V168.25H602.62V159.26H605.15V148.54H607.68V130.64H610.21V130.64H612.74V108.59H615.28V106.1H617.81V97.41H620.34V97.41H622.87V92.84H625.4V92.84H627.94V79.54H630.47V60.63" style="vector-effect: non-scaling-stroke; fill: none; stroke: rgb(99, 110, 250); stroke-opacity: 1; stroke-width: 1px; opacity: 1;"/></g><g class="points"/><g class="text"/></g><g class="trace scatter trace653d73" style="stroke-miterlimit: 2; opacity: 1;"><g class="fills"/><g class="errorbars"/><g class="lines"/><g class="points"><path class="point" transform="translate(106.34,16.15)" d="M3,0A3,3 0 1,1 0,-3A3,3 0 0,1 3,0Z" style="opacity: 1; stroke-width: 0px; fill: rgb(239, 85, 59); fill-opacity: 1;"/><path class="point" transform="translate(210.16,16.15)" d="M3,0A3,3 0 1,1 0,-3A3,3 0 0,1 3,0Z" style="opacity: 1; stroke-width: 0px; fill: rgb(239, 85, 59); fill-opacity: 1;"/><path class="point" transform="translate(283.58,16.15)" d="M3,0A3,3 0 1,1 0,-3A3,3 0 0,1 3,0Z" style="opacity: 1; stroke-width: 0px; fill: rgb(239, 85, 59); fill-opacity: 1;"/><path class="point" transform="translate(377.27,16.15)" d="M3,0A3,3 0 1,1 0,-3A3,3 0 0,1 3,0Z" style="opacity: 1; stroke-width: 0px; fill: rgb(239, 85, 59); fill-opacity: 1;"/><path class="point" transform="translate(463.36,16.15)" d="M3,0A3,3 0 1,1 0,-3A3,3 0 0,1 3,0Z" style="opacity: 1; stroke-width: 0px; fill: rgb(239, 85, 59); fill-opacity: 1;"/><path class="point" transform="translate(551.98,16.15)" d="M3,0A3,3 0 1,1 0,-3A3,3 0 0,1 3,0Z" style="opacity: 1; stroke-width: 0px; fill: rgb(239, 85, 59); fill-opacity: 1;"/></g><g class="text"/></g></g></g><g class="overplot"/><path class="xlines-above crisp" d="M0,0" style="fill: none;"/><path class="ylines-above crisp" d="M0,0" style="fill: none;"/><g class="overlines-above"/><g class="xaxislayer-above"><g class="xtick"><text text-anchor="middle" x="0" y="369" transform="translate(87,0)" style="font-family: 'Open Sans', verdana, arial, sans-serif; font-size: 20px; fill: rgb(42, 63, 95); fill-opacity: 1; white-space: pre;">0</text></g><g class="xtick"><text text-anchor="middle" x="0" y="369" transform="translate(213.6,0)" style="font-family: 'Open Sans', verdana, arial, sans-serif; font-size: 20px; fill: rgb(42, 63, 95); fill-opacity: 1; white-space: pre;">50</text></g><g class="xtick"><text text-anchor="middle" x="0" y="369" transform="translate(340.2,0)" style="font-family: 'Open Sans', verdana, arial, sans-serif; font-size: 20px; fill: rgb(42, 63, 95); fill-opacity: 1; white-space: pre;">100</text></g><g class="xtick"><text text-anchor="middle" x="0" y="369" transform="translate(466.8,0)" style="font-family: 'Open Sans', verdana, arial, sans-serif; font-size: 20px; fill: rgb(42, 63, 95); fill-opacity: 1; white-space: pre;">150</text></g><g class="xtick"><text text-anchor="middle" x="0" y="369" transform="translate(593.4,0)" style="font-family: 'Open Sans', verdana, arial, sans-serif; font-size: 20px; fill: rgb(42, 63, 95); fill-opacity: 1; white-space: pre;">200</text></g><g class="xtick"><text text-anchor="middle" x="0" y="369" transform="translate(720,0)" style="font-family: 'Open Sans', verdana, arial, sans-serif; font-size: 20px; fill: rgb(42, 63, 95); fill-opacity: 1; white-space: pre;">250</text></g></g><g class="yaxislayer-above"><g class="ytick"><text text-anchor="end" x="86" y="7" transform="translate(0,335.6)" style="font-family: 'Open Sans', verdana, arial, sans-serif; font-size: 20px; fill: rgb(42, 63, 95); fill-opacity: 1; white-space: pre;">−65</text></g><g class="ytick"><text text-anchor="end" x="86" y="7" transform="translate(0,262.45)" style="font-family: 'Open Sans', verdana, arial, sans-serif; font-size: 20px; fill: rgb(42, 63, 95); fill-opacity: 1; white-space: pre;">−60</text></g><g class="ytick"><text text-anchor="end" x="86" y="7" transform="translate(0,189.3)" style="font-family: 'Open Sans', verdana, arial, sans-serif; font-size: 20px; fill: rgb(42, 63, 95); fill-opacity: 1; white-space: pre;">−55</text></g><g class="ytick"><text text-anchor="end" x="86" y="7" transform="translate(0,116.15)" style="font-family: 'Open Sans', verdana, arial, sans-serif; font-size: 20px; fill: rgb(42, 63, 95); fill-opacity: 1; white-space: pre;">−50</text></g></g><g class="overaxes-above"/></g></g><g class="polarlayer"/><g class="ternarylayer"/><g class="geolayer"/><g class="funnelarealayer"/><g class="pielayer"/><g class="treemaplayer"/><g class="sunburstlayer"/><g class="glimages"/><defs id="topdefs-cf5ce5"><g class="clips"/><clipPath id="legendcf5ce5"><rect width="507" height="63" x="1" y="1"/></clipPath></defs><g class="layer-above"><g class="imagelayer"/><g class="shapelayer"/></g><g class="infolayer"><g class="legend" pointer-events="all" transform="translate(87, 422.40000000000003)"><rect class="bg" shape-rendering="crispEdges" width="508" height="64" x="0.5" y="0.5" style="stroke: rgb(0, 0, 0); stroke-opacity: 1; fill: rgb(25, 211, 243); fill-opacity: 0.1; stroke-width: 1px;"/><g class="scrollbox" transform="translate(0, 0)" clip-path="url('#legendcf5ce5')"><g class="groups"><g class="traces" transform="translate(1, 19.200000000000003)" style="opacity: 1;"><text class="legendtext user-select-none" text-anchor="start" x="40" y="7.0200000000000005" style="font-family: 'Open Sans', verdana, arial, sans-serif; font-size: 18px; fill: rgb(0, 0, 0); fill-opacity: 1; white-space: pre;">Уровень сброса</text><g class="layers" style="opacity: 0.5;"><g class="legendfill"/><g class="legendlines"><path class="js-line" d="M5,0h30" style="fill: none; stroke: rgb(0, 204, 150); stroke-opacity: 1; stroke-dasharray: 9px, 9px; stroke-width: 3px;"/></g><g class="legendsymbols"><g class="legendpoints"/></g></g><rect class="legendtoggle" pointer-events="all" x="0" y="-13.200000000000001" width="189.453125" height="26.400000000000002" style="cursor: pointer; fill: rgb(0, 0, 0); fill-opacity: 0;"/></g><g class="traces" transform="translate(254.453125, 19.200000000000003)" style="opacity: 1;"><text class="legendtext user-select-none" text-anchor="start" x="40" y="7.0200000000000005" style="font-family: 'Open Sans', verdana, arial, sans-serif; font-size: 18px; fill: rgb(0, 0, 0); fill-opacity: 1; white-space: pre;">Порог активации</text><g class="layers" style="opacity: 0.5;"><g class="legendfill"/><g class="legendlines"><path class="js-line" d="M5,0h30" style="fill: none; stroke: rgb(171, 99, 250); stroke-opacity: 1; stroke-dasharray: 9px, 9px; stroke-width: 3px;"/></g><g class="legendsymbols"><g class="legendpoints"/></g></g><rect class="legendtoggle" pointer-events="all" x="0" y="-13.200000000000001" width="201.984375" height="26.400000000000002" style="cursor: pointer; fill: rgb(0, 0, 0); fill-opacity: 0;"/></g><g class="traces" transform="translate(1, 45.6)" style="opacity: 1;"><text class="legendtext user-select-none" text-anchor="start" x="40" y="7.0200000000000005" style="font-family: 'Open Sans', verdana, arial, sans-serif; font-size: 18px; fill: rgb(0, 0, 0); fill-opacity: 1; white-space: pre;">Потенциал нейрона</text><g class="layers" style="opacity: 1;"><g class="legendfill"/><g class="legendlines"><path class="js-line" d="M5,0h30" style="fill: none; stroke: rgb(99, 110, 250); stroke-opacity: 1; stroke-width: 1px;"/></g><g class="legendsymbols"><g class="legendpoints"/></g></g><rect class="legendtoggle" pointer-events="all" x="0" y="-13.200000000000001" width="227.65625" height="26.400000000000002" style="cursor: pointer; fill: rgb(0, 0, 0); fill-opacity: 0;"/></g><g class="traces" transform="translate(254.453125, 45.6)" style="opacity: 1;"><text class="legendtext user-select-none" text-anchor="start" x="40" y="7.0200000000000005" style="font-family: 'Open Sans', verdana, arial, sans-serif; font-size: 18px; fill: rgb(0, 0, 0); fill-opacity: 1; white-space: pre;">Спайки этого нейрона</text><g class="layers" style="opacity: 1;"><g class="legendfill"/><g class="legendlines"/><g class="legendsymbols"><g class="legendpoints"><path class="scatterpts" transform="translate(20,0)" d="M3,0A3,3 0 1,1 0,-3A3,3 0 0,1 3,0Z" style="opacity: 1; stroke-width: 0px; fill: rgb(239, 85, 59); fill-opacity: 1;"/></g></g></g><rect class="legendtoggle" pointer-events="all" x="0" y="-13.200000000000001" width="250.953125" height="26.400000000000002" style="cursor: pointer; fill: rgb(0, 0, 0); fill-opacity: 0;"/></g></g></g><rect class="scrollbar" rx="20" ry="3" width="0" height="0" x="0" y="0" style="fill: rgb(128, 139, 164); fill-opacity: 1;"/></g><g class="g-gtitle"/><g class="g-xtitle"><text class="xtitle" x="403.5" y="404.8" text-anchor="middle" style="font-family: 'Open Sans', verdana, arial, sans-serif; font-size: 24px; fill: rgb(42, 63, 95); opacity: 1; font-weight: normal; white-space: pre;">Время, мс</text></g><g class="g-ytitle" transform="translate(11.5966796875,0)"><text class="ytitle" transform="rotate(-90,12.403125000000003,224)" x="12.403125000000003" y="224" text-anchor="middle" style="font-family: 'Open Sans', verdana, arial, sans-serif; font-size: 24px; fill: rgb(42, 63, 95); opacity: 1; font-weight: normal; white-space: pre;">Напряжение, мВ</text></g></g></svg>