<svg class="main-svg" xmlns="http://www.w3.org/2000/svg" xmlns:xlink="http://www.w3.org/1999/xlink" width="900" height="600" style="" viewBox="0 0 900 600"><rect x="0" y="0" width="900" height="600" style="fill: rgb(255, 255, 255); fill-opacity: 1;"/><defs id="defs-5446ce"><g class="clips"><clipPath id="clip5446cexyplot" class="plotclip"><rect width="731" height="345"/></clipPath><clipPath class="axesclip" id="clip5446cex"><rect x="89" y="0" width="731" height="600"/></clipPath><clipPath class="axesclip" id="clip5446cey"><rect x="0" y="100" width="900" height="345"/></clipPath><clipPath class="axesclip" id="clip5446cexy"><rect x="89" y="100" width="731" height="345"/></clipPath></g><g class="gradients"/></defs><g class="bglayer"/><g class="layer-below"><g class="imagelayer"/><g class="shapelayer"/></g><g class="cartesianlayer"><g class="subplot xy"><g class="layer-subplot"><g class="shapelayer"/><g class="imagelayer"/></g><g class="gridlayer"><g class="x"/><g class="y"/></g><g class="zerolinelayer"/><path class="xlines-below"/><path class="ylines-below"/><g class="overlines-below"/><g class="xaxislayer-below"/><g class="yaxislayer-below"/><g class="overaxes-below"/><g class="plot" transform="translate(89, 100)" clip-path="url('#clip5446cexyplot')"><g class="scatterlayer mlayer"><g class="trace scatter trace3d480d" style="stroke-miterlimit: 2; opacity: 0.5;"><g class="fills"/><g class="errorbars"/><g class="lines"><path class="js-line" d="M0,327.75H696.27V327.75" style="vector-effect: non-scaling-stroke; fill: none; stroke: rgb(44, 160, 44); stroke-opacity: 1; stroke-width: 3px; opacity: 1; stroke-dasharray: 9px, 9px;"/></g><g class="points"/><g class="text"/></g><g class="trace scatter trace1595f8" style="stroke-miterlimit: 2; opacity: 0.5;"><g class="fills"/><g class="errorbars"/><g class="lines"><path class="js-line" d="M0,21H2.79V21H5.57V21H8.36V21H11.14V21H13.93V21H16.71V21H19.5V21H22.28V21H25.07V21H27.85V21H30.64V21H33.42V21H36.21V21H38.99V21H41.78V21H44.56V21H47.35V21H50.13V21H52.92V21H55.7V21H58.49V21H61.27V21H64.06V21H66.84V21H69.63V21H72.41V21H75.2V21H77.98V21H80.77V21H83.55V21H86.34V21H89.12V21H91.91V21H94.69V21H97.48V21H100.26V21H103.05V21H105.83V21H108.62V21H111.4V21H114.19V21H116.97V21H119.76V21H122.54V21H125.33V21H128.11V21H130.9V21H133.68V21H136.47V21H139.25V21H142.04V21H144.82V21H147.61V21H150.39V21H153.18V21H155.96V21H158.75V21H161.53V21H164.32V21H167.1V21H169.89V21H172.68V21H175.46V21H178.25V21H181.03V21H183.82V21H186.6V21H189.39V21H192.17V21H194.96V21H197.74V21H200.53V21H203.31V21H206.1V21H208.88V21H211.67V21H214.45V21H217.24V21H220.02V21H222.81V21H225.59V21H228.38V21H231.16V21H233.95V21H236.73V21H239.52V21H242.3V21H245.09V21H247.87V21H250.66V21H253.44V21H256.23V21H259.01V21H261.8V21H264.58V21H267.37V21H270.15V21H272.94V21H275.72V21H278.51V21H281.29V21H284.08V21H286.86V21H289.65V21H292.43V21H295.22V21H298V21H300.79V21H303.57V21H306.36V21H309.14V21H311.93V21H314.71V21H317.5V21H320.28V21H323.07V21H325.85V21H328.64V21H331.42V21H334.21V21H336.99V21H339.78V21H342.56V21H345.35V21H348.14V21H350.92V21H353.71V21H356.49V21H359.28V21H362.06V21H364.85V21H367.63V21H370.42V21H373.2V21H375.99V21H378.77V21H381.56V21H384.34V21H387.13V21H389.91V21H392.7V21H395.48V21H398.27V21H401.05V21H403.84V21H406.62V21H409.41V21H412.19V21H414.98V21H417.76V21H420.55V21H423.33V21H426.12V21H428.9V21H431.69V21H434.47V21H437.26V21H440.04V21H442.83V21H445.61V21H448.4V21H451.18V21H453.97V21H456.75V21H459.54V21H462.32V21H465.11V21H467.89V21H470.68V21H473.46V21H476.25V21H479.03V21H481.82V21H484.6V21H487.39V21H490.17V21H492.96V21H495.74V21H498.53V21H501.31V21H504.1V21H506.88V21H509.67V21H512.45V21H515.24V21H518.03V21H520.81V21H523.6V21H526.38V21H529.17V21H531.95V21H534.74V21H537.52V21H540.31V21H543.09V21H545.88V21H548.66V21H551.45V21H554.23V21H557.02V21H559.8V21H562.59V21H565.37V21H568.16V21H570.94V21H573.73V21H576.51V21H579.3V21H582.08V21H584.87V21H587.65V21H590.44V21H593.22V21H596.01V21H598.79V21H601.58V21H604.36V21H607.15V21H609.93V21H612.72V21H615.5V21H618.29V21H621.07V21H623.86V21H626.64V21H629.43V21H632.21V21H635V21H637.78V21H640.57V21H643.35V21H646.14V21H648.92V21H651.71V21H654.49V21H657.28V21H660.06V21H662.85V21H665.63V21H668.42V21H671.2V21H673.99V21H676.77V21H679.56V21H682.34V21H685.13V21H687.91V21H690.7V21H693.49V21" style="vector-effect: non-scaling-stroke; fill: none; stroke: rgb(214, 39, 40); stroke-opacity: 1; stroke-width: 3px; opacity: 1; stroke-dasharray: 9px, 9px;"/></g><g class="points"/><g class="text"/></g><g class="trace scatter traceab04eb" style="stroke-miterlimit: 2; opacity: 1;"><g class="fills"/><g class="errorbars"/><g class="lines"><path class="js-line" d="M0,327.75H2.79V327.75H5.57V327.75H8.36V327.75H11.14V327.75H13.93V327.75H16.71V327.75H19.5V327.75H22.28V327.75H25.07V327.75H27.85V327.75H30.64V327.75H33.42V327.75H36.21V327.75H38.99V327.75H41.78V327.75H44.56V327.75H47.35V327.75H50.13V327.75H52.92V327.75H55.7V327.75H58.49V327.75H61.27V327.75H64.06V327.75H66.84V327.75H69.63V327.75H72.41V316.16H75.2V299.97H77.98V299.97H80.77V274.08H83.55V268.77H86.34V253.88H89.12V237.75H91.91V236.4H94.69V199.99H97.48V175.54H100.26V171.83H103.05V171.83H105.83V171.83H108.62V152.56H111.4V152.56H114.19V150.93H116.97V114.04H119.76V114.04H122.54V114.04H125.33V97.95H128.11V97.95H130.9V97.95H133.68V97.95H136.47V97.95H139.25V97.95H142.04V97.95H144.82V90.45H147.61V61.24H150.39V61.24H153.18V46.06H155.96V46.06H158.75V25.97H161.53V25.97H164.32V21H167.1V327.75H169.89V327.75H172.68V327.75H175.46V327.75H178.25V327.75H181.03V327.75H183.82V327.75H186.6V327.75H189.39V327.75H192.17V327.75H194.96V300.26H197.74V300.26H200.53V300.26H203.31V282.04H206.1V263.37H208.88V263.37H211.67V257.54H214.45V241.41H217.24V240.06H220.02V225.52H222.81V204.46H225.59V190.83H228.38V187.11H231.16V187.11H233.95V187.11H236.73V163.36H239.52V163.36H242.3V158.04H245.09V158.04H247.87V158.04H250.66V138.69H253.44V134.66H256.23V132.48H259.01V132.48H261.8V112.39H264.58V111.37H267.37V111.37H270.15V74.95H272.94V59.21H275.72V59.21H278.51V44.33H281.29V44.33H284.08V44.33H286.86V44.33H289.65V21H292.43V327.75H295.22V327.75H298V327.75H300.79V327.75H303.57V327.75H306.36V327.75H309.14V327.75H311.93V327.75H314.71V327.75H317.5V327.75H320.28V320.79H323.07V292.88H325.85V279.45H328.64V260.38H331.42V260.38H334.21V260.38H336.99V230.66H339.78V230.66H342.56V230.66H345.35V226.62H348.14V226.62H350.92V203.44H353.71V181.37H356.49V178.91H359.28V178.91H362.06V178.91H364.85V178.91H367.63V178.91H370.42V165.89H373.2V145.8H375.99V145.8H378.77V106.53H381.56V106.53H384.34V57.43H387.13V57.43H389.91V57.43H392.7V55.25H395.48V55.25H398.27V49.46H401.05V44.14H403.84V44.14H406.62V30.71H409.41V21H412.19V327.75H414.98V327.75H417.76V327.75H420.55V327.75H423.33V327.75H426.12V327.75H428.9V327.75H431.69V327.75H434.47V327.75H437.26V327.75H440.04V291.53H442.83V291.53H445.61V281.63H448.4V276.25H451.18V272.71H453.97V239.96H456.75V239.96H459.54V239.96H462.32V238.93H465.11V238.93H467.89V238.93H470.68V218.51H473.46V199.17H476.25V199.17H479.03V180.71H481.82V175.39H484.6V171.67H487.39V158.04H490.17V137.36H492.96V137.36H495.74V137.36H498.53V137.36H501.31V119.75H504.1V119.75H506.88V119.75H509.67V107.58H512.45V105.4H515.24V105.4H518.03V105.4H520.81V105.4H523.6V90.34H526.38V72.12H529.17V33.03H531.95V33.03H534.74V21H537.52V327.75H540.31V327.75H543.09V327.75H545.88V327.75H548.66V327.75H551.45V327.75H554.23V327.75H557.02V327.75H559.8V327.75H562.59V327.75H565.37V307.59H568.16V302.27H570.94V302.27H573.73V283.67H576.51V283.67H579.3V283.67H582.08V283.67H584.87V283.67H587.65V283.67H590.44V275.42H593.22V275.42H596.01V245.64H598.79V245.64H601.58V245.64H604.36V245.64H607.15V245.64H609.93V223.18H612.72V223.18H615.5V219.36H618.29V205.73H621.07V205.73H623.86V173.63H626.64V173.63H629.43V173.63H632.21V173.63H635V155.41H637.78V135.32H640.57V130H643.35V130H646.14V109.97H648.92V98.39H651.71V98.39H654.49V97.04H657.28V97.04H660.06V87.13H662.85V87.13H665.63V57.71H668.42V57.71H671.2V51.87H673.99V51.87H676.77V48.34H679.56V32.21H682.34V32.21H685.13V29.75H687.91V29.75H690.7V21H693.49V327.75" style="vector-effect: non-scaling-stroke; fill: none; stroke: rgb(31, 119, 180); stroke-opacity: 1; stroke-width: 1px; opacity: 1;"/></g><g class="points"/><g class="text"/></g><g class="trace scatter trace6ffd66" style="stroke-miterlimit: 2; opacity: 1;"><g class="fills"/><g class="errorbars"/><g class="lines"/><g class="points"><path class="point" transform="translate(164.32,21)" d="M3,0A3,3 0 1,1 0,-3A3,3 0 0,1 3,0Z" style="opacity: 1; stroke-width: 0px; fill: rgb(255, 127, 14); fill-opacity: 1;"/><path class="point" transform="translate(289.65,21)" d="M3,0A3,3 0 1,1 0,-3A3,3 0 0,1 3,0Z" style="opacity: 1; stroke-width: 0px; fill: rgb(255, 127, 14); fill-opacity: 1;"/><path class="point" transform="translate(409.41,21)" d="M3,0A3,3 0 1,1 0,-3A3,3 0 0,1 3,0Z" style="opacity: 1; stroke-width: 0px; fill: rgb(255, 127, 14); fill-opacity: 1;"/><path class="point" transform="translate(534.74,21)" d="M3,0A3,3 0 1,1 0,-3A3,3 0 0,1 3,0Z" style="opacity: 1; stroke-width: 0px; fill: rgb(255, 127, 14); fill-opacity: 1;"/><path class="point" transform="translate(690.7,21)" d="M3,0A3,3 0 1,1 0,-3A3,3 0 0,1 3,0Z" style="opacity: 1; stroke-width: 0px; fill: rgb(255, 127, 14); fill-opacity: 1;"/></g><g class="text"/></g></g></g><g class="overplot"/><path class="xlines-above crisp" d="M88,445.5H820" style="fill: none; stroke-width: 1px; stroke: rgb(36, 36, 36); stroke-opacity: 1;"/><path class="ylines-above crisp" d="M88.5,100V445" style="fill: none; stroke-width: 1px; stroke: rgb(36, 36, 36); stroke-opacity: 1;"/><g class="overlines-above"/><g class="xaxislayer-above"><path class="xtick ticks crisp" d="M0,446v5" transform="translate(89,0)" style="stroke: rgb(68, 68, 68); stroke-opacity: 1; stroke-width: 1px;"/><path class="xtick ticks crisp" d="M0,446v5" transform="translate(228.25,0)" style="stroke: rgb(68, 68, 68); stroke-opacity: 1; stroke-width: 1px;"/><path class="xtick ticks crisp" d="M0,446v5" transform="translate(367.51,0)" style="stroke: rgb(68, 68, 68); stroke-opacity: 1; stroke-width: 1px;"/><path class="xtick ticks crisp" d="M0,446v5" transform="translate(506.76,0)" style="stroke: rgb(68, 68, 68); stroke-opacity: 1; stroke-width: 1px;"/><path class="xtick ticks crisp" d="M0,446v5" transform="translate(646.02,0)" style="stroke: rgb(68, 68, 68); stroke-opacity: 1; stroke-width: 1px;"/><path class="xtick ticks crisp" d="M0,446v5" transform="translate(785.27,0)" style="stroke: rgb(68, 68, 68); stroke-opacity: 1; stroke-width: 1px;"/><g class="xtick"><text text-anchor="middle" x="0" y="475" transform="translate(89,0)" style="font-family: 'Open Sans', verdana, arial, sans-serif; font-size: 20px; fill: rgb(36, 36, 36); fill-opacity: 1; white-space: pre;">0</text></g><g class="xtick"><text text-anchor="middle" x="0" y="475" transform="translate(228.25,0)" style="font-family: 'Open Sans', verdana, arial, sans-serif; font-size: 20px; fill: rgb(36, 36, 36); fill-opacity: 1; white-space: pre;">50</text></g><g class="xtick"><text text-anchor="middle" x="0" y="475" transform="translate(367.51,0)" style="font-family: 'Open Sans', verdana, arial, sans-serif; font-size: 20px; fill: rgb(36, 36, 36); fill-opacity: 1; white-space: pre;">100</text></g><g class="xtick"><text text-anchor="middle" x="0" y="475" transform="translate(506.76,0)" style="font-family: 'Open Sans', verdana, arial, sans-serif; font-size: 20px; fill: rgb(36, 36, 36); fill-opacity: 1; white-space: pre;">150</text></g><g class="xtick"><text text-anchor="middle" x="0" y="475" transform="translate(646.02,0)" style="font-family: 'Open Sans', verdana, arial, sans-serif; font-size: 20px; fill: rgb(36, 36, 36); fill-opacity: 1; white-space: pre;">200</text></g><g class="xtick"><text text-anchor="middle" x="0" y="475" transform="translate(785.27,0)" style="font-family: 'Open Sans', verdana, arial, sans-serif; font-size: 20px; fill: rgb(36, 36, 36); fill-opacity: 1; white-space: pre;">250</text></g></g><g class="yaxislayer-above"><path class="ytick ticks crisp" d="M88,0h-5" transform="translate(0,407.3)" style="stroke: rgb(68, 68, 68); stroke-opacity: 1; stroke-width: 1px;"/><path class="ytick ticks crisp" d="M88,0h-5" transform="translate(0,366.4)" style="stroke: rgb(68, 68, 68); stroke-opacity: 1; stroke-width: 1px;"/><path class="ytick ticks crisp" d="M88,0h-5" transform="translate(0,325.5)" style="stroke: rgb(68, 68, 68); stroke-opacity: 1; stroke-width: 1px;"/><path class="ytick ticks crisp" d="M88,0h-5" transform="translate(0,284.6)" style="stroke: rgb(68, 68, 68); stroke-opacity: 1; stroke-width: 1px;"/><path class="ytick ticks crisp" d="M88,0h-5" transform="translate(0,243.7)" style="stroke: rgb(68, 68, 68); stroke-opacity: 1; stroke-width: 1px;"/><path class="ytick ticks crisp" d="M88,0h-5" transform="translate(0,202.8)" style="stroke: rgb(68, 68, 68); stroke-opacity: 1; stroke-width: 1px;"/><path class="ytick ticks crisp" d="M88,0h-5" transform="translate(0,161.9)" style="stroke: rgb(68, 68, 68); stroke-opacity: 1; stroke-width: 1px;"/><path class="ytick ticks crisp" d="M88,0h-5" transform="translate(0,121)" style="stroke: rgb(68, 68, 68); stroke-opacity: 1; stroke-width: 1px;"/><g class="ytick"><text text-anchor="end" x="79" y="7" transform="translate(0,407.3)" style="font-family: 'Open Sans', verdana, arial, sans-serif; font-size: 20px; fill: rgb(36, 36, 36); fill-opacity: 1; white-space: pre;">−64</text></g><g class="ytick"><text text-anchor="end" x="79" y="7" transform="translate(0,366.4)" style="font-family: 'Open Sans', verdana, arial, sans-serif; font-size: 20px; fill: rgb(36, 36, 36); fill-opacity: 1; white-space: pre;">−62</text></g><g class="ytick"><text text-anchor="end" x="79" y="7" transform="translate(0,325.5)" style="font-family: 'Open Sans', verdana, arial, sans-serif; font-size: 20px; fill: rgb(36, 36, 36); fill-opacity: 1; white-space: pre;">−60</text></g><g class="ytick"><text text-anchor="end" x="79" y="7" transform="translate(0,284.6)" style="font-family: 'Open Sans', verdana, arial, sans-serif; font-size: 20px; fill: rgb(36, 36, 36); fill-opacity: 1; white-space: pre;">−58</text></g><g class="ytick"><text text-anchor="end" x="79" y="7" transform="translate(0,243.7)" style="font-family: 'Open Sans', verdana, arial, sans-serif; font-size: 20px; fill: rgb(36, 36, 36); fill-opacity: 1; white-space: pre;">−56</text></g><g class="ytick"><text text-anchor="end" x="79" y="7" transform="translate(0,202.8)" style="font-family: 'Open Sans', verdana, arial, sans-serif; font-size: 20px; fill: rgb(36, 36, 36); fill-opacity: 1; white-space: pre;">−54</text></g><g class="ytick"><text text-anchor="end" x="79" y="7" transform="translate(0,161.9)" style="font-family: 'Open Sans', verdana, arial, sans-serif; font-size: 20px; fill: rgb(36, 36, 36); fill-opacity: 1; white-space: pre;">−52</text></g><g class="ytick"><text text-anchor="end" x="79" y="7" transform="translate(0,121)" style="font-family: 'Open Sans', verdana, arial, sans-serif; font-size: 20px; fill: rgb(36, 36, 36); fill-opacity: 1; white-space: pre;">−50</text></g></g><g class="overaxes-above"/></g></g><g class="polarlayer"/><g class="ternarylayer"/><g class="geolayer"/><g class="funnelarealayer"/><g class="pielayer"/><g class="treemaplayer"/><g class="sunburstlayer"/><g class="glimages"/><defs id="topdefs-5446ce"><g class="clips"/><clipPath id="legend5446ce"><rect width="587" height="37" x="1" y="1"/></clipPath></defs><g class="layer-above"><g class="imagelayer"/><g class="shapelayer"/></g><g class="infolayer"><g class="legend" pointer-events="all" transform="translate(89, 548.5)"><rect class="bg" shape-rendering="crispEdges" width="588" height="38" x="0.5" y="0.5" style="stroke: rgb(5, 5, 25); stroke-opacity: 0; fill: rgb(5, 5, 25); fill-opacity: 0; stroke-width: 1px;"/><g class="scrollbox" transform="translate(0, 0)" clip-path="url('#legend5446ce')"><g class="groups"><g class="traces" transform="translate(1, 19.200000000000003)" style="opacity: 1;"><text class="legendtext user-select-none" text-anchor="start" x="40" y="7.0200000000000005" style="font-family: 'Open Sans', verdana, arial, sans-serif; font-size: 18px; fill: rgb(0, 0, 0); fill-opacity: 1; white-space: pre;">Reset potential</text><g class="layers" style="opacity: 0.5;"><g class="legendfill"/><g class="legendlines"><path class="js-line" d="M5,0h30" style="fill: none; stroke: rgb(44, 160, 44); stroke-opacity: 1; stroke-dasharray: 9px, 9px; stroke-width: 3px;"/></g><g class="legendsymbols"><g class="legendpoints"/></g></g><rect class="legendtoggle" pointer-events="all" x="0" y="-13.200000000000001" width="162.578125" height="26.400000000000002" style="cursor: pointer; fill: rgb(0, 0, 0); fill-opacity: 0;"/></g><g class="traces" transform="translate(166.078125, 19.200000000000003)" style="opacity: 1;"><text class="legendtext user-select-none" text-anchor="start" x="40" y="7.0200000000000005" style="font-family: 'Open Sans', verdana, arial, sans-serif; font-size: 18px; fill: rgb(0, 0, 0); fill-opacity: 1; white-space: pre;">Activation threshhold</text><g class="layers" style="opacity: 0.5;"><g class="legendfill"/><g class="legendlines"><path class="js-line" d="M5,0h30" style="fill: none; stroke: rgb(214, 39, 40); stroke-opacity: 1; stroke-dasharray: 9px, 9px; stroke-width: 3px;"/></g><g class="legendsymbols"><g class="legendpoints"/></g></g><rect class="legendtoggle" pointer-events="all" x="0" y="-13.200000000000001" width="210.609375" height="26.400000000000002" style="cursor: pointer; fill: rgb(0, 0, 0); fill-opacity: 0;"/></g><g class="traces" transform="translate(379.1875, 19.200000000000003)" style="opacity: 1;"><text class="legendtext user-select-none" text-anchor="start" x="40" y="7.0200000000000005" style="font-family: 'Open Sans', verdana, arial, sans-serif; font-size: 18px; fill: rgb(0, 0, 0); fill-opacity: 1; white-space: pre;">Voltage</text><g class="layers" style="opacity: 1;"><g class="legendfill"/><g class="legendlines"><path class="js-line" d="M5,0h30" style="fill: none; stroke: rgb(31, 119, 180); stroke-opacity: 1; stroke-width: 1px;"/></g><g class="legendsymbols"><g class="legendpoints"/></g></g><rect class="legendtoggle" pointer-events="all" x="0" y="-13.200000000000001" width="104.546875" height="26.400000000000002" style="cursor: pointer; fill: rgb(0, 0, 0); fill-opacity: 0;"/></g><g class="traces" transform="translate(486.234375, 19.200000000000003)" style="opacity: 1;"><text class="legendtext user-select-none" text-anchor="start" x="40" y="7.0200000000000005" style="font-family: 'Open Sans', verdana, arial, sans-serif; font-size: 18px; fill: rgb(0, 0, 0); fill-opacity: 1; white-space: pre;">Spikes</text><g class="layers" style="opacity: 1;"><g class="legendfill"/><g class="legendlines"/><g class="legendsymbols"><g class="legendpoints"><path class="scatterpts" transform="translate(20,0)" d="M3,0A3,3 0 1,1 0,-3A3,3 0 0,1 3,0Z" style="opacity: 1; stroke-width: 0px; fill: rgb(255, 127, 14); fill-opacity: 1;"/></g></g></g><rect class="legendtoggle" pointer-events="all" x="0" y="-13.200000000000001" width="98.53125" height="26.400000000000002" style="cursor: pointer; fill: rgb(0, 0, 0); fill-opacity: 0;"/></g></g></g><rect class="scrollbar" rx="20" ry="3" width="0" height="0" x="0" y="0" style="fill: rgb(128, 139, 164); fill-opacity: 1;"/></g><g class="g-gtitle"><text class="gtitle" x="45" y="50" text-anchor="start" dy="0em" style="font-family: 'Open Sans', verdana, arial, sans-serif; font-size: 17px; fill: rgb(36, 36, 36); opacity: 1; font-weight: normal; white-space: pre;">if</text></g><g class="g-xtitle"><text class="xtitle" x="454.5" y="510.8" text-anchor="middle" style="font-family: 'Open Sans', verdana, arial, sans-serif; font-size: 24px; fill: rgb(36, 36, 36); opacity: 1; font-weight: normal; white-space: pre;">Time</text></g><g class="g-ytitle" transform="translate(9.7373046875,0)"><text class="ytitle" transform="rotate(-90,12.262500000000003,272.5)" x="12.262500000000003" y="272.5" text-anchor="middle" style="font-family: 'Open Sans', verdana, arial, sans-serif; font-size: 24px; fill: rgb(36, 36, 36); opacity: 1; font-weight: normal; white-space: pre;">Voltage</text></g></g></svg>