<svg class="main-svg" xmlns="http://www.w3.org/2000/svg" xmlns:xlink="http://www.w3.org/1999/xlink" width="800" height="500" style="" viewBox="0 0 800 500"><rect x="0" y="0" width="800" height="500" style="fill: rgb(255, 255, 255); fill-opacity: 1;"/><defs id="defs-0b978a"><g class="clips"><clipPath id="clip0b978axyplot" class="plotclip"><rect width="633" height="248"/></clipPath><clipPath class="axesclip" id="clip0b978ax"><rect x="87" y="0" width="633" height="500"/></clipPath><clipPath class="axesclip" id="clip0b978ay"><rect x="0" y="100" width="800" height="248"/></clipPath><clipPath class="axesclip" id="clip0b978axy"><rect x="87" y="100" width="633" height="248"/></clipPath></g><g class="gradients"/></defs><g class="bglayer"><rect class="bg" x="87" y="100" width="633" height="248" style="fill: rgb(229, 236, 246); fill-opacity: 1; stroke-width: 0;"/></g><g class="layer-below"><g class="imagelayer"/><g class="shapelayer"/></g><g class="cartesianlayer"><g class="subplot xy"><g class="layer-subplot"><g class="shapelayer"/><g class="imagelayer"/></g><g class="gridlayer"><g class="x"><path class="xgrid crisp" transform="translate(213.6,0)" d="M0,100v248" style="stroke: rgb(255, 255, 255); stroke-opacity: 1; stroke-width: 1px;"/><path class="xgrid crisp" transform="translate(340.2,0)" d="M0,100v248" style="stroke: rgb(255, 255, 255); stroke-opacity: 1; stroke-width: 1px;"/><path class="xgrid crisp" transform="translate(466.8,0)" d="M0,100v248" style="stroke: rgb(255, 255, 255); stroke-opacity: 1; stroke-width: 1px;"/><path class="xgrid crisp" transform="translate(593.4,0)" d="M0,100v248" style="stroke: rgb(255, 255, 255); stroke-opacity: 1; stroke-width: 1px;"/></g><g class="y"><path class="ygrid crisp" transform="translate(0,335.6)" d="M87,0h633" style="stroke: rgb(255, 255, 255); stroke-opacity: 1; stroke-width: 1px;"/><path class="ygrid crisp" transform="translate(0,262.45)" d="M87,0h633" style="stroke: rgb(255, 255, 255); stroke-opacity: 1; stroke-width: 1px;"/><path class="ygrid crisp" transform="translate(0,189.3)" d="M87,0h633" style="stroke: rgb(255, 255, 255); stroke-opacity: 1; stroke-width: 1px;"/><path class="ygrid crisp" transform="translate(0,116.15)" d="M87,0h633" style="stroke: rgb(255, 255, 255); stroke-opacity: 1; stroke-width: 1px;"/></g></g><g class="zerolinelayer"><path class="xzl zl crisp" transform="translate(87,0)" d="M0,100v248" style="stroke: rgb(0, 44, 117); stroke-opacity: 1; stroke-width: 2px;"/></g><path class="xlines-below"/><path class="ylines-below"/><g class="overlines-below"/><g class="xaxislayer-below"/><g class="yaxislayer-below"/><g class="overaxes-below"/><g class="plot" transform="translate(87, 100)" clip-path="url('#clip0b978axyplot')"><g class="scatterlayer mlayer"><g class="trace scatter trace8c364a" style="stroke-miterlimit: 2; opacity: 0.5;"><g class="fills"/><g class="errorbars"/><g class="lines"><path class="js-line" d="M0,235.6H633V235.6" style="vector-effect: non-scaling-stroke; fill: none; stroke: rgb(0, 204, 150); stroke-opacity: 1; stroke-width: 3px; opacity: 1; stroke-dasharray: 9px, 9px;"/></g><g class="points"/><g class="text"/></g><g class="trace scatter trace1f8c5a" style="stroke-miterlimit: 2; opacity: 0.5;"><g class="fills"/><g class="errorbars"/><g class="lines"><path class="js-line" d="M0,16.15H2.53V16.15H5.06V16.15H7.6V16.15H10.13V16.15H12.66V16.15H15.19V16.15H17.72V16.15H20.26V16.15H22.79V16.15H25.32V16.15H27.85V16.15H30.38V16.15H32.92V16.15H35.45V16.15H37.98V16.15H40.51V16.15H43.04V16.15H45.58V16.15H48.11V16.15H50.64V16.15H53.17V16.15H55.7V16.15H58.24V16.15H60.77V16.15H63.3V16.15H65.83V16.15H68.36V16.15H70.9V16.15H73.43V16.15H75.96V16.15H78.49V16.15H81.02V16.15H83.56V16.15H86.09V16.15H88.62V16.15H91.15V16.15H93.68V16.15H96.22V16.15H98.75V16.15H101.28V16.15H103.81V16.15H106.34V16.15H108.88V16.15H111.41V16.15H113.94V16.15H116.47V16.15H119V16.15H121.54V16.15H124.07V16.15H126.6V16.15H129.13V16.15H131.66V16.15H134.2V16.15H136.73V16.15H139.26V16.15H141.79V16.15H144.32V16.15H146.86V16.15H149.39V16.15H151.92V16.15H154.45V16.15H156.98V16.15H159.52V16.15H162.05V16.15H164.58V16.15H167.11V16.15H169.64V16.15H172.18V16.15H174.71V16.15H177.24V16.15H179.77V16.15H182.3V16.15H184.84V16.15H187.37V16.15H189.9V16.15H192.43V16.15H194.96V16.15H197.5V16.15H200.03V16.15H202.56V16.15H205.09V16.15H207.62V16.15H210.16V16.15H212.69V16.15H215.22V16.15H217.75V16.15H220.28V16.15H222.82V16.15H225.35V16.15H227.88V16.15H230.41V16.15H232.94V16.15H235.48V16.15H238.01V16.15H240.54V16.15H243.07V16.15H245.6V16.15H248.14V16.15H250.67V16.15H253.2V16.15H255.73V16.15H258.26V16.15H260.8V16.15H263.33V16.15H265.86V16.15H268.39V16.15H270.92V16.15H273.46V16.15H275.99V16.15H278.52V16.15H281.05V16.15H283.58V16.15H286.12V16.15H288.65V16.15H291.18V16.15H293.71V16.15H296.24V16.15H298.78V16.15H301.31V16.15H303.84V16.15H306.37V16.15H308.9V16.15H311.44V16.15H313.97V16.15H316.5V16.15H319.03V16.15H321.56V16.15H324.1V16.15H326.63V16.15H329.16V16.15H331.69V16.15H334.22V16.15H336.76V16.15H339.29V16.15H341.82V16.15H344.35V16.15H346.88V16.15H349.42V16.15H351.95V16.15H354.48V16.15H357.01V16.15H359.54V16.15H362.08V16.15H364.61V16.15H367.14V16.15H369.67V16.15H372.2V16.15H374.74V16.15H377.27V16.15H379.8V16.15H382.33V16.15H384.86V16.15H387.4V16.15H389.93V16.15H392.46V16.15H394.99V16.15H397.52V16.15H400.06V16.15H402.59V16.15H405.12V16.15H407.65V16.15H410.18V16.15H412.72V16.15H415.25V16.15H417.78V16.15H420.31V16.15H422.84V16.15H425.38V16.15H427.91V16.15H430.44V16.15H432.97V16.15H435.5V16.15H438.04V16.15H440.57V16.15H443.1V16.15H445.63V16.15H448.16V16.15H450.7V16.15H453.23V16.15H455.76V16.15H458.29V16.15H460.82V16.15H463.36V16.15H465.89V16.15H468.42V16.15H470.95V16.15H473.48V16.15H476.02V16.15H478.55V16.15H481.08V16.15H483.61V16.15H486.14V16.15H488.68V16.15H491.21V16.15H493.74V16.15H496.27V16.15H498.8V16.15H501.34V16.15H503.87V16.15H506.4V16.15H508.93V16.15H511.46V16.15H514V16.15H516.53V16.15H519.06V16.15H521.59V16.15H524.12V16.15H526.66V16.15H529.19V16.15H531.72V16.15H534.25V16.15H536.78V16.15H539.32V16.15H541.85V16.15H544.38V16.15H546.91V16.15H549.44V16.15H551.98V16.15H554.51V16.15H557.04V16.15H559.57V16.15H562.1V16.15H564.64V16.15H567.17V16.15H569.7V16.15H572.23V16.15H574.76V16.15H577.3V16.15H579.83V16.15H582.36V16.15H584.89V16.15H587.42V16.15H589.96V16.15H592.49V16.15H595.02V16.15H597.55V16.15H600.08V16.15H602.62V16.15H605.15V16.15H607.68V16.15H610.21V16.15H612.74V16.15H615.28V16.15H617.81V16.15H620.34V16.15H622.87V16.15H625.4V16.15H627.94V16.15H630.47V16.15" style="vector-effect: non-scaling-stroke; fill: none; stroke: rgb(171, 99, 250); stroke-opacity: 1; stroke-width: 3px; opacity: 1; stroke-dasharray: 9px, 9px;"/></g><g class="points"/><g class="text"/></g><g class="trace scatter tracedf01ff" style="stroke-miterlimit: 2; opacity: 1;"><g class="fills"/><g class="errorbars"/><g class="lines"><path class="js-line" d="M0,235.6H2.53V235.6H5.06V235.6H7.6V235.6H10.13V235.6H12.66V235.6H15.19V235.6H17.72V235.6H20.26V235.6H22.79V235.6H25.32V235.6H27.85V235.6H30.38V235.6H32.92V235.6H35.45V235.6H37.98V235.6H40.51V235.6H43.04V235.6H45.58V235.6H48.11V235.6H50.64V235.6H53.17V235.6H55.7V235.6H58.24V229.87H60.77V229.87H63.3V229.87H65.83V229.87H68.36V218.69H70.9V218.69H73.43V207.01H75.96V199.58H78.49V179.52H81.02V179.52H83.56V163.43H86.09V135.83H88.62V121.61H91.15V113.78H93.68V113.78H96.22V113.78H98.75V113.78H101.28V101.17H103.81V94.14H106.34V72.71H108.88V70.71H111.41V64.6H113.94V42.72H116.47V42.72H119V33.62H121.54V18.31H124.07V18.31H126.6V16.15H129.13V235.6H131.66V235.6H134.2V235.6H136.73V235.6H139.26V235.6H141.79V235.6H144.32V235.6H146.86V235.6H149.39V235.6H151.92V235.6H154.45V235.6H156.98V227.77H159.52V207.89H162.05V187.14H164.58V182.49H167.11V182.49H169.64V169.25H172.18V164.34H174.71V153.81H177.24V153.81H179.77V153.81H182.3V153.81H184.84V147.27H187.37V143.6H189.9V143.6H192.43V143.6H194.96V121.19H197.5V121.19H200.03V115.1H202.56V115.1H205.09V108.07H207.62V96.18H210.16V96.18H212.69V90.11H215.22V78.57H217.75V69.72H220.28V63.6H222.82V50.03H225.35V50.03H227.88V43.78H230.41V17.6H232.94V16.15H235.48V235.6H238.01V235.6H240.54V235.6H243.07V235.6H245.6V235.6H248.14V235.6H250.67V235.6H253.2V235.6H255.73V235.6H258.26V235.6H260.8V230.02H263.33V207.55H265.86V207.55H268.39V207.55H270.92V207.55H273.46V207.55H275.99V207.55H278.52V207.55H281.05V195.6H283.58V195.6H286.12V189.51H288.65V182.82H291.18V164.92H293.71V152.04H296.24V152.04H298.78V152.04H301.31V141.81H303.84V141.81H306.37V123.17H308.9V100.02H311.44V78.56H313.97V78.56H316.5V72.31H319.03V54.01H321.56V54.01H324.1V49.36H326.63V29.15H329.16V27.56H331.69V20.53H334.22V16.15H336.76V235.6H339.29V235.6H341.82V235.6H344.35V235.6H346.88V235.6H349.42V235.6H351.95V235.6H354.48V235.6H357.01V235.6H359.54V235.6H362.08V234.52H364.61V228.43H367.14V207.8H369.67V207.8H372.2V196.13H374.74V196.13H377.27V196.13H379.8V190.05H382.33V188.15H384.86V188.15H387.4V183.04H389.93V174.19H392.46V164.41H394.99V161.47H397.52V161.47H400.06V138.1H402.59V124.07H405.12V118.34H407.65V118.34H410.18V118.34H412.72V89.73H415.25V73.68H417.78V51.49H420.31V43.44H422.84V38.53H425.38V38.53H427.91V30.7H430.44V30.7H432.97V23.67H435.5V22.81H438.04V16.15H440.57V235.6H443.1V235.6H445.63V235.6H448.16V235.6H450.7V235.6H453.23V235.6H455.76V235.6H458.29V235.6H460.82V235.6H463.36V235.6H465.89V215.07H468.42V208.96H470.95V197.77H473.48V197.77H476.02V194.11H478.55V181.03H481.08V181.03H483.61V171.9H486.14V171.9H488.68V162.96H491.21V162.96H493.74V162.96H496.27V162.96H498.8V133.74H501.34V126.74H503.87V126.74H506.4V116.84H508.93V114.06H511.46V114.06H514V108.33H516.53V108.33H519.06V108.33H521.59V88.54H524.12V88.54H526.66V73.19H529.19V71.2H531.72V56.97H534.25V56.97H536.78V34.19H539.32V16.15H541.85V235.6H544.38V235.6H546.91V235.6H549.44V235.6H551.98V235.6H554.51V235.6H557.04V235.6H559.57V235.6H562.1V235.6H564.64V235.6H567.17V235.6H569.7V235.6H572.23V212.04H574.76V178.51H577.3V166.98H579.83V161.42H582.36V153.59H584.89V153.59H587.42V150.8H589.96V145.89H592.49V142.43H595.02V134.38H597.55V134.38H600.08V133.3H602.62V127.57H605.15V107.28H607.68V107.28H610.21V107.28H612.74V93.05H615.28V75.84H617.81V70.18H620.34V65.07H622.87V65.07H625.4V58.04H627.94V58.04H630.47V51.95" style="vector-effect: non-scaling-stroke; fill: none; stroke: rgb(99, 110, 250); stroke-opacity: 1; stroke-width: 2px; opacity: 1;"/></g><g class="points"/><g class="text"/></g><g class="trace scatter trace6a494a" style="stroke-miterlimit: 2; opacity: 1;"><g class="fills"/><g class="errorbars"/><g class="lines"/><g class="points"><path class="point" transform="translate(126.6,16.15)" d="M3,0A3,3 0 1,1 0,-3A3,3 0 0,1 3,0Z" style="opacity: 1; stroke-width: 0px; fill: rgb(239, 85, 59); fill-opacity: 1;"/><path class="point" transform="translate(232.94,16.15)" d="M3,0A3,3 0 1,1 0,-3A3,3 0 0,1 3,0Z" style="opacity: 1; stroke-width: 0px; fill: rgb(239, 85, 59); fill-opacity: 1;"/><path class="point" transform="translate(334.22,16.15)" d="M3,0A3,3 0 1,1 0,-3A3,3 0 0,1 3,0Z" style="opacity: 1; stroke-width: 0px; fill: rgb(239, 85, 59); fill-opacity: 1;"/><path class="point" transform="translate(438.04,16.15)" d="M3,0A3,3 0 1,1 0,-3A3,3 0 0,1 3,0Z" style="opacity: 1; stroke-width: 0px; fill: rgb(239, 85, 59); fill-opacity: 1;"/><path class="point" transform="translate(539.32,16.15)" d="M3,0A3,3 0 1,1 0,-3A3,3 0 0,1 3,0Z" style="opacity: 1; stroke-width: 0px; fill: rgb(239, 85, 59); fill-opacity: 1;"/></g><g class="text"/></g></g></g><g class="overplot"/><path class="xlines-above crisp" d="M0,0" style="fill: none;"/><path class="ylines-above crisp" d="M0,0" style="fill: none;"/><g class="overlines-above"/><g class="xaxislayer-above"><g class="xtick"><text text-anchor="middle" x="0" y="369" transform="translate(87,0)" style="font-family: 'Open Sans', verdana, arial, sans-serif; font-size: 20px; fill: rgb(42, 63, 95); fill-opacity: 1; white-space: pre;">0</text></g><g class="xtick"><text text-anchor="middle" x="0" y="369" transform="translate(213.6,0)" style="font-family: 'Open Sans', verdana, arial, sans-serif; font-size: 20px; fill: rgb(42, 63, 95); fill-opacity: 1; white-space: pre;">50</text></g><g class="xtick"><text text-anchor="middle" x="0" y="369" transform="translate(340.2,0)" style="font-family: 'Open Sans', verdana, arial, sans-serif; font-size: 20px; fill: rgb(42, 63, 95); fill-opacity: 1; white-space: pre;">100</text></g><g class="xtick"><text text-anchor="middle" x="0" y="369" transform="translate(466.8,0)" style="font-family: 'Open Sans', verdana, arial, sans-serif; font-size: 20px; fill: rgb(42, 63, 95); fill-opacity: 1; white-space: pre;">150</text></g><g class="xtick"><text text-anchor="middle" x="0" y="369" transform="translate(593.4,0)" style="font-family: 'Open Sans', verdana, arial, sans-serif; font-size: 20px; fill: rgb(42, 63, 95); fill-opacity: 1; white-space: pre;">200</text></g><g class="xtick"><text text-anchor="middle" x="0" y="369" transform="translate(720,0)" style="font-family: 'Open Sans', verdana, arial, sans-serif; font-size: 20px; fill: rgb(42, 63, 95); fill-opacity: 1; white-space: pre;">250</text></g></g><g class="yaxislayer-above"><g class="ytick"><text text-anchor="end" x="86" y="7" transform="translate(0,335.6)" style="font-family: 'Open Sans', verdana, arial, sans-serif; font-size: 20px; fill: rgb(42, 63, 95); fill-opacity: 1; white-space: pre;">−65</text></g><g class="ytick"><text text-anchor="end" x="86" y="7" transform="translate(0,262.45)" style="font-family: 'Open Sans', verdana, arial, sans-serif; font-size: 20px; fill: rgb(42, 63, 95); fill-opacity: 1; white-space: pre;">−60</text></g><g class="ytick"><text text-anchor="end" x="86" y="7" transform="translate(0,189.3)" style="font-family: 'Open Sans', verdana, arial, sans-serif; font-size: 20px; fill: rgb(42, 63, 95); fill-opacity: 1; white-space: pre;">−55</text></g><g class="ytick"><text text-anchor="end" x="86" y="7" transform="translate(0,116.15)" style="font-family: 'Open Sans', verdana, arial, sans-serif; font-size: 20px; fill: rgb(42, 63, 95); fill-opacity: 1; white-space: pre;">−50</text></g></g><g class="overaxes-above"/></g></g><g class="polarlayer"/><g class="ternarylayer"/><g class="geolayer"/><g class="funnelarealayer"/><g class="pielayer"/><g class="treemaplayer"/><g class="sunburstlayer"/><g class="glimages"/><defs id="topdefs-0b978a"><g class="clips"/><clipPath id="legend0b978a"><rect width="507" height="63" x="1" y="1"/></clipPath></defs><g class="layer-above"><g class="imagelayer"/><g class="shapelayer"/></g><g class="infolayer"><g class="legend" pointer-events="all" transform="translate(87, 422.40000000000003)"><rect class="bg" shape-rendering="crispEdges" width="508" height="64" x="0.5" y="0.5" style="stroke: rgb(0, 0, 0); stroke-opacity: 1; fill: rgb(25, 211, 243); fill-opacity: 0.1; stroke-width: 1px;"/><g class="scrollbox" transform="translate(0, 0)" clip-path="url('#legend0b978a')"><g class="groups"><g class="traces" transform="translate(1, 19.200000000000003)" style="opacity: 1;"><text class="legendtext user-select-none" text-anchor="start" x="40" y="7.0200000000000005" style="font-family: 'Open Sans', verdana, arial, sans-serif; font-size: 18px; fill: rgb(0, 0, 0); fill-opacity: 1; white-space: pre;">Уровень сброса</text><g class="layers" style="opacity: 0.5;"><g class="legendfill"/><g class="legendlines"><path class="js-line" d="M5,0h30" style="fill: none; stroke: rgb(0, 204, 150); stroke-opacity: 1; stroke-dasharray: 9px, 9px; stroke-width: 3px;"/></g><g class="legendsymbols"><g class="legendpoints"/></g></g><rect class="legendtoggle" pointer-events="all" x="0" y="-13.200000000000001" width="189.453125" height="26.400000000000002" style="cursor: pointer; fill: rgb(0, 0, 0); fill-opacity: 0;"/></g><g class="traces" transform="translate(254.453125, 19.200000000000003)" style="opacity: 1;"><text class="legendtext user-select-none" text-anchor="start" x="40" y="7.0200000000000005" style="font-family: 'Open Sans', verdana, arial, sans-serif; font-size: 18px; fill: rgb(0, 0, 0); fill-opacity: 1; white-space: pre;">Порог активации</text><g class="layers" style="opacity: 0.5;"><g class="legendfill"/><g class="legendlines"><path class="js-line" d="M5,0h30" style="fill: none; stroke: rgb(171, 99, 250); stroke-opacity: 1; stroke-dasharray: 9px, 9px; stroke-width: 3px;"/></g><g class="legendsymbols"><g class="legendpoints"/></g></g><rect class="legendtoggle" pointer-events="all" x="0" y="-13.200000000000001" width="201.984375" height="26.400000000000002" style="cursor: pointer; fill: rgb(0, 0, 0); fill-opacity: 0;"/></g><g class="traces" transform="translate(1, 45.6)" style="opacity: 1;"><text class="legendtext user-select-none" text-anchor="start" x="40" y="7.0200000000000005" style="font-family: 'Open Sans', verdana, arial, sans-serif; font-size: 18px; fill: rgb(0, 0, 0); fill-opacity: 1; white-space: pre;">Потенциал нейрона</text><g class="layers" style="opacity: 1;"><g class="legendfill"/><g class="legendlines"><path class="js-line" d="M5,0h30" style="fill: none; stroke: rgb(99, 110, 250); stroke-opacity: 1; stroke-width: 2px;"/></g><g class="legendsymbols"><g class="legendpoints"/></g></g><rect class="legendtoggle" pointer-events="all" x="0" y="-13.200000000000001" width="227.65625" height="26.400000000000002" style="cursor: pointer; fill: rgb(0, 0, 0); fill-opacity: 0;"/></g><g class="traces" transform="translate(254.453125, 45.6)" style="opacity: 1;"><text class="legendtext user-select-none" text-anchor="start" x="40" y="7.0200000000000005" style="font-family: 'Open Sans', verdana, arial, sans-serif; font-size: 18px; fill: rgb(0, 0, 0); fill-opacity: 1; white-space: pre;">Спайки этого нейрона</text><g class="layers" style="opacity: 1;"><g class="legendfill"/><g class="legendlines"/><g class="legendsymbols"><g class="legendpoints"><path class="scatterpts" transform="translate(20,0)" d="M3,0A3,3 0 1,1 0,-3A3,3 0 0,1 3,0Z" style="opacity: 1; stroke-width: 0px; fill: rgb(239, 85, 59); fill-opacity: 1;"/></g></g></g><rect class="legendtoggle" pointer-events="all" x="0" y="-13.200000000000001" width="250.953125" height="26.400000000000002" style="cursor: pointer; fill: rgb(0, 0, 0); fill-opacity: 0;"/></g></g></g><rect class="scrollbar" rx="20" ry="3" width="0" height="0" x="0" y="0" style="fill: rgb(128, 139, 164); fill-opacity: 1;"/></g><g class="g-gtitle"/><g class="g-xtitle"><text class="xtitle" x="403.5" y="404.8" text-anchor="middle" style="font-family: 'Open Sans', verdana, arial, sans-serif; font-size: 24px; fill: rgb(42, 63, 95); opacity: 1; font-weight: normal; white-space: pre;">Время, мс</text></g><g class="g-ytitle" transform="translate(11.5966796875,0)"><text class="ytitle" transform="rotate(-90,12.403125000000003,224)" x="12.403125000000003" y="224" text-anchor="middle" style="font-family: 'Open Sans', verdana, arial, sans-serif; font-size: 24px; fill: rgb(42, 63, 95); opacity: 1; font-weight: normal; white-space: pre;">Напряжение, мВ</text></g></g></svg>