<svg class="main-svg" xmlns="http://www.w3.org/2000/svg" xmlns:xlink="http://www.w3.org/1999/xlink" width="900" height="600" style="" viewBox="0 0 900 600"><rect x="0" y="0" width="900" height="600" style="fill: rgb(255, 255, 255); fill-opacity: 1;"/><defs id="defs-ca83ca"><g class="clips"><clipPath id="clipca83caxyplot" class="plotclip"><rect width="732" height="345"/></clipPath><clipPath class="axesclip" id="clipca83cax"><rect x="88" y="0" width="732" height="600"/></clipPath><clipPath class="axesclip" id="clipca83cay"><rect x="0" y="100" width="900" height="345"/></clipPath><clipPath class="axesclip" id="clipca83caxy"><rect x="88" y="100" width="732" height="345"/></clipPath></g><g class="gradients"/></defs><g class="bglayer"/><g class="layer-below"><g class="imagelayer"/><g class="shapelayer"/></g><g class="cartesianlayer"><g class="subplot xy"><g class="layer-subplot"><g class="shapelayer"/><g class="imagelayer"/></g><g class="gridlayer"><g class="x"/><g class="y"/></g><g class="zerolinelayer"/><path class="xlines-below"/><path class="ylines-below"/><g class="overlines-below"/><g class="xaxislayer-below"/><g class="yaxislayer-below"/><g class="overaxes-below"/><g class="plot" transform="translate(88,100)" clip-path="url('#clipca83caxyplot')"><g class="scatterlayer mlayer"><g class="trace scatter trace7a504b" style="stroke-miterlimit: 2; opacity: 0.5;"><g class="fills"/><g class="errorbars"/><g class="lines"><path class="js-line" d="M0,327.75H732V327.75" style="vector-effect: non-scaling-stroke; fill: none; stroke: rgb(44, 160, 44); stroke-opacity: 1; stroke-width: 3px; opacity: 1; stroke-dasharray: 9px, 9px;"/></g><g class="points"/><g class="text"/></g><g class="trace scatter traceec97c1" style="stroke-miterlimit: 2; opacity: 0.5;"><g class="fills"/><g class="errorbars"/><g class="lines"><path class="js-line" d="M0,21H2.93V21H5.86V21H8.78V21H11.71V21H14.64V21H17.57V21H20.5V21H23.42V21H26.35V21H29.28V21H32.21V21H35.14V21H38.06V21H40.99V21H43.92V21H46.85V21H49.78V21H52.7V21H55.63V21H58.56V21H61.49V21H64.42V21H67.34V21H70.27V21H73.2V21H76.13V21H79.06V21H81.98V21H84.91V21H87.84V21H90.77V21H93.7V21H96.62V21H99.55V21H102.48V21H105.41V21H108.34V21H111.26V21H114.19V21H117.12V21H120.05V21H122.98V21H125.9V21H128.83V21H131.76V21H134.69V21H137.62V21H140.54V21H143.47V21H146.4V21H149.33V21H152.26V21H155.18V21H158.11V21H161.04V21H163.97V21H166.9V21H169.82V21H172.75V21H175.68V21H178.61V21H181.54V21H184.46V21H187.39V21H190.32V21H193.25V21H196.18V21H199.1V21H202.03V21H204.96V21H207.89V21H210.82V21H213.74V21H216.67V21H219.6V21H222.53V21H225.46V21H228.38V21H231.31V21H234.24V21H237.17V21H240.1V21H243.02V21H245.95V21H248.88V21H251.81V21H254.74V21H257.66V21H260.59V21H263.52V21H266.45V21H269.38V21H272.3V21H275.23V21H278.16V21H281.09V21H284.02V21H286.94V21H289.87V21H292.8V21H295.73V21H298.66V21H301.58V21H304.51V21H307.44V21H310.37V21H313.3V21H316.22V21H319.15V21H322.08V21H325.01V21H327.94V21H330.86V21H333.79V21H336.72V21H339.65V21H342.58V21H345.5V21H348.43V21H351.36V21H354.29V21H357.22V21H360.14V21H363.07V21H366V21H368.93V21H371.86V21H374.78V21H377.71V21H380.64V21H383.57V21H386.5V21H389.42V21H392.35V21H395.28V21H398.21V21H401.14V21H404.06V21H406.99V21H409.92V21H412.85V21H415.78V21H418.7V21H421.63V21H424.56V21H427.49V21H430.42V21H433.34V21H436.27V21H439.2V21H442.13V21H445.06V21H447.98V21H450.91V21H453.84V21H456.77V21H459.7V21H462.62V21H465.55V21H468.48V21H471.41V21H474.34V21H477.26V21H480.19V21H483.12V21H486.05V21H488.98V21H491.9V21H494.83V21H497.76V21H500.69V21H503.62V21H506.54V21H509.47V21H512.4V21H515.33V21H518.26V21H521.18V21H524.11V21H527.04V21H529.97V21H532.9V21H535.82V21H538.75V21H541.68V21H544.61V21H547.54V21H550.46V21H553.39V21H556.32V21H559.25V21H562.18V21H565.1V21H568.03V21H570.96V21H573.89V21H576.82V21H579.74V21H582.67V21H585.6V21H588.53V21H591.46V21H594.38V21H597.31V21H600.24V21H603.17V21H606.1V21H609.02V21H611.95V21H614.88V21H617.81V21H620.74V21H623.66V21H626.59V21H629.52V21H632.45V21H635.38V21H638.3V21H641.23V21H644.16V21H647.09V21H650.02V21H652.94V21H655.87V21H658.8V21H661.73V21H664.66V21H667.58V21H670.51V21H673.44V21H676.37V21H679.3V21H682.22V21H685.15V21H688.08V21H691.01V21H693.94V21H696.86V21H699.79V21H702.72V21H705.65V21H708.58V21H711.5V21H714.43V21H717.36V21H720.29V21H723.22V21H726.14V21H729.07V21" style="vector-effect: non-scaling-stroke; fill: none; stroke: rgb(214, 39, 40); stroke-opacity: 1; stroke-width: 3px; opacity: 1; stroke-dasharray: 9px, 9px;"/></g><g class="points"/><g class="text"/></g><g class="trace scatter tracefdb6c0" style="stroke-miterlimit: 2; opacity: 1;"><g class="fills"/><g class="errorbars"/><g class="lines"><path class="js-line" d="M0,327.75H2.93V327.75H5.86V327.75H8.78V327.75H11.71V327.75H14.64V327.75H17.57V327.75H20.5V327.75H23.42V327.75H26.35V327.75H29.28V327.75H32.21V327.75H35.14V327.75H38.06V327.75H40.99V327.75H43.92V327.75H46.85V327.75H49.78V327.75H52.7V327.75H55.63V321.96H58.56V321.96H61.49V321.96H64.42V321.96H67.34V321.96H70.27V321.96H73.2V321.96H76.13V313.89H79.06V313.89H81.98V313.89H84.91V295.47H87.84V293.88H90.77V273.93H93.7V273.93H96.62V250.24H99.55V239.76H102.48V226.37H105.41V207.76H108.34V207.76H111.26V207.76H114.19V207.76H117.12V199.96H120.05V199.96H122.98V179.71H125.9V179.71H128.83V179.71H131.76V167.76H134.69V157.03H137.62V151.12H140.54V131.07H143.47V131.07H146.4V106.85H149.33V106.85H152.26V87.48H155.18V77.97H158.11V57.58H161.04V57.58H163.97V57.58H166.9V57.58H169.82V33.76H172.75V24.08H175.68V21H178.61V327.75H181.54V327.75H184.46V327.75H187.39V327.75H190.32V327.75H193.25V327.75H196.18V327.75H199.1V327.75H202.03V327.75H204.96V327.75H207.89V319.68H210.82V313.49H213.74V313.49H216.67V301.46H219.6V301.46H222.53V292.32H225.46V292.32H228.38V292.32H231.31V292.32H234.24V292.32H237.17V292.32H240.1V273.7H243.02V268.63H245.95V268.63H248.88V268.63H251.81V251.05H254.74V210.6H257.66V204.3H260.59V204.3H263.52V196.92H266.45V173.35H269.38V173.35H272.3V153.1H275.23V153.1H278.16V128.78H281.09V128.78H284.02V120.9H286.94V120.9H289.87V111.98H292.8V111.98H295.73V111.98H298.66V100.96H301.58V100.96H304.51V88.87H307.44V70.91H310.37V62.84H313.3V53.7H316.22V34.32H319.15V24.81H322.08V24.81H325.01V24.81H327.94V24.81H330.86V24.81H333.79V24.81H336.72V21H339.65V327.75H342.58V327.75H345.5V327.75H348.43V327.75H351.36V327.75H354.29V327.75H357.22V327.75H360.14V327.75H363.07V327.75H366V327.75H368.93V307.5H371.86V290.96H374.78V290.96H377.71V286.38H380.64V266.83H383.57V248.41H386.5V234.09H389.42V206.07H392.35V195.59H395.28V177.85H398.21V177.85H401.14V174.54H404.06V168.92H406.99V168.92H409.92V168.92H412.85V168.92H415.78V130.24H418.7V130.24H421.63V130.24H424.56V121.8H427.49V121.8H430.42V121.8H433.34V121.8H436.27V121.8H439.2V107.83H442.13V107.83H445.06V107.83H447.98V95.8H450.91V95.8H453.84V95.8H456.77V75.54H459.7V75.54H462.62V75.54H465.55V75.54H468.48V26.02H471.41V21.44H474.34V21H477.26V327.75H480.19V327.75H483.12V327.75H486.05V327.75H488.98V327.75H491.9V327.75H494.83V327.75H497.76V327.75H500.69V327.75H503.62V327.75H506.54V327.75H509.47V309.13H512.4V294.29H515.33V276.38H518.26V276.38H521.18V274.79H524.11V269.16H527.04V269.16H529.97V269.16H532.9V269.16H535.82V264.08H538.75V264.08H541.68V248.64H544.61V240.56H547.54V222.78H550.46V222.78H553.39V222.78H556.32V203.38H559.25V174.17H562.18V166.38H565.1V138.82H568.03V118.56H570.96V118.56H573.89V113.16H576.82V113.16H579.74V93.11H582.67V83.6H585.6V83.6H588.53V83.6H591.46V83.6H594.38V76.22H597.31V76.22H600.24V76.22H603.17V76.22H606.1V39.62H609.02V39.62H611.95V28.06H614.88V21H617.81V327.75H620.74V327.75H623.66V327.75H626.59V327.75H629.52V327.75H632.45V327.75H635.38V327.75H638.3V327.75H641.23V327.75H644.16V327.75H647.09V324.45H650.02V324.45H652.94V320.21H655.87V308.61H658.8V308.61H661.73V308.61H664.66V283.61H667.58V265.19H670.51V242.57H673.44V242.57H676.37V242.57H679.3V224.67H682.22V224.67H685.15V224.67H688.08V220.09H691.01V199.84H693.94V192.04H696.86V173.43H699.79V167.64H702.72V167.64H705.65V167.64H708.58V167.64H711.5V160.27H714.43V160.27H717.36V160.27H720.29V160.27H723.22V147.18H726.14V136.44H729.07V136.44" style="vector-effect: non-scaling-stroke; fill: none; stroke: rgb(31, 119, 180); stroke-opacity: 1; stroke-width: 1px; opacity: 1;"/></g><g class="points"/><g class="text"/></g><g class="trace scatter trace1b62b4" style="stroke-miterlimit: 2; opacity: 1;"><g class="fills"/><g class="errorbars"/><g class="lines"/><g class="points"><path class="point" transform="translate(175.68,21)" d="M3,0A3,3 0 1,1 0,-3A3,3 0 0,1 3,0Z" style="opacity: 1; stroke-width: 0px; fill: rgb(255, 127, 14); fill-opacity: 1;"/><path class="point" transform="translate(336.72,21)" d="M3,0A3,3 0 1,1 0,-3A3,3 0 0,1 3,0Z" style="opacity: 1; stroke-width: 0px; fill: rgb(255, 127, 14); fill-opacity: 1;"/><path class="point" transform="translate(474.34,21)" d="M3,0A3,3 0 1,1 0,-3A3,3 0 0,1 3,0Z" style="opacity: 1; stroke-width: 0px; fill: rgb(255, 127, 14); fill-opacity: 1;"/><path class="point" transform="translate(614.88,21)" d="M3,0A3,3 0 1,1 0,-3A3,3 0 0,1 3,0Z" style="opacity: 1; stroke-width: 0px; fill: rgb(255, 127, 14); fill-opacity: 1;"/></g><g class="text"/></g></g></g><g class="overplot"/><path class="xlines-above crisp" d="M87,445.5H820" style="fill: none; stroke-width: 1px; stroke: rgb(36, 36, 36); stroke-opacity: 1;"/><path class="ylines-above crisp" d="M87.5,100V445" style="fill: none; stroke-width: 1px; stroke: rgb(36, 36, 36); stroke-opacity: 1;"/><g class="overlines-above"/><g class="xaxislayer-above"><path class="xtick ticks crisp" d="M0,446v5" transform="translate(88,0)" style="stroke: rgb(68, 68, 68); stroke-opacity: 1; stroke-width: 1px;"/><path class="xtick ticks crisp" d="M0,446v5" transform="translate(234.4,0)" style="stroke: rgb(68, 68, 68); stroke-opacity: 1; stroke-width: 1px;"/><path class="xtick ticks crisp" d="M0,446v5" transform="translate(380.8,0)" style="stroke: rgb(68, 68, 68); stroke-opacity: 1; stroke-width: 1px;"/><path class="xtick ticks crisp" d="M0,446v5" transform="translate(527.2,0)" style="stroke: rgb(68, 68, 68); stroke-opacity: 1; stroke-width: 1px;"/><path class="xtick ticks crisp" d="M0,446v5" transform="translate(673.6,0)" style="stroke: rgb(68, 68, 68); stroke-opacity: 1; stroke-width: 1px;"/><path class="xtick ticks crisp" d="M0,446v5" transform="translate(820,0)" style="stroke: rgb(68, 68, 68); stroke-opacity: 1; stroke-width: 1px;"/><g class="xtick"><text text-anchor="middle" x="0" y="475" transform="translate(88,0)" style="font-family: 'Open Sans', verdana, arial, sans-serif; font-size: 20px; fill: rgb(36, 36, 36); fill-opacity: 1; white-space: pre;">0</text></g><g class="xtick"><text text-anchor="middle" x="0" y="475" transform="translate(234.4,0)" style="font-family: 'Open Sans', verdana, arial, sans-serif; font-size: 20px; fill: rgb(36, 36, 36); fill-opacity: 1; white-space: pre;">50</text></g><g class="xtick"><text text-anchor="middle" x="0" y="475" transform="translate(380.8,0)" style="font-family: 'Open Sans', verdana, arial, sans-serif; font-size: 20px; fill: rgb(36, 36, 36); fill-opacity: 1; white-space: pre;">100</text></g><g class="xtick"><text text-anchor="middle" x="0" y="475" transform="translate(527.2,0)" style="font-family: 'Open Sans', verdana, arial, sans-serif; font-size: 20px; fill: rgb(36, 36, 36); fill-opacity: 1; white-space: pre;">150</text></g><g class="xtick"><text text-anchor="middle" x="0" y="475" transform="translate(673.6,0)" style="font-family: 'Open Sans', verdana, arial, sans-serif; font-size: 20px; fill: rgb(36, 36, 36); fill-opacity: 1; white-space: pre;">200</text></g><g class="xtick"><text text-anchor="middle" x="0" y="475" transform="translate(820,0)" style="font-family: 'Open Sans', verdana, arial, sans-serif; font-size: 20px; fill: rgb(36, 36, 36); fill-opacity: 1; white-space: pre;">250</text></g></g><g class="yaxislayer-above"><path class="ytick ticks crisp" d="M87,0h-5" transform="translate(0,407.3)" style="stroke: rgb(68, 68, 68); stroke-opacity: 1; stroke-width: 1px;"/><path class="ytick ticks crisp" d="M87,0h-5" transform="translate(0,366.4)" style="stroke: rgb(68, 68, 68); stroke-opacity: 1; stroke-width: 1px;"/><path class="ytick ticks crisp" d="M87,0h-5" transform="translate(0,325.5)" style="stroke: rgb(68, 68, 68); stroke-opacity: 1; stroke-width: 1px;"/><path class="ytick ticks crisp" d="M87,0h-5" transform="translate(0,284.6)" style="stroke: rgb(68, 68, 68); stroke-opacity: 1; stroke-width: 1px;"/><path class="ytick ticks crisp" d="M87,0h-5" transform="translate(0,243.7)" style="stroke: rgb(68, 68, 68); stroke-opacity: 1; stroke-width: 1px;"/><path class="ytick ticks crisp" d="M87,0h-5" transform="translate(0,202.8)" style="stroke: rgb(68, 68, 68); stroke-opacity: 1; stroke-width: 1px;"/><path class="ytick ticks crisp" d="M87,0h-5" transform="translate(0,161.9)" style="stroke: rgb(68, 68, 68); stroke-opacity: 1; stroke-width: 1px;"/><path class="ytick ticks crisp" d="M87,0h-5" transform="translate(0,121)" style="stroke: rgb(68, 68, 68); stroke-opacity: 1; stroke-width: 1px;"/><g class="ytick"><text text-anchor="end" x="78" y="7" transform="translate(0,407.3)" style="font-family: 'Open Sans', verdana, arial, sans-serif; font-size: 20px; fill: rgb(36, 36, 36); fill-opacity: 1; white-space: pre;">−64</text></g><g class="ytick"><text text-anchor="end" x="78" y="7" transform="translate(0,366.4)" style="font-family: 'Open Sans', verdana, arial, sans-serif; font-size: 20px; fill: rgb(36, 36, 36); fill-opacity: 1; white-space: pre;">−62</text></g><g class="ytick"><text text-anchor="end" x="78" y="7" transform="translate(0,325.5)" style="font-family: 'Open Sans', verdana, arial, sans-serif; font-size: 20px; fill: rgb(36, 36, 36); fill-opacity: 1; white-space: pre;">−60</text></g><g class="ytick"><text text-anchor="end" x="78" y="7" transform="translate(0,284.6)" style="font-family: 'Open Sans', verdana, arial, sans-serif; font-size: 20px; fill: rgb(36, 36, 36); fill-opacity: 1; white-space: pre;">−58</text></g><g class="ytick"><text text-anchor="end" x="78" y="7" transform="translate(0,243.7)" style="font-family: 'Open Sans', verdana, arial, sans-serif; font-size: 20px; fill: rgb(36, 36, 36); fill-opacity: 1; white-space: pre;">−56</text></g><g class="ytick"><text text-anchor="end" x="78" y="7" transform="translate(0,202.8)" style="font-family: 'Open Sans', verdana, arial, sans-serif; font-size: 20px; fill: rgb(36, 36, 36); fill-opacity: 1; white-space: pre;">−54</text></g><g class="ytick"><text text-anchor="end" x="78" y="7" transform="translate(0,161.9)" style="font-family: 'Open Sans', verdana, arial, sans-serif; font-size: 20px; fill: rgb(36, 36, 36); fill-opacity: 1; white-space: pre;">−52</text></g><g class="ytick"><text text-anchor="end" x="78" y="7" transform="translate(0,121)" style="font-family: 'Open Sans', verdana, arial, sans-serif; font-size: 20px; fill: rgb(36, 36, 36); fill-opacity: 1; white-space: pre;">−50</text></g></g><g class="overaxes-above"/></g></g><g class="polarlayer"/><g class="ternarylayer"/><g class="geolayer"/><g class="funnelarealayer"/><g class="pielayer"/><g class="treemaplayer"/><g class="sunburstlayer"/><g class="glimages"/><defs id="topdefs-ca83ca"><g class="clips"/><clipPath id="legendca83ca"><rect width="602" height="37" x="1" y="1"/></clipPath></defs><g class="layer-above"><g class="imagelayer"/><g class="shapelayer"/></g><g class="infolayer"><g class="legend" pointer-events="all" transform="translate(88,548.5)"><rect class="bg" shape-rendering="crispEdges" width="603" height="38" x="0.5" y="0.5" style="stroke: rgb(5, 5, 25); stroke-opacity: 0; fill: rgb(5, 5, 25); fill-opacity: 0; stroke-width: 1px;"/><g class="scrollbox" transform="" clip-path="url('#legendca83ca')"><g class="groups"><g class="traces" transform="translate(1,19.200000000000003)" style="opacity: 1;"><text class="legendtext" text-anchor="start" x="40" y="7.0200000000000005" style="font-family: 'Open Sans', verdana, arial, sans-serif; font-size: 18px; fill: rgb(0, 0, 0); fill-opacity: 1; white-space: pre;">Reset potential</text><g class="layers" style="opacity: 0.5;"><g class="legendfill"/><g class="legendlines"><path class="js-line" d="M5,0h30" style="fill: none; stroke: rgb(44, 160, 44); stroke-opacity: 1; stroke-dasharray: 9px, 9px; stroke-width: 3px;"/></g><g class="legendsymbols"><g class="legendpoints"/></g></g><rect class="legendtoggle" x="0" y="-13.200000000000001" width="168.328125" height="26.400000000000002" style="fill: rgb(0, 0, 0); fill-opacity: 0;"/></g><g class="traces" transform="translate(171.828125,19.200000000000003)" style="opacity: 1;"><text class="legendtext" text-anchor="start" x="40" y="7.0200000000000005" style="font-family: 'Open Sans', verdana, arial, sans-serif; font-size: 18px; fill: rgb(0, 0, 0); fill-opacity: 1; white-space: pre;">Activation threshhold</text><g class="layers" style="opacity: 0.5;"><g class="legendfill"/><g class="legendlines"><path class="js-line" d="M5,0h30" style="fill: none; stroke: rgb(214, 39, 40); stroke-opacity: 1; stroke-dasharray: 9px, 9px; stroke-width: 3px;"/></g><g class="legendsymbols"><g class="legendpoints"/></g></g><rect class="legendtoggle" x="0" y="-13.200000000000001" width="221.890625" height="26.400000000000002" style="fill: rgb(0, 0, 0); fill-opacity: 0;"/></g><g class="traces" transform="translate(396.21875,19.200000000000003)" style="opacity: 1;"><text class="legendtext" text-anchor="start" x="40" y="7.0200000000000005" style="font-family: 'Open Sans', verdana, arial, sans-serif; font-size: 18px; fill: rgb(0, 0, 0); fill-opacity: 1; white-space: pre;">Voltage</text><g class="layers" style="opacity: 1;"><g class="legendfill"/><g class="legendlines"><path class="js-line" d="M5,0h30" style="fill: none; stroke: rgb(31, 119, 180); stroke-opacity: 1; stroke-width: 1px;"/></g><g class="legendsymbols"><g class="legendpoints"/></g></g><rect class="legendtoggle" x="0" y="-13.200000000000001" width="104.96875" height="26.400000000000002" style="fill: rgb(0, 0, 0); fill-opacity: 0;"/></g><g class="traces" transform="translate(503.6875,19.200000000000003)" style="opacity: 1;"><text class="legendtext" text-anchor="start" x="40" y="7.0200000000000005" style="font-family: 'Open Sans', verdana, arial, sans-serif; font-size: 18px; fill: rgb(0, 0, 0); fill-opacity: 1; white-space: pre;">Spikes</text><g class="layers" style="opacity: 1;"><g class="legendfill"/><g class="legendlines"/><g class="legendsymbols"><g class="legendpoints"><path class="scatterpts" transform="translate(20,0)" d="M3,0A3,3 0 1,1 0,-3A3,3 0 0,1 3,0Z" style="opacity: 1; stroke-width: 0px; fill: rgb(255, 127, 14); fill-opacity: 1;"/></g></g></g><rect class="legendtoggle" x="0" y="-13.200000000000001" width="96.109375" height="26.400000000000002" style="fill: rgb(0, 0, 0); fill-opacity: 0;"/></g></g></g><rect class="scrollbar" rx="20" ry="3" width="0" height="0" x="0" y="0" style="fill: rgb(128, 139, 164); fill-opacity: 1;"/></g><g class="g-gtitle"><text class="gtitle" x="45" y="50" text-anchor="start" dy="0em" style="font-family: 'Open Sans', verdana, arial, sans-serif; font-size: 17px; fill: rgb(36, 36, 36); opacity: 1; font-weight: normal; white-space: pre;">if</text></g><g class="g-xtitle"><text class="xtitle" x="454" y="512.8" text-anchor="middle" style="font-family: 'Open Sans', verdana, arial, sans-serif; font-size: 24px; fill: rgb(36, 36, 36); opacity: 1; font-weight: normal; white-space: pre;">Time</text></g><g class="g-ytitle" transform="translate(14.1123046875,0)"><text class="ytitle" transform="rotate(-90,11.887500000000003,272.5)" x="11.887500000000003" y="272.5" text-anchor="middle" style="font-family: 'Open Sans', verdana, arial, sans-serif; font-size: 24px; fill: rgb(36, 36, 36); opacity: 1; font-weight: normal; white-space: pre;">Voltage</text></g></g></svg>