<svg class="main-svg" xmlns="http://www.w3.org/2000/svg" xmlns:xlink="http://www.w3.org/1999/xlink" width="900" height="600" style="" viewBox="0 0 900 600"><rect x="0" y="0" width="900" height="600" style="fill: rgb(255, 255, 255); fill-opacity: 1;"/><defs id="defs-5e301d"><g class="clips"><clipPath id="clip5e301dxyplot" class="plotclip"><rect width="731" height="305"/></clipPath><clipPath class="axesclip" id="clip5e301dx"><rect x="89" y="0" width="731" height="600"/></clipPath><clipPath class="axesclip" id="clip5e301dy"><rect x="0" y="100" width="900" height="305"/></clipPath><clipPath class="axesclip" id="clip5e301dxy"><rect x="89" y="100" width="731" height="305"/></clipPath></g><g class="gradients"/></defs><g class="bglayer"/><g class="layer-below"><g class="imagelayer"/><g class="shapelayer"/></g><g class="cartesianlayer"><g class="subplot xy"><g class="layer-subplot"><g class="shapelayer"/><g class="imagelayer"/></g><g class="gridlayer"><g class="x"/><g class="y"/></g><g class="zerolinelayer"/><path class="xlines-below"/><path class="ylines-below"/><g class="overlines-below"/><g class="xaxislayer-below"/><g class="yaxislayer-below"/><g class="overaxes-below"/><g class="plot" transform="translate(89, 100)" clip-path="url('#clip5e301dxyplot')"><g class="scatterlayer mlayer"><g class="trace scatter tracedfa2c3" style="stroke-miterlimit: 2; opacity: 0.5;"><g class="fills"/><g class="errorbars"/><g class="lines"><path class="js-line" d="M0,289.75H731V289.75" style="vector-effect: non-scaling-stroke; fill: none; stroke: rgb(44, 160, 44); stroke-opacity: 1; stroke-width: 3px; opacity: 1; stroke-dasharray: 9px, 9px;"/></g><g class="points"/><g class="text"/></g><g class="trace scatter trace1fc67f" style="stroke-miterlimit: 2; opacity: 0.5;"><g class="fills"/><g class="errorbars"/><g class="lines"><path class="js-line" d="M0,121.96H2.92V121.96H5.85V121.96H8.77V121.96H11.7V121.96H14.62V121.96H17.54V121.96H20.47V121.96H23.39V121.96H26.32V121.96H29.24V121.96H32.16V121.96H35.09V121.96H38.01V121.96H40.94V121.96H43.86V121.96H46.78V121.96H49.71V121.96H52.63V121.96H55.56V121.96H58.48V121.96H61.4V121.96H64.33V121.96H67.25V121.96H70.18V121.96H73.1V121.96H76.02V121.96H78.95V121.96H81.87V121.96H84.8V121.96H87.72V121.96H90.64V121.96H93.57V121.96H96.49V121.96H99.42V121.96H102.34V121.96H105.26V121.96H108.19V121.96H111.11V121.96H114.04V121.96H116.96V121.96H119.88V121.96H122.81V66.03H125.73V66.59H128.66V67.14H131.58V67.69H134.5V68.23H137.43V68.76H140.35V69.29H143.28V69.81H146.2V70.33H149.12V70.85H152.05V71.36H154.97V71.86H157.9V72.36H160.82V72.85H163.74V73.34H166.67V73.82H169.59V74.3H172.52V74.78H175.44V75.25H178.36V75.71H181.29V76.17H184.21V76.63H187.14V77.08H190.06V77.53H192.98V77.97H195.91V78.41H198.83V78.84H201.76V79.27H204.68V79.69H207.6V80.11H210.53V80.53H213.45V80.94H216.38V81.35H219.3V81.75H222.22V82.15H225.15V82.55H228.07V82.94H231V83.33H233.92V83.71H236.84V84.1H239.77V84.47H242.69V84.85H245.62V85.21H248.54V85.58H251.46V85.94H254.39V86.3H257.31V86.66H260.24V87.01H263.16V87.35H266.08V87.7H269.01V88.04H271.93V88.38H274.86V88.71H277.78V89.04H280.7V89.37H283.63V89.69H286.55V34.09H289.48V34.96H292.4V35.83H295.32V36.68H298.25V37.53H301.17V38.37H304.1V39.2H307.02V40.03H309.94V40.84H312.87V41.65H315.79V42.45H318.72V43.24H321.64V44.02H324.56V44.8H327.49V45.57H330.41V46.33H333.34V47.08H336.26V47.82H339.18V48.56H342.11V49.29H345.03V50.02H347.96V50.73H350.88V51.44H353.8V52.14H356.73V52.84H359.65V53.52H362.58V54.21H365.5V54.88H368.42V55.55H371.35V56.21H374.27V56.86H377.2V57.51H380.12V58.15H383.04V58.79H385.97V59.41H388.89V60.04H391.82V60.65H394.74V61.26H397.66V61.87H400.59V62.47H403.51V63.06H406.44V63.64H409.36V64.22H412.28V64.8H415.21V65.37H418.13V65.93H421.06V66.49H423.98V67.04H426.9V67.59H429.83V68.13H432.75V68.66H435.68V69.19H438.6V69.72H441.52V70.24H444.45V70.75H447.37V71.26H450.3V71.77H453.22V72.27H456.14V72.76H459.07V73.25H461.99V73.74H464.92V74.22H467.84V74.69H470.76V75.16H473.69V19.7H476.61V20.71H479.54V21.72H482.46V22.72H485.38V23.71H488.31V24.68H491.23V25.65H494.16V26.61H497.08V27.56H500V28.5H502.93V29.43H505.85V30.35H508.78V31.26H511.7V32.16H514.62V33.06H517.55V33.94H520.47V34.82H523.4V35.68H526.32V36.54H529.24V37.39H532.17V38.23H535.09V39.07H538.02V39.89H540.94V40.71H543.86V41.52H546.79V42.32H549.71V43.11H552.64V43.9H555.56V44.67H558.48V45.44H561.41V46.2H564.33V46.96H567.26V47.7H570.18V48.44H573.1V49.17H576.03V49.9H578.95V50.61H581.88V51.32H584.8V52.03H587.72V52.72H590.65V53.41H593.57V54.09H596.5V54.77H599.42V55.44H602.34V56.1H605.27V56.76H608.19V57.4H611.12V58.05H614.04V58.68H616.96V59.31H619.89V59.94H622.81V60.55H625.74V61.16H628.66V61.77H631.58V62.37H634.51V62.96H637.43V63.55H640.36V64.13H643.28V64.7H646.2V65.27H649.13V65.84H652.05V66.4H654.98V66.95H657.9V67.5H660.82V68.04H663.75V68.58H666.67V69.11H669.6V69.63H672.52V70.15H675.44V70.67H678.37V15.25H681.29V16.31H684.22V17.36H687.14V18.4H690.06V19.43H692.99V20.45H695.91V21.46H698.84V22.46H701.76V23.45H704.68V24.43H707.61V25.41H710.53V26.37H713.46V27.32H716.38V28.26H719.3V29.19H722.23V30.11H725.15V31.03H728.08V31.93" style="vector-effect: non-scaling-stroke; fill: none; stroke: rgb(214, 39, 40); stroke-opacity: 1; stroke-width: 3px; opacity: 1; stroke-dasharray: 9px, 9px;"/></g><g class="points"/><g class="text"/></g><g class="trace scatter traced1968a" style="stroke-miterlimit: 2; opacity: 0.5;"><g class="fills"/><g class="errorbars"/><g class="lines"><path class="js-line" d="M0,233.82H731V233.82" style="vector-effect: non-scaling-stroke; fill: none; stroke: rgb(148, 103, 189); stroke-opacity: 1; stroke-width: 3px; opacity: 1; stroke-dasharray: 9px, 9px;"/></g><g class="points"/><g class="text"/></g><g class="trace scatter trace7bc4e3" style="stroke-miterlimit: 2; opacity: 1;"><g class="fills"/><g class="errorbars"/><g class="lines"><path class="js-line" d="M0,233.82H2.92V233.82H5.85V233.82H8.77V233.82H11.7V233.82H14.62V233.82H17.54V233.82H20.47V233.82H23.39V233.82H26.32V233.82H29.24V233.82H32.16V233.82H35.09V233.82H38.01V233.82H40.94V233.82H43.86V233.82H46.78V233.82H49.71V233.82H52.63V233.82H55.56V233.82H58.48V233.82H61.4V233.82H64.33V233.82H67.25V233.82H70.18V233.82H73.1V233.82H76.02V224.3H78.95V209.93H81.87V210.16H84.8V197.39H87.72V197.35H90.64V187.44H93.57V184.91H96.49V177.22H99.42V165.57H102.34V154.5H105.26V152.09H108.19V152.91H111.11V153.71H114.04V137.32H116.96V138.28H119.88V132.98H122.81V121.96H125.73V289.19H128.66V288.64H131.58V288.1H134.5V287.56H137.43V287.02H140.35V286.49H143.28V285.97H146.2V285.45H149.12V284.94H152.05V284.43H154.97V266.01H157.9V265.69H160.82V264.14H163.74V263.83H166.67V258.91H169.59V258.66H172.52V251.73H175.44V243.77H178.36V243.67H181.29V243.57H184.21V236.56H187.14V236.53H190.06V223.23H192.98V223.34H195.91V223.44H198.83V223.55H201.76V218.35H204.68V204.54H207.6V204.83H210.53V205.12H213.45V199.59H216.38V193.27H219.3V193.67H222.22V185.75H225.15V183.24H228.07V175.56H231V169.28H233.92V140.88H236.84V140.17H239.77V137.91H242.69V138.86H245.62V139.81H248.54V124.54H251.46V125.63H254.39V126.3H257.31V127.37H260.24V128.43H263.16V122.71H266.08V116.03H269.01V106.85H271.93V108.11H274.86V104.74H277.78V102.23H280.7V103.54H283.63V92.62H286.55V89.69H289.48V289.19H292.4V288.64H295.32V288.1H298.25V287.56H301.17V287.02H304.1V286.49H307.02V285.97H309.94V285.45H312.87V284.94H315.79V284.43H318.72V283.92H321.64V283.43H324.56V282.93H327.49V279.46H330.41V279H333.34V278.55H336.26V271.46H339.18V262H342.11V252.85H345.03V231.96H347.96V231.98H350.88V232H353.8V223.92H356.73V224.02H359.65V224.11H362.58V216.42H365.5V216.6H368.42V203.62H371.35V192.35H374.27V189.29H377.2V189.74H380.12V190.17H383.04V190.61H385.97V191.04H388.89V189.3H391.82V185.12H394.74V185.61H397.66V172.04H400.59V172.65H403.51V151.88H406.44V152.69H409.36V153.5H412.28V143.95H415.21V144.85H418.13V137.34H421.06V137.9H423.98V138.86H426.9V130.94H429.83V123.56H432.75V118.41H435.68V112.87H438.6V114.07H441.52V115.27H444.45V106.93H447.37V101.52H450.3V102.84H453.22V104.14H456.14V105.43H459.07V98.39H461.99V92.12H464.92V93.53H467.84V90.05H470.76V75.51H473.69V75.16H476.61V289.19H479.54V288.64H482.46V288.1H485.38V287.56H488.31V287.02H491.23V286.49H494.16V285.97H497.08V285.45H500V284.94H502.93V284.43H505.85V283.52H508.78V279.83H511.7V277.74H514.62V258.64H517.55V258.39H520.47V258.15H523.4V257.91H526.32V249.27H529.24V249.11H532.17V248.96H535.09V242.13H538.02V231.7H540.94V231.72H543.86V231.74H546.79V231.76H549.71V216.66H552.64V211.02H555.56V197.67H558.48V198.03H561.41V183.01H564.33V176.65H567.26V177.22H570.18V177.78H573.1V178.34H576.03V178.89H578.95V171.26H581.88V167H584.8V155.65H587.72V151.13H590.65V151.95H593.57V142H596.5V142.51H599.42V143.42H602.34V130.84H605.27V131.87H608.19V132.88H611.12V133.89H614.04V134.88H616.96V135.87H619.89V124.98H622.81V126.07H625.74V112.06H628.66V113.27H631.58V114.47H634.51V115.65H637.43V116.83H640.36V109.6H643.28V110.83H646.2V95.46H649.13V95.2H652.05V96.58H654.98V82.41H657.9V83.91H660.82V85.41H663.75V86.88H666.67V82.54H669.6V79.42H672.52V80.56H675.44V82.08H678.37V70.67H681.29V289.19H684.22V288.64H687.14V288.1H690.06V287.56H692.99V287.02H695.91V286.49H698.84V285.97H701.76V285.45H704.68V284.94H707.61V284.43H710.53V273.48H713.46V270.09H716.38V269.73H719.3V265.9H722.23V265.58H725.15V255.65H728.08V245.46" style="vector-effect: non-scaling-stroke; fill: none; stroke: rgb(31, 119, 180); stroke-opacity: 1; stroke-width: 1px; opacity: 1;"/></g><g class="points"/><g class="text"/></g><g class="trace scatter trace8ce235" style="stroke-miterlimit: 2; opacity: 1;"><g class="fills"/><g class="errorbars"/><g class="lines"/><g class="points"><path class="point" transform="translate(122.81,121.96)" d="M3,0A3,3 0 1,1 0,-3A3,3 0 0,1 3,0Z" style="opacity: 1; stroke-width: 0px; fill: rgb(255, 127, 14); fill-opacity: 1;"/><path class="point" transform="translate(286.55,89.69)" d="M3,0A3,3 0 1,1 0,-3A3,3 0 0,1 3,0Z" style="opacity: 1; stroke-width: 0px; fill: rgb(255, 127, 14); fill-opacity: 1;"/><path class="point" transform="translate(473.69,75.16)" d="M3,0A3,3 0 1,1 0,-3A3,3 0 0,1 3,0Z" style="opacity: 1; stroke-width: 0px; fill: rgb(255, 127, 14); fill-opacity: 1;"/><path class="point" transform="translate(678.37,70.67)" d="M3,0A3,3 0 1,1 0,-3A3,3 0 0,1 3,0Z" style="opacity: 1; stroke-width: 0px; fill: rgb(255, 127, 14); fill-opacity: 1;"/></g><g class="text"/></g></g></g><g class="overplot"/><path class="xlines-above crisp" d="M88,405.5H820" style="fill: none; stroke-width: 1px; stroke: rgb(36, 36, 36); stroke-opacity: 1;"/><path class="ylines-above crisp" d="M88.5,100V405" style="fill: none; stroke-width: 1px; stroke: rgb(36, 36, 36); stroke-opacity: 1;"/><g class="overlines-above"/><g class="xaxislayer-above"><path class="xtick ticks crisp" d="M0,406v5" transform="translate(89,0)" style="stroke: rgb(68, 68, 68); stroke-opacity: 1; stroke-width: 1px;"/><path class="xtick ticks crisp" d="M0,406v5" transform="translate(235.2,0)" style="stroke: rgb(68, 68, 68); stroke-opacity: 1; stroke-width: 1px;"/><path class="xtick ticks crisp" d="M0,406v5" transform="translate(381.4,0)" style="stroke: rgb(68, 68, 68); stroke-opacity: 1; stroke-width: 1px;"/><path class="xtick ticks crisp" d="M0,406v5" transform="translate(527.6,0)" style="stroke: rgb(68, 68, 68); stroke-opacity: 1; stroke-width: 1px;"/><path class="xtick ticks crisp" d="M0,406v5" transform="translate(673.8,0)" style="stroke: rgb(68, 68, 68); stroke-opacity: 1; stroke-width: 1px;"/><path class="xtick ticks crisp" d="M0,406v5" transform="translate(820,0)" style="stroke: rgb(68, 68, 68); stroke-opacity: 1; stroke-width: 1px;"/><g class="xtick"><text text-anchor="middle" x="0" y="435" transform="translate(89,0)" style="font-family: 'Open Sans', verdana, arial, sans-serif; font-size: 20px; fill: rgb(36, 36, 36); fill-opacity: 1; white-space: pre;">0</text></g><g class="xtick"><text text-anchor="middle" x="0" y="435" transform="translate(235.2,0)" style="font-family: 'Open Sans', verdana, arial, sans-serif; font-size: 20px; fill: rgb(36, 36, 36); fill-opacity: 1; white-space: pre;">50</text></g><g class="xtick"><text text-anchor="middle" x="0" y="435" transform="translate(381.4,0)" style="font-family: 'Open Sans', verdana, arial, sans-serif; font-size: 20px; fill: rgb(36, 36, 36); fill-opacity: 1; white-space: pre;">100</text></g><g class="xtick"><text text-anchor="middle" x="0" y="435" transform="translate(527.6,0)" style="font-family: 'Open Sans', verdana, arial, sans-serif; font-size: 20px; fill: rgb(36, 36, 36); fill-opacity: 1; white-space: pre;">150</text></g><g class="xtick"><text text-anchor="middle" x="0" y="435" transform="translate(673.8,0)" style="font-family: 'Open Sans', verdana, arial, sans-serif; font-size: 20px; fill: rgb(36, 36, 36); fill-opacity: 1; white-space: pre;">200</text></g><g class="xtick"><text text-anchor="middle" x="0" y="435" transform="translate(820,0)" style="font-family: 'Open Sans', verdana, arial, sans-serif; font-size: 20px; fill: rgb(36, 36, 36); fill-opacity: 1; white-space: pre;">250</text></g></g><g class="yaxislayer-above"><path class="ytick ticks crisp" d="M88,0h-5" transform="translate(0,389.75)" style="stroke: rgb(68, 68, 68); stroke-opacity: 1; stroke-width: 1px;"/><path class="ytick ticks crisp" d="M88,0h-5" transform="translate(0,333.82)" style="stroke: rgb(68, 68, 68); stroke-opacity: 1; stroke-width: 1px;"/><path class="ytick ticks crisp" d="M88,0h-5" transform="translate(0,277.89)" style="stroke: rgb(68, 68, 68); stroke-opacity: 1; stroke-width: 1px;"/><path class="ytick ticks crisp" d="M88,0h-5" transform="translate(0,221.95999999999998)" style="stroke: rgb(68, 68, 68); stroke-opacity: 1; stroke-width: 1px;"/><path class="ytick ticks crisp" d="M88,0h-5" transform="translate(0,166.03)" style="stroke: rgb(68, 68, 68); stroke-opacity: 1; stroke-width: 1px;"/><path class="ytick ticks crisp" d="M88,0h-5" transform="translate(0,110.1)" style="stroke: rgb(68, 68, 68); stroke-opacity: 1; stroke-width: 1px;"/><g class="ytick"><text text-anchor="end" x="79" y="7" transform="translate(0,389.75)" style="font-family: 'Open Sans', verdana, arial, sans-serif; font-size: 20px; fill: rgb(36, 36, 36); fill-opacity: 1; white-space: pre;">−65</text></g><g class="ytick"><text text-anchor="end" x="79" y="7" transform="translate(0,333.82)" style="font-family: 'Open Sans', verdana, arial, sans-serif; font-size: 20px; fill: rgb(36, 36, 36); fill-opacity: 1; white-space: pre;">−60</text></g><g class="ytick"><text text-anchor="end" x="79" y="7" transform="translate(0,277.89)" style="font-family: 'Open Sans', verdana, arial, sans-serif; font-size: 20px; fill: rgb(36, 36, 36); fill-opacity: 1; white-space: pre;">−55</text></g><g class="ytick"><text text-anchor="end" x="79" y="7" transform="translate(0,221.95999999999998)" style="font-family: 'Open Sans', verdana, arial, sans-serif; font-size: 20px; fill: rgb(36, 36, 36); fill-opacity: 1; white-space: pre;">−50</text></g><g class="ytick"><text text-anchor="end" x="79" y="7" transform="translate(0,166.03)" style="font-family: 'Open Sans', verdana, arial, sans-serif; font-size: 20px; fill: rgb(36, 36, 36); fill-opacity: 1; white-space: pre;">−45</text></g><g class="ytick"><text text-anchor="end" x="79" y="7" transform="translate(0,110.1)" style="font-family: 'Open Sans', verdana, arial, sans-serif; font-size: 20px; fill: rgb(36, 36, 36); fill-opacity: 1; white-space: pre;">−40</text></g></g><g class="overaxes-above"/></g></g><g class="polarlayer"/><g class="ternarylayer"/><g class="geolayer"/><g class="funnelarealayer"/><g class="pielayer"/><g class="treemaplayer"/><g class="sunburstlayer"/><g class="glimages"/><defs id="topdefs-5e301d"><g class="clips"/><clipPath id="legend5e301d"><rect width="534" height="90" x="1" y="1"/></clipPath></defs><g class="layer-above"><g class="imagelayer"/><g class="shapelayer"/></g><g class="infolayer"><g class="legend" pointer-events="all" transform="translate(89, 496.5)"><rect class="bg" shape-rendering="crispEdges" width="535" height="91" x="0.5" y="0.5" style="stroke: rgb(5, 5, 25); stroke-opacity: 0; fill: rgb(5, 5, 25); fill-opacity: 0; stroke-width: 1px;"/><g class="scrollbox" transform="translate(0, 0)" clip-path="url('#legend5e301d')"><g class="groups"><g class="traces" transform="translate(1, 19.200000000000003)" style="opacity: 1;"><text class="legendtext user-select-none" text-anchor="start" x="40" y="7.0200000000000005" style="font-family: 'Open Sans', verdana, arial, sans-serif; font-size: 18px; fill: rgb(0, 0, 0); fill-opacity: 1; white-space: pre;">Уровень сброса</text><g class="layers" style="opacity: 0.5;"><g class="legendfill"/><g class="legendlines"><path class="js-line" d="M5,0h30" style="fill: none; stroke: rgb(44, 160, 44); stroke-opacity: 1; stroke-dasharray: 9px, 9px; stroke-width: 3px;"/></g><g class="legendsymbols"><g class="legendpoints"/></g></g><rect class="legendtoggle" pointer-events="all" x="0" y="-13.200000000000001" width="178.171875" height="26.400000000000002" style="cursor: pointer; fill: rgb(0, 0, 0); fill-opacity: 0;"/></g><g class="traces" transform="translate(321.171875, 19.200000000000003)" style="opacity: 1;"><text class="legendtext user-select-none" text-anchor="start" x="40" y="7.0200000000000005" style="font-family: 'Open Sans', verdana, arial, sans-serif; font-size: 18px; fill: rgb(0, 0, 0); fill-opacity: 1; white-space: pre;">Порог активации</text><g class="layers" style="opacity: 0.5;"><g class="legendfill"/><g class="legendlines"><path class="js-line" d="M5,0h30" style="fill: none; stroke: rgb(214, 39, 40); stroke-opacity: 1; stroke-dasharray: 9px, 9px; stroke-width: 3px;"/></g><g class="legendsymbols"><g class="legendpoints"/></g></g><rect class="legendtoggle" pointer-events="all" x="0" y="-13.200000000000001" width="183.21875" height="26.400000000000002" style="cursor: pointer; fill: rgb(0, 0, 0); fill-opacity: 0;"/></g><g class="traces" transform="translate(1, 45.6)" style="opacity: 1;"><text class="legendtext user-select-none" text-anchor="start" x="40" y="7.0200000000000005" style="font-family: 'Open Sans', verdana, arial, sans-serif; font-size: 18px; fill: rgb(0, 0, 0); fill-opacity: 1; white-space: pre;">Уровень релаксации</text><g class="layers" style="opacity: 0.5;"><g class="legendfill"/><g class="legendlines"><path class="js-line" d="M5,0h30" style="fill: none; stroke: rgb(148, 103, 189); stroke-opacity: 1; stroke-dasharray: 9px, 9px; stroke-width: 3px;"/></g><g class="legendsymbols"><g class="legendpoints"/></g></g><rect class="legendtoggle" pointer-events="all" x="0" y="-13.200000000000001" width="215.296875" height="26.400000000000002" style="cursor: pointer; fill: rgb(0, 0, 0); fill-opacity: 0;"/></g><g class="traces" transform="translate(321.171875, 45.6)" style="opacity: 1;"><text class="legendtext user-select-none" text-anchor="start" x="40" y="7.0200000000000005" style="font-family: 'Open Sans', verdana, arial, sans-serif; font-size: 18px; fill: rgb(0, 0, 0); fill-opacity: 1; white-space: pre;">Потенциал нейрона</text><g class="layers" style="opacity: 1;"><g class="legendfill"/><g class="legendlines"><path class="js-line" d="M5,0h30" style="fill: none; stroke: rgb(31, 119, 180); stroke-opacity: 1; stroke-width: 1px;"/></g><g class="legendsymbols"><g class="legendpoints"/></g></g><rect class="legendtoggle" pointer-events="all" x="0" y="-13.200000000000001" width="210.90625" height="26.400000000000002" style="cursor: pointer; fill: rgb(0, 0, 0); fill-opacity: 0;"/></g><g class="traces" transform="translate(1, 72)" style="opacity: 1;"><text class="legendtext user-select-none" text-anchor="start" x="40" y="7.0200000000000005" style="font-family: 'Open Sans', verdana, arial, sans-serif; font-size: 18px; fill: rgb(0, 0, 0); fill-opacity: 1; white-space: pre;">Моменты спайков этого нейрона</text><g class="layers" style="opacity: 1;"><g class="legendfill"/><g class="legendlines"/><g class="legendsymbols"><g class="legendpoints"><path class="scatterpts" transform="translate(20,0)" d="M3,0A3,3 0 1,1 0,-3A3,3 0 0,1 3,0Z" style="opacity: 1; stroke-width: 0px; fill: rgb(255, 127, 14); fill-opacity: 1;"/></g></g></g><rect class="legendtoggle" pointer-events="all" x="0" y="-13.200000000000001" width="317.671875" height="26.400000000000002" style="cursor: pointer; fill: rgb(0, 0, 0); fill-opacity: 0;"/></g></g></g><rect class="scrollbar" rx="20" ry="3" width="0" height="0" x="0" y="0" style="fill: rgb(128, 139, 164); fill-opacity: 1;"/></g><g class="g-gtitle"/><g class="g-xtitle"><text class="xtitle" x="454.5" y="470.8" text-anchor="middle" style="font-family: 'Open Sans', verdana, arial, sans-serif; font-size: 24px; fill: rgb(36, 36, 36); opacity: 1; font-weight: normal; white-space: pre;">Время, мс</text></g><g class="g-ytitle" transform="translate(9.7373046875,0)"><text class="ytitle" transform="rotate(-90,12.262500000000003,252.5)" x="12.262500000000003" y="252.5" text-anchor="middle" style="font-family: 'Open Sans', verdana, arial, sans-serif; font-size: 24px; fill: rgb(36, 36, 36); opacity: 1; font-weight: normal; white-space: pre;">Напряжение, мВ</text></g></g></svg>