<svg class="main-svg" xmlns="http://www.w3.org/2000/svg" xmlns:xlink="http://www.w3.org/1999/xlink" width="800" height="500" style="" viewBox="0 0 800 500"><rect x="0" y="0" width="800" height="500" style="fill: rgb(255, 255, 255); fill-opacity: 1;"/><defs id="defs-f7ef79"><g class="clips"><clipPath id="clipf7ef79xyplot" class="plotclip"><rect width="633" height="268"/></clipPath><clipPath class="axesclip" id="clipf7ef79x"><rect x="87" y="0" width="633" height="500"/></clipPath><clipPath class="axesclip" id="clipf7ef79y"><rect x="0" y="100" width="800" height="268"/></clipPath><clipPath class="axesclip" id="clipf7ef79xy"><rect x="87" y="100" width="633" height="268"/></clipPath></g><g class="gradients"/></defs><g class="bglayer"><rect class="bg" x="87" y="100" width="633" height="268" style="fill: rgb(229, 236, 246); fill-opacity: 1; stroke-width: 0;"/></g><g class="layer-below"><g class="imagelayer"/><g class="shapelayer"/></g><g class="cartesianlayer"><g class="subplot xy"><g class="layer-subplot"><g class="shapelayer"/><g class="imagelayer"/></g><g class="gridlayer"><g class="x"><path class="xgrid crisp" transform="translate(213.6,0)" d="M0,100v268" style="stroke: rgb(255, 255, 255); stroke-opacity: 1; stroke-width: 1px;"/><path class="xgrid crisp" transform="translate(340.2,0)" d="M0,100v268" style="stroke: rgb(255, 255, 255); stroke-opacity: 1; stroke-width: 1px;"/><path class="xgrid crisp" transform="translate(466.8,0)" d="M0,100v268" style="stroke: rgb(255, 255, 255); stroke-opacity: 1; stroke-width: 1px;"/><path class="xgrid crisp" transform="translate(593.4,0)" d="M0,100v268" style="stroke: rgb(255, 255, 255); stroke-opacity: 1; stroke-width: 1px;"/></g><g class="y"><path class="ygrid crisp" transform="translate(0,354.6)" d="M87,0h633" style="stroke: rgb(255, 255, 255); stroke-opacity: 1; stroke-width: 1px;"/><path class="ygrid crisp" transform="translate(0,275.45)" d="M87,0h633" style="stroke: rgb(255, 255, 255); stroke-opacity: 1; stroke-width: 1px;"/><path class="ygrid crisp" transform="translate(0,196.3)" d="M87,0h633" style="stroke: rgb(255, 255, 255); stroke-opacity: 1; stroke-width: 1px;"/><path class="ygrid crisp" transform="translate(0,117.15)" d="M87,0h633" style="stroke: rgb(255, 255, 255); stroke-opacity: 1; stroke-width: 1px;"/></g></g><g class="zerolinelayer"><path class="xzl zl crisp" transform="translate(87,0)" d="M0,100v268" style="stroke: rgb(0, 44, 117); stroke-opacity: 1; stroke-width: 2px;"/></g><path class="xlines-below"/><path class="ylines-below"/><g class="overlines-below"/><g class="xaxislayer-below"/><g class="yaxislayer-below"/><g class="overaxes-below"/><g class="plot" transform="translate(87, 100)" clip-path="url('#clipf7ef79xyplot')"><g class="scatterlayer mlayer"><g class="trace scatter trace644224" style="stroke-miterlimit: 2; opacity: 0.5;"><g class="fills"/><g class="errorbars"/><g class="lines"><path class="js-line" d="M0,254.6H633V254.6" style="vector-effect: non-scaling-stroke; fill: none; stroke: rgb(0, 204, 150); stroke-opacity: 1; stroke-width: 3px; opacity: 1; stroke-dasharray: 9px, 9px;"/></g><g class="points"/><g class="text"/></g><g class="trace scatter trace17fd7a" style="stroke-miterlimit: 2; opacity: 0.5;"><g class="fills"/><g class="errorbars"/><g class="lines"><path class="js-line" d="M0,17.15H2.53V17.15H5.06V17.15H7.6V17.15H10.13V17.15H12.66V17.15H15.19V17.15H17.72V17.15H20.26V17.15H22.79V17.15H25.32V17.15H27.85V17.15H30.38V17.15H32.92V17.15H35.45V17.15H37.98V17.15H40.51V17.15H43.04V17.15H45.58V17.15H48.11V17.15H50.64V17.15H53.17V17.15H55.7V17.15H58.24V17.15H60.77V17.15H63.3V17.15H65.83V17.15H68.36V17.15H70.9V17.15H73.43V17.15H75.96V17.15H78.49V17.15H81.02V17.15H83.56V17.15H86.09V17.15H88.62V17.15H91.15V17.15H93.68V17.15H96.22V17.15H98.75V17.15H101.28V17.15H103.81V17.15H106.34V17.15H108.88V17.15H111.41V17.15H113.94V17.15H116.47V17.15H119V17.15H121.54V17.15H124.07V17.15H126.6V17.15H129.13V17.15H131.66V17.15H134.2V17.15H136.73V17.15H139.26V17.15H141.79V17.15H144.32V17.15H146.86V17.15H149.39V17.15H151.92V17.15H154.45V17.15H156.98V17.15H159.52V17.15H162.05V17.15H164.58V17.15H167.11V17.15H169.64V17.15H172.18V17.15H174.71V17.15H177.24V17.15H179.77V17.15H182.3V17.15H184.84V17.15H187.37V17.15H189.9V17.15H192.43V17.15H194.96V17.15H197.5V17.15H200.03V17.15H202.56V17.15H205.09V17.15H207.62V17.15H210.16V17.15H212.69V17.15H215.22V17.15H217.75V17.15H220.28V17.15H222.82V17.15H225.35V17.15H227.88V17.15H230.41V17.15H232.94V17.15H235.48V17.15H238.01V17.15H240.54V17.15H243.07V17.15H245.6V17.15H248.14V17.15H250.67V17.15H253.2V17.15H255.73V17.15H258.26V17.15H260.8V17.15H263.33V17.15H265.86V17.15H268.39V17.15H270.92V17.15H273.46V17.15H275.99V17.15H278.52V17.15H281.05V17.15H283.58V17.15H286.12V17.15H288.65V17.15H291.18V17.15H293.71V17.15H296.24V17.15H298.78V17.15H301.31V17.15H303.84V17.15H306.37V17.15H308.9V17.15H311.44V17.15H313.97V17.15H316.5V17.15H319.03V17.15H321.56V17.15H324.1V17.15H326.63V17.15H329.16V17.15H331.69V17.15H334.22V17.15H336.76V17.15H339.29V17.15H341.82V17.15H344.35V17.15H346.88V17.15H349.42V17.15H351.95V17.15H354.48V17.15H357.01V17.15H359.54V17.15H362.08V17.15H364.61V17.15H367.14V17.15H369.67V17.15H372.2V17.15H374.74V17.15H377.27V17.15H379.8V17.15H382.33V17.15H384.86V17.15H387.4V17.15H389.93V17.15H392.46V17.15H394.99V17.15H397.52V17.15H400.06V17.15H402.59V17.15H405.12V17.15H407.65V17.15H410.18V17.15H412.72V17.15H415.25V17.15H417.78V17.15H420.31V17.15H422.84V17.15H425.38V17.15H427.91V17.15H430.44V17.15H432.97V17.15H435.5V17.15H438.04V17.15H440.57V17.15H443.1V17.15H445.63V17.15H448.16V17.15H450.7V17.15H453.23V17.15H455.76V17.15H458.29V17.15H460.82V17.15H463.36V17.15H465.89V17.15H468.42V17.15H470.95V17.15H473.48V17.15H476.02V17.15H478.55V17.15H481.08V17.15H483.61V17.15H486.14V17.15H488.68V17.15H491.21V17.15H493.74V17.15H496.27V17.15H498.8V17.15H501.34V17.15H503.87V17.15H506.4V17.15H508.93V17.15H511.46V17.15H514V17.15H516.53V17.15H519.06V17.15H521.59V17.15H524.12V17.15H526.66V17.15H529.19V17.15H531.72V17.15H534.25V17.15H536.78V17.15H539.32V17.15H541.85V17.15H544.38V17.15H546.91V17.15H549.44V17.15H551.98V17.15H554.51V17.15H557.04V17.15H559.57V17.15H562.1V17.15H564.64V17.15H567.17V17.15H569.7V17.15H572.23V17.15H574.76V17.15H577.3V17.15H579.83V17.15H582.36V17.15H584.89V17.15H587.42V17.15H589.96V17.15H592.49V17.15H595.02V17.15H597.55V17.15H600.08V17.15H602.62V17.15H605.15V17.15H607.68V17.15H610.21V17.15H612.74V17.15H615.28V17.15H617.81V17.15H620.34V17.15H622.87V17.15H625.4V17.15H627.94V17.15H630.47V17.15" style="vector-effect: non-scaling-stroke; fill: none; stroke: rgb(171, 99, 250); stroke-opacity: 1; stroke-width: 3px; opacity: 1; stroke-dasharray: 9px, 9px;"/></g><g class="points"/><g class="text"/></g><g class="trace scatter trace4c4dfd" style="stroke-miterlimit: 2; opacity: 1;"><g class="fills"/><g class="errorbars"/><g class="lines"><path class="js-line" d="M0,254.6H2.53V254.6H5.06V254.6H7.6V254.6H10.13V254.6H12.66V254.6H15.19V254.6H17.72V254.6H20.26V254.6H22.79V254.6H25.32V254.6H27.85V254.6H30.38V254.6H32.92V254.6H35.45V254.6H37.98V254.6H40.51V254.6H43.04V254.6H45.58V254.6H48.11V254.6H50.64V254.6H53.17V254.6H55.7V254.6H58.24V248.4H60.77V248.4H63.3V248.4H65.83V248.4H68.36V236.3H70.9V236.3H73.43V223.67H75.96V215.63H78.49V193.92H81.02V193.92H83.56V176.52H86.09V146.64H88.62V131.26H91.15V122.78H93.68V122.78H96.22V122.78H98.75V122.78H101.28V109.14H103.81V101.54H106.34V78.35H108.88V76.19H111.41V69.58H113.94V45.9H116.47V45.9H119V36.05H121.54V19.49H124.07V19.49H126.6V17.15H129.13V254.6H131.66V254.6H134.2V254.6H136.73V254.6H139.26V254.6H141.79V254.6H144.32V254.6H146.86V254.6H149.39V254.6H151.92V254.6H154.45V254.6H156.98V246.12H159.52V224.61H162.05V202.16H164.58V197.14H167.11V197.14H169.64V182.81H172.18V177.5H174.71V166.1H177.24V166.1H179.77V166.1H182.3V166.1H184.84V159.02H187.37V155.05H189.9V155.05H192.43V155.05H194.96V130.8H197.5V130.8H200.03V124.22H202.56V124.22H205.09V116.61H207.62V103.75H210.16V103.75H212.69V97.17H215.22V84.69H217.75V75.11H220.28V68.5H222.82V53.81H225.35V53.81H227.88V47.05H230.41V18.72H232.94V17.15H235.48V254.6H238.01V254.6H240.54V254.6H243.07V254.6H245.6V254.6H248.14V254.6H250.67V254.6H253.2V254.6H255.73V254.6H258.26V254.6H260.8V248.56H263.33V224.25H265.86V224.25H268.39V224.25H270.92V224.25H273.46V224.25H275.99V224.25H278.52V224.25H281.05V211.32H283.58V211.32H286.12V204.73H288.65V197.49H291.18V178.13H293.71V164.18H296.24V164.18H298.78V164.18H301.31V153.12H303.84V153.12H306.37V132.95H308.9V107.9H311.44V84.68H313.97V84.68H316.5V77.91H319.03V58.11H321.56V58.11H324.1V53.08H326.63V31.21H329.16V29.49H331.69V21.89H334.22V17.15H336.76V254.6H339.29V254.6H341.82V254.6H344.35V254.6H346.88V254.6H349.42V254.6H351.95V254.6H354.48V254.6H357.01V254.6H359.54V254.6H362.08V253.43H364.61V246.84H367.14V224.52H369.67V224.52H372.2V211.89H374.74V211.89H377.27V211.89H379.8V205.31H382.33V203.26H384.86V203.26H387.4V197.73H389.93V188.15H392.46V177.57H394.99V174.39H397.52V174.39H400.06V149.11H402.59V133.92H405.12V127.72H407.65V127.72H410.18V127.72H412.72V96.76H415.25V79.4H417.78V55.39H420.31V46.68H422.84V41.37H425.38V41.37H427.91V32.89H430.44V32.89H432.97V25.29H435.5V24.36H438.04V17.15H440.57V254.6H443.1V254.6H445.63V254.6H448.16V254.6H450.7V254.6H453.23V254.6H455.76V254.6H458.29V254.6H460.82V254.6H463.36V254.6H465.89V232.39H468.42V225.78H470.95V213.67H473.48V213.67H476.02V209.7H478.55V195.56H481.08V195.56H483.61V185.68H486.14V185.68H488.68V176.01H491.21V176.01H493.74V176.01H496.27V176.01H498.8V144.39H501.34V136.81H503.87V136.81H506.4V126.1H508.93V123.09H511.46V123.09H514V116.89H516.53V116.89H519.06V116.89H521.59V95.48H524.12V95.48H526.66V78.87H529.19V76.71H531.72V61.32H534.25V61.32H536.78V36.67H539.32V17.15H541.85V254.6H544.38V254.6H546.91V254.6H549.44V254.6H551.98V254.6H554.51V254.6H557.04V254.6H559.57V254.6H562.1V254.6H564.64V254.6H567.17V254.6H569.7V254.6H572.23V229.11H574.76V192.83H577.3V180.35H579.83V174.34H582.36V165.86H584.89V165.86H587.42V162.85H589.96V157.53H592.49V153.78H595.02V145.07H597.55V145.07H600.08V143.91H602.62V137.71H605.15V115.75H607.68V115.75H610.21V115.75H612.74V100.36H615.28V81.73H617.81V75.61H620.34V70.08H622.87V70.08H625.4V62.48H627.94V62.48H630.47V55.89" style="vector-effect: non-scaling-stroke; fill: none; stroke: rgb(99, 110, 250); stroke-opacity: 1; stroke-width: 2px; opacity: 1;"/></g><g class="points"/><g class="text"/></g><g class="trace scatter trace4fe446" style="stroke-miterlimit: 2; opacity: 1;"><g class="fills"/><g class="errorbars"/><g class="lines"/><g class="points"><path class="point" transform="translate(126.6,17.15)" d="M3,0A3,3 0 1,1 0,-3A3,3 0 0,1 3,0Z" style="opacity: 1; stroke-width: 0px; fill: rgb(239, 85, 59); fill-opacity: 1;"/><path class="point" transform="translate(232.94,17.15)" d="M3,0A3,3 0 1,1 0,-3A3,3 0 0,1 3,0Z" style="opacity: 1; stroke-width: 0px; fill: rgb(239, 85, 59); fill-opacity: 1;"/><path class="point" transform="translate(334.22,17.15)" d="M3,0A3,3 0 1,1 0,-3A3,3 0 0,1 3,0Z" style="opacity: 1; stroke-width: 0px; fill: rgb(239, 85, 59); fill-opacity: 1;"/><path class="point" transform="translate(438.04,17.15)" d="M3,0A3,3 0 1,1 0,-3A3,3 0 0,1 3,0Z" style="opacity: 1; stroke-width: 0px; fill: rgb(239, 85, 59); fill-opacity: 1;"/><path class="point" transform="translate(539.32,17.15)" d="M3,0A3,3 0 1,1 0,-3A3,3 0 0,1 3,0Z" style="opacity: 1; stroke-width: 0px; fill: rgb(239, 85, 59); fill-opacity: 1;"/></g><g class="text"/></g></g></g><g class="overplot"/><path class="xlines-above crisp" d="M0,0" style="fill: none;"/><path class="ylines-above crisp" d="M0,0" style="fill: none;"/><g class="overlines-above"/><g class="xaxislayer-above"><g class="xtick"><text text-anchor="middle" x="0" y="389" transform="translate(87,0)" style="font-family: 'Open Sans', verdana, arial, sans-serif; font-size: 20px; fill: rgb(42, 63, 95); fill-opacity: 1; white-space: pre;">0</text></g><g class="xtick"><text text-anchor="middle" x="0" y="389" transform="translate(213.6,0)" style="font-family: 'Open Sans', verdana, arial, sans-serif; font-size: 20px; fill: rgb(42, 63, 95); fill-opacity: 1; white-space: pre;">50</text></g><g class="xtick"><text text-anchor="middle" x="0" y="389" transform="translate(340.2,0)" style="font-family: 'Open Sans', verdana, arial, sans-serif; font-size: 20px; fill: rgb(42, 63, 95); fill-opacity: 1; white-space: pre;">100</text></g><g class="xtick"><text text-anchor="middle" x="0" y="389" transform="translate(466.8,0)" style="font-family: 'Open Sans', verdana, arial, sans-serif; font-size: 20px; fill: rgb(42, 63, 95); fill-opacity: 1; white-space: pre;">150</text></g><g class="xtick"><text text-anchor="middle" x="0" y="389" transform="translate(593.4,0)" style="font-family: 'Open Sans', verdana, arial, sans-serif; font-size: 20px; fill: rgb(42, 63, 95); fill-opacity: 1; white-space: pre;">200</text></g><g class="xtick"><text text-anchor="middle" x="0" y="389" transform="translate(720,0)" style="font-family: 'Open Sans', verdana, arial, sans-serif; font-size: 20px; fill: rgb(42, 63, 95); fill-opacity: 1; white-space: pre;">250</text></g></g><g class="yaxislayer-above"><g class="ytick"><text text-anchor="end" x="86" y="7" transform="translate(0,354.6)" style="font-family: 'Open Sans', verdana, arial, sans-serif; font-size: 20px; fill: rgb(42, 63, 95); fill-opacity: 1; white-space: pre;">−65</text></g><g class="ytick"><text text-anchor="end" x="86" y="7" transform="translate(0,275.45)" style="font-family: 'Open Sans', verdana, arial, sans-serif; font-size: 20px; fill: rgb(42, 63, 95); fill-opacity: 1; white-space: pre;">−60</text></g><g class="ytick"><text text-anchor="end" x="86" y="7" transform="translate(0,196.3)" style="font-family: 'Open Sans', verdana, arial, sans-serif; font-size: 20px; fill: rgb(42, 63, 95); fill-opacity: 1; white-space: pre;">−55</text></g><g class="ytick"><text text-anchor="end" x="86" y="7" transform="translate(0,117.15)" style="font-family: 'Open Sans', verdana, arial, sans-serif; font-size: 20px; fill: rgb(42, 63, 95); fill-opacity: 1; white-space: pre;">−50</text></g></g><g class="overaxes-above"/></g></g><g class="polarlayer"/><g class="ternarylayer"/><g class="geolayer"/><g class="funnelarealayer"/><g class="pielayer"/><g class="treemaplayer"/><g class="sunburstlayer"/><g class="glimages"/><defs id="topdefs-f7ef79"><g class="clips"/><clipPath id="legendf7ef79"><rect width="105" height="37" x="1" y="1"/></clipPath></defs><g class="layer-above"><g class="imagelayer"/><g class="shapelayer"/></g><g class="infolayer"><g class="legend" pointer-events="all" transform="translate(87, 448.40000000000003)"><rect class="bg" shape-rendering="crispEdges" width="106" height="38" x="0.5" y="0.5" style="stroke: rgb(0, 0, 0); stroke-opacity: 1; fill: rgb(25, 211, 243); fill-opacity: 0.1; stroke-width: 1px;"/><g class="scrollbox" transform="translate(0, 0)" clip-path="url('#legendf7ef79')"><g class="groups"><g class="traces" transform="translate(1, 19.200000000000003)" style="opacity: 1;"><text class="legendtext user-select-none" text-anchor="start" x="40" y="7.0200000000000005" style="font-family: 'Open Sans', verdana, arial, sans-serif; font-size: 18px; fill: rgb(0, 0, 0); fill-opacity: 1; white-space: pre;">Reset potential</text><g class="layers" style="opacity: 0.5;"><g class="legendfill"/><g class="legendlines"><path class="js-line" d="M5,0h30" style="fill: none; stroke: rgb(0, 204, 150); stroke-opacity: 1; stroke-dasharray: 9px, 9px; stroke-width: 3px;"/></g><g class="legendsymbols"><g class="legendpoints"/></g></g><rect class="legendtoggle" pointer-events="all" x="0" y="-13.200000000000001" width="177.953125" height="26.400000000000002" style="cursor: pointer; fill: rgb(0, 0, 0); fill-opacity: 0;"/></g><g class="traces" transform="translate(181.453125, 19.200000000000003)" style="opacity: 1;"><text class="legendtext user-select-none" text-anchor="start" x="40" y="7.0200000000000005" style="font-family: 'Open Sans', verdana, arial, sans-serif; font-size: 18px; fill: rgb(0, 0, 0); fill-opacity: 1; white-space: pre;">Activation threshhold</text><g class="layers" style="opacity: 0.5;"><g class="legendfill"/><g class="legendlines"><path class="js-line" d="M5,0h30" style="fill: none; stroke: rgb(171, 99, 250); stroke-opacity: 1; stroke-dasharray: 9px, 9px; stroke-width: 3px;"/></g><g class="legendsymbols"><g class="legendpoints"/></g></g><rect class="legendtoggle" pointer-events="all" x="0" y="-13.200000000000001" width="235.140625" height="26.400000000000002" style="cursor: pointer; fill: rgb(0, 0, 0); fill-opacity: 0;"/></g><g class="traces" transform="translate(419.09375, 19.200000000000003)" style="opacity: 1;"><text class="legendtext user-select-none" text-anchor="start" x="40" y="7.0200000000000005" style="font-family: 'Open Sans', verdana, arial, sans-serif; font-size: 18px; fill: rgb(0, 0, 0); fill-opacity: 1; white-space: pre;">Voltage</text><g class="layers" style="opacity: 1;"><g class="legendfill"/><g class="legendlines"><path class="js-line" d="M5,0h30" style="fill: none; stroke: rgb(99, 110, 250); stroke-opacity: 1; stroke-width: 2px;"/></g><g class="legendsymbols"><g class="legendpoints"/></g></g><rect class="legendtoggle" pointer-events="all" x="0" y="-13.200000000000001" width="110.921875" height="26.400000000000002" style="cursor: pointer; fill: rgb(0, 0, 0); fill-opacity: 0;"/></g><g class="traces" transform="translate(1, 45.6)" style="opacity: 1;"><text class="legendtext user-select-none" text-anchor="start" x="40" y="7.0200000000000005" style="font-family: 'Open Sans', verdana, arial, sans-serif; font-size: 18px; fill: rgb(0, 0, 0); fill-opacity: 1; white-space: pre;">Spikes</text><g class="layers" style="opacity: 1;"><g class="legendfill"/><g class="legendlines"/><g class="legendsymbols"><g class="legendpoints"><path class="scatterpts" transform="translate(20,0)" d="M3,0A3,3 0 1,1 0,-3A3,3 0 0,1 3,0Z" style="opacity: 1; stroke-width: 0px; fill: rgb(239, 85, 59); fill-opacity: 1;"/></g></g></g><rect class="legendtoggle" pointer-events="all" x="0" y="-13.200000000000001" width="101.546875" height="26.400000000000002" style="cursor: pointer; fill: rgb(0, 0, 0); fill-opacity: 0;"/></g></g></g><rect class="scrollbar" rx="20" ry="3" width="0" height="0" x="0" y="0" style="fill: rgb(128, 139, 164); fill-opacity: 1;"/></g><g class="g-gtitle"><text class="gtitle" x="40" y="50" text-anchor="start" dy="0em" style="font-family: 'Open Sans', verdana, arial, sans-serif; font-size: 17px; fill: rgb(42, 63, 95); opacity: 1; font-weight: normal; white-space: pre;">if</text></g><g class="g-xtitle"><text class="xtitle" x="403.5" y="424.8" text-anchor="middle" style="font-family: 'Open Sans', verdana, arial, sans-serif; font-size: 24px; fill: rgb(42, 63, 95); opacity: 1; font-weight: normal; white-space: pre;">Time</text></g><g class="g-ytitle" transform="translate(11.5966796875,0)"><text class="ytitle" transform="rotate(-90,12.403125000000003,234)" x="12.403125000000003" y="234" text-anchor="middle" style="font-family: 'Open Sans', verdana, arial, sans-serif; font-size: 24px; fill: rgb(42, 63, 95); opacity: 1; font-weight: normal; white-space: pre;">Voltage</text></g></g></svg>